%TF.GenerationSoftware,KiCad,Pcbnew,8.0.0*%
%TF.CreationDate,2024-05-31T15:26:32-05:00*%
%TF.ProjectId,GaussMouse,47617573-734d-46f7-9573-652e6b696361,rev?*%
%TF.SameCoordinates,Original*%
%TF.FileFunction,Soldermask,Top*%
%TF.FilePolarity,Negative*%
%FSLAX46Y46*%
G04 Gerber Fmt 4.6, Leading zero omitted, Abs format (unit mm)*
G04 Created by KiCad (PCBNEW 8.0.0) date 2024-05-31 15:26:32*
%MOMM*%
%LPD*%
G01*
G04 APERTURE LIST*
G04 Aperture macros list*
%AMRoundRect*
0 Rectangle with rounded corners*
0 $1 Rounding radius*
0 $2 $3 $4 $5 $6 $7 $8 $9 X,Y pos of 4 corners*
0 Add a 4 corners polygon primitive as box body*
4,1,4,$2,$3,$4,$5,$6,$7,$8,$9,$2,$3,0*
0 Add four circle primitives for the rounded corners*
1,1,$1+$1,$2,$3*
1,1,$1+$1,$4,$5*
1,1,$1+$1,$6,$7*
1,1,$1+$1,$8,$9*
0 Add four rect primitives between the rounded corners*
20,1,$1+$1,$2,$3,$4,$5,0*
20,1,$1+$1,$4,$5,$6,$7,0*
20,1,$1+$1,$6,$7,$8,$9,0*
20,1,$1+$1,$8,$9,$2,$3,0*%
%AMRotRect*
0 Rectangle, with rotation*
0 The origin of the aperture is its center*
0 $1 length*
0 $2 width*
0 $3 Rotation angle, in degrees counterclockwise*
0 Add horizontal line*
21,1,$1,$2,0,0,$3*%
G04 Aperture macros list end*
%ADD10R,1.700000X1.700000*%
%ADD11O,1.700000X1.700000*%
%ADD12R,1.000000X0.500000*%
%ADD13R,1.500000X0.800000*%
%ADD14RotRect,1.000000X0.550000X30.000000*%
%ADD15RotRect,0.550000X1.200000X30.000000*%
%ADD16RotRect,0.700000X1.200000X30.000000*%
%ADD17RotRect,0.450000X1.200000X30.000000*%
%ADD18C,4.500000*%
%ADD19RoundRect,0.250000X-0.250000X-0.475000X0.250000X-0.475000X0.250000X0.475000X-0.250000X0.475000X0*%
%ADD20RotRect,1.000000X0.550000X300.000000*%
%ADD21RotRect,0.550000X1.200000X300.000000*%
%ADD22RotRect,0.700000X1.200000X300.000000*%
%ADD23RotRect,0.450000X1.200000X300.000000*%
%ADD24RoundRect,0.375000X-0.625000X-0.375000X0.625000X-0.375000X0.625000X0.375000X-0.625000X0.375000X0*%
%ADD25RoundRect,0.500000X-0.500000X-1.400000X0.500000X-1.400000X0.500000X1.400000X-0.500000X1.400000X0*%
%ADD26RotRect,1.000000X0.550000X330.000000*%
%ADD27RotRect,0.550000X1.200000X330.000000*%
%ADD28RotRect,0.700000X1.200000X330.000000*%
%ADD29RotRect,0.450000X1.200000X330.000000*%
%ADD30RoundRect,0.250000X-0.262500X-0.450000X0.262500X-0.450000X0.262500X0.450000X-0.262500X0.450000X0*%
%ADD31RoundRect,0.250000X0.250000X0.475000X-0.250000X0.475000X-0.250000X-0.475000X0.250000X-0.475000X0*%
%ADD32RoundRect,0.150000X-0.587500X-0.150000X0.587500X-0.150000X0.587500X0.150000X-0.587500X0.150000X0*%
%ADD33C,0.650000*%
%ADD34R,0.250000X1.400000*%
%ADD35O,1.000000X2.100000*%
%ADD36O,1.000000X1.800000*%
%ADD37RoundRect,0.225000X0.375000X-0.225000X0.375000X0.225000X-0.375000X0.225000X-0.375000X-0.225000X0*%
%ADD38RoundRect,0.250000X0.475000X-0.250000X0.475000X0.250000X-0.475000X0.250000X-0.475000X-0.250000X0*%
%ADD39R,0.900000X0.400000*%
%ADD40RoundRect,0.150000X-0.512500X-0.150000X0.512500X-0.150000X0.512500X0.150000X-0.512500X0.150000X0*%
%ADD41RoundRect,0.250000X0.262500X0.450000X-0.262500X0.450000X-0.262500X-0.450000X0.262500X-0.450000X0*%
%ADD42R,0.600000X1.650000*%
%ADD43R,0.600000X1.850000*%
%ADD44RotRect,1.000000X0.550000X60.000000*%
%ADD45RotRect,0.550000X1.200000X60.000000*%
%ADD46RotRect,0.700000X1.200000X60.000000*%
%ADD47RotRect,0.450000X1.200000X60.000000*%
%ADD48R,0.900000X1.500000*%
%ADD49R,1.500000X0.900000*%
%ADD50C,0.600000*%
%ADD51R,3.900000X3.900000*%
%ADD52RoundRect,0.250000X-0.475000X0.250000X-0.475000X-0.250000X0.475000X-0.250000X0.475000X0.250000X0*%
G04 APERTURE END LIST*
D10*
%TO.C,J3*%
X83625000Y-90615000D03*
D11*
X86165000Y-90615000D03*
X88705000Y-90615000D03*
X91245000Y-90615000D03*
X93785000Y-90615000D03*
%TD*%
D10*
%TO.C,BT1*%
X54700000Y-78460000D03*
D11*
X54700000Y-81000000D03*
%TD*%
D12*
%TO.C,SW5*%
X72200000Y-72600000D03*
X72200000Y-75800000D03*
D13*
X70450000Y-73200000D03*
X73950000Y-73200000D03*
X70450000Y-75200000D03*
X73950000Y-75200000D03*
%TD*%
D12*
%TO.C,SW4*%
X72100000Y-77700000D03*
X72100000Y-80900000D03*
D13*
X70350000Y-78300000D03*
X73850000Y-78300000D03*
X70350000Y-80300000D03*
X73850000Y-80300000D03*
%TD*%
D12*
%TO.C,SW3*%
X72050000Y-82900000D03*
X72050000Y-86100000D03*
D13*
X70300000Y-83500000D03*
X73800000Y-83500000D03*
X70300000Y-85500000D03*
X73800000Y-85500000D03*
%TD*%
D12*
%TO.C,SW2*%
X70600000Y-89600000D03*
X70600000Y-92800000D03*
D13*
X68850000Y-90200000D03*
X72350000Y-90200000D03*
X68850000Y-92200000D03*
X72350000Y-92200000D03*
%TD*%
D12*
%TO.C,SW1*%
X63600000Y-64200000D03*
X63600000Y-67400000D03*
D13*
X61850000Y-64800000D03*
X65350000Y-64800000D03*
X61850000Y-66800000D03*
X65350000Y-66800000D03*
%TD*%
D14*
%TO.C,D2*%
X95205690Y-122822548D03*
D15*
X95438046Y-122775000D03*
D16*
X96412324Y-122212500D03*
D17*
X97300000Y-121700000D03*
D15*
X98166026Y-121200000D03*
D14*
X98328381Y-121031208D03*
%TD*%
D18*
%TO.C,H6*%
X57300000Y-69300000D03*
%TD*%
%TO.C,H9*%
X128825000Y-101715000D03*
%TD*%
D19*
%TO.C,C6*%
X94500000Y-61400000D03*
X96400000Y-61400000D03*
%TD*%
D18*
%TO.C,H8*%
X72000000Y-60200000D03*
%TD*%
D19*
%TO.C,C5*%
X94550000Y-64200000D03*
X96450000Y-64200000D03*
%TD*%
D20*
%TO.C,D4*%
X49923612Y-102935256D03*
D21*
X49971161Y-103167612D03*
D22*
X50533660Y-104141892D03*
D23*
X51046160Y-105029567D03*
D21*
X51546160Y-105895593D03*
D20*
X51714952Y-106057949D03*
%TD*%
D18*
%TO.C,H7*%
X48300000Y-91300000D03*
%TD*%
%TO.C,H1*%
X113900000Y-91400000D03*
%TD*%
D24*
%TO.C,U3*%
X57850000Y-93800000D03*
X57850000Y-96100000D03*
D25*
X64150000Y-96100000D03*
D24*
X57850000Y-98400000D03*
%TD*%
D26*
%TO.C,D3*%
X63814664Y-120647548D03*
D27*
X63972020Y-120825000D03*
D28*
X64946298Y-121387500D03*
D29*
X65833974Y-121900000D03*
D27*
X66700000Y-122400000D03*
D26*
X66927355Y-122456208D03*
%TD*%
D30*
%TO.C,R2*%
X62575000Y-73800000D03*
X64400000Y-73800000D03*
%TD*%
D31*
%TO.C,C10*%
X66800000Y-116400000D03*
X64900000Y-116400000D03*
%TD*%
D32*
%TO.C,Q1*%
X62000000Y-85100000D03*
X62000000Y-87000000D03*
X63875000Y-86050000D03*
%TD*%
D33*
%TO.C,J1*%
X83990000Y-60987500D03*
X78210000Y-60987500D03*
D34*
X84425000Y-62187500D03*
X83625000Y-62187500D03*
X82350000Y-62187500D03*
X81350000Y-62187500D03*
X80850000Y-62187500D03*
X82850000Y-62187500D03*
X78575000Y-62187500D03*
X77775000Y-62187500D03*
X78025000Y-62187500D03*
X78825000Y-62187500D03*
X79350000Y-62187500D03*
X80350000Y-62187500D03*
X81850000Y-62187500D03*
X79850000Y-62187500D03*
X83375000Y-62187500D03*
X84175000Y-62187500D03*
D35*
X85420000Y-61487500D03*
D36*
X85420000Y-57337500D03*
D35*
X76780000Y-61487500D03*
D36*
X76780000Y-57337500D03*
%TD*%
D37*
%TO.C,D9*%
X58077500Y-87527500D03*
X58077500Y-84227500D03*
%TD*%
D38*
%TO.C,C11*%
X55550000Y-104350000D03*
X55550000Y-102450000D03*
%TD*%
D18*
%TO.C,H5*%
X90000000Y-60200000D03*
%TD*%
D39*
%TO.C,RN1*%
X71600000Y-67000000D03*
X71600000Y-67800000D03*
X71600000Y-68600000D03*
X71600000Y-69400000D03*
X73300000Y-69400000D03*
X73300000Y-68600000D03*
X73300000Y-67800000D03*
X73300000Y-67000000D03*
%TD*%
D40*
%TO.C,U1*%
X62300000Y-77300000D03*
X62300000Y-78250000D03*
X62300000Y-79200000D03*
X64575000Y-79200000D03*
X64575000Y-77300000D03*
%TD*%
D41*
%TO.C,R1*%
X88000000Y-63900000D03*
X86175000Y-63900000D03*
%TD*%
D42*
%TO.C,J2*%
X85399969Y-108057298D03*
D43*
X85399969Y-111807298D03*
D42*
X84399968Y-108057298D03*
D43*
X84399968Y-111807298D03*
D42*
X83399968Y-108057298D03*
D43*
X83399968Y-111807298D03*
D42*
X82399968Y-108057298D03*
D43*
X82399968Y-111807298D03*
D42*
X81399984Y-108057298D03*
D43*
X81399984Y-111807298D03*
D42*
X80399968Y-108057298D03*
D43*
X80399968Y-111807298D03*
D42*
X79399968Y-108057298D03*
D43*
X79399968Y-111807298D03*
D42*
X78399968Y-108057298D03*
D43*
X78399968Y-111807298D03*
D42*
X77399968Y-108057298D03*
D43*
X77399968Y-111807298D03*
%TD*%
D44*
%TO.C,D1*%
X110976388Y-105789743D03*
D45*
X111153840Y-105632387D03*
D46*
X111716340Y-104658109D03*
D47*
X112228840Y-103770433D03*
D45*
X112728840Y-102904407D03*
D44*
X112785048Y-102677052D03*
%TD*%
D18*
%TO.C,H4*%
X81400000Y-124200000D03*
%TD*%
D48*
%TO.C,U2*%
X97520000Y-66550000D03*
X96250000Y-66550000D03*
X94980000Y-66550000D03*
X93710000Y-66550000D03*
X92440000Y-66550000D03*
X91170000Y-66550000D03*
X89900000Y-66550000D03*
X88630000Y-66550000D03*
X87360000Y-66550000D03*
X86090000Y-66550000D03*
X84820000Y-66550000D03*
X83550000Y-66550000D03*
X82280000Y-66550000D03*
X81010000Y-66550000D03*
D49*
X79760000Y-68315000D03*
X79760000Y-69585000D03*
X79760000Y-70855000D03*
X79760000Y-72125000D03*
X79760000Y-73395000D03*
X79760000Y-74665000D03*
X79760000Y-75935000D03*
X79760000Y-77205000D03*
X79760000Y-78475000D03*
X79760000Y-79745000D03*
X79760000Y-81015000D03*
X79760000Y-82285000D03*
D48*
X81010000Y-84050000D03*
X82280000Y-84050000D03*
X83550000Y-84050000D03*
X84820000Y-84050000D03*
X86090000Y-84050000D03*
X87360000Y-84050000D03*
X88630000Y-84050000D03*
X89900000Y-84050000D03*
X91170000Y-84050000D03*
X92440000Y-84050000D03*
X93710000Y-84050000D03*
X94980000Y-84050000D03*
X96250000Y-84050000D03*
X97520000Y-84050000D03*
D50*
X90500000Y-72400000D03*
X89100000Y-72400000D03*
X91200000Y-73100000D03*
X89800000Y-73100000D03*
X88400000Y-73100000D03*
X90500000Y-73800000D03*
D51*
X89800000Y-73800000D03*
D50*
X89100000Y-73800000D03*
X91200000Y-74500000D03*
X89800000Y-74500000D03*
X88400000Y-74500000D03*
X90500000Y-75200000D03*
X89100000Y-75200000D03*
%TD*%
D38*
%TO.C,C2*%
X53850000Y-99950000D03*
X53850000Y-98050000D03*
%TD*%
D52*
%TO.C,C8*%
X107100000Y-101950000D03*
X107100000Y-103850000D03*
%TD*%
D19*
%TO.C,C7*%
X90100000Y-64000000D03*
X92000000Y-64000000D03*
%TD*%
D18*
%TO.C,H3*%
X106200000Y-113800000D03*
%TD*%
D31*
%TO.C,C9*%
X96350000Y-117100000D03*
X94450000Y-117100000D03*
%TD*%
D38*
%TO.C,C1*%
X53800000Y-95950000D03*
X53800000Y-94050000D03*
%TD*%
D18*
%TO.C,H2*%
X57200000Y-113700000D03*
%TD*%
D52*
%TO.C,C16*%
X68050000Y-77250000D03*
X68050000Y-79150000D03*
%TD*%
M02*
