%TF.GenerationSoftware,KiCad,Pcbnew,8.0.0*%
%TF.CreationDate,2024-05-31T15:26:32-05:00*%
%TF.ProjectId,GaussMouse,47617573-734d-46f7-9573-652e6b696361,rev?*%
%TF.SameCoordinates,Original*%
%TF.FileFunction,Paste,Top*%
%TF.FilePolarity,Positive*%
%FSLAX46Y46*%
G04 Gerber Fmt 4.6, Leading zero omitted, Abs format (unit mm)*
G04 Created by KiCad (PCBNEW 8.0.0) date 2024-05-31 15:26:32*
%MOMM*%
%LPD*%
G01*
G04 APERTURE LIST*
G04 Aperture macros list*
%AMRoundRect*
0 Rectangle with rounded corners*
0 $1 Rounding radius*
0 $2 $3 $4 $5 $6 $7 $8 $9 X,Y pos of 4 corners*
0 Add a 4 corners polygon primitive as box body*
4,1,4,$2,$3,$4,$5,$6,$7,$8,$9,$2,$3,0*
0 Add four circle primitives for the rounded corners*
1,1,$1+$1,$2,$3*
1,1,$1+$1,$4,$5*
1,1,$1+$1,$6,$7*
1,1,$1+$1,$8,$9*
0 Add four rect primitives between the rounded corners*
20,1,$1+$1,$2,$3,$4,$5,0*
20,1,$1+$1,$4,$5,$6,$7,0*
20,1,$1+$1,$6,$7,$8,$9,0*
20,1,$1+$1,$8,$9,$2,$3,0*%
%AMRotRect*
0 Rectangle, with rotation*
0 The origin of the aperture is its center*
0 $1 length*
0 $2 width*
0 $3 Rotation angle, in degrees counterclockwise*
0 Add horizontal line*
21,1,$1,$2,0,0,$3*%
G04 Aperture macros list end*
%ADD10C,1.200000*%
%ADD11R,1.000000X0.500000*%
%ADD12R,1.500000X0.800000*%
%ADD13RotRect,1.000000X0.550000X30.000000*%
%ADD14RotRect,0.550000X1.200000X30.000000*%
%ADD15RotRect,0.700000X1.200000X30.000000*%
%ADD16RotRect,0.450000X1.200000X30.000000*%
%ADD17RoundRect,0.250000X-0.250000X-0.475000X0.250000X-0.475000X0.250000X0.475000X-0.250000X0.475000X0*%
%ADD18RotRect,1.000000X0.550000X300.000000*%
%ADD19RotRect,0.550000X1.200000X300.000000*%
%ADD20RotRect,0.700000X1.200000X300.000000*%
%ADD21RotRect,0.450000X1.200000X300.000000*%
%ADD22RoundRect,0.375000X-0.625000X-0.375000X0.625000X-0.375000X0.625000X0.375000X-0.625000X0.375000X0*%
%ADD23RoundRect,0.500000X-0.500000X-1.400000X0.500000X-1.400000X0.500000X1.400000X-0.500000X1.400000X0*%
%ADD24RotRect,1.000000X0.550000X330.000000*%
%ADD25RotRect,0.550000X1.200000X330.000000*%
%ADD26RotRect,0.700000X1.200000X330.000000*%
%ADD27RotRect,0.450000X1.200000X330.000000*%
%ADD28RoundRect,0.250000X-0.262500X-0.450000X0.262500X-0.450000X0.262500X0.450000X-0.262500X0.450000X0*%
%ADD29RoundRect,0.250000X0.250000X0.475000X-0.250000X0.475000X-0.250000X-0.475000X0.250000X-0.475000X0*%
%ADD30RoundRect,0.150000X-0.587500X-0.150000X0.587500X-0.150000X0.587500X0.150000X-0.587500X0.150000X0*%
%ADD31R,0.250000X1.400000*%
%ADD32RoundRect,0.225000X0.375000X-0.225000X0.375000X0.225000X-0.375000X0.225000X-0.375000X-0.225000X0*%
%ADD33RoundRect,0.250000X0.475000X-0.250000X0.475000X0.250000X-0.475000X0.250000X-0.475000X-0.250000X0*%
%ADD34R,0.900000X0.400000*%
%ADD35RoundRect,0.150000X-0.512500X-0.150000X0.512500X-0.150000X0.512500X0.150000X-0.512500X0.150000X0*%
%ADD36RoundRect,0.250000X0.262500X0.450000X-0.262500X0.450000X-0.262500X-0.450000X0.262500X-0.450000X0*%
%ADD37R,0.600000X1.650000*%
%ADD38R,0.600000X1.850000*%
%ADD39RotRect,1.000000X0.550000X60.000000*%
%ADD40RotRect,0.550000X1.200000X60.000000*%
%ADD41RotRect,0.700000X1.200000X60.000000*%
%ADD42RotRect,0.450000X1.200000X60.000000*%
%ADD43R,0.900000X0.900000*%
%ADD44R,0.900000X1.500000*%
%ADD45R,1.500000X0.900000*%
%ADD46RoundRect,0.250000X-0.475000X0.250000X-0.475000X-0.250000X0.475000X-0.250000X0.475000X0.250000X0*%
G04 APERTURE END LIST*
D10*
%TO.C,H6*%
X55760000Y-69880000D02*
G75*
G02*
X55893673Y-68462214I1539997J569999D01*
G01*
X57460000Y-67657004D02*
G75*
G02*
X58724941Y-68457042I-160001J-1652996D01*
G01*
X58661219Y-70220815D02*
G75*
G02*
X57140000Y-70940000I-1361221J910819D01*
G01*
%TO.C,H9*%
X127285000Y-102295000D02*
G75*
G02*
X127418673Y-100877214I1539997J569999D01*
G01*
X128985000Y-100072004D02*
G75*
G02*
X130249941Y-100872042I-160001J-1652996D01*
G01*
X130186219Y-102635815D02*
G75*
G02*
X128665000Y-103355000I-1361221J910819D01*
G01*
%TO.C,H8*%
X70460000Y-60780000D02*
G75*
G02*
X70593673Y-59362214I1539997J569999D01*
G01*
X72160000Y-58557004D02*
G75*
G02*
X73424941Y-59357042I-160001J-1652996D01*
G01*
X73361219Y-61120815D02*
G75*
G02*
X71840000Y-61840000I-1361221J910819D01*
G01*
%TO.C,H7*%
X46760000Y-91880000D02*
G75*
G02*
X46893673Y-90462214I1539997J569999D01*
G01*
X48460000Y-89657004D02*
G75*
G02*
X49724941Y-90457042I-160001J-1652996D01*
G01*
X49661219Y-92220815D02*
G75*
G02*
X48140000Y-92940000I-1361221J910819D01*
G01*
%TO.C,H1*%
X112360000Y-91980000D02*
G75*
G02*
X112493673Y-90562214I1539997J569999D01*
G01*
X114060000Y-89757004D02*
G75*
G02*
X115324941Y-90557042I-160001J-1652996D01*
G01*
X115261219Y-92320815D02*
G75*
G02*
X113740000Y-93040000I-1361221J910819D01*
G01*
%TO.C,H5*%
X88460000Y-60780000D02*
G75*
G02*
X88593673Y-59362214I1539997J569999D01*
G01*
X90160000Y-58557004D02*
G75*
G02*
X91424941Y-59357042I-160001J-1652996D01*
G01*
X91361219Y-61120815D02*
G75*
G02*
X89840000Y-61840000I-1361221J910819D01*
G01*
%TO.C,H4*%
X79860000Y-124780000D02*
G75*
G02*
X79993673Y-123362214I1539997J569999D01*
G01*
X81560000Y-122557004D02*
G75*
G02*
X82824941Y-123357042I-160001J-1652996D01*
G01*
X82761219Y-125120815D02*
G75*
G02*
X81240000Y-125840000I-1361221J910819D01*
G01*
%TO.C,H3*%
X104660000Y-114380000D02*
G75*
G02*
X104793673Y-112962214I1539997J569999D01*
G01*
X106360000Y-112157004D02*
G75*
G02*
X107624941Y-112957042I-160001J-1652996D01*
G01*
X107561219Y-114720815D02*
G75*
G02*
X106040000Y-115440000I-1361221J910819D01*
G01*
%TO.C,H2*%
X55660000Y-114280000D02*
G75*
G02*
X55793673Y-112862214I1539997J569999D01*
G01*
X57360000Y-112057004D02*
G75*
G02*
X58624941Y-112857042I-160001J-1652996D01*
G01*
X58561219Y-114620815D02*
G75*
G02*
X57040000Y-115340000I-1361221J910819D01*
G01*
%TD*%
D11*
%TO.C,SW5*%
X72200000Y-72600000D03*
X72200000Y-75800000D03*
D12*
X70450000Y-73200000D03*
X73950000Y-73200000D03*
X70450000Y-75200000D03*
X73950000Y-75200000D03*
%TD*%
D11*
%TO.C,SW4*%
X72100000Y-77700000D03*
X72100000Y-80900000D03*
D12*
X70350000Y-78300000D03*
X73850000Y-78300000D03*
X70350000Y-80300000D03*
X73850000Y-80300000D03*
%TD*%
D11*
%TO.C,SW3*%
X72050000Y-82900000D03*
X72050000Y-86100000D03*
D12*
X70300000Y-83500000D03*
X73800000Y-83500000D03*
X70300000Y-85500000D03*
X73800000Y-85500000D03*
%TD*%
D11*
%TO.C,SW2*%
X70600000Y-89600000D03*
X70600000Y-92800000D03*
D12*
X68850000Y-90200000D03*
X72350000Y-90200000D03*
X68850000Y-92200000D03*
X72350000Y-92200000D03*
%TD*%
D11*
%TO.C,SW1*%
X63600000Y-64200000D03*
X63600000Y-67400000D03*
D12*
X61850000Y-64800000D03*
X65350000Y-64800000D03*
X61850000Y-66800000D03*
X65350000Y-66800000D03*
%TD*%
D13*
%TO.C,D2*%
X95205690Y-122822548D03*
D14*
X95438046Y-122775000D03*
D15*
X96412324Y-122212500D03*
D16*
X97300000Y-121700000D03*
D14*
X98166026Y-121200000D03*
D13*
X98328381Y-121031208D03*
%TD*%
D17*
%TO.C,C6*%
X94500000Y-61400000D03*
X96400000Y-61400000D03*
%TD*%
%TO.C,C5*%
X94550000Y-64200000D03*
X96450000Y-64200000D03*
%TD*%
D18*
%TO.C,D4*%
X49923612Y-102935256D03*
D19*
X49971161Y-103167612D03*
D20*
X50533660Y-104141892D03*
D21*
X51046160Y-105029567D03*
D19*
X51546160Y-105895593D03*
D18*
X51714952Y-106057949D03*
%TD*%
D22*
%TO.C,U3*%
X57850000Y-93800000D03*
X57850000Y-96100000D03*
D23*
X64150000Y-96100000D03*
D22*
X57850000Y-98400000D03*
%TD*%
D24*
%TO.C,D3*%
X63814664Y-120647548D03*
D25*
X63972020Y-120825000D03*
D26*
X64946298Y-121387500D03*
D27*
X65833974Y-121900000D03*
D25*
X66700000Y-122400000D03*
D24*
X66927355Y-122456208D03*
%TD*%
D28*
%TO.C,R2*%
X62575000Y-73800000D03*
X64400000Y-73800000D03*
%TD*%
D29*
%TO.C,C10*%
X66800000Y-116400000D03*
X64900000Y-116400000D03*
%TD*%
D30*
%TO.C,Q1*%
X62000000Y-85100000D03*
X62000000Y-87000000D03*
X63875000Y-86050000D03*
%TD*%
D31*
%TO.C,J1*%
X84425000Y-62187500D03*
X83625000Y-62187500D03*
X82350000Y-62187500D03*
X81350000Y-62187500D03*
X80850000Y-62187500D03*
X82850000Y-62187500D03*
X78575000Y-62187500D03*
X77775000Y-62187500D03*
X78025000Y-62187500D03*
X78825000Y-62187500D03*
X79350000Y-62187500D03*
X80350000Y-62187500D03*
X81850000Y-62187500D03*
X79850000Y-62187500D03*
X83375000Y-62187500D03*
X84175000Y-62187500D03*
%TD*%
D32*
%TO.C,D9*%
X58077500Y-87527500D03*
X58077500Y-84227500D03*
%TD*%
D33*
%TO.C,C11*%
X55550000Y-104350000D03*
X55550000Y-102450000D03*
%TD*%
D34*
%TO.C,RN1*%
X71600000Y-67000000D03*
X71600000Y-67800000D03*
X71600000Y-68600000D03*
X71600000Y-69400000D03*
X73300000Y-69400000D03*
X73300000Y-68600000D03*
X73300000Y-67800000D03*
X73300000Y-67000000D03*
%TD*%
D35*
%TO.C,U1*%
X62300000Y-77300000D03*
X62300000Y-78250000D03*
X62300000Y-79200000D03*
X64575000Y-79200000D03*
X64575000Y-77300000D03*
%TD*%
D36*
%TO.C,R1*%
X88000000Y-63900000D03*
X86175000Y-63900000D03*
%TD*%
D37*
%TO.C,J2*%
X85399969Y-108057298D03*
D38*
X85399969Y-111807298D03*
D37*
X84399968Y-108057298D03*
D38*
X84399968Y-111807298D03*
D37*
X83399968Y-108057298D03*
D38*
X83399968Y-111807298D03*
D37*
X82399968Y-108057298D03*
D38*
X82399968Y-111807298D03*
D37*
X81399984Y-108057298D03*
D38*
X81399984Y-111807298D03*
D37*
X80399968Y-108057298D03*
D38*
X80399968Y-111807298D03*
D37*
X79399968Y-108057298D03*
D38*
X79399968Y-111807298D03*
D37*
X78399968Y-108057298D03*
D38*
X78399968Y-111807298D03*
D37*
X77399968Y-108057298D03*
D38*
X77399968Y-111807298D03*
%TD*%
D39*
%TO.C,D1*%
X110976388Y-105789743D03*
D40*
X111153840Y-105632387D03*
D41*
X111716340Y-104658109D03*
D42*
X112228840Y-103770433D03*
D40*
X112728840Y-102904407D03*
D39*
X112785048Y-102677052D03*
%TD*%
D43*
%TO.C,U2*%
X91200000Y-72400000D03*
X89800000Y-72400000D03*
X88400000Y-72400000D03*
X91200000Y-73800000D03*
X89800000Y-73800000D03*
X88400000Y-73800000D03*
X91200000Y-75200000D03*
X89800000Y-75200000D03*
X88400000Y-75200000D03*
D44*
X97520000Y-66550000D03*
X96250000Y-66550000D03*
X94980000Y-66550000D03*
X93710000Y-66550000D03*
X92440000Y-66550000D03*
X91170000Y-66550000D03*
X89900000Y-66550000D03*
X88630000Y-66550000D03*
X87360000Y-66550000D03*
X86090000Y-66550000D03*
X84820000Y-66550000D03*
X83550000Y-66550000D03*
X82280000Y-66550000D03*
X81010000Y-66550000D03*
D45*
X79760000Y-68315000D03*
X79760000Y-69585000D03*
X79760000Y-70855000D03*
X79760000Y-72125000D03*
X79760000Y-73395000D03*
X79760000Y-74665000D03*
X79760000Y-75935000D03*
X79760000Y-77205000D03*
X79760000Y-78475000D03*
X79760000Y-79745000D03*
X79760000Y-81015000D03*
X79760000Y-82285000D03*
D44*
X81010000Y-84050000D03*
X82280000Y-84050000D03*
X83550000Y-84050000D03*
X84820000Y-84050000D03*
X86090000Y-84050000D03*
X87360000Y-84050000D03*
X88630000Y-84050000D03*
X89900000Y-84050000D03*
X91170000Y-84050000D03*
X92440000Y-84050000D03*
X93710000Y-84050000D03*
X94980000Y-84050000D03*
X96250000Y-84050000D03*
X97520000Y-84050000D03*
%TD*%
D33*
%TO.C,C2*%
X53850000Y-99950000D03*
X53850000Y-98050000D03*
%TD*%
D46*
%TO.C,C8*%
X107100000Y-101950000D03*
X107100000Y-103850000D03*
%TD*%
D17*
%TO.C,C7*%
X90100000Y-64000000D03*
X92000000Y-64000000D03*
%TD*%
D29*
%TO.C,C9*%
X96350000Y-117100000D03*
X94450000Y-117100000D03*
%TD*%
D33*
%TO.C,C1*%
X53800000Y-95950000D03*
X53800000Y-94050000D03*
%TD*%
D46*
%TO.C,C16*%
X68050000Y-77250000D03*
X68050000Y-79150000D03*
%TD*%
M02*
