M48
; DRILL file {KiCad 8.0.0} date 2024-05-31T15:26:35-0500
; FORMAT={-:-/ absolute / inch / decimal}
; #@! TF.CreationDate,2024-05-31T15:26:35-05:00
; #@! TF.GenerationSoftware,Kicad,Pcbnew,8.0.0
; #@! TF.FileFunction,MixedPlating,1,2
FMAT,2
INCH
; #@! TA.AperFunction,Plated,PTH,ComponentDrill
T1C0.0079
; #@! TA.AperFunction,Plated,PTH,ViaDrill
T2C0.0118
; #@! TA.AperFunction,Plated,PTH,ComponentDrill
T3C0.0236
; #@! TA.AperFunction,Plated,PTH,ComponentDrill
T4C0.0394
; #@! TA.AperFunction,Plated,PTH,ComponentDrill
T5C0.1181
; #@! TA.AperFunction,NonPlated,NPTH,ComponentDrill
T6C0.0256
%
G90
G05
T1
X3.4803Y-2.878
X3.4803Y-2.9331
X3.5079Y-2.8504
X3.5079Y-2.9055
X3.5079Y-2.9606
X3.5354Y-2.878
X3.5354Y-2.9331
X3.563Y-2.8504
X3.563Y-2.9055
X3.563Y-2.9606
X3.5906Y-2.878
X3.5906Y-2.9331
T2
X2.0945Y-4.3937
X2.1063Y-4.2283
X2.1811Y-3.9488
X2.1969Y-3.5315
X2.2047Y-3.7165
X2.2087Y-3.8425
X2.3701Y-3.3898
X2.3898Y-3.2362
X2.4213Y-3.5748
X2.4449Y-4.3504
X2.4567Y-3.2598
X2.5236Y-3.689
X2.5433Y-2.7362
X2.5551Y-3.1575
X2.5551Y-4.6339
X2.5669Y-2.9843
X2.5866Y-4.7402
X2.6575Y-2.5472
X2.6732Y-2.4213
X2.7008Y-3.2598
X2.8031Y-2.5079
X2.8031Y-4.8386
X2.8228Y-4.4016
X2.8307Y-3.2323
X2.8346Y-3.0276
X2.8346Y-3.1102
X2.8504Y-2.9173
X2.8543Y-3.3346
X2.8858Y-3.5748
X2.9173Y-3.0157
X2.9488Y-2.315
X2.9685Y-2.3701
X2.9843Y-2.5
X3.0748Y-2.8504
X3.0748Y-2.9055
X3.0827Y-2.9685
X3.1142Y-2.2835
X3.1417Y-2.3819
X3.1496Y-3.4606
X3.1614Y-3.3661
X3.1811Y-3.4961
X3.2323Y-2.2913
X3.2638Y-2.3465
X3.2992Y-2.8622
X3.3071Y-3.5
X3.3307Y-2.3346
X3.3543Y-2.6969
X3.3622Y-2.7559
X3.3622Y-4.5984
X3.4016Y-2.3346
X3.4016Y-2.5669
X3.4209Y-2.461
X3.4606Y-2.4646
X3.4803Y-2.685
X3.4921Y-4.6299
X3.5079Y-2.5551
X3.5354Y-2.7047
X3.5945Y-2.6929
X3.6457Y-2.689
X3.6575Y-2.4606
X3.6614Y-2.4173
X3.685Y-2.3386
X3.7087Y-4.7953
X3.7244Y-2.752
X3.7598Y-2.4646
X3.7795Y-4.6772
X3.7795Y-4.7598
X3.8504Y-3.7087
X3.8504Y-4.2323
X3.8661Y-2.9488
X3.8661Y-3.185
X3.874Y-2.7244
X3.874Y-3.3976
X3.8819Y-2.5157
X3.9685Y-4.4685
X4.0669Y-4.563
X4.1654Y-4.2913
X4.2323Y-4.2402
X4.2992Y-4.1457
X4.315Y-4.185
X4.3583Y-4.3504
T4
X2.1535Y-3.089
X2.1535Y-3.189
X3.2923Y-3.5675
X3.3923Y-3.5675
X3.4923Y-3.5675
X3.5923Y-3.5675
X3.6923Y-3.5675
T5
X1.9016Y-3.5945
X2.252Y-4.4764
X2.2559Y-2.7283
X2.8346Y-2.3701
X3.2047Y-4.8898
X3.5433Y-2.3701
X4.1811Y-4.4803
X4.4843Y-3.5984
X5.0719Y-4.0045
T6
X3.0791Y-2.4011
X3.3067Y-2.4011
T3
G00X3.0228Y-2.2731
M15
G01X3.0228Y-2.2416
M16
G05
G00X3.0228Y-2.4424
M15
G01X3.0228Y-2.3991
M16
G05
G00X3.363Y-2.2731
M15
G01X3.363Y-2.2416
M16
G05
G00X3.363Y-2.4424
M15
G01X3.363Y-2.3991
M16
G05
M30
