%TF.GenerationSoftware,KiCad,Pcbnew,8.0.0*%
%TF.CreationDate,2024-05-31T15:26:32-05:00*%
%TF.ProjectId,GaussMouse,47617573-734d-46f7-9573-652e6b696361,rev?*%
%TF.SameCoordinates,Original*%
%TF.FileFunction,Copper,L2,Bot*%
%TF.FilePolarity,Positive*%
%FSLAX46Y46*%
G04 Gerber Fmt 4.6, Leading zero omitted, Abs format (unit mm)*
G04 Created by KiCad (PCBNEW 8.0.0) date 2024-05-31 15:26:32*
%MOMM*%
%LPD*%
G01*
G04 APERTURE LIST*
%TA.AperFunction,ComponentPad*%
%ADD10R,1.700000X1.700000*%
%TD*%
%TA.AperFunction,ComponentPad*%
%ADD11O,1.700000X1.700000*%
%TD*%
%TA.AperFunction,ComponentPad*%
%ADD12C,4.500000*%
%TD*%
%TA.AperFunction,ComponentPad*%
%ADD13O,1.000000X2.100000*%
%TD*%
%TA.AperFunction,ComponentPad*%
%ADD14O,1.000000X1.800000*%
%TD*%
%TA.AperFunction,HeatsinkPad*%
%ADD15C,0.600000*%
%TD*%
%TA.AperFunction,ViaPad*%
%ADD16C,0.600000*%
%TD*%
%TA.AperFunction,Conductor*%
%ADD17C,0.200000*%
%TD*%
G04 APERTURE END LIST*
D10*
%TO.P,J3,1,Pin_1*%
%TO.N,Net-(J3-Pin_1)*%
X83625000Y-90615000D03*
D11*
%TO.P,J3,2,Pin_2*%
%TO.N,Net-(J3-Pin_2)*%
X86165000Y-90615000D03*
%TO.P,J3,3,Pin_3*%
%TO.N,Net-(J3-Pin_3)*%
X88705000Y-90615000D03*
%TO.P,J3,4,Pin_4*%
%TO.N,Net-(J3-Pin_4)*%
X91245000Y-90615000D03*
%TO.P,J3,5,Pin_5*%
%TO.N,Net-(J3-Pin_5)*%
X93785000Y-90615000D03*
%TD*%
D10*
%TO.P,BT1,1,+*%
%TO.N,Net-(BT1-+)*%
X54700000Y-78460000D03*
D11*
%TO.P,BT1,2,-*%
%TO.N,VSS*%
X54700000Y-81000000D03*
%TD*%
D12*
%TO.P,H6,1*%
%TO.N,N/C*%
X57300000Y-69300000D03*
%TD*%
%TO.P,H9,1*%
%TO.N,N/C*%
X128825000Y-101715000D03*
%TD*%
%TO.P,H8,1*%
%TO.N,N/C*%
X72000000Y-60200000D03*
%TD*%
%TO.P,H7,1*%
%TO.N,N/C*%
X48300000Y-91300000D03*
%TD*%
%TO.P,H1,1*%
%TO.N,N/C*%
X113900000Y-91400000D03*
%TD*%
D13*
%TO.P,J1,S1,SHIELD*%
%TO.N,VSS*%
X85420000Y-61487500D03*
D14*
X85420000Y-57337500D03*
D13*
X76780000Y-61487500D03*
D14*
X76780000Y-57337500D03*
%TD*%
D12*
%TO.P,H5,1*%
%TO.N,N/C*%
X90000000Y-60200000D03*
%TD*%
%TO.P,H4,1*%
%TO.N,N/C*%
X81400000Y-124200000D03*
%TD*%
D15*
%TO.P,U2,41,GND*%
%TO.N,VSS*%
X90500000Y-72400000D03*
X89100000Y-72400000D03*
X91200000Y-73100000D03*
X89800000Y-73100000D03*
X88400000Y-73100000D03*
X90500000Y-73800000D03*
X89100000Y-73800000D03*
X91200000Y-74500000D03*
X89800000Y-74500000D03*
X88400000Y-74500000D03*
X90500000Y-75200000D03*
X89100000Y-75200000D03*
%TD*%
D12*
%TO.P,H3,1*%
%TO.N,N/C*%
X106200000Y-113800000D03*
%TD*%
%TO.P,H2,1*%
%TO.N,N/C*%
X57200000Y-113700000D03*
%TD*%
D16*
%TO.N,VSS*%
X87900000Y-62600000D03*
X75400000Y-60200000D03*
X74900000Y-58800000D03*
X84600000Y-59300000D03*
X75800000Y-63500000D03*
X93600000Y-59400000D03*
X96000000Y-118800000D03*
X110700000Y-110500000D03*
X107500000Y-107700000D03*
X100800000Y-113500000D03*
X103300000Y-115900000D03*
X71200000Y-122900000D03*
X85400000Y-116800000D03*
X85200000Y-68500000D03*
X88400000Y-68200000D03*
X67900000Y-61500000D03*
X79100000Y-58000000D03*
X82100000Y-58200000D03*
X86400000Y-59300000D03*
X93000000Y-61400000D03*
%TO.N,VCC*%
X92900000Y-62500000D03*
%TO.N,VSS*%
X89100000Y-64900000D03*
%TO.N,Right*%
X74100000Y-76600000D03*
%TO.N,VSS*%
X72500000Y-84700000D03*
X72000000Y-79000000D03*
%TO.N,Left*%
X78100000Y-72400000D03*
X72400000Y-74100000D03*
%TO.N,Right*%
X78100000Y-73800000D03*
X72000000Y-76900000D03*
%TO.N,Center*%
X78300000Y-75400000D03*
X71900000Y-82100000D03*
%TO.N,Net-(SW2-B)*%
X80300000Y-85500000D03*
X73300000Y-90800000D03*
%TO.N,Net-(SW1-B)*%
X67500000Y-64700000D03*
X86400000Y-65200000D03*
%TO.N,VSS*%
X64600000Y-69500000D03*
X68600000Y-82800000D03*
X60200000Y-86100000D03*
X60700000Y-82200000D03*
X61500000Y-90800000D03*
X55800000Y-89700000D03*
X56000000Y-94400000D03*
X56100000Y-97600000D03*
X55400000Y-100300000D03*
X53500000Y-107400000D03*
X53200000Y-111600000D03*
X62100000Y-110500000D03*
X71700000Y-111800000D03*
X88700000Y-117600000D03*
X97800000Y-107500000D03*
X105800000Y-109000000D03*
X109200000Y-105300000D03*
X94600000Y-69900000D03*
X97800000Y-94200000D03*
X98400000Y-86300000D03*
X98200000Y-80900000D03*
X98200000Y-74900000D03*
X98400000Y-69200000D03*
X98600000Y-63900000D03*
%TO.N,+5V*%
X64900000Y-80200000D03*
X62400000Y-82800000D03*
%TO.N,CLK*%
X83800000Y-72700000D03*
X80000000Y-87900000D03*
%TO.N,MISO*%
X89800000Y-68700000D03*
X80800000Y-88800000D03*
%TO.N,VCC*%
X94200000Y-121800000D03*
X96000000Y-120900000D03*
X65700000Y-120400000D03*
X64900000Y-117700000D03*
%TO.N,WS2812*%
X109600000Y-106300000D03*
X92600000Y-68300000D03*
%TO.N,SWIO*%
X91300000Y-68400000D03*
X84000000Y-88900000D03*
%TO.N,+5V*%
X71200000Y-63700000D03*
%TO.N,Charge_Status*%
X85400000Y-70000000D03*
X65200000Y-75800000D03*
%TO.N,VCC*%
X64100000Y-93700000D03*
X95500000Y-62600000D03*
X86890380Y-62509620D03*
%TO.N,+5V*%
X82900000Y-59600000D03*
X79800000Y-60500000D03*
%TD*%
D17*
%TO.N,VCC*%
X84365686Y-71900000D02*
X87040380Y-69225306D01*
X83634314Y-71900000D02*
X84365686Y-71900000D01*
X87040380Y-69225306D02*
X87040380Y-62659620D01*
X64100000Y-91434314D02*
X83634314Y-71900000D01*
X87450000Y-61950000D02*
X86890380Y-62509620D01*
X88943755Y-62750000D02*
X88143755Y-61950000D01*
X92500000Y-62100000D02*
X91706245Y-62100000D01*
X92900000Y-62500000D02*
X92500000Y-62100000D01*
X87040380Y-62659620D02*
X86890380Y-62509620D01*
X91706245Y-62100000D02*
X91056245Y-62750000D01*
X88143755Y-61950000D02*
X87450000Y-61950000D01*
X91056245Y-62750000D02*
X88943755Y-62750000D01*
X64100000Y-93700000D02*
X64100000Y-91434314D01*
%TO.N,VSS*%
X89100000Y-63800000D02*
X87900000Y-62600000D01*
X89100000Y-64900000D02*
X89100000Y-63800000D01*
X94200000Y-59400000D02*
X93600000Y-59400000D01*
X98600000Y-63800000D02*
X94200000Y-59400000D01*
X98600000Y-63900000D02*
X98600000Y-63800000D01*
%TO.N,SWIO*%
X91800000Y-68900000D02*
X91300000Y-68400000D01*
X91800000Y-84100000D02*
X91800000Y-68900000D01*
X84000000Y-88900000D02*
X87000000Y-88900000D01*
X87000000Y-88900000D02*
X91800000Y-84100000D01*
%TO.N,MISO*%
X84300000Y-86800000D02*
X82300000Y-88800000D01*
X82300000Y-88800000D02*
X80800000Y-88800000D01*
X89800000Y-68700000D02*
X84300000Y-74200000D01*
X84300000Y-74200000D02*
X84300000Y-86800000D01*
%TO.N,CLK*%
X82100000Y-87900000D02*
X80000000Y-87900000D01*
X83800000Y-86200000D02*
X82100000Y-87900000D01*
X83800000Y-72700000D02*
X83800000Y-86200000D01*
%TO.N,VCC*%
X93150000Y-62750000D02*
X95350000Y-62750000D01*
X92900000Y-62500000D02*
X93150000Y-62750000D01*
%TO.N,Right*%
X74400000Y-76900000D02*
X75000000Y-76900000D01*
X74100000Y-76600000D02*
X74400000Y-76900000D01*
X73800000Y-76900000D02*
X74100000Y-76600000D01*
%TO.N,Left*%
X72400000Y-74100000D02*
X76400000Y-74100000D01*
X76400000Y-74100000D02*
X78100000Y-72400000D01*
%TO.N,Right*%
X75000000Y-76900000D02*
X78100000Y-73800000D01*
X72000000Y-76900000D02*
X73800000Y-76900000D01*
%TO.N,Center*%
X71900000Y-82100000D02*
X78300000Y-75700000D01*
X78300000Y-75700000D02*
X78300000Y-75400000D01*
%TO.N,Net-(SW2-B)*%
X73600000Y-90500000D02*
X75300000Y-90500000D01*
X73300000Y-90800000D02*
X73600000Y-90500000D01*
X75300000Y-90500000D02*
X80300000Y-85500000D01*
%TO.N,Net-(SW1-B)*%
X67500000Y-64700000D02*
X85900000Y-64700000D01*
X85900000Y-64700000D02*
X86400000Y-65200000D01*
%TO.N,+5V*%
X64900000Y-80300000D02*
X64900000Y-80200000D01*
X62400000Y-82800000D02*
X64900000Y-80300000D01*
%TO.N,Charge_Status*%
X83900000Y-71500000D02*
X85400000Y-70000000D01*
X65200000Y-75800000D02*
X69500000Y-71500000D01*
X69500000Y-71500000D02*
X83900000Y-71500000D01*
%TO.N,VCC*%
X95100000Y-121800000D02*
X96000000Y-120900000D01*
X87800000Y-121800000D02*
X95100000Y-121800000D01*
X86400000Y-120400000D02*
X87800000Y-121800000D01*
X65700000Y-120400000D02*
X86400000Y-120400000D01*
X64900000Y-117700000D02*
X64900000Y-119600000D01*
X64900000Y-119600000D02*
X65700000Y-120400000D01*
%TO.N,WS2812*%
X105868578Y-106300000D02*
X109600000Y-106300000D01*
X92600000Y-93031422D02*
X105868578Y-106300000D01*
X92600000Y-68300000D02*
X92600000Y-93031422D01*
%TO.N,+5V*%
X79437500Y-60137500D02*
X79800000Y-60500000D01*
X76448629Y-60137500D02*
X79437500Y-60137500D01*
X72062500Y-62837500D02*
X73748629Y-62837500D01*
X71200000Y-63700000D02*
X72062500Y-62837500D01*
X73748629Y-62837500D02*
X76448629Y-60137500D01*
%TO.N,VCC*%
X95350000Y-62750000D02*
X95500000Y-62600000D01*
%TO.N,+5V*%
X80100000Y-60200000D02*
X82300000Y-60200000D01*
X79800000Y-60500000D02*
X80100000Y-60200000D01*
X82300000Y-60200000D02*
X82900000Y-59600000D01*
%TD*%
%TA.AperFunction,Conductor*%
%TO.N,VSS*%
G36*
X69783492Y-58400303D02*
G01*
X69814530Y-58462901D01*
X69806797Y-58532341D01*
X69790028Y-58560927D01*
X69732252Y-58634673D01*
X69732248Y-58634678D01*
X69732246Y-58634682D01*
X69587446Y-58874211D01*
X69560101Y-58919445D01*
X69560100Y-58919447D01*
X69423536Y-59222880D01*
X69423530Y-59222895D01*
X69324546Y-59540550D01*
X69324544Y-59540556D01*
X69324544Y-59540559D01*
X69306243Y-59640423D01*
X69264563Y-59867863D01*
X69244473Y-60200000D01*
X69264563Y-60532136D01*
X69264563Y-60532141D01*
X69264564Y-60532142D01*
X69324544Y-60859441D01*
X69324545Y-60859445D01*
X69324546Y-60859449D01*
X69423530Y-61177104D01*
X69423533Y-61177111D01*
X69423537Y-61177123D01*
X69560102Y-61480557D01*
X69721810Y-61748055D01*
X69732251Y-61765326D01*
X69937460Y-62027255D01*
X70172744Y-62262539D01*
X70434673Y-62467748D01*
X70434678Y-62467751D01*
X70434682Y-62467754D01*
X70719443Y-62639898D01*
X70911353Y-62726270D01*
X70964407Y-62771734D01*
X70984459Y-62838664D01*
X70965143Y-62905810D01*
X70912591Y-62951855D01*
X70901416Y-62956387D01*
X70850477Y-62974211D01*
X70697737Y-63070184D01*
X70570184Y-63197737D01*
X70474211Y-63350476D01*
X70414631Y-63520745D01*
X70414630Y-63520750D01*
X70394435Y-63699996D01*
X70394435Y-63700003D01*
X70414630Y-63879249D01*
X70414633Y-63879262D01*
X70433978Y-63934545D01*
X70437540Y-64004324D01*
X70402812Y-64064951D01*
X70340818Y-64097179D01*
X70316937Y-64099500D01*
X68082412Y-64099500D01*
X68015373Y-64079815D01*
X68005097Y-64072445D01*
X68002263Y-64070185D01*
X68002262Y-64070184D01*
X67897447Y-64004324D01*
X67849523Y-63974211D01*
X67679254Y-63914631D01*
X67679249Y-63914630D01*
X67500004Y-63894435D01*
X67499996Y-63894435D01*
X67320750Y-63914630D01*
X67320745Y-63914631D01*
X67150476Y-63974211D01*
X66997737Y-64070184D01*
X66870184Y-64197737D01*
X66774211Y-64350476D01*
X66714631Y-64520745D01*
X66714630Y-64520750D01*
X66694435Y-64699996D01*
X66694435Y-64700003D01*
X66714630Y-64879249D01*
X66714631Y-64879254D01*
X66774211Y-65049523D01*
X66870184Y-65202262D01*
X66997738Y-65329816D01*
X67150478Y-65425789D01*
X67320745Y-65485368D01*
X67320750Y-65485369D01*
X67499996Y-65505565D01*
X67500000Y-65505565D01*
X67500004Y-65505565D01*
X67679249Y-65485369D01*
X67679252Y-65485368D01*
X67679255Y-65485368D01*
X67849522Y-65425789D01*
X68002262Y-65329816D01*
X68002267Y-65329810D01*
X68005097Y-65327555D01*
X68007275Y-65326665D01*
X68008158Y-65326111D01*
X68008255Y-65326265D01*
X68069783Y-65301145D01*
X68082412Y-65300500D01*
X85499091Y-65300500D01*
X85566130Y-65320185D01*
X85611885Y-65372989D01*
X85616133Y-65383545D01*
X85651763Y-65485369D01*
X85674211Y-65549522D01*
X85770184Y-65702262D01*
X85897738Y-65829816D01*
X86050478Y-65925789D01*
X86188823Y-65974198D01*
X86220745Y-65985368D01*
X86220750Y-65985369D01*
X86301660Y-65994484D01*
X86329762Y-65997651D01*
X86394177Y-66024717D01*
X86433732Y-66082311D01*
X86439880Y-66120871D01*
X86439880Y-68925208D01*
X86420195Y-68992247D01*
X86403561Y-69012889D01*
X86060621Y-69355828D01*
X85999298Y-69389313D01*
X85929606Y-69384329D01*
X85906968Y-69373141D01*
X85749523Y-69274211D01*
X85579254Y-69214631D01*
X85579249Y-69214630D01*
X85400004Y-69194435D01*
X85399996Y-69194435D01*
X85220750Y-69214630D01*
X85220745Y-69214631D01*
X85050476Y-69274211D01*
X84897737Y-69370184D01*
X84770184Y-69497737D01*
X84674210Y-69650478D01*
X84614630Y-69820750D01*
X84604837Y-69907668D01*
X84577770Y-69972082D01*
X84569298Y-69981465D01*
X83687584Y-70863181D01*
X83626261Y-70896666D01*
X83599903Y-70899500D01*
X69420942Y-70899500D01*
X69268214Y-70940423D01*
X69261839Y-70944104D01*
X69222314Y-70966924D01*
X69131287Y-71019477D01*
X69131282Y-71019481D01*
X69019478Y-71131286D01*
X65181465Y-74969298D01*
X65120142Y-75002783D01*
X65107668Y-75004837D01*
X65020750Y-75014630D01*
X64850478Y-75074210D01*
X64697737Y-75170184D01*
X64570184Y-75297737D01*
X64474211Y-75450476D01*
X64414631Y-75620745D01*
X64414630Y-75620750D01*
X64394435Y-75799996D01*
X64394435Y-75800003D01*
X64414630Y-75979249D01*
X64414631Y-75979254D01*
X64474211Y-76149523D01*
X64479759Y-76158352D01*
X64570184Y-76302262D01*
X64697738Y-76429816D01*
X64850478Y-76525789D01*
X65020745Y-76585368D01*
X65020750Y-76585369D01*
X65199996Y-76605565D01*
X65200000Y-76605565D01*
X65200004Y-76605565D01*
X65379249Y-76585369D01*
X65379252Y-76585368D01*
X65379255Y-76585368D01*
X65549522Y-76525789D01*
X65702262Y-76429816D01*
X65829816Y-76302262D01*
X65925789Y-76149522D01*
X65985368Y-75979255D01*
X65995161Y-75892329D01*
X66022226Y-75827918D01*
X66030690Y-75818543D01*
X69712416Y-72136819D01*
X69773739Y-72103334D01*
X69800097Y-72100500D01*
X77189424Y-72100500D01*
X77256463Y-72120185D01*
X77302218Y-72172989D01*
X77312644Y-72238385D01*
X77304837Y-72307669D01*
X77277770Y-72372082D01*
X77269298Y-72381465D01*
X76187584Y-73463181D01*
X76126261Y-73496666D01*
X76099903Y-73499500D01*
X72982412Y-73499500D01*
X72915373Y-73479815D01*
X72905097Y-73472445D01*
X72902263Y-73470185D01*
X72902262Y-73470184D01*
X72845496Y-73434515D01*
X72749523Y-73374211D01*
X72579254Y-73314631D01*
X72579249Y-73314630D01*
X72400004Y-73294435D01*
X72399996Y-73294435D01*
X72220750Y-73314630D01*
X72220745Y-73314631D01*
X72050476Y-73374211D01*
X71897737Y-73470184D01*
X71770184Y-73597737D01*
X71674211Y-73750476D01*
X71614631Y-73920745D01*
X71614630Y-73920750D01*
X71594435Y-74099996D01*
X71594435Y-74100003D01*
X71614630Y-74279249D01*
X71614631Y-74279254D01*
X71674211Y-74449523D01*
X71741521Y-74556645D01*
X71770184Y-74602262D01*
X71897738Y-74729816D01*
X72050478Y-74825789D01*
X72129823Y-74853553D01*
X72220745Y-74885368D01*
X72220750Y-74885369D01*
X72399996Y-74905565D01*
X72400000Y-74905565D01*
X72400004Y-74905565D01*
X72579249Y-74885369D01*
X72579252Y-74885368D01*
X72579255Y-74885368D01*
X72749522Y-74825789D01*
X72902262Y-74729816D01*
X72902267Y-74729810D01*
X72905097Y-74727555D01*
X72907275Y-74726665D01*
X72908158Y-74726111D01*
X72908255Y-74726265D01*
X72969783Y-74701145D01*
X72982412Y-74700500D01*
X76050903Y-74700500D01*
X76117942Y-74720185D01*
X76163697Y-74772989D01*
X76173641Y-74842147D01*
X76144616Y-74905703D01*
X76138584Y-74912181D01*
X74925896Y-76124867D01*
X74864573Y-76158352D01*
X74794881Y-76153368D01*
X74738948Y-76111496D01*
X74733220Y-76103156D01*
X74729815Y-76097737D01*
X74602262Y-75970184D01*
X74449523Y-75874211D01*
X74279254Y-75814631D01*
X74279249Y-75814630D01*
X74100004Y-75794435D01*
X74099996Y-75794435D01*
X73920750Y-75814630D01*
X73920745Y-75814631D01*
X73750476Y-75874211D01*
X73597737Y-75970184D01*
X73470184Y-76097737D01*
X73379870Y-76241472D01*
X73327535Y-76287763D01*
X73274876Y-76299500D01*
X72582412Y-76299500D01*
X72515373Y-76279815D01*
X72505097Y-76272445D01*
X72502263Y-76270185D01*
X72502262Y-76270184D01*
X72445496Y-76234515D01*
X72349523Y-76174211D01*
X72179254Y-76114631D01*
X72179249Y-76114630D01*
X72000004Y-76094435D01*
X71999996Y-76094435D01*
X71820750Y-76114630D01*
X71820745Y-76114631D01*
X71650476Y-76174211D01*
X71497737Y-76270184D01*
X71370184Y-76397737D01*
X71274211Y-76550476D01*
X71214631Y-76720745D01*
X71214630Y-76720750D01*
X71194435Y-76899996D01*
X71194435Y-76900003D01*
X71214630Y-77079249D01*
X71214631Y-77079254D01*
X71274211Y-77249523D01*
X71370184Y-77402262D01*
X71497738Y-77529816D01*
X71650478Y-77625789D01*
X71820745Y-77685368D01*
X71820750Y-77685369D01*
X71999996Y-77705565D01*
X72000000Y-77705565D01*
X72000004Y-77705565D01*
X72179249Y-77685369D01*
X72179252Y-77685368D01*
X72179255Y-77685368D01*
X72349522Y-77625789D01*
X72502262Y-77529816D01*
X72502267Y-77529810D01*
X72505097Y-77527555D01*
X72507275Y-77526665D01*
X72508158Y-77526111D01*
X72508255Y-77526265D01*
X72569783Y-77501145D01*
X72582412Y-77500500D01*
X73713331Y-77500500D01*
X73713347Y-77500501D01*
X73720943Y-77500501D01*
X73879054Y-77500501D01*
X73879057Y-77500501D01*
X74031785Y-77459577D01*
X74037997Y-77455990D01*
X74105893Y-77439515D01*
X74161999Y-77455988D01*
X74168215Y-77459577D01*
X74320943Y-77500500D01*
X74479057Y-77500500D01*
X74913331Y-77500500D01*
X74913347Y-77500501D01*
X74920943Y-77500501D01*
X75079054Y-77500501D01*
X75079057Y-77500501D01*
X75231785Y-77459577D01*
X75325336Y-77405565D01*
X75368716Y-77380520D01*
X75480520Y-77268716D01*
X75480520Y-77268714D01*
X75490724Y-77258511D01*
X75490728Y-77258506D01*
X77297661Y-75451572D01*
X77358982Y-75418089D01*
X77428674Y-75423073D01*
X77484607Y-75464945D01*
X77508561Y-75525373D01*
X77513705Y-75571034D01*
X77501649Y-75639856D01*
X77478165Y-75672597D01*
X71881465Y-81269298D01*
X71820142Y-81302783D01*
X71807668Y-81304837D01*
X71720750Y-81314630D01*
X71550478Y-81374210D01*
X71397737Y-81470184D01*
X71270184Y-81597737D01*
X71174211Y-81750476D01*
X71114631Y-81920745D01*
X71114630Y-81920750D01*
X71094435Y-82099996D01*
X71094435Y-82100003D01*
X71114630Y-82279249D01*
X71114631Y-82279254D01*
X71174211Y-82449523D01*
X71177368Y-82454547D01*
X71270184Y-82602262D01*
X71397738Y-82729816D01*
X71550478Y-82825789D01*
X71592969Y-82840657D01*
X71649745Y-82881377D01*
X71675494Y-82946330D01*
X71662039Y-83014892D01*
X71639697Y-83045380D01*
X63731286Y-90953792D01*
X63619481Y-91065596D01*
X63619479Y-91065598D01*
X63611937Y-91078663D01*
X63597007Y-91104523D01*
X63540423Y-91202529D01*
X63499499Y-91355257D01*
X63499499Y-91355259D01*
X63499499Y-91523360D01*
X63499500Y-91523373D01*
X63499500Y-93117587D01*
X63479815Y-93184626D01*
X63472450Y-93194896D01*
X63470186Y-93197734D01*
X63374211Y-93350476D01*
X63314631Y-93520745D01*
X63314630Y-93520750D01*
X63294435Y-93699996D01*
X63294435Y-93700003D01*
X63314630Y-93879249D01*
X63314631Y-93879254D01*
X63374211Y-94049523D01*
X63377984Y-94055527D01*
X63470184Y-94202262D01*
X63597738Y-94329816D01*
X63663449Y-94371105D01*
X63729597Y-94412669D01*
X63750478Y-94425789D01*
X63920745Y-94485368D01*
X63920750Y-94485369D01*
X64099996Y-94505565D01*
X64100000Y-94505565D01*
X64100004Y-94505565D01*
X64279249Y-94485369D01*
X64279252Y-94485368D01*
X64279255Y-94485368D01*
X64449522Y-94425789D01*
X64602262Y-94329816D01*
X64729816Y-94202262D01*
X64825789Y-94049522D01*
X64885368Y-93879255D01*
X64905565Y-93700000D01*
X64885368Y-93520745D01*
X64825789Y-93350478D01*
X64729816Y-93197738D01*
X64729814Y-93197736D01*
X64729813Y-93197734D01*
X64727550Y-93194896D01*
X64726659Y-93192715D01*
X64726111Y-93191842D01*
X64726264Y-93191745D01*
X64701144Y-93130209D01*
X64700500Y-93117587D01*
X64700500Y-91734410D01*
X64720185Y-91667371D01*
X64736814Y-91646734D01*
X82987819Y-73395728D01*
X83049142Y-73362244D01*
X83118834Y-73367228D01*
X83174767Y-73409100D01*
X83199184Y-73474564D01*
X83199500Y-73483410D01*
X83199500Y-85899903D01*
X83179815Y-85966942D01*
X83163181Y-85987584D01*
X81887584Y-87263181D01*
X81826261Y-87296666D01*
X81799903Y-87299500D01*
X80582412Y-87299500D01*
X80515373Y-87279815D01*
X80505097Y-87272445D01*
X80502263Y-87270185D01*
X80502262Y-87270184D01*
X80445496Y-87234515D01*
X80349523Y-87174211D01*
X80179254Y-87114631D01*
X80179249Y-87114630D01*
X80000004Y-87094435D01*
X79999996Y-87094435D01*
X79850410Y-87111288D01*
X79781588Y-87099233D01*
X79730209Y-87051884D01*
X79712585Y-86984273D01*
X79734312Y-86917868D01*
X79748841Y-86900392D01*
X80318535Y-86330698D01*
X80379856Y-86297215D01*
X80392311Y-86295163D01*
X80479255Y-86285368D01*
X80649522Y-86225789D01*
X80802262Y-86129816D01*
X80929816Y-86002262D01*
X81025789Y-85849522D01*
X81085368Y-85679255D01*
X81105565Y-85500000D01*
X81102419Y-85472082D01*
X81085369Y-85320750D01*
X81085368Y-85320745D01*
X81025788Y-85150476D01*
X80929815Y-84997737D01*
X80802262Y-84870184D01*
X80649523Y-84774211D01*
X80479254Y-84714631D01*
X80479249Y-84714630D01*
X80300004Y-84694435D01*
X80299996Y-84694435D01*
X80120750Y-84714630D01*
X80120745Y-84714631D01*
X79950476Y-84774211D01*
X79797737Y-84870184D01*
X79670184Y-84997737D01*
X79574210Y-85150478D01*
X79514630Y-85320750D01*
X79504837Y-85407668D01*
X79477770Y-85472082D01*
X79469298Y-85481465D01*
X75087584Y-89863181D01*
X75026261Y-89896666D01*
X74999903Y-89899500D01*
X73679057Y-89899500D01*
X73520943Y-89899500D01*
X73368215Y-89940423D01*
X73368214Y-89940423D01*
X73368212Y-89940424D01*
X73368209Y-89940425D01*
X73318098Y-89969358D01*
X73318092Y-89969362D01*
X73290922Y-89985047D01*
X73242811Y-90000877D01*
X73120750Y-90014630D01*
X72950478Y-90074210D01*
X72797737Y-90170184D01*
X72670184Y-90297737D01*
X72574211Y-90450476D01*
X72514631Y-90620745D01*
X72514630Y-90620750D01*
X72494435Y-90799996D01*
X72494435Y-90800003D01*
X72514630Y-90979249D01*
X72514631Y-90979254D01*
X72574211Y-91149523D01*
X72637360Y-91250023D01*
X72670184Y-91302262D01*
X72797738Y-91429816D01*
X72887783Y-91486395D01*
X72930719Y-91513374D01*
X72950478Y-91525789D01*
X73083922Y-91572483D01*
X73120745Y-91585368D01*
X73120750Y-91585369D01*
X73299996Y-91605565D01*
X73300000Y-91605565D01*
X73300004Y-91605565D01*
X73479249Y-91585369D01*
X73479252Y-91585368D01*
X73479255Y-91585368D01*
X73649522Y-91525789D01*
X73802262Y-91429816D01*
X73929816Y-91302262D01*
X74020130Y-91158527D01*
X74072465Y-91112237D01*
X74125124Y-91100500D01*
X75213331Y-91100500D01*
X75213347Y-91100501D01*
X75220943Y-91100501D01*
X75379054Y-91100501D01*
X75379057Y-91100501D01*
X75531785Y-91059577D01*
X75581904Y-91030639D01*
X75668716Y-90980520D01*
X75780520Y-90868716D01*
X75780520Y-90868714D01*
X75790728Y-90858507D01*
X75790730Y-90858504D01*
X79000389Y-87648844D01*
X79061710Y-87615361D01*
X79131402Y-87620345D01*
X79187335Y-87662217D01*
X79211752Y-87727681D01*
X79211288Y-87750410D01*
X79194435Y-87899995D01*
X79194435Y-87900003D01*
X79214630Y-88079249D01*
X79214631Y-88079254D01*
X79274211Y-88249523D01*
X79305614Y-88299500D01*
X79370184Y-88402262D01*
X79497738Y-88529816D01*
X79553039Y-88564564D01*
X79648499Y-88624546D01*
X79650478Y-88625789D01*
X79820745Y-88685368D01*
X79820749Y-88685369D01*
X79885320Y-88692644D01*
X79949734Y-88719710D01*
X79989289Y-88777304D01*
X79994657Y-88801980D01*
X80014630Y-88979250D01*
X80014631Y-88979254D01*
X80074211Y-89149523D01*
X80149665Y-89269606D01*
X80170184Y-89302262D01*
X80297738Y-89429816D01*
X80388080Y-89486582D01*
X80445512Y-89522669D01*
X80450478Y-89525789D01*
X80509464Y-89546429D01*
X80620745Y-89585368D01*
X80620750Y-89585369D01*
X80799996Y-89605565D01*
X80800000Y-89605565D01*
X80800004Y-89605565D01*
X80979249Y-89585369D01*
X80979252Y-89585368D01*
X80979255Y-89585368D01*
X81149522Y-89525789D01*
X81302262Y-89429816D01*
X81302267Y-89429810D01*
X81305097Y-89427555D01*
X81307275Y-89426665D01*
X81308158Y-89426111D01*
X81308255Y-89426265D01*
X81369783Y-89401145D01*
X81382412Y-89400500D01*
X82198177Y-89400500D01*
X82265216Y-89420185D01*
X82310971Y-89472989D01*
X82320915Y-89542147D01*
X82314359Y-89567833D01*
X82280908Y-89657517D01*
X82274501Y-89717116D01*
X82274500Y-89717135D01*
X82274500Y-91512870D01*
X82274501Y-91512876D01*
X82280908Y-91572483D01*
X82331202Y-91707328D01*
X82331206Y-91707335D01*
X82417452Y-91822544D01*
X82417455Y-91822547D01*
X82532664Y-91908793D01*
X82532671Y-91908797D01*
X82667517Y-91959091D01*
X82667516Y-91959091D01*
X82674444Y-91959835D01*
X82727127Y-91965500D01*
X84522872Y-91965499D01*
X84582483Y-91959091D01*
X84717331Y-91908796D01*
X84832546Y-91822546D01*
X84918796Y-91707331D01*
X84967810Y-91575916D01*
X85009681Y-91519984D01*
X85075145Y-91495566D01*
X85143418Y-91510417D01*
X85171673Y-91531569D01*
X85293599Y-91653495D01*
X85390384Y-91721265D01*
X85487165Y-91789032D01*
X85487167Y-91789033D01*
X85487170Y-91789035D01*
X85701337Y-91888903D01*
X85929592Y-91950063D01*
X86106034Y-91965500D01*
X86164999Y-91970659D01*
X86165000Y-91970659D01*
X86165001Y-91970659D01*
X86223966Y-91965500D01*
X86400408Y-91950063D01*
X86628663Y-91888903D01*
X86842830Y-91789035D01*
X87036401Y-91653495D01*
X87203495Y-91486401D01*
X87333425Y-91300842D01*
X87388002Y-91257217D01*
X87457500Y-91250023D01*
X87519855Y-91281546D01*
X87536575Y-91300842D01*
X87666500Y-91486395D01*
X87666505Y-91486401D01*
X87833599Y-91653495D01*
X87930384Y-91721265D01*
X88027165Y-91789032D01*
X88027167Y-91789033D01*
X88027170Y-91789035D01*
X88241337Y-91888903D01*
X88469592Y-91950063D01*
X88646034Y-91965500D01*
X88704999Y-91970659D01*
X88705000Y-91970659D01*
X88705001Y-91970659D01*
X88763966Y-91965500D01*
X88940408Y-91950063D01*
X89168663Y-91888903D01*
X89382830Y-91789035D01*
X89576401Y-91653495D01*
X89743495Y-91486401D01*
X89873425Y-91300842D01*
X89928002Y-91257217D01*
X89997500Y-91250023D01*
X90059855Y-91281546D01*
X90076575Y-91300842D01*
X90206500Y-91486395D01*
X90206505Y-91486401D01*
X90373599Y-91653495D01*
X90470384Y-91721265D01*
X90567165Y-91789032D01*
X90567167Y-91789033D01*
X90567170Y-91789035D01*
X90781337Y-91888903D01*
X91009592Y-91950063D01*
X91186034Y-91965500D01*
X91244999Y-91970659D01*
X91245000Y-91970659D01*
X91245001Y-91970659D01*
X91303966Y-91965500D01*
X91480408Y-91950063D01*
X91708663Y-91888903D01*
X91823096Y-91835541D01*
X91892173Y-91825050D01*
X91955957Y-91853570D01*
X91994196Y-91912046D01*
X91999500Y-91947924D01*
X91999500Y-92944752D01*
X91999499Y-92944770D01*
X91999499Y-93110476D01*
X91999498Y-93110476D01*
X92040423Y-93263207D01*
X92069358Y-93313322D01*
X92069359Y-93313326D01*
X92069360Y-93313326D01*
X92119479Y-93400136D01*
X92119481Y-93400139D01*
X92238349Y-93519007D01*
X92238355Y-93519012D01*
X105383717Y-106664374D01*
X105383727Y-106664385D01*
X105388057Y-106668715D01*
X105388058Y-106668716D01*
X105499862Y-106780520D01*
X105586673Y-106830639D01*
X105586675Y-106830641D01*
X105624729Y-106852611D01*
X105636793Y-106859577D01*
X105789521Y-106900501D01*
X105789524Y-106900501D01*
X105955231Y-106900501D01*
X105955247Y-106900500D01*
X109017588Y-106900500D01*
X109084627Y-106920185D01*
X109094903Y-106927555D01*
X109097736Y-106929814D01*
X109097738Y-106929816D01*
X109250478Y-107025789D01*
X109420745Y-107085368D01*
X109420750Y-107085369D01*
X109599996Y-107105565D01*
X109600000Y-107105565D01*
X109600004Y-107105565D01*
X109779249Y-107085369D01*
X109779252Y-107085368D01*
X109779255Y-107085368D01*
X109949522Y-107025789D01*
X110102262Y-106929816D01*
X110229816Y-106802262D01*
X110325789Y-106649522D01*
X110385368Y-106479255D01*
X110405565Y-106300000D01*
X110385368Y-106120745D01*
X110325789Y-105950478D01*
X110229816Y-105797738D01*
X110102262Y-105670184D01*
X110091117Y-105663181D01*
X109949523Y-105574211D01*
X109779254Y-105514631D01*
X109779249Y-105514630D01*
X109600004Y-105494435D01*
X109599996Y-105494435D01*
X109420750Y-105514630D01*
X109420745Y-105514631D01*
X109250476Y-105574211D01*
X109097736Y-105670185D01*
X109094903Y-105672445D01*
X109092724Y-105673334D01*
X109091842Y-105673889D01*
X109091744Y-105673734D01*
X109030217Y-105698855D01*
X109017588Y-105699500D01*
X106168675Y-105699500D01*
X106101636Y-105679815D01*
X106080994Y-105663181D01*
X99929494Y-99511681D01*
X99896009Y-99450358D01*
X99900993Y-99380666D01*
X99942865Y-99324733D01*
X100008329Y-99300316D01*
X100017175Y-99300000D01*
X115583252Y-99300000D01*
X115650291Y-99319685D01*
X115696046Y-99372489D01*
X115705990Y-99441647D01*
X115704338Y-99450726D01*
X115532890Y-100227485D01*
X115531929Y-100231516D01*
X115238686Y-101376800D01*
X115237591Y-101380797D01*
X114906240Y-102515651D01*
X114905012Y-102519609D01*
X114535930Y-103642737D01*
X114534571Y-103646652D01*
X114128160Y-104756841D01*
X114126671Y-104760708D01*
X113683384Y-105856710D01*
X113681766Y-105860525D01*
X113202107Y-106941095D01*
X113200362Y-106944854D01*
X112684877Y-108008764D01*
X112683008Y-108012463D01*
X112132255Y-109058567D01*
X112130264Y-109062201D01*
X111544846Y-110089345D01*
X111542734Y-110092910D01*
X110923337Y-111099892D01*
X110921107Y-111103385D01*
X110268415Y-112089097D01*
X110266070Y-112092514D01*
X109580784Y-113055895D01*
X109578326Y-113059231D01*
X109161992Y-113604949D01*
X109105679Y-113646309D01*
X109035945Y-113650658D01*
X108974929Y-113616615D01*
X108942005Y-113554990D01*
X108939632Y-113537224D01*
X108935436Y-113467863D01*
X108935436Y-113467858D01*
X108875456Y-113140559D01*
X108776463Y-112822877D01*
X108639898Y-112519443D01*
X108467754Y-112234682D01*
X108467751Y-112234678D01*
X108467748Y-112234673D01*
X108262539Y-111972744D01*
X108027255Y-111737460D01*
X107765326Y-111532251D01*
X107765318Y-111532246D01*
X107480557Y-111360102D01*
X107177123Y-111223537D01*
X107177116Y-111223534D01*
X107177104Y-111223530D01*
X106859449Y-111124546D01*
X106859445Y-111124545D01*
X106859441Y-111124544D01*
X106532142Y-111064564D01*
X106532141Y-111064563D01*
X106532136Y-111064563D01*
X106200000Y-111044473D01*
X105867863Y-111064563D01*
X105867858Y-111064564D01*
X105540559Y-111124544D01*
X105540556Y-111124544D01*
X105540550Y-111124546D01*
X105222895Y-111223530D01*
X105222879Y-111223536D01*
X105222877Y-111223537D01*
X105029656Y-111310498D01*
X104919447Y-111360100D01*
X104919445Y-111360101D01*
X104634673Y-111532251D01*
X104372744Y-111737460D01*
X104137460Y-111972744D01*
X103932251Y-112234673D01*
X103932246Y-112234682D01*
X103760102Y-112519443D01*
X103668536Y-112722895D01*
X103623536Y-112822880D01*
X103623530Y-112822895D01*
X103524546Y-113140550D01*
X103464563Y-113467863D01*
X103444473Y-113800000D01*
X103464563Y-114132136D01*
X103464563Y-114132141D01*
X103464564Y-114132142D01*
X103524544Y-114459441D01*
X103524545Y-114459445D01*
X103524546Y-114459449D01*
X103623530Y-114777104D01*
X103623534Y-114777116D01*
X103623537Y-114777123D01*
X103760102Y-115080557D01*
X103871794Y-115265318D01*
X103932251Y-115365326D01*
X104137460Y-115627255D01*
X104372744Y-115862539D01*
X104634673Y-116067748D01*
X104634678Y-116067751D01*
X104634682Y-116067754D01*
X104919443Y-116239898D01*
X105222877Y-116376463D01*
X105222890Y-116376467D01*
X105222895Y-116376469D01*
X105412129Y-116435436D01*
X105540559Y-116475456D01*
X105867858Y-116535436D01*
X106200000Y-116555527D01*
X106343389Y-116546853D01*
X106411493Y-116562454D01*
X106460353Y-116612399D01*
X106474454Y-116680831D01*
X106449320Y-116746023D01*
X106438556Y-116758308D01*
X105680448Y-117516416D01*
X105677469Y-117519297D01*
X104814046Y-118326853D01*
X104810973Y-118329633D01*
X103921011Y-119107919D01*
X103917846Y-119110594D01*
X103002432Y-119858660D01*
X102999180Y-119861229D01*
X102059231Y-120578326D01*
X102055895Y-120580784D01*
X101092514Y-121266070D01*
X101089097Y-121268415D01*
X100103385Y-121921107D01*
X100099892Y-121923337D01*
X99092910Y-122542734D01*
X99089345Y-122544846D01*
X98062201Y-123130264D01*
X98058567Y-123132255D01*
X97012463Y-123683008D01*
X97008764Y-123684877D01*
X95944854Y-124200362D01*
X95941095Y-124202107D01*
X94860525Y-124681766D01*
X94856710Y-124683384D01*
X93760708Y-125126671D01*
X93756841Y-125128160D01*
X92646652Y-125534571D01*
X92642737Y-125535930D01*
X91519609Y-125905012D01*
X91515651Y-125906240D01*
X90380797Y-126237591D01*
X90376800Y-126238686D01*
X89231516Y-126531929D01*
X89227485Y-126532890D01*
X88073014Y-126787707D01*
X88068953Y-126788532D01*
X86906639Y-127004623D01*
X86902553Y-127005312D01*
X85733688Y-127182441D01*
X85729581Y-127182994D01*
X84555379Y-127320976D01*
X84551255Y-127321390D01*
X83373177Y-127420051D01*
X83369043Y-127420328D01*
X82188300Y-127479571D01*
X82184158Y-127479710D01*
X81002072Y-127499465D01*
X80997928Y-127499465D01*
X79815841Y-127479710D01*
X79811699Y-127479571D01*
X78630956Y-127420328D01*
X78626822Y-127420051D01*
X77448744Y-127321390D01*
X77444620Y-127320976D01*
X76270418Y-127182994D01*
X76266311Y-127182441D01*
X75097446Y-127005312D01*
X75093360Y-127004623D01*
X73931046Y-126788532D01*
X73926985Y-126787707D01*
X73876070Y-126776469D01*
X73614723Y-126718784D01*
X72772514Y-126532890D01*
X72768483Y-126531929D01*
X71623199Y-126238686D01*
X71619202Y-126237591D01*
X70484348Y-125906240D01*
X70480390Y-125905012D01*
X69357262Y-125535930D01*
X69353347Y-125534571D01*
X68243158Y-125128160D01*
X68239291Y-125126671D01*
X67143289Y-124683384D01*
X67139474Y-124681766D01*
X66058904Y-124202107D01*
X66055145Y-124200362D01*
X66054398Y-124200000D01*
X78644473Y-124200000D01*
X78664563Y-124532136D01*
X78664563Y-124532141D01*
X78664564Y-124532142D01*
X78724544Y-124859441D01*
X78724545Y-124859445D01*
X78724546Y-124859449D01*
X78823530Y-125177104D01*
X78823534Y-125177116D01*
X78823537Y-125177123D01*
X78960102Y-125480557D01*
X79132246Y-125765318D01*
X79132251Y-125765326D01*
X79337460Y-126027255D01*
X79572744Y-126262539D01*
X79834673Y-126467748D01*
X79834678Y-126467751D01*
X79834682Y-126467754D01*
X80119443Y-126639898D01*
X80422877Y-126776463D01*
X80422890Y-126776467D01*
X80422895Y-126776469D01*
X80634665Y-126842458D01*
X80740559Y-126875456D01*
X81067858Y-126935436D01*
X81400000Y-126955527D01*
X81732142Y-126935436D01*
X82059441Y-126875456D01*
X82339615Y-126788151D01*
X82377104Y-126776469D01*
X82377104Y-126776468D01*
X82377123Y-126776463D01*
X82680557Y-126639898D01*
X82965318Y-126467754D01*
X83227252Y-126262542D01*
X83462542Y-126027252D01*
X83667754Y-125765318D01*
X83839898Y-125480557D01*
X83976463Y-125177123D01*
X84075456Y-124859441D01*
X84135436Y-124532142D01*
X84155527Y-124200000D01*
X84135436Y-123867858D01*
X84075456Y-123540559D01*
X83976463Y-123222877D01*
X83839898Y-122919443D01*
X83667754Y-122634682D01*
X83667751Y-122634678D01*
X83667748Y-122634673D01*
X83462539Y-122372744D01*
X83227255Y-122137460D01*
X82965326Y-121932251D01*
X82965318Y-121932246D01*
X82680557Y-121760102D01*
X82377123Y-121623537D01*
X82377116Y-121623534D01*
X82377104Y-121623530D01*
X82059449Y-121524546D01*
X82059445Y-121524545D01*
X82059441Y-121524544D01*
X81732142Y-121464564D01*
X81732141Y-121464563D01*
X81732136Y-121464563D01*
X81400000Y-121444473D01*
X81067863Y-121464563D01*
X81067858Y-121464564D01*
X80740559Y-121524544D01*
X80740556Y-121524544D01*
X80740550Y-121524546D01*
X80422895Y-121623530D01*
X80422879Y-121623536D01*
X80422877Y-121623537D01*
X80285497Y-121685367D01*
X80119447Y-121760100D01*
X80119445Y-121760101D01*
X79834673Y-121932251D01*
X79572744Y-122137460D01*
X79337460Y-122372744D01*
X79132251Y-122634673D01*
X78960101Y-122919445D01*
X78960100Y-122919447D01*
X78823536Y-123222880D01*
X78823530Y-123222895D01*
X78724546Y-123540550D01*
X78724544Y-123540556D01*
X78724544Y-123540559D01*
X78698097Y-123684877D01*
X78664563Y-123867863D01*
X78644473Y-124200000D01*
X66054398Y-124200000D01*
X64991235Y-123684877D01*
X64987536Y-123683008D01*
X63941432Y-123132255D01*
X63937798Y-123130264D01*
X63567909Y-122919447D01*
X63424226Y-122837555D01*
X62910654Y-122544846D01*
X62907089Y-122542734D01*
X61900107Y-121923337D01*
X61896614Y-121921107D01*
X60910902Y-121268415D01*
X60907485Y-121266070D01*
X59944104Y-120580784D01*
X59940768Y-120578326D01*
X59000819Y-119861229D01*
X58997567Y-119858660D01*
X58082153Y-119110594D01*
X58078988Y-119107919D01*
X57189026Y-118329633D01*
X57185953Y-118326853D01*
X56515737Y-117700003D01*
X64094435Y-117700003D01*
X64114630Y-117879249D01*
X64114631Y-117879254D01*
X64174211Y-118049523D01*
X64270185Y-118202263D01*
X64272445Y-118205097D01*
X64273334Y-118207275D01*
X64273889Y-118208158D01*
X64273734Y-118208255D01*
X64298855Y-118269783D01*
X64299500Y-118282412D01*
X64299500Y-119513330D01*
X64299499Y-119513348D01*
X64299499Y-119679054D01*
X64299498Y-119679054D01*
X64299499Y-119679057D01*
X64340423Y-119831785D01*
X64355939Y-119858660D01*
X64356704Y-119859984D01*
X64356705Y-119859986D01*
X64419477Y-119968712D01*
X64419481Y-119968717D01*
X64538349Y-120087585D01*
X64538355Y-120087590D01*
X64869298Y-120418533D01*
X64902783Y-120479856D01*
X64904837Y-120492330D01*
X64914630Y-120579249D01*
X64974210Y-120749521D01*
X65037838Y-120850784D01*
X65070184Y-120902262D01*
X65197738Y-121029816D01*
X65350478Y-121125789D01*
X65520745Y-121185368D01*
X65520750Y-121185369D01*
X65699996Y-121205565D01*
X65700000Y-121205565D01*
X65700004Y-121205565D01*
X65879249Y-121185369D01*
X65879252Y-121185368D01*
X65879255Y-121185368D01*
X66049522Y-121125789D01*
X66202262Y-121029816D01*
X66202267Y-121029810D01*
X66205097Y-121027555D01*
X66207275Y-121026665D01*
X66208158Y-121026111D01*
X66208255Y-121026265D01*
X66269783Y-121001145D01*
X66282412Y-121000500D01*
X86099903Y-121000500D01*
X86166942Y-121020185D01*
X86187584Y-121036819D01*
X87315139Y-122164374D01*
X87315149Y-122164385D01*
X87319479Y-122168715D01*
X87319480Y-122168716D01*
X87431284Y-122280520D01*
X87518095Y-122330639D01*
X87518097Y-122330641D01*
X87556151Y-122352611D01*
X87568215Y-122359577D01*
X87720943Y-122400501D01*
X87720946Y-122400501D01*
X87886653Y-122400501D01*
X87886669Y-122400500D01*
X93617588Y-122400500D01*
X93684627Y-122420185D01*
X93694903Y-122427555D01*
X93697736Y-122429814D01*
X93697738Y-122429816D01*
X93850478Y-122525789D01*
X93902025Y-122543826D01*
X94020745Y-122585368D01*
X94020750Y-122585369D01*
X94199996Y-122605565D01*
X94200000Y-122605565D01*
X94200004Y-122605565D01*
X94379249Y-122585369D01*
X94379252Y-122585368D01*
X94379255Y-122585368D01*
X94549522Y-122525789D01*
X94702262Y-122429816D01*
X94702267Y-122429810D01*
X94705097Y-122427555D01*
X94707275Y-122426665D01*
X94708158Y-122426111D01*
X94708255Y-122426265D01*
X94769783Y-122401145D01*
X94782412Y-122400500D01*
X95013331Y-122400500D01*
X95013347Y-122400501D01*
X95020943Y-122400501D01*
X95179054Y-122400501D01*
X95179057Y-122400501D01*
X95331785Y-122359577D01*
X95381904Y-122330639D01*
X95468716Y-122280520D01*
X95580520Y-122168716D01*
X95580520Y-122168714D01*
X95590728Y-122158507D01*
X95590730Y-122158504D01*
X96018535Y-121730698D01*
X96079856Y-121697215D01*
X96092311Y-121695163D01*
X96179255Y-121685368D01*
X96349522Y-121625789D01*
X96502262Y-121529816D01*
X96629816Y-121402262D01*
X96725789Y-121249522D01*
X96785368Y-121079255D01*
X96785369Y-121079249D01*
X96805565Y-120900003D01*
X96805565Y-120899996D01*
X96785369Y-120720750D01*
X96785368Y-120720745D01*
X96725789Y-120550478D01*
X96629816Y-120397738D01*
X96502262Y-120270184D01*
X96349523Y-120174211D01*
X96179254Y-120114631D01*
X96179249Y-120114630D01*
X96000004Y-120094435D01*
X95999996Y-120094435D01*
X95820750Y-120114630D01*
X95820745Y-120114631D01*
X95650476Y-120174211D01*
X95497737Y-120270184D01*
X95370184Y-120397737D01*
X95274210Y-120550478D01*
X95214630Y-120720750D01*
X95204837Y-120807668D01*
X95177770Y-120872082D01*
X95169298Y-120881465D01*
X94887582Y-121163182D01*
X94826262Y-121196666D01*
X94799903Y-121199500D01*
X94782412Y-121199500D01*
X94715373Y-121179815D01*
X94705097Y-121172445D01*
X94702263Y-121170185D01*
X94702262Y-121170184D01*
X94631606Y-121125788D01*
X94549523Y-121074211D01*
X94379254Y-121014631D01*
X94379249Y-121014630D01*
X94200004Y-120994435D01*
X94199996Y-120994435D01*
X94020750Y-121014630D01*
X94020745Y-121014631D01*
X93850476Y-121074211D01*
X93697736Y-121170185D01*
X93694903Y-121172445D01*
X93692724Y-121173334D01*
X93691842Y-121173889D01*
X93691744Y-121173734D01*
X93630217Y-121198855D01*
X93617588Y-121199500D01*
X88100097Y-121199500D01*
X88033058Y-121179815D01*
X88012416Y-121163181D01*
X86887590Y-120038355D01*
X86887588Y-120038352D01*
X86768717Y-119919481D01*
X86768709Y-119919475D01*
X86666936Y-119860717D01*
X86666934Y-119860716D01*
X86631790Y-119840425D01*
X86631789Y-119840424D01*
X86619263Y-119837067D01*
X86479057Y-119799499D01*
X86320943Y-119799499D01*
X86313347Y-119799499D01*
X86313331Y-119799500D01*
X66282412Y-119799500D01*
X66215373Y-119779815D01*
X66205097Y-119772445D01*
X66202263Y-119770185D01*
X66202262Y-119770184D01*
X66125892Y-119722197D01*
X66049521Y-119674210D01*
X65879249Y-119614630D01*
X65792330Y-119604837D01*
X65727916Y-119577770D01*
X65718533Y-119569298D01*
X65536819Y-119387584D01*
X65503334Y-119326261D01*
X65500500Y-119299903D01*
X65500500Y-118282412D01*
X65520185Y-118215373D01*
X65527555Y-118205097D01*
X65529810Y-118202267D01*
X65529816Y-118202262D01*
X65625789Y-118049522D01*
X65685368Y-117879255D01*
X65705565Y-117700000D01*
X65685368Y-117520745D01*
X65625789Y-117350478D01*
X65529816Y-117197738D01*
X65402262Y-117070184D01*
X65249523Y-116974211D01*
X65079254Y-116914631D01*
X65079249Y-116914630D01*
X64900004Y-116894435D01*
X64899996Y-116894435D01*
X64720750Y-116914630D01*
X64720745Y-116914631D01*
X64550476Y-116974211D01*
X64397737Y-117070184D01*
X64270184Y-117197737D01*
X64174211Y-117350476D01*
X64114631Y-117520745D01*
X64114630Y-117520750D01*
X64094435Y-117699996D01*
X64094435Y-117700003D01*
X56515737Y-117700003D01*
X56322530Y-117519297D01*
X56319551Y-117516416D01*
X55483583Y-116680448D01*
X55480702Y-116677469D01*
X54673146Y-115814046D01*
X54670366Y-115810973D01*
X53892080Y-114921011D01*
X53889405Y-114917846D01*
X53774404Y-114777119D01*
X53433083Y-114359441D01*
X53141339Y-114002432D01*
X53138770Y-113999180D01*
X52910522Y-113700000D01*
X54444473Y-113700000D01*
X54464563Y-114032136D01*
X54464563Y-114032141D01*
X54464564Y-114032142D01*
X54524544Y-114359441D01*
X54524545Y-114359445D01*
X54524546Y-114359449D01*
X54623530Y-114677104D01*
X54623534Y-114677116D01*
X54623537Y-114677123D01*
X54760102Y-114980557D01*
X54932246Y-115265318D01*
X54932251Y-115265326D01*
X55137460Y-115527255D01*
X55372744Y-115762539D01*
X55634673Y-115967748D01*
X55634678Y-115967751D01*
X55634682Y-115967754D01*
X55919443Y-116139898D01*
X56222877Y-116276463D01*
X56222890Y-116276467D01*
X56222895Y-116276469D01*
X56434665Y-116342458D01*
X56540559Y-116375456D01*
X56867858Y-116435436D01*
X57200000Y-116455527D01*
X57532142Y-116435436D01*
X57859441Y-116375456D01*
X58177123Y-116276463D01*
X58480557Y-116139898D01*
X58765318Y-115967754D01*
X59027252Y-115762542D01*
X59262542Y-115527252D01*
X59467754Y-115265318D01*
X59639898Y-114980557D01*
X59776463Y-114677123D01*
X59875456Y-114359441D01*
X59935436Y-114032142D01*
X59955527Y-113700000D01*
X59935436Y-113367858D01*
X59875456Y-113040559D01*
X59776463Y-112722877D01*
X59639898Y-112419443D01*
X59467754Y-112134682D01*
X59467751Y-112134678D01*
X59467748Y-112134673D01*
X59262539Y-111872744D01*
X59027255Y-111637460D01*
X58765326Y-111432251D01*
X58645977Y-111360102D01*
X58480557Y-111260102D01*
X58177123Y-111123537D01*
X58177116Y-111123534D01*
X58177104Y-111123530D01*
X57859449Y-111024546D01*
X57859445Y-111024545D01*
X57859441Y-111024544D01*
X57532142Y-110964564D01*
X57532141Y-110964563D01*
X57532136Y-110964563D01*
X57200000Y-110944473D01*
X56867863Y-110964563D01*
X56867858Y-110964564D01*
X56540559Y-111024544D01*
X56540556Y-111024544D01*
X56540550Y-111024546D01*
X56222895Y-111123530D01*
X56222879Y-111123536D01*
X56222877Y-111123537D01*
X56029656Y-111210498D01*
X55919447Y-111260100D01*
X55919445Y-111260101D01*
X55634673Y-111432251D01*
X55372744Y-111637460D01*
X55137460Y-111872744D01*
X54932251Y-112134673D01*
X54760101Y-112419445D01*
X54760100Y-112419447D01*
X54623536Y-112722880D01*
X54623530Y-112722895D01*
X54524546Y-113040550D01*
X54524544Y-113040556D01*
X54524544Y-113040559D01*
X54506220Y-113140550D01*
X54464563Y-113367863D01*
X54444473Y-113700000D01*
X52910522Y-113700000D01*
X52421673Y-113059231D01*
X52419215Y-113055895D01*
X51733929Y-112092514D01*
X51731584Y-112089097D01*
X51092904Y-111124546D01*
X51078887Y-111103377D01*
X51076662Y-111099892D01*
X51042574Y-111044473D01*
X50457259Y-110092901D01*
X50455153Y-110089345D01*
X50047839Y-109374693D01*
X49869719Y-109062172D01*
X49867760Y-109058597D01*
X49316991Y-108012463D01*
X49315122Y-108008764D01*
X48799637Y-106944854D01*
X48797892Y-106941095D01*
X48318233Y-105860525D01*
X48316615Y-105856710D01*
X47873328Y-104760708D01*
X47871839Y-104756841D01*
X47465428Y-103646652D01*
X47464069Y-103642737D01*
X47155988Y-102705236D01*
X47094975Y-102519571D01*
X47093771Y-102515690D01*
X46762398Y-101380762D01*
X46761322Y-101376835D01*
X46468064Y-100231491D01*
X46467109Y-100227485D01*
X46212281Y-99072964D01*
X46211477Y-99069003D01*
X45995372Y-97906615D01*
X45994687Y-97902553D01*
X45817558Y-96733688D01*
X45817005Y-96729581D01*
X45679018Y-95555333D01*
X45678613Y-95551303D01*
X45579945Y-94373145D01*
X45579673Y-94369075D01*
X45520426Y-93188263D01*
X45520290Y-93184195D01*
X45506769Y-92375167D01*
X45525331Y-92307811D01*
X45577363Y-92261180D01*
X45646346Y-92250082D01*
X45710377Y-92278041D01*
X45743828Y-92322207D01*
X45860099Y-92580552D01*
X45860100Y-92580553D01*
X45860102Y-92580557D01*
X46032246Y-92865318D01*
X46032251Y-92865326D01*
X46237460Y-93127255D01*
X46472744Y-93362539D01*
X46734673Y-93567748D01*
X46734678Y-93567751D01*
X46734682Y-93567754D01*
X47019443Y-93739898D01*
X47322877Y-93876463D01*
X47322890Y-93876467D01*
X47322895Y-93876469D01*
X47534665Y-93942458D01*
X47640559Y-93975456D01*
X47967858Y-94035436D01*
X48300000Y-94055527D01*
X48632142Y-94035436D01*
X48959441Y-93975456D01*
X49268163Y-93879255D01*
X49277104Y-93876469D01*
X49277104Y-93876468D01*
X49277123Y-93876463D01*
X49580557Y-93739898D01*
X49865318Y-93567754D01*
X50127252Y-93362542D01*
X50362542Y-93127252D01*
X50567754Y-92865318D01*
X50739898Y-92580557D01*
X50876463Y-92277123D01*
X50975456Y-91959441D01*
X51035436Y-91632142D01*
X51055527Y-91300000D01*
X51035436Y-90967858D01*
X50975456Y-90640559D01*
X50916224Y-90450476D01*
X50876469Y-90322895D01*
X50876467Y-90322890D01*
X50876463Y-90322877D01*
X50739898Y-90019443D01*
X50567754Y-89734682D01*
X50567751Y-89734678D01*
X50567748Y-89734673D01*
X50362539Y-89472744D01*
X50127255Y-89237460D01*
X49865326Y-89032251D01*
X49777660Y-88979255D01*
X49580557Y-88860102D01*
X49277123Y-88723537D01*
X49277116Y-88723534D01*
X49277104Y-88723530D01*
X48959449Y-88624546D01*
X48959445Y-88624545D01*
X48959441Y-88624544D01*
X48632142Y-88564564D01*
X48632141Y-88564563D01*
X48632136Y-88564563D01*
X48300000Y-88544473D01*
X47967863Y-88564563D01*
X47967858Y-88564564D01*
X47640559Y-88624544D01*
X47640556Y-88624544D01*
X47640550Y-88624546D01*
X47322895Y-88723530D01*
X47322879Y-88723536D01*
X47322877Y-88723537D01*
X47203412Y-88777304D01*
X47019447Y-88860100D01*
X47019445Y-88860101D01*
X46734673Y-89032251D01*
X46472744Y-89237460D01*
X46237460Y-89472744D01*
X46032251Y-89734673D01*
X46026855Y-89743599D01*
X45863011Y-90014632D01*
X45860101Y-90019445D01*
X45860092Y-90019461D01*
X45792418Y-90169828D01*
X45746954Y-90222883D01*
X45680024Y-90242935D01*
X45612877Y-90223619D01*
X45566833Y-90171067D01*
X45555499Y-90112723D01*
X45579673Y-89630920D01*
X45579945Y-89626858D01*
X45678614Y-88448690D01*
X45679017Y-88444672D01*
X45817009Y-87270388D01*
X45817553Y-87266342D01*
X45994692Y-86097411D01*
X45995370Y-86093394D01*
X46211479Y-84930984D01*
X46212279Y-84927047D01*
X46467118Y-83772475D01*
X46468060Y-83768522D01*
X46716044Y-82800003D01*
X61594435Y-82800003D01*
X61614630Y-82979249D01*
X61614631Y-82979254D01*
X61674211Y-83149523D01*
X61770184Y-83302262D01*
X61897738Y-83429816D01*
X62050478Y-83525789D01*
X62220745Y-83585368D01*
X62220750Y-83585369D01*
X62399996Y-83605565D01*
X62400000Y-83605565D01*
X62400004Y-83605565D01*
X62579249Y-83585369D01*
X62579252Y-83585368D01*
X62579255Y-83585368D01*
X62749522Y-83525789D01*
X62902262Y-83429816D01*
X63029816Y-83302262D01*
X63125789Y-83149522D01*
X63185368Y-82979255D01*
X63195161Y-82892329D01*
X63222226Y-82827918D01*
X63230690Y-82818543D01*
X65035571Y-81013662D01*
X65082292Y-80984305D01*
X65249522Y-80925789D01*
X65402262Y-80829816D01*
X65529816Y-80702262D01*
X65625789Y-80549522D01*
X65685368Y-80379255D01*
X65688287Y-80353347D01*
X65705565Y-80200003D01*
X65705565Y-80199996D01*
X65685369Y-80020750D01*
X65685368Y-80020745D01*
X65659053Y-79945542D01*
X65625789Y-79850478D01*
X65529816Y-79697738D01*
X65402262Y-79570184D01*
X65373849Y-79552331D01*
X65249523Y-79474211D01*
X65079254Y-79414631D01*
X65079249Y-79414630D01*
X64900004Y-79394435D01*
X64899996Y-79394435D01*
X64720750Y-79414630D01*
X64720745Y-79414631D01*
X64550476Y-79474211D01*
X64397737Y-79570184D01*
X64270184Y-79697737D01*
X64174211Y-79850476D01*
X64114631Y-80020745D01*
X64114630Y-80020750D01*
X64094435Y-80199996D01*
X64094435Y-80204967D01*
X64074750Y-80272006D01*
X64058116Y-80292648D01*
X62381465Y-81969298D01*
X62320142Y-82002783D01*
X62307668Y-82004837D01*
X62220750Y-82014630D01*
X62050478Y-82074210D01*
X61897737Y-82170184D01*
X61770184Y-82297737D01*
X61674211Y-82450476D01*
X61614631Y-82620745D01*
X61614630Y-82620750D01*
X61594435Y-82799996D01*
X61594435Y-82800003D01*
X46716044Y-82800003D01*
X46761326Y-82623149D01*
X46762394Y-82619252D01*
X47093776Y-81484292D01*
X47094969Y-81480445D01*
X47464075Y-80357243D01*
X47465428Y-80353347D01*
X47476750Y-80322420D01*
X47829846Y-79357870D01*
X53349500Y-79357870D01*
X53349501Y-79357876D01*
X53355908Y-79417483D01*
X53406202Y-79552328D01*
X53406206Y-79552335D01*
X53492452Y-79667544D01*
X53492455Y-79667547D01*
X53607664Y-79753793D01*
X53607671Y-79753797D01*
X53607674Y-79753798D01*
X53739598Y-79803002D01*
X53795531Y-79844873D01*
X53819949Y-79910337D01*
X53805098Y-79978610D01*
X53783947Y-80006865D01*
X53661886Y-80128926D01*
X53526400Y-80322420D01*
X53526399Y-80322422D01*
X53426570Y-80536507D01*
X53426567Y-80536513D01*
X53369364Y-80749999D01*
X53369364Y-80750000D01*
X54266988Y-80750000D01*
X54234075Y-80807007D01*
X54200000Y-80934174D01*
X54200000Y-81065826D01*
X54234075Y-81192993D01*
X54266988Y-81250000D01*
X53369364Y-81250000D01*
X53426567Y-81463486D01*
X53426570Y-81463492D01*
X53526399Y-81677578D01*
X53661894Y-81871082D01*
X53828917Y-82038105D01*
X54022421Y-82173600D01*
X54236507Y-82273429D01*
X54236516Y-82273433D01*
X54450000Y-82330634D01*
X54450000Y-81433012D01*
X54507007Y-81465925D01*
X54634174Y-81500000D01*
X54765826Y-81500000D01*
X54892993Y-81465925D01*
X54950000Y-81433012D01*
X54950000Y-82330633D01*
X55163483Y-82273433D01*
X55163492Y-82273429D01*
X55377578Y-82173600D01*
X55571082Y-82038105D01*
X55738105Y-81871082D01*
X55873600Y-81677578D01*
X55973429Y-81463492D01*
X55973432Y-81463486D01*
X56030636Y-81250000D01*
X55133012Y-81250000D01*
X55165925Y-81192993D01*
X55200000Y-81065826D01*
X55200000Y-80934174D01*
X55165925Y-80807007D01*
X55133012Y-80750000D01*
X56030636Y-80750000D01*
X56030635Y-80749999D01*
X55973432Y-80536513D01*
X55973429Y-80536507D01*
X55873600Y-80322422D01*
X55873599Y-80322420D01*
X55738113Y-80128926D01*
X55738108Y-80128920D01*
X55616053Y-80006865D01*
X55582568Y-79945542D01*
X55587552Y-79875850D01*
X55629424Y-79819917D01*
X55660400Y-79803002D01*
X55792331Y-79753796D01*
X55907546Y-79667546D01*
X55993796Y-79552331D01*
X56044091Y-79417483D01*
X56050500Y-79357873D01*
X56050499Y-77562128D01*
X56044091Y-77502517D01*
X56043579Y-77501145D01*
X55993797Y-77367671D01*
X55993793Y-77367664D01*
X55907547Y-77252455D01*
X55907544Y-77252452D01*
X55792335Y-77166206D01*
X55792328Y-77166202D01*
X55657482Y-77115908D01*
X55657483Y-77115908D01*
X55597883Y-77109501D01*
X55597881Y-77109500D01*
X55597873Y-77109500D01*
X55597864Y-77109500D01*
X53802129Y-77109500D01*
X53802123Y-77109501D01*
X53742516Y-77115908D01*
X53607671Y-77166202D01*
X53607664Y-77166206D01*
X53492455Y-77252452D01*
X53492452Y-77252455D01*
X53406206Y-77367664D01*
X53406202Y-77367671D01*
X53355908Y-77502517D01*
X53349501Y-77562116D01*
X53349501Y-77562123D01*
X53349500Y-77562135D01*
X53349500Y-79357870D01*
X47829846Y-79357870D01*
X47871853Y-79243121D01*
X47873313Y-79239328D01*
X48316620Y-78143275D01*
X48318233Y-78139474D01*
X48546255Y-77625789D01*
X48797900Y-77058885D01*
X48799637Y-77055145D01*
X49315132Y-75991214D01*
X49316991Y-75987536D01*
X49867773Y-74941377D01*
X49869705Y-74937852D01*
X50455173Y-73910618D01*
X50457243Y-73907124D01*
X51076684Y-72900072D01*
X51078869Y-72896649D01*
X51731589Y-71910893D01*
X51733929Y-71907485D01*
X51755996Y-71876463D01*
X52419222Y-70944093D01*
X52421673Y-70940768D01*
X52455319Y-70896666D01*
X53138783Y-70000802D01*
X53141339Y-69997567D01*
X53889434Y-69082118D01*
X53892051Y-69079022D01*
X54431460Y-68462212D01*
X54490408Y-68424708D01*
X54560277Y-68425026D01*
X54618882Y-68463068D01*
X54647617Y-68526755D01*
X54643186Y-68580731D01*
X54624545Y-68640553D01*
X54564563Y-68967863D01*
X54544473Y-69300000D01*
X54564563Y-69632136D01*
X54564563Y-69632141D01*
X54564564Y-69632142D01*
X54624544Y-69959441D01*
X54624545Y-69959445D01*
X54624546Y-69959449D01*
X54723530Y-70277104D01*
X54723534Y-70277116D01*
X54723537Y-70277123D01*
X54860102Y-70580557D01*
X55030954Y-70863181D01*
X55032251Y-70865326D01*
X55237460Y-71127255D01*
X55472744Y-71362539D01*
X55734673Y-71567748D01*
X55734678Y-71567751D01*
X55734682Y-71567754D01*
X56019443Y-71739898D01*
X56322877Y-71876463D01*
X56322890Y-71876467D01*
X56322895Y-71876469D01*
X56427809Y-71909161D01*
X56640559Y-71975456D01*
X56967858Y-72035436D01*
X57300000Y-72055527D01*
X57632142Y-72035436D01*
X57959441Y-71975456D01*
X58277123Y-71876463D01*
X58580557Y-71739898D01*
X58865318Y-71567754D01*
X59127252Y-71362542D01*
X59362542Y-71127252D01*
X59540974Y-70899500D01*
X59567748Y-70865326D01*
X59567748Y-70865324D01*
X59567754Y-70865318D01*
X59739898Y-70580557D01*
X59876463Y-70277123D01*
X59975456Y-69959441D01*
X60035436Y-69632142D01*
X60055527Y-69300000D01*
X60035436Y-68967858D01*
X59975456Y-68640559D01*
X59942458Y-68534665D01*
X59876469Y-68322895D01*
X59876467Y-68322890D01*
X59876463Y-68322877D01*
X59739898Y-68019443D01*
X59567754Y-67734682D01*
X59567751Y-67734678D01*
X59567748Y-67734673D01*
X59362539Y-67472744D01*
X59127255Y-67237460D01*
X58865326Y-67032251D01*
X58865318Y-67032246D01*
X58580557Y-66860102D01*
X58277123Y-66723537D01*
X58277116Y-66723534D01*
X58277104Y-66723530D01*
X57959449Y-66624546D01*
X57959445Y-66624545D01*
X57959441Y-66624544D01*
X57632142Y-66564564D01*
X57632141Y-66564563D01*
X57632136Y-66564563D01*
X57300000Y-66544473D01*
X56967863Y-66564563D01*
X56640558Y-66624544D01*
X56450366Y-66683810D01*
X56380506Y-66684960D01*
X56321113Y-66648159D01*
X56291045Y-66585090D01*
X56299849Y-66515777D01*
X56328771Y-66474864D01*
X57185965Y-65673134D01*
X57189026Y-65670366D01*
X57327210Y-65549522D01*
X58079022Y-64892051D01*
X58082118Y-64889434D01*
X58997584Y-64141325D01*
X59000802Y-64138783D01*
X59940778Y-63421665D01*
X59944104Y-63419215D01*
X59963294Y-63405565D01*
X60907492Y-62733923D01*
X60910902Y-62731584D01*
X60957846Y-62700500D01*
X61896649Y-62078869D01*
X61900072Y-62076684D01*
X62907124Y-61457243D01*
X62910618Y-61455173D01*
X63937852Y-60869705D01*
X63941377Y-60867773D01*
X64987557Y-60316980D01*
X64991214Y-60315132D01*
X66055163Y-59799628D01*
X66058885Y-59797900D01*
X67139488Y-59318226D01*
X67143275Y-59316620D01*
X68239328Y-58873313D01*
X68243121Y-58871853D01*
X69353365Y-58465421D01*
X69357244Y-58464075D01*
X69653706Y-58366651D01*
X69723539Y-58364423D01*
X69783492Y-58400303D01*
G37*
%TD.AperFunction*%
%TA.AperFunction,Conductor*%
G36*
X92346292Y-58366651D02*
G01*
X92377643Y-58376954D01*
X92642737Y-58464069D01*
X92646652Y-58465428D01*
X93756858Y-58871845D01*
X93760691Y-58873321D01*
X94315549Y-59097738D01*
X94856710Y-59316615D01*
X94860525Y-59318233D01*
X95941095Y-59797892D01*
X95944854Y-59799637D01*
X97008764Y-60315122D01*
X97012463Y-60316991D01*
X98058597Y-60867760D01*
X98062172Y-60869719D01*
X98947403Y-61374253D01*
X98995897Y-61424549D01*
X99010000Y-61481982D01*
X99010000Y-98292825D01*
X98990315Y-98359864D01*
X98937511Y-98405619D01*
X98868353Y-98415563D01*
X98804797Y-98386538D01*
X98798319Y-98380506D01*
X93236819Y-92819006D01*
X93203334Y-92757683D01*
X93200500Y-92731325D01*
X93200500Y-92018124D01*
X93220185Y-91951085D01*
X93272989Y-91905330D01*
X93342147Y-91895386D01*
X93356578Y-91898345D01*
X93549592Y-91950063D01*
X93726034Y-91965500D01*
X93784999Y-91970659D01*
X93785000Y-91970659D01*
X93785001Y-91970659D01*
X93843966Y-91965500D01*
X94020408Y-91950063D01*
X94248663Y-91888903D01*
X94462830Y-91789035D01*
X94656401Y-91653495D01*
X94823495Y-91486401D01*
X94959035Y-91292830D01*
X95058903Y-91078663D01*
X95120063Y-90850408D01*
X95140659Y-90615000D01*
X95120063Y-90379592D01*
X95058903Y-90151337D01*
X94959035Y-89937171D01*
X94953425Y-89929158D01*
X94823494Y-89743597D01*
X94656402Y-89576506D01*
X94656395Y-89576501D01*
X94462834Y-89440967D01*
X94462830Y-89440965D01*
X94434072Y-89427555D01*
X94248663Y-89341097D01*
X94248659Y-89341096D01*
X94248655Y-89341094D01*
X94020413Y-89279938D01*
X94020403Y-89279936D01*
X93785001Y-89259341D01*
X93784999Y-89259341D01*
X93549596Y-89279936D01*
X93549586Y-89279938D01*
X93356593Y-89331650D01*
X93286743Y-89329987D01*
X93228881Y-89290824D01*
X93201377Y-89226596D01*
X93200500Y-89211875D01*
X93200500Y-68882412D01*
X93220185Y-68815373D01*
X93227555Y-68805097D01*
X93229810Y-68802267D01*
X93229816Y-68802262D01*
X93325789Y-68649522D01*
X93385368Y-68479255D01*
X93399878Y-68350478D01*
X93405565Y-68300003D01*
X93405565Y-68299996D01*
X93385369Y-68120750D01*
X93385368Y-68120745D01*
X93360781Y-68050480D01*
X93325789Y-67950478D01*
X93303265Y-67914632D01*
X93229815Y-67797737D01*
X93102262Y-67670184D01*
X92949523Y-67574211D01*
X92779254Y-67514631D01*
X92779249Y-67514630D01*
X92600004Y-67494435D01*
X92599996Y-67494435D01*
X92420750Y-67514630D01*
X92420745Y-67514631D01*
X92250476Y-67574211D01*
X92097737Y-67670184D01*
X91987681Y-67780241D01*
X91926358Y-67813726D01*
X91856666Y-67808742D01*
X91812319Y-67780241D01*
X91802262Y-67770184D01*
X91649523Y-67674211D01*
X91479254Y-67614631D01*
X91479249Y-67614630D01*
X91300004Y-67594435D01*
X91299996Y-67594435D01*
X91120750Y-67614630D01*
X91120745Y-67614631D01*
X90950476Y-67674211D01*
X90797737Y-67770184D01*
X90670184Y-67897737D01*
X90574209Y-68050480D01*
X90563788Y-68080262D01*
X90523067Y-68137038D01*
X90458114Y-68162785D01*
X90389552Y-68149329D01*
X90359066Y-68126988D01*
X90302262Y-68070184D01*
X90149523Y-67974211D01*
X89979254Y-67914631D01*
X89979249Y-67914630D01*
X89800004Y-67894435D01*
X89799996Y-67894435D01*
X89620750Y-67914630D01*
X89620745Y-67914631D01*
X89450476Y-67974211D01*
X89297737Y-68070184D01*
X89170184Y-68197737D01*
X89074210Y-68350478D01*
X89014630Y-68520750D01*
X89004837Y-68607667D01*
X88977770Y-68672081D01*
X88969298Y-68681464D01*
X84812310Y-72838453D01*
X84750987Y-72871938D01*
X84681295Y-72866954D01*
X84625362Y-72825082D01*
X84600945Y-72759618D01*
X84601409Y-72736888D01*
X84605565Y-72700002D01*
X84605565Y-72699997D01*
X84588726Y-72550549D01*
X84600780Y-72481727D01*
X84648129Y-72430347D01*
X84649887Y-72429312D01*
X84734402Y-72380520D01*
X84846206Y-72268716D01*
X84846206Y-72268714D01*
X84856414Y-72258507D01*
X84856415Y-72258504D01*
X87520900Y-69594022D01*
X87599957Y-69457090D01*
X87640881Y-69304363D01*
X87640881Y-69146248D01*
X87640881Y-69138653D01*
X87640880Y-69138635D01*
X87640880Y-62809591D01*
X87647838Y-62768636D01*
X87675748Y-62688875D01*
X87678931Y-62660617D01*
X87705997Y-62596204D01*
X87763591Y-62556648D01*
X87802152Y-62550500D01*
X87843658Y-62550500D01*
X87910697Y-62570185D01*
X87931339Y-62586819D01*
X88458894Y-63114374D01*
X88458904Y-63114385D01*
X88463234Y-63118715D01*
X88463235Y-63118716D01*
X88575039Y-63230520D01*
X88575041Y-63230521D01*
X88575045Y-63230524D01*
X88635572Y-63265469D01*
X88635577Y-63265471D01*
X88711964Y-63309574D01*
X88711965Y-63309575D01*
X88711967Y-63309575D01*
X88711970Y-63309577D01*
X88864698Y-63350501D01*
X88864701Y-63350501D01*
X89030408Y-63350501D01*
X89030424Y-63350500D01*
X90969576Y-63350500D01*
X90969592Y-63350501D01*
X90977188Y-63350501D01*
X91135299Y-63350501D01*
X91135302Y-63350501D01*
X91288030Y-63309577D01*
X91364425Y-63265470D01*
X91424961Y-63230520D01*
X91536765Y-63118716D01*
X91536765Y-63118714D01*
X91546969Y-63108511D01*
X91546972Y-63108506D01*
X91918661Y-62736819D01*
X91979984Y-62703334D01*
X92006342Y-62700500D01*
X92034083Y-62700500D01*
X92101122Y-62720185D01*
X92146877Y-62772989D01*
X92151125Y-62783546D01*
X92174210Y-62849521D01*
X92196561Y-62885092D01*
X92270184Y-63002262D01*
X92397738Y-63129816D01*
X92419483Y-63143479D01*
X92505833Y-63197737D01*
X92550478Y-63225789D01*
X92592317Y-63240429D01*
X92720745Y-63285368D01*
X92720750Y-63285369D01*
X92896360Y-63305155D01*
X92914570Y-63308600D01*
X92918215Y-63309576D01*
X92918216Y-63309577D01*
X93030019Y-63339534D01*
X93070942Y-63350500D01*
X93070943Y-63350500D01*
X95200028Y-63350500D01*
X95240983Y-63357458D01*
X95320745Y-63385368D01*
X95320750Y-63385369D01*
X95499996Y-63405565D01*
X95500000Y-63405565D01*
X95500004Y-63405565D01*
X95679249Y-63385369D01*
X95679252Y-63385368D01*
X95679255Y-63385368D01*
X95849522Y-63325789D01*
X96002262Y-63229816D01*
X96129816Y-63102262D01*
X96225789Y-62949522D01*
X96285368Y-62779255D01*
X96286074Y-62772989D01*
X96305565Y-62600003D01*
X96305565Y-62599996D01*
X96285369Y-62420750D01*
X96285368Y-62420745D01*
X96253743Y-62330365D01*
X96225789Y-62250478D01*
X96129816Y-62097738D01*
X96002262Y-61970184D01*
X95963581Y-61945879D01*
X95849523Y-61874211D01*
X95679254Y-61814631D01*
X95679249Y-61814630D01*
X95500004Y-61794435D01*
X95499996Y-61794435D01*
X95320750Y-61814630D01*
X95320745Y-61814631D01*
X95150476Y-61874211D01*
X94997737Y-61970184D01*
X94870183Y-62097738D01*
X94866135Y-62102815D01*
X94808946Y-62142954D01*
X94769190Y-62149500D01*
X93693707Y-62149500D01*
X93626668Y-62129815D01*
X93588713Y-62091472D01*
X93548361Y-62027252D01*
X93529816Y-61997738D01*
X93402262Y-61870184D01*
X93313850Y-61814631D01*
X93249521Y-61774210D01*
X93079249Y-61714630D01*
X92992331Y-61704837D01*
X92927917Y-61677770D01*
X92918534Y-61669298D01*
X92868717Y-61619481D01*
X92868716Y-61619480D01*
X92770889Y-61563000D01*
X92731785Y-61540423D01*
X92588076Y-61501915D01*
X92528417Y-61465550D01*
X92497888Y-61402703D01*
X92506183Y-61333328D01*
X92507061Y-61331325D01*
X92576463Y-61177123D01*
X92675456Y-60859441D01*
X92735436Y-60532142D01*
X92755527Y-60200000D01*
X92735436Y-59867858D01*
X92675456Y-59540559D01*
X92576463Y-59222877D01*
X92439898Y-58919443D01*
X92267754Y-58634682D01*
X92267751Y-58634678D01*
X92267748Y-58634673D01*
X92209971Y-58560927D01*
X92184122Y-58496015D01*
X92197470Y-58427432D01*
X92245778Y-58376954D01*
X92313709Y-58360605D01*
X92346292Y-58366651D01*
G37*
%TD.AperFunction*%
%TA.AperFunction,Conductor*%
G36*
X90710443Y-68950669D02*
G01*
X90740933Y-68973011D01*
X90797738Y-69029816D01*
X90950478Y-69125789D01*
X91116455Y-69183867D01*
X91173230Y-69224588D01*
X91198978Y-69289540D01*
X91199500Y-69300908D01*
X91199500Y-71670630D01*
X91179815Y-71737669D01*
X91127011Y-71783424D01*
X91057853Y-71793368D01*
X91009089Y-71772299D01*
X91007844Y-71774282D01*
X90849301Y-71674663D01*
X90679141Y-71615122D01*
X90679138Y-71615121D01*
X90500003Y-71594938D01*
X90499997Y-71594938D01*
X90320861Y-71615121D01*
X90320858Y-71615122D01*
X90150701Y-71674662D01*
X90150691Y-71674667D01*
X90136891Y-71683337D01*
X90136891Y-71683338D01*
X90798121Y-72344568D01*
X90798127Y-72344573D01*
X91163181Y-72709627D01*
X91196666Y-72770950D01*
X91199500Y-72797308D01*
X91199500Y-73000000D01*
X91180109Y-73000000D01*
X91143355Y-73015224D01*
X91115224Y-73043355D01*
X91100000Y-73080109D01*
X91100000Y-73119891D01*
X91115224Y-73156645D01*
X91143355Y-73184776D01*
X91180109Y-73200000D01*
X91199500Y-73200000D01*
X91199500Y-73402691D01*
X91179815Y-73469730D01*
X91163186Y-73490367D01*
X91154059Y-73499495D01*
X91154054Y-73499500D01*
X90853553Y-73799999D01*
X91163181Y-74109627D01*
X91196666Y-74170950D01*
X91199500Y-74197308D01*
X91199500Y-74400000D01*
X91180109Y-74400000D01*
X91143355Y-74415224D01*
X91115224Y-74443355D01*
X91100000Y-74480109D01*
X91100000Y-74519891D01*
X91115224Y-74556645D01*
X91143355Y-74584776D01*
X91180109Y-74600000D01*
X91199500Y-74600000D01*
X91199500Y-74802691D01*
X91179815Y-74869730D01*
X91163187Y-74890366D01*
X91155822Y-74897732D01*
X90817006Y-75236548D01*
X90817001Y-75236550D01*
X90500001Y-75553553D01*
X90500000Y-75553553D01*
X90136892Y-75916660D01*
X90136892Y-75916661D01*
X90150692Y-75925333D01*
X90150691Y-75925333D01*
X90320861Y-75984878D01*
X90499997Y-76005062D01*
X90500003Y-76005062D01*
X90679138Y-75984878D01*
X90679141Y-75984877D01*
X90849301Y-75925336D01*
X91007844Y-75825718D01*
X91009224Y-75827915D01*
X91062871Y-75806014D01*
X91131567Y-75818768D01*
X91182462Y-75866638D01*
X91199500Y-75929369D01*
X91199500Y-83799903D01*
X91179815Y-83866942D01*
X91163181Y-83887584D01*
X86787584Y-88263181D01*
X86726261Y-88296666D01*
X86699903Y-88299500D01*
X84582412Y-88299500D01*
X84515373Y-88279815D01*
X84505097Y-88272445D01*
X84502263Y-88270185D01*
X84502262Y-88270184D01*
X84445496Y-88234515D01*
X84349523Y-88174211D01*
X84179254Y-88114631D01*
X84179250Y-88114630D01*
X84125371Y-88108560D01*
X84060957Y-88081493D01*
X84021402Y-88023898D01*
X84019265Y-87954061D01*
X84051572Y-87897661D01*
X84668713Y-87280521D01*
X84668716Y-87280520D01*
X84780520Y-87168716D01*
X84830639Y-87081904D01*
X84859577Y-87031785D01*
X84900500Y-86879057D01*
X84900500Y-86720943D01*
X84900500Y-75916661D01*
X88736892Y-75916661D01*
X88750692Y-75925333D01*
X88750691Y-75925333D01*
X88920861Y-75984878D01*
X89099997Y-76005062D01*
X89100003Y-76005062D01*
X89279138Y-75984878D01*
X89279141Y-75984877D01*
X89449305Y-75925334D01*
X89449306Y-75925334D01*
X89463106Y-75916661D01*
X89463106Y-75916660D01*
X89100001Y-75553553D01*
X89100000Y-75553553D01*
X88736892Y-75916660D01*
X88736892Y-75916661D01*
X84900500Y-75916661D01*
X84900500Y-75216661D01*
X88036892Y-75216661D01*
X88050692Y-75225333D01*
X88050691Y-75225333D01*
X88220862Y-75284878D01*
X88221644Y-75285057D01*
X88222097Y-75285310D01*
X88227431Y-75287177D01*
X88227104Y-75288111D01*
X88282623Y-75319166D01*
X88311952Y-75372874D01*
X88312822Y-75372570D01*
X88314670Y-75377852D01*
X88314940Y-75378346D01*
X88315121Y-75379142D01*
X88374663Y-75549300D01*
X88374663Y-75549301D01*
X88383338Y-75563107D01*
X88726555Y-75219891D01*
X89000000Y-75219891D01*
X89015224Y-75256645D01*
X89043355Y-75284776D01*
X89080109Y-75300000D01*
X89119891Y-75300000D01*
X89156645Y-75284776D01*
X89184776Y-75256645D01*
X89200000Y-75219891D01*
X89200000Y-75200000D01*
X89453553Y-75200000D01*
X89800000Y-75546446D01*
X89800001Y-75546446D01*
X90126555Y-75219891D01*
X90400000Y-75219891D01*
X90415224Y-75256645D01*
X90443355Y-75284776D01*
X90480109Y-75300000D01*
X90519891Y-75300000D01*
X90556645Y-75284776D01*
X90584776Y-75256645D01*
X90600000Y-75219891D01*
X90600000Y-75180109D01*
X90584776Y-75143355D01*
X90556645Y-75115224D01*
X90519891Y-75100000D01*
X90480109Y-75100000D01*
X90443355Y-75115224D01*
X90415224Y-75143355D01*
X90400000Y-75180109D01*
X90400000Y-75219891D01*
X90126555Y-75219891D01*
X90146446Y-75200000D01*
X89844183Y-74897737D01*
X89800000Y-74853553D01*
X89755817Y-74897737D01*
X89755816Y-74897738D01*
X89453553Y-75199999D01*
X89453553Y-75200000D01*
X89200000Y-75200000D01*
X89200000Y-75180109D01*
X89184776Y-75143355D01*
X89156645Y-75115224D01*
X89119891Y-75100000D01*
X89080109Y-75100000D01*
X89043355Y-75115224D01*
X89015224Y-75143355D01*
X89000000Y-75180109D01*
X89000000Y-75219891D01*
X88726555Y-75219891D01*
X88746446Y-75200000D01*
X88399999Y-74853553D01*
X88399998Y-74853553D01*
X88036892Y-75216660D01*
X88036892Y-75216661D01*
X84900500Y-75216661D01*
X84900500Y-74500097D01*
X84900528Y-74500002D01*
X87594938Y-74500002D01*
X87615121Y-74679138D01*
X87674665Y-74849304D01*
X87683338Y-74863107D01*
X88026555Y-74519891D01*
X88300000Y-74519891D01*
X88315224Y-74556645D01*
X88343355Y-74584776D01*
X88380109Y-74600000D01*
X88419891Y-74600000D01*
X88456645Y-74584776D01*
X88484776Y-74556645D01*
X88500000Y-74519891D01*
X88500000Y-74499999D01*
X88753553Y-74499999D01*
X89100000Y-74846446D01*
X89426555Y-74519891D01*
X89700000Y-74519891D01*
X89715224Y-74556645D01*
X89743355Y-74584776D01*
X89780109Y-74600000D01*
X89819891Y-74600000D01*
X89856645Y-74584776D01*
X89884776Y-74556645D01*
X89900000Y-74519891D01*
X89900000Y-74499999D01*
X90153553Y-74499999D01*
X90500000Y-74846446D01*
X90846446Y-74500000D01*
X90565760Y-74219314D01*
X90500000Y-74153553D01*
X90434240Y-74219314D01*
X90434239Y-74219314D01*
X90153553Y-74499999D01*
X89900000Y-74499999D01*
X89900000Y-74480109D01*
X89884776Y-74443355D01*
X89856645Y-74415224D01*
X89819891Y-74400000D01*
X89780109Y-74400000D01*
X89743355Y-74415224D01*
X89715224Y-74443355D01*
X89700000Y-74480109D01*
X89700000Y-74519891D01*
X89426555Y-74519891D01*
X89446446Y-74500000D01*
X89165760Y-74219314D01*
X89100000Y-74153553D01*
X89034240Y-74219314D01*
X89034239Y-74219314D01*
X88753553Y-74499999D01*
X88500000Y-74499999D01*
X88500000Y-74480109D01*
X88484776Y-74443355D01*
X88456645Y-74415224D01*
X88419891Y-74400000D01*
X88380109Y-74400000D01*
X88343355Y-74415224D01*
X88315224Y-74443355D01*
X88300000Y-74480109D01*
X88300000Y-74519891D01*
X88026555Y-74519891D01*
X88046446Y-74500000D01*
X88046446Y-74499999D01*
X87683338Y-74136891D01*
X87683337Y-74136891D01*
X87674667Y-74150691D01*
X87674662Y-74150701D01*
X87615122Y-74320858D01*
X87615121Y-74320861D01*
X87594938Y-74499997D01*
X87594938Y-74500002D01*
X84900528Y-74500002D01*
X84920185Y-74433058D01*
X84936819Y-74412416D01*
X85549234Y-73800001D01*
X88053553Y-73800001D01*
X88399998Y-74146446D01*
X88399999Y-74146446D01*
X88675869Y-73870577D01*
X88726555Y-73819891D01*
X89000000Y-73819891D01*
X89015224Y-73856645D01*
X89043355Y-73884776D01*
X89080109Y-73900000D01*
X89119891Y-73900000D01*
X89156645Y-73884776D01*
X89184776Y-73856645D01*
X89200000Y-73819891D01*
X89200000Y-73799999D01*
X89453553Y-73799999D01*
X89800000Y-74146446D01*
X90126555Y-73819891D01*
X90400000Y-73819891D01*
X90415224Y-73856645D01*
X90443355Y-73884776D01*
X90480109Y-73900000D01*
X90519891Y-73900000D01*
X90556645Y-73884776D01*
X90584776Y-73856645D01*
X90600000Y-73819891D01*
X90600000Y-73780109D01*
X90584776Y-73743355D01*
X90556645Y-73715224D01*
X90519891Y-73700000D01*
X90480109Y-73700000D01*
X90443355Y-73715224D01*
X90415224Y-73743355D01*
X90400000Y-73780109D01*
X90400000Y-73819891D01*
X90126555Y-73819891D01*
X90146446Y-73800000D01*
X89845945Y-73499499D01*
X89800000Y-73453553D01*
X89754055Y-73499499D01*
X89754054Y-73499500D01*
X89453553Y-73799999D01*
X89200000Y-73799999D01*
X89200000Y-73780109D01*
X89184776Y-73743355D01*
X89156645Y-73715224D01*
X89119891Y-73700000D01*
X89080109Y-73700000D01*
X89043355Y-73715224D01*
X89015224Y-73743355D01*
X89000000Y-73780109D01*
X89000000Y-73819891D01*
X88726555Y-73819891D01*
X88746446Y-73800000D01*
X88399999Y-73453553D01*
X88399998Y-73453553D01*
X88053553Y-73799999D01*
X88053553Y-73800001D01*
X85549234Y-73800001D01*
X86249233Y-73100002D01*
X87594938Y-73100002D01*
X87615121Y-73279138D01*
X87674665Y-73449304D01*
X87683338Y-73463107D01*
X88026555Y-73119891D01*
X88300000Y-73119891D01*
X88315224Y-73156645D01*
X88343355Y-73184776D01*
X88380109Y-73200000D01*
X88419891Y-73200000D01*
X88456645Y-73184776D01*
X88484776Y-73156645D01*
X88500000Y-73119891D01*
X88500000Y-73100000D01*
X88753553Y-73100000D01*
X88791021Y-73137467D01*
X89100000Y-73446446D01*
X89426555Y-73119891D01*
X89700000Y-73119891D01*
X89715224Y-73156645D01*
X89743355Y-73184776D01*
X89780109Y-73200000D01*
X89819891Y-73200000D01*
X89856645Y-73184776D01*
X89884776Y-73156645D01*
X89900000Y-73119891D01*
X89900000Y-73100000D01*
X90153553Y-73100000D01*
X90191021Y-73137467D01*
X90500000Y-73446446D01*
X90846446Y-73100000D01*
X90565760Y-72819314D01*
X90500000Y-72753553D01*
X90434240Y-72819314D01*
X90434239Y-72819314D01*
X90153553Y-73100000D01*
X89900000Y-73100000D01*
X89900000Y-73080109D01*
X89884776Y-73043355D01*
X89856645Y-73015224D01*
X89819891Y-73000000D01*
X89780109Y-73000000D01*
X89743355Y-73015224D01*
X89715224Y-73043355D01*
X89700000Y-73080109D01*
X89700000Y-73119891D01*
X89426555Y-73119891D01*
X89446446Y-73100000D01*
X89165760Y-72819314D01*
X89100000Y-72753553D01*
X89034240Y-72819314D01*
X89034239Y-72819314D01*
X88753553Y-73100000D01*
X88500000Y-73100000D01*
X88500000Y-73080109D01*
X88484776Y-73043355D01*
X88456645Y-73015224D01*
X88419891Y-73000000D01*
X88380109Y-73000000D01*
X88343355Y-73015224D01*
X88315224Y-73043355D01*
X88300000Y-73080109D01*
X88300000Y-73119891D01*
X88026555Y-73119891D01*
X88046446Y-73100000D01*
X88046446Y-73099999D01*
X87683338Y-72736891D01*
X87683337Y-72736891D01*
X87674667Y-72750691D01*
X87674662Y-72750701D01*
X87615122Y-72920858D01*
X87615121Y-72920861D01*
X87594938Y-73099997D01*
X87594938Y-73100002D01*
X86249233Y-73100002D01*
X86965897Y-72383338D01*
X88036891Y-72383338D01*
X88399998Y-72746446D01*
X88686870Y-72459576D01*
X88726554Y-72419891D01*
X89000000Y-72419891D01*
X89015224Y-72456645D01*
X89043355Y-72484776D01*
X89080109Y-72500000D01*
X89119891Y-72500000D01*
X89156645Y-72484776D01*
X89184776Y-72456645D01*
X89200000Y-72419891D01*
X89200000Y-72399999D01*
X89453553Y-72399999D01*
X89800000Y-72746446D01*
X90086870Y-72459577D01*
X90126555Y-72419891D01*
X90400000Y-72419891D01*
X90415224Y-72456645D01*
X90443355Y-72484776D01*
X90480109Y-72500000D01*
X90519891Y-72500000D01*
X90556645Y-72484776D01*
X90584776Y-72456645D01*
X90600000Y-72419891D01*
X90600000Y-72380109D01*
X90584776Y-72343355D01*
X90556645Y-72315224D01*
X90519891Y-72300000D01*
X90480109Y-72300000D01*
X90443355Y-72315224D01*
X90415224Y-72343355D01*
X90400000Y-72380109D01*
X90400000Y-72419891D01*
X90126555Y-72419891D01*
X90146446Y-72399999D01*
X90146446Y-72399998D01*
X89800001Y-72053553D01*
X89800000Y-72053553D01*
X89453553Y-72399998D01*
X89453553Y-72399999D01*
X89200000Y-72399999D01*
X89200000Y-72380109D01*
X89184776Y-72343355D01*
X89156645Y-72315224D01*
X89119891Y-72300000D01*
X89080109Y-72300000D01*
X89043355Y-72315224D01*
X89015224Y-72343355D01*
X89000000Y-72380109D01*
X89000000Y-72419891D01*
X88726554Y-72419891D01*
X88746446Y-72399999D01*
X88746446Y-72399998D01*
X88383338Y-72036891D01*
X88383337Y-72036891D01*
X88374667Y-72050691D01*
X88374662Y-72050701D01*
X88315119Y-72220866D01*
X88314939Y-72221656D01*
X88314682Y-72222113D01*
X88312823Y-72227429D01*
X88311891Y-72227103D01*
X88280824Y-72282631D01*
X88227124Y-72311952D01*
X88227429Y-72312823D01*
X88222145Y-72314671D01*
X88221656Y-72314939D01*
X88220866Y-72315119D01*
X88050701Y-72374662D01*
X88050691Y-72374667D01*
X88036891Y-72383337D01*
X88036891Y-72383338D01*
X86965897Y-72383338D01*
X87373782Y-71975453D01*
X87665897Y-71683338D01*
X88736891Y-71683338D01*
X89100000Y-72046446D01*
X89100001Y-72046446D01*
X89463107Y-71683338D01*
X89449304Y-71674665D01*
X89279138Y-71615121D01*
X89100003Y-71594938D01*
X89099997Y-71594938D01*
X88920861Y-71615121D01*
X88920858Y-71615122D01*
X88750701Y-71674662D01*
X88750691Y-71674667D01*
X88736891Y-71683337D01*
X88736891Y-71683338D01*
X87665897Y-71683338D01*
X89818536Y-69530698D01*
X89879857Y-69497215D01*
X89892310Y-69495163D01*
X89979255Y-69485368D01*
X90149522Y-69425789D01*
X90302262Y-69329816D01*
X90429816Y-69202262D01*
X90525789Y-69049522D01*
X90536210Y-69019738D01*
X90576929Y-68962964D01*
X90641881Y-68937214D01*
X90710443Y-68950669D01*
G37*
%TD.AperFunction*%
%TA.AperFunction,Conductor*%
G36*
X82184195Y-56520290D02*
G01*
X82188263Y-56520426D01*
X83369075Y-56579673D01*
X83373145Y-56579945D01*
X84315179Y-56658839D01*
X84380340Y-56684048D01*
X84421529Y-56740487D01*
X84426447Y-56806594D01*
X84420000Y-56839008D01*
X84420000Y-57087500D01*
X85120000Y-57087500D01*
X85120000Y-57587500D01*
X84420000Y-57587500D01*
X84420000Y-57835995D01*
X84458427Y-58029181D01*
X84458430Y-58029193D01*
X84533807Y-58211171D01*
X84533814Y-58211184D01*
X84643248Y-58374962D01*
X84643251Y-58374966D01*
X84782533Y-58514248D01*
X84782537Y-58514251D01*
X84946315Y-58623685D01*
X84946328Y-58623692D01*
X85128308Y-58699069D01*
X85170000Y-58707362D01*
X85170000Y-57904488D01*
X85179940Y-57921705D01*
X85235795Y-57977560D01*
X85304204Y-58017056D01*
X85380504Y-58037500D01*
X85459496Y-58037500D01*
X85535796Y-58017056D01*
X85604205Y-57977560D01*
X85660060Y-57921705D01*
X85670000Y-57904488D01*
X85670000Y-58707362D01*
X85711690Y-58699069D01*
X85711692Y-58699069D01*
X85893671Y-58623692D01*
X85893684Y-58623685D01*
X86057462Y-58514251D01*
X86057466Y-58514248D01*
X86196748Y-58374966D01*
X86196751Y-58374962D01*
X86306185Y-58211184D01*
X86306192Y-58211171D01*
X86381569Y-58029193D01*
X86381572Y-58029181D01*
X86419999Y-57835995D01*
X86420000Y-57835992D01*
X86420000Y-57587500D01*
X85720000Y-57587500D01*
X85720000Y-57087500D01*
X86420000Y-57087500D01*
X86420000Y-57065767D01*
X86439685Y-56998728D01*
X86492489Y-56952973D01*
X86561647Y-56943029D01*
X86562292Y-56943124D01*
X86902578Y-56994691D01*
X86906615Y-56995372D01*
X88069003Y-57211477D01*
X88072964Y-57212281D01*
X88958106Y-57407651D01*
X89019326Y-57441323D01*
X89052625Y-57502747D01*
X89047429Y-57572423D01*
X89005387Y-57628230D01*
X88982270Y-57641813D01*
X88719447Y-57760099D01*
X88719445Y-57760101D01*
X88434673Y-57932251D01*
X88172744Y-58137460D01*
X87937460Y-58372744D01*
X87732251Y-58634673D01*
X87688309Y-58707362D01*
X87587980Y-58873328D01*
X87560101Y-58919445D01*
X87560100Y-58919447D01*
X87423536Y-59222880D01*
X87423530Y-59222895D01*
X87324546Y-59540550D01*
X87324544Y-59540556D01*
X87324544Y-59540559D01*
X87306243Y-59640423D01*
X87264563Y-59867863D01*
X87244473Y-60200000D01*
X87264563Y-60532136D01*
X87264563Y-60532141D01*
X87264564Y-60532142D01*
X87324544Y-60859441D01*
X87324545Y-60859445D01*
X87324546Y-60859449D01*
X87423532Y-61177111D01*
X87423538Y-61177125D01*
X87427281Y-61185443D01*
X87436841Y-61254656D01*
X87407465Y-61318050D01*
X87348478Y-61355498D01*
X87346337Y-61356092D01*
X87278570Y-61374251D01*
X87218210Y-61390424D01*
X87218209Y-61390425D01*
X87168096Y-61419359D01*
X87168095Y-61419360D01*
X87134377Y-61438827D01*
X87081285Y-61469479D01*
X87081282Y-61469481D01*
X87010341Y-61540423D01*
X86969480Y-61581284D01*
X86969478Y-61581286D01*
X86881466Y-61669298D01*
X86871845Y-61678919D01*
X86810521Y-61712403D01*
X86798048Y-61714457D01*
X86711130Y-61724250D01*
X86559190Y-61777416D01*
X86489411Y-61780977D01*
X86430555Y-61748055D01*
X86420000Y-61737500D01*
X85720000Y-61737500D01*
X85720000Y-61237500D01*
X86420000Y-61237500D01*
X86420000Y-60839008D01*
X86419999Y-60839004D01*
X86381572Y-60645818D01*
X86381569Y-60645806D01*
X86306192Y-60463828D01*
X86306185Y-60463815D01*
X86196751Y-60300037D01*
X86196748Y-60300033D01*
X86057466Y-60160751D01*
X86057462Y-60160748D01*
X85893684Y-60051314D01*
X85893671Y-60051307D01*
X85711691Y-59975929D01*
X85711683Y-59975927D01*
X85670000Y-59967635D01*
X85670000Y-60770511D01*
X85660060Y-60753295D01*
X85604205Y-60697440D01*
X85535796Y-60657944D01*
X85459496Y-60637500D01*
X85380504Y-60637500D01*
X85304204Y-60657944D01*
X85235795Y-60697440D01*
X85179940Y-60753295D01*
X85170000Y-60770511D01*
X85170000Y-59967636D01*
X85169999Y-59967635D01*
X85128316Y-59975927D01*
X85128308Y-59975929D01*
X84946328Y-60051307D01*
X84946315Y-60051314D01*
X84782537Y-60160748D01*
X84782533Y-60160751D01*
X84643251Y-60300033D01*
X84643248Y-60300037D01*
X84533814Y-60463815D01*
X84533809Y-60463824D01*
X84529866Y-60473345D01*
X84486023Y-60527747D01*
X84419728Y-60549810D01*
X84352030Y-60532529D01*
X84346597Y-60528851D01*
X84212136Y-60451219D01*
X84135556Y-60430700D01*
X84065766Y-60412000D01*
X83914234Y-60412000D01*
X83767863Y-60451219D01*
X83636635Y-60526985D01*
X83636632Y-60526987D01*
X83529487Y-60634132D01*
X83529485Y-60634135D01*
X83453719Y-60765363D01*
X83414500Y-60911734D01*
X83414500Y-61063265D01*
X83453719Y-61209636D01*
X83469807Y-61237500D01*
X83529485Y-61340865D01*
X83636635Y-61448015D01*
X83767865Y-61523781D01*
X83914234Y-61563000D01*
X83914236Y-61563000D01*
X84065764Y-61563000D01*
X84065766Y-61563000D01*
X84212135Y-61523781D01*
X84233999Y-61511157D01*
X84301897Y-61494684D01*
X84367925Y-61517535D01*
X84411117Y-61572455D01*
X84420000Y-61618544D01*
X84420000Y-62135995D01*
X84458427Y-62329181D01*
X84458430Y-62329193D01*
X84533807Y-62511171D01*
X84533814Y-62511184D01*
X84643248Y-62674962D01*
X84643251Y-62674966D01*
X84782533Y-62814248D01*
X84782537Y-62814251D01*
X84946315Y-62923685D01*
X84946328Y-62923692D01*
X85128308Y-62999069D01*
X85170000Y-63007362D01*
X85170000Y-62204488D01*
X85179940Y-62221705D01*
X85235795Y-62277560D01*
X85304204Y-62317056D01*
X85380504Y-62337500D01*
X85459496Y-62337500D01*
X85535796Y-62317056D01*
X85604205Y-62277560D01*
X85660060Y-62221705D01*
X85670000Y-62204488D01*
X85670000Y-63007362D01*
X85711690Y-62999069D01*
X85711692Y-62999069D01*
X85893671Y-62923692D01*
X85893683Y-62923685D01*
X86007011Y-62847962D01*
X86073688Y-62827084D01*
X86141068Y-62845568D01*
X86180895Y-62885092D01*
X86260559Y-63011876D01*
X86260564Y-63011882D01*
X86388118Y-63139436D01*
X86388122Y-63139439D01*
X86393189Y-63143479D01*
X86433332Y-63200666D01*
X86439880Y-63240429D01*
X86439880Y-64103527D01*
X86420195Y-64170566D01*
X86367391Y-64216321D01*
X86298233Y-64226265D01*
X86253881Y-64210915D01*
X86244568Y-64205538D01*
X86166935Y-64160717D01*
X86166934Y-64160716D01*
X86131790Y-64140425D01*
X86131789Y-64140424D01*
X86119263Y-64137067D01*
X85979057Y-64099499D01*
X85820943Y-64099499D01*
X85813347Y-64099499D01*
X85813331Y-64099500D01*
X72083063Y-64099500D01*
X72016024Y-64079815D01*
X71970269Y-64027011D01*
X71960325Y-63957853D01*
X71966021Y-63934546D01*
X71972989Y-63914631D01*
X71985368Y-63879255D01*
X71995161Y-63792329D01*
X72022226Y-63727918D01*
X72030680Y-63718553D01*
X72274917Y-63474316D01*
X72336239Y-63440834D01*
X72362597Y-63438000D01*
X73661960Y-63438000D01*
X73661976Y-63438001D01*
X73669572Y-63438001D01*
X73827683Y-63438001D01*
X73827686Y-63438001D01*
X73980414Y-63397077D01*
X74030533Y-63368139D01*
X74117345Y-63318020D01*
X74229149Y-63206216D01*
X74229149Y-63206214D01*
X74239357Y-63196007D01*
X74239358Y-63196004D01*
X75568321Y-61867042D01*
X75629642Y-61833559D01*
X75699334Y-61838543D01*
X75755267Y-61880415D01*
X75779684Y-61945879D01*
X75780000Y-61954725D01*
X75780000Y-62135995D01*
X75818427Y-62329181D01*
X75818430Y-62329193D01*
X75893807Y-62511171D01*
X75893814Y-62511184D01*
X76003248Y-62674962D01*
X76003251Y-62674966D01*
X76142533Y-62814248D01*
X76142537Y-62814251D01*
X76306315Y-62923685D01*
X76306328Y-62923692D01*
X76488308Y-62999069D01*
X76530000Y-63007362D01*
X76530000Y-62204488D01*
X76539940Y-62221705D01*
X76595795Y-62277560D01*
X76664204Y-62317056D01*
X76740504Y-62337500D01*
X76819496Y-62337500D01*
X76895796Y-62317056D01*
X76964205Y-62277560D01*
X77020060Y-62221705D01*
X77030000Y-62204488D01*
X77030000Y-63007362D01*
X77071690Y-62999069D01*
X77071692Y-62999069D01*
X77253671Y-62923692D01*
X77253684Y-62923685D01*
X77417462Y-62814251D01*
X77417466Y-62814248D01*
X77556748Y-62674966D01*
X77556751Y-62674962D01*
X77666185Y-62511184D01*
X77666192Y-62511171D01*
X77741569Y-62329193D01*
X77741572Y-62329181D01*
X77779999Y-62135995D01*
X77780000Y-62135992D01*
X77780000Y-61618544D01*
X77799685Y-61551505D01*
X77852489Y-61505750D01*
X77921647Y-61495806D01*
X77966000Y-61511157D01*
X77987865Y-61523781D01*
X78134234Y-61563000D01*
X78134236Y-61563000D01*
X78285764Y-61563000D01*
X78285766Y-61563000D01*
X78432135Y-61523781D01*
X78563365Y-61448015D01*
X78670515Y-61340865D01*
X78746281Y-61209635D01*
X78785500Y-61063266D01*
X78785500Y-60911734D01*
X78780773Y-60894092D01*
X78782436Y-60824242D01*
X78821599Y-60766380D01*
X78885828Y-60738877D01*
X78900548Y-60738000D01*
X78947205Y-60738000D01*
X79014244Y-60757685D01*
X79059999Y-60810489D01*
X79064247Y-60821046D01*
X79074211Y-60849523D01*
X79170184Y-61002262D01*
X79297738Y-61129816D01*
X79373020Y-61177119D01*
X79424770Y-61209636D01*
X79450478Y-61225789D01*
X79540203Y-61257185D01*
X79620745Y-61285368D01*
X79620750Y-61285369D01*
X79799996Y-61305565D01*
X79800000Y-61305565D01*
X79800004Y-61305565D01*
X79979249Y-61285369D01*
X79979252Y-61285368D01*
X79979255Y-61285368D01*
X80149522Y-61225789D01*
X80302262Y-61129816D01*
X80429816Y-61002262D01*
X80520130Y-60858527D01*
X80572465Y-60812237D01*
X80625124Y-60800500D01*
X82213331Y-60800500D01*
X82213347Y-60800501D01*
X82220943Y-60800501D01*
X82379054Y-60800501D01*
X82379057Y-60800501D01*
X82531785Y-60759577D01*
X82581904Y-60730639D01*
X82668716Y-60680520D01*
X82780520Y-60568716D01*
X82780520Y-60568714D01*
X82790728Y-60558507D01*
X82790730Y-60558504D01*
X82918535Y-60430698D01*
X82979856Y-60397215D01*
X82992311Y-60395163D01*
X83079255Y-60385368D01*
X83249522Y-60325789D01*
X83402262Y-60229816D01*
X83529816Y-60102262D01*
X83625789Y-59949522D01*
X83685368Y-59779255D01*
X83700342Y-59646355D01*
X83705565Y-59600003D01*
X83705565Y-59599996D01*
X83685369Y-59420750D01*
X83685368Y-59420745D01*
X83625788Y-59250476D01*
X83529815Y-59097737D01*
X83402262Y-58970184D01*
X83249523Y-58874211D01*
X83079254Y-58814631D01*
X83079249Y-58814630D01*
X82900004Y-58794435D01*
X82899996Y-58794435D01*
X82720750Y-58814630D01*
X82720745Y-58814631D01*
X82550476Y-58874211D01*
X82397737Y-58970184D01*
X82270184Y-59097737D01*
X82174210Y-59250478D01*
X82114630Y-59420750D01*
X82106898Y-59489383D01*
X82079832Y-59553797D01*
X82022237Y-59593352D01*
X81983678Y-59599500D01*
X80179057Y-59599500D01*
X80020943Y-59599500D01*
X79868215Y-59640423D01*
X79868213Y-59640423D01*
X79860364Y-59642527D01*
X79859741Y-59640204D01*
X79802416Y-59646355D01*
X79762459Y-59631717D01*
X79706657Y-59599500D01*
X79669285Y-59577923D01*
X79516557Y-59536999D01*
X79358443Y-59536999D01*
X79350847Y-59536999D01*
X79350831Y-59537000D01*
X76535299Y-59537000D01*
X76535283Y-59536999D01*
X76527687Y-59536999D01*
X76369572Y-59536999D01*
X76293208Y-59557461D01*
X76216843Y-59577923D01*
X76216838Y-59577926D01*
X76079919Y-59656975D01*
X76079911Y-59656981D01*
X74911511Y-60825381D01*
X74850188Y-60858866D01*
X74780496Y-60853882D01*
X74724563Y-60812010D01*
X74700146Y-60746546D01*
X74701860Y-60715356D01*
X74735436Y-60532142D01*
X74755527Y-60200000D01*
X74735436Y-59867858D01*
X74675456Y-59540559D01*
X74576463Y-59222877D01*
X74439898Y-58919443D01*
X74267754Y-58634682D01*
X74267751Y-58634678D01*
X74267748Y-58634673D01*
X74062539Y-58372744D01*
X73827255Y-58137460D01*
X73565326Y-57932251D01*
X73547881Y-57921705D01*
X73280557Y-57760102D01*
X73017727Y-57641811D01*
X72964674Y-57596348D01*
X72944622Y-57529418D01*
X72963938Y-57462272D01*
X73016490Y-57416227D01*
X73041887Y-57407653D01*
X73927047Y-57212279D01*
X73930984Y-57211479D01*
X75093394Y-56995370D01*
X75097411Y-56994692D01*
X75637424Y-56912859D01*
X75706653Y-56922277D01*
X75759803Y-56967629D01*
X75779996Y-57034517D01*
X75780000Y-57035459D01*
X75780000Y-57087500D01*
X76480000Y-57087500D01*
X76480000Y-57587500D01*
X75780000Y-57587500D01*
X75780000Y-57835995D01*
X75818427Y-58029181D01*
X75818430Y-58029193D01*
X75893807Y-58211171D01*
X75893814Y-58211184D01*
X76003248Y-58374962D01*
X76003251Y-58374966D01*
X76142533Y-58514248D01*
X76142537Y-58514251D01*
X76306315Y-58623685D01*
X76306328Y-58623692D01*
X76488308Y-58699069D01*
X76530000Y-58707362D01*
X76530000Y-57904488D01*
X76539940Y-57921705D01*
X76595795Y-57977560D01*
X76664204Y-58017056D01*
X76740504Y-58037500D01*
X76819496Y-58037500D01*
X76895796Y-58017056D01*
X76964205Y-57977560D01*
X77020060Y-57921705D01*
X77030000Y-57904488D01*
X77030000Y-58707362D01*
X77071690Y-58699069D01*
X77071692Y-58699069D01*
X77253671Y-58623692D01*
X77253684Y-58623685D01*
X77417462Y-58514251D01*
X77417466Y-58514248D01*
X77556748Y-58374966D01*
X77556751Y-58374962D01*
X77666185Y-58211184D01*
X77666192Y-58211171D01*
X77741569Y-58029193D01*
X77741572Y-58029181D01*
X77779999Y-57835995D01*
X77780000Y-57835992D01*
X77780000Y-57587500D01*
X77080000Y-57587500D01*
X77080000Y-57087500D01*
X77780000Y-57087500D01*
X77780000Y-56839008D01*
X77779999Y-56839005D01*
X77770276Y-56790121D01*
X77776503Y-56720530D01*
X77819366Y-56665352D01*
X77881542Y-56642364D01*
X78626858Y-56579945D01*
X78630920Y-56579673D01*
X79811738Y-56520426D01*
X79815803Y-56520290D01*
X80997966Y-56500534D01*
X81002034Y-56500534D01*
X82184195Y-56520290D01*
G37*
%TD.AperFunction*%
%TD*%
M02*
