%TF.GenerationSoftware,KiCad,Pcbnew,8.0.0*%
%TF.CreationDate,2024-05-13T13:59:27-05:00*%
%TF.ProjectId,GaussMouse_Sensor,47617573-734d-46f7-9573-655f53656e73,rev?*%
%TF.SameCoordinates,Original*%
%TF.FileFunction,Paste,Top*%
%TF.FilePolarity,Positive*%
%FSLAX46Y46*%
G04 Gerber Fmt 4.6, Leading zero omitted, Abs format (unit mm)*
G04 Created by KiCad (PCBNEW 8.0.0) date 2024-05-13 13:59:27*
%MOMM*%
%LPD*%
G01*
G04 APERTURE LIST*
G04 Aperture macros list*
%AMRoundRect*
0 Rectangle with rounded corners*
0 $1 Rounding radius*
0 $2 $3 $4 $5 $6 $7 $8 $9 X,Y pos of 4 corners*
0 Add a 4 corners polygon primitive as box body*
4,1,4,$2,$3,$4,$5,$6,$7,$8,$9,$2,$3,0*
0 Add four circle primitives for the rounded corners*
1,1,$1+$1,$2,$3*
1,1,$1+$1,$4,$5*
1,1,$1+$1,$6,$7*
1,1,$1+$1,$8,$9*
0 Add four rect primitives between the rounded corners*
20,1,$1+$1,$2,$3,$4,$5,0*
20,1,$1+$1,$4,$5,$6,$7,0*
20,1,$1+$1,$6,$7,$8,$9,0*
20,1,$1+$1,$8,$9,$2,$3,0*%
%AMRotRect*
0 Rectangle, with rotation*
0 The origin of the aperture is its center*
0 $1 length*
0 $2 width*
0 $3 Rotation angle, in degrees counterclockwise*
0 Add horizontal line*
21,1,$1,$2,0,0,$3*%
G04 Aperture macros list end*
%ADD10R,0.600000X1.650000*%
%ADD11R,0.600000X1.850000*%
%ADD12R,1.000000X1.800000*%
%ADD13RoundRect,0.100000X-0.100000X0.637500X-0.100000X-0.637500X0.100000X-0.637500X0.100000X0.637500X0*%
%ADD14R,0.254000X0.675000*%
%ADD15R,0.675000X0.254000*%
%ADD16R,0.800000X0.500000*%
%ADD17R,0.800000X0.400000*%
%ADD18RotRect,1.000000X0.550000X225.000000*%
%ADD19RotRect,0.550000X1.200000X225.000000*%
%ADD20RotRect,0.700000X1.200000X225.000000*%
%ADD21RotRect,0.450000X1.200000X225.000000*%
%ADD22R,1.000000X0.550000*%
%ADD23R,0.550000X1.200000*%
%ADD24R,0.700000X1.200000*%
%ADD25R,0.450000X1.200000*%
%ADD26RotRect,1.000000X0.550000X135.000000*%
%ADD27RotRect,0.550000X1.200000X135.000000*%
%ADD28RotRect,0.450000X1.200000X135.000000*%
%ADD29RotRect,0.700000X1.200000X135.000000*%
%ADD30R,0.550000X1.000000*%
%ADD31R,1.200000X0.550000*%
%ADD32R,1.200000X0.700000*%
%ADD33R,1.200000X0.450000*%
%ADD34RotRect,1.000000X0.550000X45.000000*%
%ADD35RotRect,0.550000X1.200000X45.000000*%
%ADD36RotRect,0.450000X1.200000X45.000000*%
%ADD37RotRect,0.700000X1.200000X45.000000*%
%ADD38RotRect,1.000000X0.550000X315.000000*%
%ADD39RotRect,0.550000X1.200000X315.000000*%
%ADD40RotRect,0.700000X1.200000X315.000000*%
%ADD41RotRect,0.450000X1.200000X315.000000*%
%ADD42RoundRect,0.250000X0.250000X0.475000X-0.250000X0.475000X-0.250000X-0.475000X0.250000X-0.475000X0*%
%ADD43RoundRect,0.250000X-0.250000X-0.475000X0.250000X-0.475000X0.250000X0.475000X-0.250000X0.475000X0*%
G04 APERTURE END LIST*
D10*
%TO.C,J4*%
X133999999Y-84750000D03*
D11*
X133999999Y-81000000D03*
D10*
X135000000Y-84750000D03*
D11*
X135000000Y-81000000D03*
D10*
X136000000Y-84750000D03*
D11*
X136000000Y-81000000D03*
D10*
X137000000Y-84750000D03*
D11*
X137000000Y-81000000D03*
D10*
X137999984Y-84750000D03*
D11*
X137999984Y-81000000D03*
D10*
X139000000Y-84750000D03*
D11*
X139000000Y-81000000D03*
D10*
X140000000Y-84750000D03*
D11*
X140000000Y-81000000D03*
D10*
X141000000Y-84750000D03*
D11*
X141000000Y-81000000D03*
D10*
X142000000Y-84750000D03*
D11*
X142000000Y-81000000D03*
%TD*%
D12*
%TO.C,Y1*%
X138250000Y-89000000D03*
X135750000Y-89000000D03*
%TD*%
D13*
%TO.C,U2*%
X140737500Y-100325000D03*
X140087500Y-100325000D03*
X139437500Y-100325000D03*
X138787500Y-100325000D03*
X138137500Y-100325000D03*
X137487500Y-100325000D03*
X136837500Y-100325000D03*
X136187500Y-100325000D03*
X135537500Y-100325000D03*
X134887500Y-100325000D03*
X134887500Y-106050000D03*
X135537500Y-106050000D03*
X136187500Y-106050000D03*
X136837500Y-106050000D03*
X137487500Y-106050000D03*
X138137500Y-106050000D03*
X138787500Y-106050000D03*
X139437500Y-106050000D03*
X140087500Y-106050000D03*
X140737500Y-106050000D03*
%TD*%
D14*
%TO.C,U1*%
X135807500Y-92410000D03*
D15*
X135670000Y-93322500D03*
X135670000Y-93822500D03*
X135670000Y-94322500D03*
X135670000Y-94822500D03*
D14*
X135807500Y-95735000D03*
X136307500Y-95735000D03*
X136807500Y-95735000D03*
X137307500Y-95735000D03*
X137807500Y-95735000D03*
X138307500Y-95735000D03*
X138807500Y-95735000D03*
X139307500Y-95735000D03*
X139807500Y-95735000D03*
X140307500Y-95735000D03*
D15*
X140445000Y-94822500D03*
X140445000Y-94322500D03*
X140445000Y-93822500D03*
X140445000Y-93322500D03*
D14*
X140307500Y-92410000D03*
X139807500Y-92410000D03*
X139307500Y-92410000D03*
X138807500Y-92410000D03*
X138307500Y-92410000D03*
X137807500Y-92410000D03*
X137307500Y-92410000D03*
X136807500Y-92410000D03*
X136307500Y-92410000D03*
%TD*%
D16*
%TO.C,RN2*%
X128800000Y-104500000D03*
D17*
X128800000Y-103700000D03*
X128800000Y-102900000D03*
D16*
X128800000Y-102100000D03*
X127000000Y-102100000D03*
D17*
X127000000Y-102900000D03*
X127000000Y-103700000D03*
D16*
X127000000Y-104500000D03*
%TD*%
%TO.C,RN1*%
X145200000Y-91100000D03*
D17*
X145200000Y-91900000D03*
X145200000Y-92700000D03*
D16*
X145200000Y-93500000D03*
X147000000Y-93500000D03*
D17*
X147000000Y-92700000D03*
X147000000Y-91900000D03*
D16*
X147000000Y-91100000D03*
%TD*%
D18*
%TO.C,D5*%
X124077656Y-77748023D03*
D19*
X123865524Y-77854089D03*
D20*
X123070028Y-78649584D03*
D21*
X122345244Y-79374368D03*
D19*
X121638137Y-80081475D03*
D18*
X121525000Y-80286536D03*
%TD*%
D22*
%TO.C,D4*%
X139800000Y-72600000D03*
D23*
X139575000Y-72525000D03*
D24*
X138450000Y-72525000D03*
D25*
X137425000Y-72525000D03*
D23*
X136425000Y-72525000D03*
D22*
X136200000Y-72590000D03*
%TD*%
D26*
%TO.C,D3*%
X151628464Y-77599530D03*
D27*
X151833525Y-77712667D03*
D28*
X152540632Y-78419774D03*
D29*
X153265416Y-79144558D03*
D27*
X154060911Y-79940054D03*
D26*
X154166977Y-80152186D03*
%TD*%
D30*
%TO.C,D2*%
X158950000Y-95440000D03*
D31*
X159025000Y-95215000D03*
D32*
X159025000Y-94090000D03*
D33*
X159025000Y-93065000D03*
D31*
X159025000Y-92065000D03*
D30*
X158960000Y-91840000D03*
%TD*%
D34*
%TO.C,D1*%
X153815470Y-107993464D03*
D35*
X153702333Y-108198525D03*
D36*
X152995226Y-108905632D03*
D37*
X152270442Y-109630416D03*
D35*
X151474946Y-110425911D03*
D34*
X151262814Y-110531977D03*
%TD*%
D22*
%TO.C,D8*%
X136125000Y-115305000D03*
D23*
X136350000Y-115380000D03*
D24*
X137475000Y-115380000D03*
D25*
X138500000Y-115380000D03*
D23*
X139500000Y-115380000D03*
D22*
X139725000Y-115315000D03*
%TD*%
D38*
%TO.C,D7*%
X121986487Y-107890000D03*
D39*
X122092553Y-108102132D03*
D40*
X122888048Y-108897628D03*
D41*
X123612832Y-109622412D03*
D39*
X124319939Y-110329519D03*
D38*
X124525000Y-110442656D03*
%TD*%
D30*
%TO.C,D6*%
X117110000Y-92190000D03*
D31*
X117035000Y-92415000D03*
D32*
X117035000Y-93540000D03*
D33*
X117035000Y-94565000D03*
D31*
X117035000Y-95565000D03*
D30*
X117100000Y-95790000D03*
%TD*%
D42*
%TO.C,C13*%
X151950000Y-106000000D03*
X150050000Y-106000000D03*
%TD*%
%TO.C,C12*%
X139900000Y-112500000D03*
X138000000Y-112500000D03*
%TD*%
D43*
%TO.C,C11*%
X123100000Y-105500000D03*
X125000000Y-105500000D03*
%TD*%
%TO.C,C10*%
X143100000Y-97000000D03*
X145000000Y-97000000D03*
%TD*%
D42*
%TO.C,C9*%
X133500000Y-96000000D03*
X131600000Y-96000000D03*
%TD*%
%TO.C,C8*%
X133500000Y-93000000D03*
X131600000Y-93000000D03*
%TD*%
%TO.C,C7*%
X133500000Y-89000000D03*
X131600000Y-89000000D03*
%TD*%
D43*
%TO.C,C6*%
X141050000Y-89000000D03*
X142950000Y-89000000D03*
%TD*%
D42*
%TO.C,C5*%
X121950000Y-95000000D03*
X120050000Y-95000000D03*
%TD*%
%TO.C,C4*%
X125500000Y-82500000D03*
X123600000Y-82500000D03*
%TD*%
D43*
%TO.C,C3*%
X136600000Y-75500000D03*
X138500000Y-75500000D03*
%TD*%
%TO.C,C2*%
X149600000Y-81500000D03*
X151500000Y-81500000D03*
%TD*%
%TO.C,C1*%
X149600000Y-93000000D03*
X151500000Y-93000000D03*
%TD*%
M02*
