M48
; DRILL file {KiCad 8.0.0} date 2024-05-13T13:59:23-0500
; FORMAT={-:-/ absolute / inch / decimal}
; #@! TF.CreationDate,2024-05-13T13:59:23-05:00
; #@! TF.GenerationSoftware,Kicad,Pcbnew,8.0.0
; #@! TF.FileFunction,MixedPlating,1,2
FMAT,2
INCH
; #@! TA.AperFunction,Plated,PTH,ViaDrill
T1C0.0118
; #@! TA.AperFunction,Plated,PTH,ComponentDrill
T2C0.0394
; #@! TA.AperFunction,NonPlated,NPTH,ComponentDrill
T3C0.0866
%
G90
G05
T1
X4.6457Y-3.9213
X4.7047Y-3.5276
X4.7559Y-3.2244
X4.8819Y-3.9764
X4.9055Y-3.9488
X4.9213Y-3.7795
X4.9213Y-4.2042
X4.9291Y-3.9252
X4.9606Y-3.5827
X4.9685Y-3.9016
X5.0Y-3.4646
X5.0039Y-3.1024
X5.0079Y-3.8937
X5.0118Y-3.9764
X5.0315Y-3.2244
X5.063Y-2.9921
X5.1063Y-3.1407
X5.1378Y-4.3819
X5.1732Y-3.5984
X5.1811Y-4.2835
X5.185Y-3.4488
X5.1969Y-4.1732
X5.2165Y-4.0551
X5.2181Y-3.3067
X5.2266Y-3.8689
X5.2559Y-4.0157
X5.311Y-3.6614
X5.3189Y-3.0354
X5.3346Y-4.4646
X5.3622Y-3.2913
X5.3742Y-3.6811
X5.3754Y-3.81
X5.3937Y-4.0945
X5.3976Y-3.8858
X5.3993Y-3.7067
X5.4016Y-3.2874
X5.4063Y-3.7394
X5.4134Y-3.5039
X5.4488Y-3.5945
X5.4528Y-3.6811
X5.4646Y-4.1299
X5.4724Y-4.0157
X5.4766Y-3.7067
X5.4902Y-3.2776
X5.4961Y-3.8858
X5.5039Y-2.9213
X5.5157Y-4.126
X5.5315Y-3.8583
X5.5709Y-3.4941
X5.5787Y-4.3465
X5.5827Y-3.0787
X5.5827Y-3.8898
X5.5866Y-2.8622
X5.5906Y-3.6181
X5.5906Y-3.7657
X5.5906Y-4.1732
X5.626Y-3.4055
X5.626Y-3.9488
X5.6299Y-3.622
X5.6417Y-2.9252
X5.6575Y-4.0079
X5.6693Y-3.622
X5.689Y-4.0512
X5.7047Y-3.5039
X5.7087Y-4.0945
X5.7126Y-3.1102
X5.7913Y-4.3465
X5.815Y-3.0039
X5.8858Y-2.9606
X5.9449Y-3.5433
X5.9843Y-3.7402
X6.1811Y-3.7795
X6.2598Y-3.4646
T2
X5.0064Y-4.4097
X5.0984Y-4.4488
X5.1905Y-4.4879
X5.3435Y-4.311
X5.4435Y-4.311
T3
X4.7244Y-3.3268
X4.7244Y-4.0748
X5.2362Y-2.9134
X5.6693Y-4.4685
X6.1417Y-3.3268
X6.1417Y-4.0748
M30
