%TF.GenerationSoftware,KiCad,Pcbnew,8.0.0*%
%TF.CreationDate,2024-05-13T13:59:27-05:00*%
%TF.ProjectId,GaussMouse_Sensor,47617573-734d-46f7-9573-655f53656e73,rev?*%
%TF.SameCoordinates,Original*%
%TF.FileFunction,Legend,Top*%
%TF.FilePolarity,Positive*%
%FSLAX46Y46*%
G04 Gerber Fmt 4.6, Leading zero omitted, Abs format (unit mm)*
G04 Created by KiCad (PCBNEW 8.0.0) date 2024-05-13 13:59:27*
%MOMM*%
%LPD*%
G01*
G04 APERTURE LIST*
%ADD10C,0.000000*%
%ADD11C,0.150000*%
%ADD12C,0.152400*%
%ADD13C,0.120000*%
%ADD14C,0.100000*%
G04 APERTURE END LIST*
D10*
G36*
X150961004Y-95553166D02*
G01*
X151039373Y-95623904D01*
X151155449Y-95732380D01*
X151478273Y-96040895D01*
X151884577Y-96435413D01*
X152329458Y-96872639D01*
X153418448Y-97949364D01*
X153266729Y-98148388D01*
X153235382Y-98189090D01*
X153204426Y-98228458D01*
X153174664Y-98265531D01*
X153146896Y-98299347D01*
X153121925Y-98328944D01*
X153100550Y-98353361D01*
X153083575Y-98371637D01*
X153071798Y-98382809D01*
X153062696Y-98390251D01*
X153053961Y-98397022D01*
X153049638Y-98400075D01*
X153045294Y-98402863D01*
X153040892Y-98405353D01*
X153036395Y-98407513D01*
X153031765Y-98409311D01*
X153026966Y-98410714D01*
X153021959Y-98411690D01*
X153016707Y-98412206D01*
X153011173Y-98412230D01*
X153005319Y-98411729D01*
X152999108Y-98410671D01*
X152992502Y-98409024D01*
X152985465Y-98406755D01*
X152977958Y-98403832D01*
X152969945Y-98400221D01*
X152961388Y-98395892D01*
X152952249Y-98390810D01*
X152942491Y-98384945D01*
X152932077Y-98378263D01*
X152920969Y-98370732D01*
X152909130Y-98362320D01*
X152896523Y-98352994D01*
X152883110Y-98342721D01*
X152868853Y-98331470D01*
X152853715Y-98319207D01*
X152837660Y-98305901D01*
X152802645Y-98276028D01*
X152763508Y-98241591D01*
X152719951Y-98202331D01*
X152671674Y-98157988D01*
X152618378Y-98108302D01*
X152559764Y-98053015D01*
X152495532Y-97991866D01*
X152425383Y-97924596D01*
X152349018Y-97850946D01*
X152266138Y-97770655D01*
X152176444Y-97683465D01*
X151975414Y-97487348D01*
X151478415Y-97000900D01*
X150679373Y-96218369D01*
X149554434Y-97328751D01*
X149115050Y-97759891D01*
X148750298Y-98112956D01*
X148498169Y-98351513D01*
X148426212Y-98416466D01*
X148396658Y-98439129D01*
X148394836Y-98438991D01*
X148392770Y-98438580D01*
X148390468Y-98437903D01*
X148387939Y-98436968D01*
X148382235Y-98434348D01*
X148375727Y-98430774D01*
X148368485Y-98426300D01*
X148360578Y-98420981D01*
X148352078Y-98414871D01*
X148343052Y-98408024D01*
X148333571Y-98400494D01*
X148323705Y-98392337D01*
X148313524Y-98383605D01*
X148303096Y-98374354D01*
X148292492Y-98364637D01*
X148281782Y-98354509D01*
X148271035Y-98344024D01*
X148260321Y-98333237D01*
X148260290Y-98333248D01*
X148237316Y-98309432D01*
X148211645Y-98282292D01*
X148155672Y-98221827D01*
X148099293Y-98159420D01*
X148049429Y-98102638D01*
X147942053Y-97977921D01*
X148881750Y-97047909D01*
X149671732Y-96272490D01*
X150010359Y-95944306D01*
X150251486Y-95714157D01*
X150681540Y-95310417D01*
X150961004Y-95553166D01*
G37*
G36*
X154260631Y-97904071D02*
G01*
X154285479Y-97906352D01*
X154310186Y-97910769D01*
X154334600Y-97917368D01*
X154358571Y-97926190D01*
X154381950Y-97937279D01*
X154404587Y-97950678D01*
X154426332Y-97966431D01*
X154447035Y-97984580D01*
X154466545Y-98005169D01*
X154484713Y-98028240D01*
X154501390Y-98053838D01*
X154516424Y-98082005D01*
X154522620Y-98095245D01*
X154528054Y-98107697D01*
X154532732Y-98119476D01*
X154536663Y-98130700D01*
X154539856Y-98141486D01*
X154542318Y-98151951D01*
X154544057Y-98162212D01*
X154545082Y-98172385D01*
X154545400Y-98182588D01*
X154545020Y-98192938D01*
X154543950Y-98203551D01*
X154542197Y-98214545D01*
X154539770Y-98226037D01*
X154536677Y-98238143D01*
X154532926Y-98250981D01*
X154528524Y-98264668D01*
X154521764Y-98283643D01*
X154514464Y-98301954D01*
X154506853Y-98319157D01*
X154499159Y-98334807D01*
X154495352Y-98341911D01*
X154491611Y-98348461D01*
X154487963Y-98354400D01*
X154484438Y-98359673D01*
X154481063Y-98364225D01*
X154477867Y-98368000D01*
X154474879Y-98370943D01*
X154472128Y-98372997D01*
X154469354Y-98382135D01*
X154466704Y-98405764D01*
X154461802Y-98494500D01*
X154457485Y-98635213D01*
X154453814Y-98823910D01*
X154448658Y-99329283D01*
X154446829Y-99978672D01*
X154446829Y-101568913D01*
X154169333Y-101862988D01*
X154084116Y-101952722D01*
X154016349Y-102022223D01*
X153987994Y-102050181D01*
X153962782Y-102074036D01*
X153940306Y-102094107D01*
X153920160Y-102110711D01*
X153901939Y-102124167D01*
X153885234Y-102134793D01*
X153869640Y-102142909D01*
X153854750Y-102148831D01*
X153840158Y-102152880D01*
X153825457Y-102155372D01*
X153810241Y-102156627D01*
X153794104Y-102156963D01*
X153783706Y-102156681D01*
X153772713Y-102155875D01*
X153761219Y-102154570D01*
X153749320Y-102152794D01*
X153737109Y-102150574D01*
X153724683Y-102147937D01*
X153712136Y-102144909D01*
X153699562Y-102141518D01*
X153687057Y-102137790D01*
X153674717Y-102133752D01*
X153662634Y-102129431D01*
X153650906Y-102124854D01*
X153639626Y-102120048D01*
X153628889Y-102115040D01*
X153618791Y-102109855D01*
X153609427Y-102104523D01*
X153609503Y-102104523D01*
X153593966Y-102094680D01*
X153579041Y-102084254D01*
X153564782Y-102073316D01*
X153551241Y-102061935D01*
X153538474Y-102050181D01*
X153526534Y-102038124D01*
X153515476Y-102025835D01*
X153505352Y-102013382D01*
X153496218Y-102000836D01*
X153488126Y-101988267D01*
X153481131Y-101975745D01*
X153475287Y-101963339D01*
X153470648Y-101951119D01*
X153467268Y-101939156D01*
X153466066Y-101933293D01*
X153465200Y-101927520D01*
X153464675Y-101921845D01*
X153464499Y-101916279D01*
X153464891Y-101914389D01*
X153466055Y-101911704D01*
X153470622Y-101904035D01*
X153478046Y-101893450D01*
X153488172Y-101880126D01*
X153500848Y-101864239D01*
X153515919Y-101845967D01*
X153552631Y-101802976D01*
X153597079Y-101752568D01*
X153648032Y-101696159D01*
X153704260Y-101635165D01*
X153764532Y-101571003D01*
X154064550Y-101254524D01*
X154064657Y-99842217D01*
X154063344Y-99098957D01*
X154057583Y-98664998D01*
X154052256Y-98537366D01*
X154044884Y-98455091D01*
X154035155Y-98407515D01*
X154022757Y-98383984D01*
X154018379Y-98378801D01*
X154013962Y-98372774D01*
X154009536Y-98365977D01*
X154005131Y-98358482D01*
X154000776Y-98350363D01*
X153996501Y-98341694D01*
X153992335Y-98332548D01*
X153988308Y-98322998D01*
X153984450Y-98313118D01*
X153980790Y-98302980D01*
X153977358Y-98292659D01*
X153974183Y-98282227D01*
X153971295Y-98271758D01*
X153968724Y-98261326D01*
X153966500Y-98251003D01*
X153964651Y-98240864D01*
X153960861Y-98209459D01*
X153959927Y-98179329D01*
X153961699Y-98150516D01*
X153966029Y-98123063D01*
X153972764Y-98097014D01*
X153981757Y-98072412D01*
X153992856Y-98049300D01*
X154005912Y-98027720D01*
X154020775Y-98007718D01*
X154037294Y-97989335D01*
X154055321Y-97972614D01*
X154074704Y-97957599D01*
X154095295Y-97944334D01*
X154116943Y-97932860D01*
X154139497Y-97923222D01*
X154162809Y-97915462D01*
X154186729Y-97909624D01*
X154211105Y-97905751D01*
X154235789Y-97903886D01*
X154260631Y-97904071D01*
G37*
G36*
X147100000Y-97900000D02*
G01*
X147110793Y-97900673D01*
X147121527Y-97901867D01*
X147132204Y-97903581D01*
X147142824Y-97905817D01*
X147153390Y-97908574D01*
X147163902Y-97911852D01*
X147174361Y-97915652D01*
X147184769Y-97919974D01*
X147195126Y-97924817D01*
X147205434Y-97930183D01*
X147225907Y-97942481D01*
X147246196Y-97956869D01*
X147266311Y-97973349D01*
X147286261Y-97991921D01*
X147296457Y-98002384D01*
X147306087Y-98013074D01*
X147315151Y-98023977D01*
X147323646Y-98035076D01*
X147331571Y-98046359D01*
X147338924Y-98057809D01*
X147345703Y-98069411D01*
X147351909Y-98081152D01*
X147357537Y-98093016D01*
X147362588Y-98104988D01*
X147367060Y-98117053D01*
X147370951Y-98129197D01*
X147374260Y-98141404D01*
X147376985Y-98153660D01*
X147379124Y-98165950D01*
X147380676Y-98178259D01*
X147381640Y-98190573D01*
X147382014Y-98202876D01*
X147381797Y-98215153D01*
X147380987Y-98227390D01*
X147379582Y-98239571D01*
X147377581Y-98251683D01*
X147374982Y-98263710D01*
X147371785Y-98275637D01*
X147367986Y-98287449D01*
X147363586Y-98299132D01*
X147358582Y-98310670D01*
X147352973Y-98322049D01*
X147346757Y-98333254D01*
X147339933Y-98344271D01*
X147332499Y-98355083D01*
X147324453Y-98365677D01*
X147319634Y-98371885D01*
X147315107Y-98378202D01*
X147310863Y-98384876D01*
X147306892Y-98392155D01*
X147303187Y-98400286D01*
X147299736Y-98409519D01*
X147296533Y-98420100D01*
X147293566Y-98432278D01*
X147290828Y-98446301D01*
X147288308Y-98462418D01*
X147285999Y-98480875D01*
X147283891Y-98501921D01*
X147281974Y-98525804D01*
X147280240Y-98552771D01*
X147278679Y-98583072D01*
X147277283Y-98616954D01*
X147276042Y-98654665D01*
X147274947Y-98696452D01*
X147273159Y-98793251D01*
X147271846Y-98909333D01*
X147270936Y-99046683D01*
X147270355Y-99207286D01*
X147270030Y-99393124D01*
X147269857Y-99848446D01*
X147269857Y-101262714D01*
X147524847Y-101528038D01*
X147576733Y-101582573D01*
X147626420Y-101635841D01*
X147672731Y-101686506D01*
X147714485Y-101733230D01*
X147750504Y-101774676D01*
X147779608Y-101809508D01*
X147800617Y-101836389D01*
X147807718Y-101846429D01*
X147812353Y-101853981D01*
X147817200Y-101863971D01*
X147821102Y-101874049D01*
X147824071Y-101884201D01*
X147826121Y-101894412D01*
X147827264Y-101904666D01*
X147827513Y-101914948D01*
X147826882Y-101925245D01*
X147825383Y-101935539D01*
X147823029Y-101945817D01*
X147819833Y-101956064D01*
X147815809Y-101966263D01*
X147810969Y-101976401D01*
X147805326Y-101986462D01*
X147798893Y-101996432D01*
X147791684Y-102006294D01*
X147783711Y-102016035D01*
X147774986Y-102025638D01*
X147765524Y-102035090D01*
X147755337Y-102044375D01*
X147744438Y-102053477D01*
X147732840Y-102062383D01*
X147720556Y-102071076D01*
X147707599Y-102079542D01*
X147693982Y-102087766D01*
X147679718Y-102095733D01*
X147664820Y-102103427D01*
X147649300Y-102110834D01*
X147633173Y-102117939D01*
X147616450Y-102124726D01*
X147599146Y-102131181D01*
X147581272Y-102137288D01*
X147562841Y-102143032D01*
X147441336Y-102179131D01*
X147157827Y-101898174D01*
X146874243Y-101617222D01*
X146884344Y-100017201D01*
X146888453Y-99156942D01*
X146885706Y-98666273D01*
X146881027Y-98525246D01*
X146873753Y-98435471D01*
X146863589Y-98383231D01*
X146850241Y-98354813D01*
X146842283Y-98342814D01*
X146835108Y-98330386D01*
X146828709Y-98317566D01*
X146823076Y-98304391D01*
X146818202Y-98290899D01*
X146814077Y-98277129D01*
X146810693Y-98263117D01*
X146808043Y-98248903D01*
X146806116Y-98234523D01*
X146804905Y-98220016D01*
X146804401Y-98205419D01*
X146804596Y-98190771D01*
X146805481Y-98176108D01*
X146807048Y-98161469D01*
X146809288Y-98146892D01*
X146812193Y-98132415D01*
X146815754Y-98118075D01*
X146819963Y-98103910D01*
X146824811Y-98089958D01*
X146830290Y-98076257D01*
X146836391Y-98062844D01*
X146843106Y-98049759D01*
X146850426Y-98037037D01*
X146858343Y-98024718D01*
X146866848Y-98012838D01*
X146875934Y-98001436D01*
X146885590Y-97990550D01*
X146895809Y-97980218D01*
X146906583Y-97970477D01*
X146917902Y-97961365D01*
X146929759Y-97952919D01*
X146942144Y-97945179D01*
X146965527Y-97932493D01*
X146988617Y-97921883D01*
X147011424Y-97913348D01*
X147022724Y-97909860D01*
X147033957Y-97906892D01*
X147045123Y-97904443D01*
X147056225Y-97902514D01*
X147067262Y-97901105D01*
X147078236Y-97900216D01*
X147089148Y-97899848D01*
X147100000Y-97900000D01*
G37*
G36*
X150843154Y-94540038D02*
G01*
X151029530Y-94550872D01*
X151212906Y-94567388D01*
X151393309Y-94589593D01*
X151570764Y-94617495D01*
X151745298Y-94651101D01*
X151916937Y-94690418D01*
X152085705Y-94735454D01*
X152251629Y-94786216D01*
X152414735Y-94842712D01*
X152575049Y-94904949D01*
X152732596Y-94972934D01*
X152887403Y-95046675D01*
X153039495Y-95126180D01*
X153188898Y-95211456D01*
X153335638Y-95302509D01*
X153492509Y-95408172D01*
X153645854Y-95520108D01*
X153795420Y-95638019D01*
X153940954Y-95761611D01*
X154082204Y-95890587D01*
X154218917Y-96024652D01*
X154350840Y-96163509D01*
X154477720Y-96306862D01*
X154599305Y-96454416D01*
X154715340Y-96605873D01*
X154825574Y-96760940D01*
X154929754Y-96919318D01*
X155027627Y-97080713D01*
X155118940Y-97244828D01*
X155203440Y-97411368D01*
X155280874Y-97580036D01*
X155348720Y-97746086D01*
X155410114Y-97917335D01*
X155465009Y-98093285D01*
X155513357Y-98273436D01*
X155555110Y-98457291D01*
X155590223Y-98644348D01*
X155618646Y-98834110D01*
X155640333Y-99026076D01*
X155655237Y-99219748D01*
X155663310Y-99414627D01*
X155664505Y-99610213D01*
X155658774Y-99806007D01*
X155646070Y-100001511D01*
X155626347Y-100196224D01*
X155599555Y-100389648D01*
X155565649Y-100581284D01*
X155503359Y-100854131D01*
X155424992Y-101122216D01*
X155331041Y-101384898D01*
X155222001Y-101641538D01*
X155098364Y-101891495D01*
X154960623Y-102134130D01*
X154809273Y-102368804D01*
X154644806Y-102594876D01*
X154467715Y-102811707D01*
X154278495Y-103018658D01*
X154077638Y-103215087D01*
X153865637Y-103400356D01*
X153642986Y-103573825D01*
X153410179Y-103734854D01*
X153167708Y-103882803D01*
X152916067Y-104017033D01*
X152823856Y-104060098D01*
X152707747Y-104110321D01*
X152578006Y-104163727D01*
X152444897Y-104216339D01*
X152318685Y-104264181D01*
X152209636Y-104303277D01*
X152128013Y-104329650D01*
X152100694Y-104336824D01*
X152084082Y-104339325D01*
X152081714Y-104296572D01*
X152079160Y-104174040D01*
X152073795Y-103724007D01*
X152064184Y-102244625D01*
X152051367Y-100739413D01*
X152042508Y-100261419D01*
X152033377Y-100061989D01*
X152028313Y-100036371D01*
X152025715Y-100011401D01*
X152025460Y-99987137D01*
X152027423Y-99963637D01*
X152031483Y-99940958D01*
X152037517Y-99919158D01*
X152045400Y-99898296D01*
X152055010Y-99878429D01*
X152066224Y-99859614D01*
X152078920Y-99841910D01*
X152092973Y-99825374D01*
X152108261Y-99810064D01*
X152124660Y-99796039D01*
X152142048Y-99783355D01*
X152160302Y-99772071D01*
X152179298Y-99762245D01*
X152198914Y-99753934D01*
X152219026Y-99747196D01*
X152239512Y-99742088D01*
X152260248Y-99738670D01*
X152281111Y-99736998D01*
X152301978Y-99737131D01*
X152322726Y-99739126D01*
X152343232Y-99743040D01*
X152363373Y-99748933D01*
X152383026Y-99756861D01*
X152402068Y-99766883D01*
X152420375Y-99779056D01*
X152437825Y-99793439D01*
X152454295Y-99810088D01*
X152469661Y-99829062D01*
X152483801Y-99850418D01*
X152536398Y-99938439D01*
X152822500Y-99944939D01*
X153108587Y-99951439D01*
X153217337Y-99835167D01*
X153234701Y-99816788D01*
X153250609Y-99800425D01*
X153265289Y-99785965D01*
X153278968Y-99773292D01*
X153291872Y-99762291D01*
X153304229Y-99752849D01*
X153310273Y-99748676D01*
X153316265Y-99744850D01*
X153322235Y-99741356D01*
X153328209Y-99738180D01*
X153334217Y-99735307D01*
X153340286Y-99732724D01*
X153346446Y-99730415D01*
X153352725Y-99728367D01*
X153359151Y-99726565D01*
X153365751Y-99724995D01*
X153379593Y-99722493D01*
X153394477Y-99720747D01*
X153410630Y-99719642D01*
X153428280Y-99719063D01*
X153447653Y-99718895D01*
X153468743Y-99719422D01*
X153489115Y-99720987D01*
X153508753Y-99723562D01*
X153527642Y-99727122D01*
X153545765Y-99731639D01*
X153563107Y-99737087D01*
X153579651Y-99743440D01*
X153595382Y-99750671D01*
X153610284Y-99758753D01*
X153624341Y-99767660D01*
X153637536Y-99777366D01*
X153649855Y-99787844D01*
X153661280Y-99799067D01*
X153671797Y-99811009D01*
X153681389Y-99823643D01*
X153690041Y-99836943D01*
X153697735Y-99850883D01*
X153704458Y-99865435D01*
X153710191Y-99880574D01*
X153714921Y-99896272D01*
X153718630Y-99912503D01*
X153721303Y-99929242D01*
X153722924Y-99946460D01*
X153723476Y-99964132D01*
X153722945Y-99982231D01*
X153721314Y-100000731D01*
X153718567Y-100019605D01*
X153714688Y-100038826D01*
X153709661Y-100058368D01*
X153703471Y-100078205D01*
X153696101Y-100098310D01*
X153687536Y-100118656D01*
X153674375Y-100146620D01*
X153667719Y-100159383D01*
X153660872Y-100171367D01*
X153653727Y-100182600D01*
X153646179Y-100193107D01*
X153638119Y-100202915D01*
X153629443Y-100212048D01*
X153620043Y-100220533D01*
X153609814Y-100228397D01*
X153598649Y-100235665D01*
X153586441Y-100242363D01*
X153573085Y-100248517D01*
X153558474Y-100254154D01*
X153542501Y-100259299D01*
X153525061Y-100263978D01*
X153506046Y-100268218D01*
X153485351Y-100272044D01*
X153462870Y-100275482D01*
X153438495Y-100278559D01*
X153412120Y-100281301D01*
X153383640Y-100283732D01*
X153352947Y-100285881D01*
X153319936Y-100287772D01*
X153246533Y-100290885D01*
X153162579Y-100293281D01*
X153067224Y-100295168D01*
X152959616Y-100296753D01*
X152768340Y-100299813D01*
X152610645Y-100303305D01*
X152502878Y-100306801D01*
X152472826Y-100308416D01*
X152461386Y-100309872D01*
X152459137Y-100442460D01*
X152458387Y-100798500D01*
X152461386Y-101963898D01*
X152468390Y-103611282D01*
X152700338Y-103483460D01*
X152932303Y-103355637D01*
X152939306Y-102327198D01*
X152946310Y-101298760D01*
X153146994Y-101088066D01*
X153205276Y-101026229D01*
X153229543Y-100999826D01*
X153250768Y-100976116D01*
X153269105Y-100954863D01*
X153284707Y-100935828D01*
X153297731Y-100918773D01*
X153308329Y-100903462D01*
X153316656Y-100889655D01*
X153322868Y-100877116D01*
X153327117Y-100865608D01*
X153329560Y-100854891D01*
X153330350Y-100844729D01*
X153329641Y-100834884D01*
X153327589Y-100825118D01*
X153324347Y-100815193D01*
X153321706Y-100807290D01*
X153319590Y-100799074D01*
X153317987Y-100790568D01*
X153316888Y-100781800D01*
X153316280Y-100772793D01*
X153316153Y-100763574D01*
X153316497Y-100754169D01*
X153317299Y-100744601D01*
X153320237Y-100725084D01*
X153324880Y-100705226D01*
X153331140Y-100685230D01*
X153338930Y-100665300D01*
X153348163Y-100645639D01*
X153358750Y-100626451D01*
X153370604Y-100607939D01*
X153383638Y-100590307D01*
X153397765Y-100573757D01*
X153412896Y-100558493D01*
X153428944Y-100544720D01*
X153437285Y-100538455D01*
X153445822Y-100532639D01*
X153456269Y-100526213D01*
X153466986Y-100520269D01*
X153489138Y-100509817D01*
X153512096Y-100501271D01*
X153535678Y-100494618D01*
X153559705Y-100489844D01*
X153583995Y-100486938D01*
X153608366Y-100485886D01*
X153632639Y-100486675D01*
X153656632Y-100489293D01*
X153680163Y-100493727D01*
X153703053Y-100499964D01*
X153725119Y-100507991D01*
X153746182Y-100517796D01*
X153756280Y-100523360D01*
X153766059Y-100529365D01*
X153775497Y-100535808D01*
X153784570Y-100542686D01*
X153793257Y-100550000D01*
X153801535Y-100557747D01*
X153811603Y-100568013D01*
X153820759Y-100578054D01*
X153829038Y-100587964D01*
X153836478Y-100597841D01*
X153843113Y-100607783D01*
X153848981Y-100617885D01*
X153854117Y-100628244D01*
X153856422Y-100633551D01*
X153858559Y-100638958D01*
X153862342Y-100650123D01*
X153865503Y-100661835D01*
X153868077Y-100674192D01*
X153870103Y-100687290D01*
X153871615Y-100701226D01*
X153872650Y-100716097D01*
X153873244Y-100732000D01*
X153873434Y-100749031D01*
X153873024Y-100771943D01*
X153871603Y-100793169D01*
X153870425Y-100803265D01*
X153868889Y-100813076D01*
X153866959Y-100822648D01*
X153864599Y-100832026D01*
X153861774Y-100841256D01*
X153858448Y-100850385D01*
X153854587Y-100859456D01*
X153850154Y-100868516D01*
X153845115Y-100877610D01*
X153839434Y-100886784D01*
X153833076Y-100896083D01*
X153826004Y-100905553D01*
X153818184Y-100915239D01*
X153809581Y-100925188D01*
X153800158Y-100935444D01*
X153789881Y-100946052D01*
X153766622Y-100968511D01*
X153739519Y-100992929D01*
X153708290Y-101019669D01*
X153672651Y-101049096D01*
X153632319Y-101081575D01*
X153587011Y-101117470D01*
X153576484Y-101125952D01*
X153565509Y-101135159D01*
X153542568Y-101155390D01*
X153518897Y-101177453D01*
X153495203Y-101200639D01*
X153472195Y-101224239D01*
X153450579Y-101247543D01*
X153431064Y-101269843D01*
X153422316Y-101280394D01*
X153414358Y-101290428D01*
X153341253Y-101384937D01*
X153327551Y-102226395D01*
X153320637Y-102709611D01*
X153320293Y-102857997D01*
X153322649Y-102956652D01*
X153324986Y-102990240D01*
X153328174Y-103014888D01*
X153332271Y-103031758D01*
X153337336Y-103042015D01*
X153343427Y-103046824D01*
X153350603Y-103047347D01*
X153368445Y-103040196D01*
X153398552Y-103020943D01*
X153439259Y-102988853D01*
X153489111Y-102945460D01*
X153546652Y-102892299D01*
X153678975Y-102762810D01*
X153824581Y-102612665D01*
X153971823Y-102454139D01*
X154109054Y-102299511D01*
X154170275Y-102227494D01*
X154224625Y-102161056D01*
X154270649Y-102101730D01*
X154306891Y-102051052D01*
X154402346Y-101903354D01*
X154491336Y-101753419D01*
X154573863Y-101601227D01*
X154649935Y-101446761D01*
X154719555Y-101290002D01*
X154782731Y-101130932D01*
X154839465Y-100969532D01*
X154889765Y-100805784D01*
X154933635Y-100639669D01*
X154971080Y-100471170D01*
X155002106Y-100300268D01*
X155026718Y-100126943D01*
X155044922Y-99951179D01*
X155056722Y-99772956D01*
X155062123Y-99592256D01*
X155061132Y-99409062D01*
X155057501Y-99297064D01*
X155051720Y-99187593D01*
X155043750Y-99080470D01*
X155033554Y-98975514D01*
X155021093Y-98872545D01*
X155006329Y-98771383D01*
X154989224Y-98671848D01*
X154969740Y-98573759D01*
X154947838Y-98476937D01*
X154923481Y-98381201D01*
X154896629Y-98286372D01*
X154867245Y-98192269D01*
X154835291Y-98098712D01*
X154800728Y-98005520D01*
X154763518Y-97912515D01*
X154723623Y-97819515D01*
X154622107Y-97590511D01*
X154156195Y-97583111D01*
X153690268Y-97575710D01*
X153488455Y-97367535D01*
X153055786Y-96928956D01*
X152298941Y-96166836D01*
X151475111Y-95338997D01*
X152039190Y-95338997D01*
X152936056Y-96242184D01*
X153832922Y-97145371D01*
X154085348Y-97145676D01*
X154136052Y-97145429D01*
X154183356Y-97144582D01*
X154226224Y-97143197D01*
X154263620Y-97141341D01*
X154294509Y-97139077D01*
X154317855Y-97136470D01*
X154332622Y-97133585D01*
X154336465Y-97132058D01*
X154337444Y-97131277D01*
X154337774Y-97130486D01*
X154337744Y-97130470D01*
X154336793Y-97125907D01*
X154333995Y-97119291D01*
X154323197Y-97100319D01*
X154306022Y-97074380D01*
X154283143Y-97042301D01*
X154222959Y-96963030D01*
X154148024Y-96869121D01*
X154063716Y-96767187D01*
X153975414Y-96663843D01*
X153888496Y-96565702D01*
X153808340Y-96479378D01*
X153721999Y-96391871D01*
X153632619Y-96306220D01*
X153540471Y-96222605D01*
X153445823Y-96141208D01*
X153348946Y-96062212D01*
X153250109Y-95985798D01*
X153149581Y-95912148D01*
X153047632Y-95841444D01*
X152944533Y-95773867D01*
X152840551Y-95709600D01*
X152735958Y-95648824D01*
X152631022Y-95591721D01*
X152526014Y-95538472D01*
X152421202Y-95489261D01*
X152316857Y-95444268D01*
X152213247Y-95403675D01*
X152039190Y-95338997D01*
X151475111Y-95338997D01*
X151311224Y-95174313D01*
X151125479Y-95150673D01*
X151029978Y-95141403D01*
X150911905Y-95134356D01*
X150779714Y-95129603D01*
X150641861Y-95127216D01*
X150506801Y-95127268D01*
X150382990Y-95129830D01*
X150278882Y-95134974D01*
X150202932Y-95142773D01*
X150193470Y-95144502D01*
X150183797Y-95146881D01*
X150173729Y-95150083D01*
X150163082Y-95154276D01*
X150151673Y-95159633D01*
X150139317Y-95166325D01*
X150125830Y-95174521D01*
X150111028Y-95184393D01*
X150094728Y-95196112D01*
X150076745Y-95209848D01*
X150056894Y-95225773D01*
X150034993Y-95244057D01*
X150010857Y-95264871D01*
X149984302Y-95288387D01*
X149923199Y-95344204D01*
X149850211Y-95412875D01*
X149763868Y-95495768D01*
X149662696Y-95594248D01*
X149545223Y-95709684D01*
X149409977Y-95843441D01*
X149255486Y-95996887D01*
X148882879Y-96368313D01*
X147671972Y-97576927D01*
X146724981Y-97576927D01*
X146681280Y-97660439D01*
X146663064Y-97696688D01*
X146643940Y-97737533D01*
X146603705Y-97830935D01*
X146562046Y-97936484D01*
X146520433Y-98050019D01*
X146480339Y-98167380D01*
X146443233Y-98284407D01*
X146410587Y-98396939D01*
X146383871Y-98500816D01*
X146351799Y-98649160D01*
X146325028Y-98800744D01*
X146303533Y-98955025D01*
X146287290Y-99111457D01*
X146276275Y-99269496D01*
X146270463Y-99428596D01*
X146269829Y-99588212D01*
X146274351Y-99747800D01*
X146284003Y-99906815D01*
X146298762Y-100064711D01*
X146318602Y-100220943D01*
X146343501Y-100374968D01*
X146373432Y-100526238D01*
X146408373Y-100674211D01*
X146448299Y-100818340D01*
X146493185Y-100958080D01*
X146525982Y-101049761D01*
X146561019Y-101141097D01*
X146598217Y-101231948D01*
X146637499Y-101322175D01*
X146678786Y-101411637D01*
X146722000Y-101500193D01*
X146767064Y-101587705D01*
X146813900Y-101674031D01*
X146862429Y-101759032D01*
X146912574Y-101842567D01*
X146964256Y-101924497D01*
X147017398Y-102004680D01*
X147071922Y-102082978D01*
X147127749Y-102159249D01*
X147184802Y-102233354D01*
X147243002Y-102305153D01*
X147312679Y-102385356D01*
X147398456Y-102478619D01*
X147494619Y-102579231D01*
X147595451Y-102681483D01*
X147695237Y-102779664D01*
X147788261Y-102868062D01*
X147868806Y-102940967D01*
X147902614Y-102969825D01*
X147931158Y-102992668D01*
X148006155Y-103049957D01*
X148006155Y-101383240D01*
X147833853Y-101211071D01*
X147797496Y-101175241D01*
X147760231Y-101139406D01*
X147723111Y-101104521D01*
X147687191Y-101071544D01*
X147653525Y-101041432D01*
X147623166Y-101015141D01*
X147597170Y-100993627D01*
X147576590Y-100977848D01*
X147565541Y-100969606D01*
X147554967Y-100961104D01*
X147544870Y-100952352D01*
X147535255Y-100943362D01*
X147526125Y-100934143D01*
X147517482Y-100924707D01*
X147509330Y-100915064D01*
X147501672Y-100905225D01*
X147494511Y-100895200D01*
X147487850Y-100885000D01*
X147481693Y-100874636D01*
X147476042Y-100864118D01*
X147470902Y-100853457D01*
X147466275Y-100842664D01*
X147462164Y-100831750D01*
X147458572Y-100820724D01*
X147455504Y-100809597D01*
X147452961Y-100798381D01*
X147450947Y-100787086D01*
X147449466Y-100775722D01*
X147448520Y-100764301D01*
X147448113Y-100752832D01*
X147448247Y-100741327D01*
X147448927Y-100729795D01*
X147450155Y-100718249D01*
X147451935Y-100706698D01*
X147454269Y-100695153D01*
X147457161Y-100683624D01*
X147460614Y-100672123D01*
X147464631Y-100660660D01*
X147469216Y-100649245D01*
X147474371Y-100637890D01*
X147480240Y-100626282D01*
X147486494Y-100615067D01*
X147493121Y-100604251D01*
X147500111Y-100593840D01*
X147507452Y-100583838D01*
X147515131Y-100574252D01*
X147523138Y-100565086D01*
X147531460Y-100556345D01*
X147540086Y-100548037D01*
X147549004Y-100540165D01*
X147558203Y-100532735D01*
X147567671Y-100525753D01*
X147577397Y-100519224D01*
X147587368Y-100513153D01*
X147597574Y-100507547D01*
X147608002Y-100502409D01*
X147618641Y-100497746D01*
X147629479Y-100493563D01*
X147640504Y-100489866D01*
X147651706Y-100486660D01*
X147663072Y-100483950D01*
X147674591Y-100481741D01*
X147686250Y-100480040D01*
X147698039Y-100478851D01*
X147709946Y-100478180D01*
X147721959Y-100478033D01*
X147734067Y-100478414D01*
X147746257Y-100479330D01*
X147758519Y-100480785D01*
X147770840Y-100482785D01*
X147783209Y-100485335D01*
X147795614Y-100488442D01*
X147808401Y-100492163D01*
X147820799Y-100496247D01*
X147832804Y-100500693D01*
X147844418Y-100505500D01*
X147855638Y-100510665D01*
X147866465Y-100516188D01*
X147876895Y-100522067D01*
X147886930Y-100528300D01*
X147896567Y-100534887D01*
X147905806Y-100541825D01*
X147914645Y-100549113D01*
X147923083Y-100556751D01*
X147931120Y-100564735D01*
X147938755Y-100573066D01*
X147945986Y-100581741D01*
X147952812Y-100590759D01*
X147959233Y-100600119D01*
X147965247Y-100609819D01*
X147970853Y-100619858D01*
X147976050Y-100630234D01*
X147980838Y-100640946D01*
X147985214Y-100651992D01*
X147989179Y-100663372D01*
X147992731Y-100675083D01*
X147995869Y-100687124D01*
X147998592Y-100699493D01*
X148000898Y-100712190D01*
X148002788Y-100725213D01*
X148004260Y-100738560D01*
X148005312Y-100752230D01*
X148005944Y-100766221D01*
X148006155Y-100780533D01*
X148006304Y-100801813D01*
X148006923Y-100821025D01*
X148008274Y-100838583D01*
X148009304Y-100846872D01*
X148010614Y-100854905D01*
X148012237Y-100862732D01*
X148014204Y-100870407D01*
X148016550Y-100877981D01*
X148019305Y-100885506D01*
X148022502Y-100893034D01*
X148026175Y-100900618D01*
X148030355Y-100908309D01*
X148035074Y-100916160D01*
X148040366Y-100924222D01*
X148046263Y-100932548D01*
X148052797Y-100941189D01*
X148060000Y-100950199D01*
X148076547Y-100969529D01*
X148096161Y-100990954D01*
X148119104Y-101014892D01*
X148145635Y-101041759D01*
X148210501Y-101105946D01*
X148414846Y-101306347D01*
X148421850Y-102331108D01*
X148428854Y-103355869D01*
X148647162Y-103469448D01*
X148733543Y-103513622D01*
X148807358Y-103549935D01*
X148837104Y-103563970D01*
X148860771Y-103574630D01*
X148877378Y-103581447D01*
X148882728Y-103583267D01*
X148885946Y-103583950D01*
X148888040Y-103575528D01*
X148890073Y-103550633D01*
X148893918Y-103454786D01*
X148900433Y-103102419D01*
X148904827Y-102580678D01*
X148906439Y-101943394D01*
X148906439Y-100301914D01*
X148330954Y-100293213D01*
X147755484Y-100284512D01*
X147690878Y-100210312D01*
X147674193Y-100189835D01*
X147659283Y-100168832D01*
X147646158Y-100147377D01*
X147634830Y-100125543D01*
X147625308Y-100103405D01*
X147617604Y-100081035D01*
X147611727Y-100058508D01*
X147607687Y-100035898D01*
X147605496Y-100013278D01*
X147605163Y-99990721D01*
X147606700Y-99968302D01*
X147610116Y-99946095D01*
X147615421Y-99924172D01*
X147618786Y-99913341D01*
X147622628Y-99902608D01*
X147626946Y-99891984D01*
X147631744Y-99881477D01*
X147637023Y-99871096D01*
X147642782Y-99860851D01*
X147652585Y-99845353D01*
X147663142Y-99830791D01*
X147674409Y-99817169D01*
X147686345Y-99804487D01*
X147698906Y-99792748D01*
X147712048Y-99781954D01*
X147725730Y-99772107D01*
X147739907Y-99763208D01*
X147754538Y-99755260D01*
X147769578Y-99748265D01*
X147784984Y-99742224D01*
X147800715Y-99737140D01*
X147816726Y-99733014D01*
X147832975Y-99729849D01*
X147849419Y-99727646D01*
X147866015Y-99726407D01*
X147882719Y-99726135D01*
X147899488Y-99726831D01*
X147916280Y-99728497D01*
X147933052Y-99731135D01*
X147949760Y-99734747D01*
X147966362Y-99739336D01*
X147982814Y-99744902D01*
X147999074Y-99751448D01*
X148015098Y-99758977D01*
X148030844Y-99767489D01*
X148046267Y-99776987D01*
X148061327Y-99787473D01*
X148075978Y-99798948D01*
X148090179Y-99811415D01*
X148103886Y-99824876D01*
X148117056Y-99839333D01*
X148187262Y-99920803D01*
X148502783Y-99920803D01*
X148602902Y-99920561D01*
X148679965Y-99919408D01*
X148710979Y-99918290D01*
X148737581Y-99916705D01*
X148760224Y-99914573D01*
X148779358Y-99911813D01*
X148795435Y-99908347D01*
X148808905Y-99904094D01*
X148820220Y-99898975D01*
X148829830Y-99892909D01*
X148838187Y-99885816D01*
X148845742Y-99877618D01*
X148852946Y-99868233D01*
X148860251Y-99857582D01*
X148870522Y-99843150D01*
X148881515Y-99829670D01*
X148893179Y-99817143D01*
X148905464Y-99805568D01*
X148918319Y-99794943D01*
X148931696Y-99785267D01*
X148945544Y-99776541D01*
X148959814Y-99768763D01*
X148974454Y-99761932D01*
X148989417Y-99756048D01*
X149004650Y-99751110D01*
X149020105Y-99747117D01*
X149035732Y-99744068D01*
X149051481Y-99741963D01*
X149067301Y-99740800D01*
X149083143Y-99740579D01*
X149098957Y-99741299D01*
X149114694Y-99742960D01*
X149130302Y-99745559D01*
X149145732Y-99749098D01*
X149160935Y-99753574D01*
X149175859Y-99758988D01*
X149190457Y-99765337D01*
X149204676Y-99772622D01*
X149218468Y-99780842D01*
X149231783Y-99789995D01*
X149244570Y-99800082D01*
X149256780Y-99811101D01*
X149268363Y-99823051D01*
X149279269Y-99835932D01*
X149289448Y-99849743D01*
X149298849Y-99864483D01*
X149307163Y-99878803D01*
X149314454Y-99892041D01*
X149320742Y-99904392D01*
X149326047Y-99916053D01*
X149330391Y-99927216D01*
X149333792Y-99938078D01*
X149335146Y-99943456D01*
X149336272Y-99948833D01*
X149337173Y-99954231D01*
X149337851Y-99959675D01*
X149338308Y-99965191D01*
X149338548Y-99970801D01*
X149338572Y-99976531D01*
X149338384Y-99982405D01*
X149337380Y-99994681D01*
X149335555Y-100007825D01*
X149332930Y-100022032D01*
X149329525Y-100037495D01*
X149325360Y-100054412D01*
X149320456Y-100072975D01*
X149316289Y-100095174D01*
X149312448Y-100130145D01*
X149305710Y-100240576D01*
X149300179Y-100408616D01*
X149295794Y-100638610D01*
X149292491Y-100934904D01*
X149290209Y-101301846D01*
X149288458Y-102265057D01*
X149286940Y-103281670D01*
X149281569Y-103917606D01*
X149271116Y-104245657D01*
X149263600Y-104316972D01*
X149259203Y-104333432D01*
X149254355Y-104338612D01*
X149249641Y-104338143D01*
X149242645Y-104336879D01*
X149222355Y-104332130D01*
X149194599Y-104324693D01*
X149160488Y-104314894D01*
X149121135Y-104303062D01*
X149077653Y-104289526D01*
X149031153Y-104274613D01*
X148982748Y-104258652D01*
X148983603Y-104258808D01*
X148800515Y-104192644D01*
X148619164Y-104117278D01*
X148439919Y-104033005D01*
X148263152Y-103940120D01*
X148089233Y-103838916D01*
X147918533Y-103729689D01*
X147751421Y-103612733D01*
X147588268Y-103488343D01*
X147429446Y-103356812D01*
X147275324Y-103218437D01*
X147126273Y-103073510D01*
X146982664Y-102922326D01*
X146844867Y-102765181D01*
X146713252Y-102602368D01*
X146588191Y-102434182D01*
X146470053Y-102260918D01*
X146322197Y-102019130D01*
X146189083Y-101770313D01*
X146070797Y-101515167D01*
X145967429Y-101254392D01*
X145879068Y-100988688D01*
X145805802Y-100718754D01*
X145747720Y-100445290D01*
X145704910Y-100168996D01*
X145677462Y-99890571D01*
X145665462Y-99610716D01*
X145669001Y-99330130D01*
X145688167Y-99049512D01*
X145723049Y-98769563D01*
X145773734Y-98490982D01*
X145840313Y-98214469D01*
X145922873Y-97940724D01*
X145989425Y-97753887D01*
X146063392Y-97570676D01*
X146144555Y-97391247D01*
X146232698Y-97215756D01*
X146280647Y-97129162D01*
X146997046Y-97129162D01*
X146997388Y-97130020D01*
X146998403Y-97130867D01*
X147000074Y-97131702D01*
X147002384Y-97132525D01*
X147008857Y-97134128D01*
X147017685Y-97135667D01*
X147028736Y-97137133D01*
X147041876Y-97138517D01*
X147056969Y-97139811D01*
X147073883Y-97141007D01*
X147112635Y-97143064D01*
X147157058Y-97144621D01*
X147206079Y-97145606D01*
X147258627Y-97145950D01*
X147520208Y-97145950D01*
X148448935Y-96229939D01*
X149101267Y-95583006D01*
X149296925Y-95386206D01*
X149365484Y-95313927D01*
X149355489Y-95315702D01*
X149338502Y-95320838D01*
X149286183Y-95340056D01*
X149213788Y-95369305D01*
X149126579Y-95406313D01*
X149029819Y-95448804D01*
X148928767Y-95494504D01*
X148828687Y-95541140D01*
X148734839Y-95586437D01*
X148649179Y-95629773D01*
X148565504Y-95674365D01*
X148483608Y-95720367D01*
X148403286Y-95767933D01*
X148324333Y-95817215D01*
X148246542Y-95868366D01*
X148169709Y-95921540D01*
X148093628Y-95976890D01*
X148018094Y-96034568D01*
X147942900Y-96094729D01*
X147867843Y-96157525D01*
X147792716Y-96223110D01*
X147717314Y-96291636D01*
X147641431Y-96363257D01*
X147564862Y-96438126D01*
X147487402Y-96516396D01*
X147407167Y-96601558D01*
X147323848Y-96694889D01*
X147241692Y-96791082D01*
X147164948Y-96884827D01*
X147097863Y-96970816D01*
X147044685Y-97043741D01*
X147024639Y-97073645D01*
X147009663Y-97098292D01*
X147000289Y-97117019D01*
X146997046Y-97129162D01*
X146280647Y-97129162D01*
X146327604Y-97044359D01*
X146429056Y-96877212D01*
X146536837Y-96714472D01*
X146650730Y-96556295D01*
X146770518Y-96402836D01*
X146895985Y-96254252D01*
X147026912Y-96110700D01*
X147163084Y-95972334D01*
X147304284Y-95839313D01*
X147450293Y-95711791D01*
X147600897Y-95589925D01*
X147755877Y-95473870D01*
X147915016Y-95363784D01*
X148078098Y-95259823D01*
X148244907Y-95162142D01*
X148415224Y-95070898D01*
X148588832Y-94986246D01*
X148765516Y-94908344D01*
X148945058Y-94837347D01*
X149127241Y-94773411D01*
X149311848Y-94716693D01*
X149498663Y-94667349D01*
X149687468Y-94625535D01*
X149878046Y-94591406D01*
X150070180Y-94565120D01*
X150263654Y-94546833D01*
X150458251Y-94536700D01*
X150653753Y-94534878D01*
X150843154Y-94540038D01*
G37*
G36*
X150408148Y-104527920D02*
G01*
X150251242Y-104524819D01*
X150187086Y-104522933D01*
X150128401Y-104520085D01*
X150103137Y-104518422D01*
X150081675Y-104516665D01*
X150064824Y-104514860D01*
X150053396Y-104513058D01*
X150053396Y-104513035D01*
X150042528Y-104510971D01*
X150027272Y-104508375D01*
X149986397Y-104502010D01*
X149936381Y-104494791D01*
X149882834Y-104487564D01*
X149753210Y-104470734D01*
X149753210Y-98722946D01*
X149459417Y-99012108D01*
X149165625Y-99301270D01*
X149007330Y-99301270D01*
X148983989Y-99301431D01*
X148962435Y-99301947D01*
X148942498Y-99302865D01*
X148924007Y-99304235D01*
X148906796Y-99306102D01*
X148890693Y-99308517D01*
X148875529Y-99311526D01*
X148861136Y-99315178D01*
X148847343Y-99319521D01*
X148833982Y-99324603D01*
X148820883Y-99330472D01*
X148807877Y-99337175D01*
X148794794Y-99344762D01*
X148781465Y-99353279D01*
X148767722Y-99362775D01*
X148753393Y-99373299D01*
X148726864Y-99391634D01*
X148698915Y-99407855D01*
X148669767Y-99421947D01*
X148639641Y-99433895D01*
X148608757Y-99443684D01*
X148577337Y-99451301D01*
X148545600Y-99456729D01*
X148513767Y-99459954D01*
X148482060Y-99460963D01*
X148450698Y-99459739D01*
X148419902Y-99456268D01*
X148389894Y-99450536D01*
X148360893Y-99442527D01*
X148333120Y-99432228D01*
X148319763Y-99426214D01*
X148306796Y-99419623D01*
X148294246Y-99412451D01*
X148282141Y-99404698D01*
X148272399Y-99397910D01*
X148262386Y-99390589D01*
X148252177Y-99382805D01*
X148241847Y-99374626D01*
X148221128Y-99357357D01*
X148200829Y-99339332D01*
X148181552Y-99321101D01*
X148163898Y-99303214D01*
X148155869Y-99294571D01*
X148148471Y-99286220D01*
X148141779Y-99278229D01*
X148135870Y-99270668D01*
X148123757Y-99252626D01*
X148112713Y-99232385D01*
X148102767Y-99210199D01*
X148093951Y-99186324D01*
X148086294Y-99161015D01*
X148079827Y-99134526D01*
X148074580Y-99107112D01*
X148070583Y-99079028D01*
X148067868Y-99050529D01*
X148066464Y-99021869D01*
X148066401Y-98993304D01*
X148067710Y-98965087D01*
X148070421Y-98937475D01*
X148074565Y-98910721D01*
X148080171Y-98885081D01*
X148087271Y-98860809D01*
X148096276Y-98836901D01*
X148106939Y-98813926D01*
X148119176Y-98791906D01*
X148132901Y-98770865D01*
X148148027Y-98750827D01*
X148164469Y-98731815D01*
X148182142Y-98713852D01*
X148200959Y-98696962D01*
X148220835Y-98681167D01*
X148241684Y-98666492D01*
X148263420Y-98652960D01*
X148285958Y-98640593D01*
X148309211Y-98629416D01*
X148333095Y-98619452D01*
X148357523Y-98610723D01*
X148382410Y-98603254D01*
X148407670Y-98597068D01*
X148433217Y-98592188D01*
X148458965Y-98588637D01*
X148484829Y-98586439D01*
X148510723Y-98585617D01*
X148536562Y-98586194D01*
X148562259Y-98588195D01*
X148587728Y-98591641D01*
X148612885Y-98596557D01*
X148637643Y-98602966D01*
X148661916Y-98610891D01*
X148685619Y-98620356D01*
X148708667Y-98631383D01*
X148730972Y-98643997D01*
X148752451Y-98658220D01*
X148773016Y-98674076D01*
X148853109Y-98740646D01*
X149319769Y-98300652D01*
X149503416Y-98126359D01*
X149658489Y-97977057D01*
X149768653Y-97868619D01*
X149801789Y-97834684D01*
X149817572Y-97816918D01*
X149822191Y-97811100D01*
X149829530Y-97802773D01*
X149851725Y-97779223D01*
X149882882Y-97747522D01*
X149921724Y-97708925D01*
X149966977Y-97664690D01*
X150017364Y-97616072D01*
X150071610Y-97564326D01*
X150128439Y-97510708D01*
X150408148Y-97248238D01*
X150408148Y-104527920D01*
G37*
G36*
X150981975Y-97255117D02*
G01*
X150982915Y-97255443D01*
X150983977Y-97255936D01*
X150985157Y-97256593D01*
X150987853Y-97258377D01*
X150990971Y-97260760D01*
X150994478Y-97263708D01*
X150998342Y-97267185D01*
X151002529Y-97271157D01*
X151007008Y-97275589D01*
X151011744Y-97280445D01*
X151016705Y-97285692D01*
X151021859Y-97291292D01*
X151027173Y-97297213D01*
X151032613Y-97303419D01*
X151038148Y-97309874D01*
X151043744Y-97316545D01*
X151049368Y-97323395D01*
X151074658Y-97350662D01*
X151125961Y-97402725D01*
X151294184Y-97569059D01*
X151529200Y-97798052D01*
X151806173Y-98065357D01*
X152508398Y-98740131D01*
X152580191Y-98684342D01*
X152599417Y-98670242D01*
X152619290Y-98657288D01*
X152639775Y-98645488D01*
X152660836Y-98634850D01*
X152682437Y-98625381D01*
X152704544Y-98617091D01*
X152727121Y-98609987D01*
X152750134Y-98604076D01*
X152773545Y-98599368D01*
X152797322Y-98595871D01*
X152821427Y-98593591D01*
X152845826Y-98592538D01*
X152870483Y-98592719D01*
X152895364Y-98594143D01*
X152920433Y-98596817D01*
X152945654Y-98600750D01*
X152966098Y-98604849D01*
X152986025Y-98609663D01*
X153005427Y-98615183D01*
X153024295Y-98621399D01*
X153042620Y-98628298D01*
X153060393Y-98635872D01*
X153077607Y-98644108D01*
X153094252Y-98652997D01*
X153110319Y-98662529D01*
X153125801Y-98672692D01*
X153140688Y-98683475D01*
X153154971Y-98694869D01*
X153168643Y-98706863D01*
X153181693Y-98719446D01*
X153194115Y-98732607D01*
X153205898Y-98746337D01*
X153217035Y-98760623D01*
X153227517Y-98775457D01*
X153237334Y-98790827D01*
X153246479Y-98806722D01*
X153254943Y-98823132D01*
X153262717Y-98840047D01*
X153269792Y-98857456D01*
X153276160Y-98875348D01*
X153281812Y-98893712D01*
X153286740Y-98912539D01*
X153290934Y-98931817D01*
X153294386Y-98951536D01*
X153297088Y-98971686D01*
X153299031Y-98992255D01*
X153300206Y-99013234D01*
X153300604Y-99034611D01*
X153299727Y-99061588D01*
X153297090Y-99088159D01*
X153292709Y-99114294D01*
X153286601Y-99139966D01*
X153278782Y-99165146D01*
X153269267Y-99189807D01*
X153258074Y-99213921D01*
X153245218Y-99237458D01*
X153230717Y-99260392D01*
X153214585Y-99282694D01*
X153196840Y-99304336D01*
X153177497Y-99325290D01*
X153156573Y-99345528D01*
X153134085Y-99365022D01*
X153110048Y-99383744D01*
X153084478Y-99401665D01*
X153069947Y-99410751D01*
X153054841Y-99419081D01*
X153039207Y-99426661D01*
X153023090Y-99433495D01*
X153006538Y-99439590D01*
X152989598Y-99444949D01*
X152954736Y-99453484D01*
X152918879Y-99459143D01*
X152882399Y-99461966D01*
X152845669Y-99461996D01*
X152809061Y-99459275D01*
X152772949Y-99453844D01*
X152737704Y-99445745D01*
X152703701Y-99435020D01*
X152671311Y-99421710D01*
X152640908Y-99405858D01*
X152626567Y-99396992D01*
X152612863Y-99387505D01*
X152599843Y-99377404D01*
X152587551Y-99366693D01*
X152576036Y-99355378D01*
X152565344Y-99343464D01*
X152562880Y-99340704D01*
X152560213Y-99338047D01*
X152557336Y-99335492D01*
X152554245Y-99333038D01*
X152550935Y-99330685D01*
X152547401Y-99328431D01*
X152543637Y-99326275D01*
X152539640Y-99324216D01*
X152535404Y-99322253D01*
X152530923Y-99320386D01*
X152526193Y-99318612D01*
X152521209Y-99316932D01*
X152510459Y-99313845D01*
X152498632Y-99311119D01*
X152485689Y-99308744D01*
X152471590Y-99306713D01*
X152456293Y-99305017D01*
X152439761Y-99303647D01*
X152421951Y-99302596D01*
X152402826Y-99301856D01*
X152382343Y-99301418D01*
X152360464Y-99301273D01*
X152191046Y-99301273D01*
X151900106Y-99011654D01*
X151609167Y-98722035D01*
X151608954Y-101583531D01*
X151608740Y-104445027D01*
X151506414Y-104472015D01*
X151481396Y-104477798D01*
X151449445Y-104483895D01*
X151411876Y-104490123D01*
X151370005Y-104496296D01*
X151325145Y-104502232D01*
X151278611Y-104507747D01*
X151231719Y-104512656D01*
X151185782Y-104516777D01*
X150967474Y-104534546D01*
X150967566Y-100894131D01*
X150971514Y-98323455D01*
X150981161Y-97254963D01*
X150981975Y-97255117D01*
G37*
D11*
X127166666Y-84954819D02*
X127166666Y-85669104D01*
X127166666Y-85669104D02*
X127119047Y-85811961D01*
X127119047Y-85811961D02*
X127023809Y-85907200D01*
X127023809Y-85907200D02*
X126880952Y-85954819D01*
X126880952Y-85954819D02*
X126785714Y-85954819D01*
X128071428Y-85288152D02*
X128071428Y-85954819D01*
X127833333Y-84907200D02*
X127595238Y-85621485D01*
X127595238Y-85621485D02*
X128214285Y-85621485D01*
X136523809Y-86978628D02*
X136523809Y-87454819D01*
X136190476Y-86454819D02*
X136523809Y-86978628D01*
X136523809Y-86978628D02*
X136857142Y-86454819D01*
X137714285Y-87454819D02*
X137142857Y-87454819D01*
X137428571Y-87454819D02*
X137428571Y-86454819D01*
X137428571Y-86454819D02*
X137333333Y-86597676D01*
X137333333Y-86597676D02*
X137238095Y-86692914D01*
X137238095Y-86692914D02*
X137142857Y-86740533D01*
X141467319Y-103949404D02*
X142276842Y-103949404D01*
X142276842Y-103949404D02*
X142372080Y-103901785D01*
X142372080Y-103901785D02*
X142419700Y-103854166D01*
X142419700Y-103854166D02*
X142467319Y-103758928D01*
X142467319Y-103758928D02*
X142467319Y-103568452D01*
X142467319Y-103568452D02*
X142419700Y-103473214D01*
X142419700Y-103473214D02*
X142372080Y-103425595D01*
X142372080Y-103425595D02*
X142276842Y-103377976D01*
X142276842Y-103377976D02*
X141467319Y-103377976D01*
X141562557Y-102949404D02*
X141514938Y-102901785D01*
X141514938Y-102901785D02*
X141467319Y-102806547D01*
X141467319Y-102806547D02*
X141467319Y-102568452D01*
X141467319Y-102568452D02*
X141514938Y-102473214D01*
X141514938Y-102473214D02*
X141562557Y-102425595D01*
X141562557Y-102425595D02*
X141657795Y-102377976D01*
X141657795Y-102377976D02*
X141753033Y-102377976D01*
X141753033Y-102377976D02*
X141895890Y-102425595D01*
X141895890Y-102425595D02*
X142467319Y-102997023D01*
X142467319Y-102997023D02*
X142467319Y-102377976D01*
X137295595Y-90277319D02*
X137295595Y-91086842D01*
X137295595Y-91086842D02*
X137343214Y-91182080D01*
X137343214Y-91182080D02*
X137390833Y-91229700D01*
X137390833Y-91229700D02*
X137486071Y-91277319D01*
X137486071Y-91277319D02*
X137676547Y-91277319D01*
X137676547Y-91277319D02*
X137771785Y-91229700D01*
X137771785Y-91229700D02*
X137819404Y-91182080D01*
X137819404Y-91182080D02*
X137867023Y-91086842D01*
X137867023Y-91086842D02*
X137867023Y-90277319D01*
X138867023Y-91277319D02*
X138295595Y-91277319D01*
X138581309Y-91277319D02*
X138581309Y-90277319D01*
X138581309Y-90277319D02*
X138486071Y-90420176D01*
X138486071Y-90420176D02*
X138390833Y-90515414D01*
X138390833Y-90515414D02*
X138295595Y-90563033D01*
X127209523Y-106554819D02*
X126876190Y-106078628D01*
X126638095Y-106554819D02*
X126638095Y-105554819D01*
X126638095Y-105554819D02*
X127019047Y-105554819D01*
X127019047Y-105554819D02*
X127114285Y-105602438D01*
X127114285Y-105602438D02*
X127161904Y-105650057D01*
X127161904Y-105650057D02*
X127209523Y-105745295D01*
X127209523Y-105745295D02*
X127209523Y-105888152D01*
X127209523Y-105888152D02*
X127161904Y-105983390D01*
X127161904Y-105983390D02*
X127114285Y-106031009D01*
X127114285Y-106031009D02*
X127019047Y-106078628D01*
X127019047Y-106078628D02*
X126638095Y-106078628D01*
X127638095Y-106554819D02*
X127638095Y-105554819D01*
X127638095Y-105554819D02*
X128209523Y-106554819D01*
X128209523Y-106554819D02*
X128209523Y-105554819D01*
X128638095Y-105650057D02*
X128685714Y-105602438D01*
X128685714Y-105602438D02*
X128780952Y-105554819D01*
X128780952Y-105554819D02*
X129019047Y-105554819D01*
X129019047Y-105554819D02*
X129114285Y-105602438D01*
X129114285Y-105602438D02*
X129161904Y-105650057D01*
X129161904Y-105650057D02*
X129209523Y-105745295D01*
X129209523Y-105745295D02*
X129209523Y-105840533D01*
X129209523Y-105840533D02*
X129161904Y-105983390D01*
X129161904Y-105983390D02*
X128590476Y-106554819D01*
X128590476Y-106554819D02*
X129209523Y-106554819D01*
X145409523Y-89954819D02*
X145076190Y-89478628D01*
X144838095Y-89954819D02*
X144838095Y-88954819D01*
X144838095Y-88954819D02*
X145219047Y-88954819D01*
X145219047Y-88954819D02*
X145314285Y-89002438D01*
X145314285Y-89002438D02*
X145361904Y-89050057D01*
X145361904Y-89050057D02*
X145409523Y-89145295D01*
X145409523Y-89145295D02*
X145409523Y-89288152D01*
X145409523Y-89288152D02*
X145361904Y-89383390D01*
X145361904Y-89383390D02*
X145314285Y-89431009D01*
X145314285Y-89431009D02*
X145219047Y-89478628D01*
X145219047Y-89478628D02*
X144838095Y-89478628D01*
X145838095Y-89954819D02*
X145838095Y-88954819D01*
X145838095Y-88954819D02*
X146409523Y-89954819D01*
X146409523Y-89954819D02*
X146409523Y-88954819D01*
X147409523Y-89954819D02*
X146838095Y-89954819D01*
X147123809Y-89954819D02*
X147123809Y-88954819D01*
X147123809Y-88954819D02*
X147028571Y-89097676D01*
X147028571Y-89097676D02*
X146933333Y-89192914D01*
X146933333Y-89192914D02*
X146838095Y-89240533D01*
X132849819Y-109833333D02*
X133564104Y-109833333D01*
X133564104Y-109833333D02*
X133706961Y-109880952D01*
X133706961Y-109880952D02*
X133802200Y-109976190D01*
X133802200Y-109976190D02*
X133849819Y-110119047D01*
X133849819Y-110119047D02*
X133849819Y-110214285D01*
X132945057Y-109404761D02*
X132897438Y-109357142D01*
X132897438Y-109357142D02*
X132849819Y-109261904D01*
X132849819Y-109261904D02*
X132849819Y-109023809D01*
X132849819Y-109023809D02*
X132897438Y-108928571D01*
X132897438Y-108928571D02*
X132945057Y-108880952D01*
X132945057Y-108880952D02*
X133040295Y-108833333D01*
X133040295Y-108833333D02*
X133135533Y-108833333D01*
X133135533Y-108833333D02*
X133278390Y-108880952D01*
X133278390Y-108880952D02*
X133849819Y-109452380D01*
X133849819Y-109452380D02*
X133849819Y-108833333D01*
X124385054Y-111190954D02*
X125042557Y-111470048D01*
X125042557Y-111470048D02*
X125155452Y-111569700D01*
X125155452Y-111569700D02*
X125205907Y-111694580D01*
X125205907Y-111694580D02*
X125193921Y-111844687D01*
X125193921Y-111844687D02*
X125156709Y-111932354D01*
X125696290Y-110661180D02*
X125473015Y-111187183D01*
X125584653Y-110924182D02*
X124664148Y-110533451D01*
X124664148Y-110533451D02*
X124758436Y-110676937D01*
X124758436Y-110676937D02*
X124808891Y-110801816D01*
X124808891Y-110801816D02*
X124815512Y-110908090D01*
X123935015Y-78965721D02*
X124642121Y-79672828D01*
X124642121Y-79672828D02*
X124473763Y-79841187D01*
X124473763Y-79841187D02*
X124339076Y-79908530D01*
X124339076Y-79908530D02*
X124204389Y-79908530D01*
X124204389Y-79908530D02*
X124103373Y-79874858D01*
X124103373Y-79874858D02*
X123935015Y-79773843D01*
X123935015Y-79773843D02*
X123833999Y-79672828D01*
X123833999Y-79672828D02*
X123732984Y-79504469D01*
X123732984Y-79504469D02*
X123699312Y-79403454D01*
X123699312Y-79403454D02*
X123699312Y-79268767D01*
X123699312Y-79268767D02*
X123766656Y-79134080D01*
X123766656Y-79134080D02*
X123935015Y-78965721D01*
X123598297Y-80716652D02*
X123935015Y-80379935D01*
X123935015Y-80379935D02*
X123631969Y-80009545D01*
X123631969Y-80009545D02*
X123631969Y-80076889D01*
X123631969Y-80076889D02*
X123598297Y-80177904D01*
X123598297Y-80177904D02*
X123429938Y-80346263D01*
X123429938Y-80346263D02*
X123328923Y-80379935D01*
X123328923Y-80379935D02*
X123261580Y-80379935D01*
X123261580Y-80379935D02*
X123160564Y-80346263D01*
X123160564Y-80346263D02*
X122992206Y-80177904D01*
X122992206Y-80177904D02*
X122958534Y-80076889D01*
X122958534Y-80076889D02*
X122958534Y-80009545D01*
X122958534Y-80009545D02*
X122992206Y-79908530D01*
X122992206Y-79908530D02*
X123160564Y-79740171D01*
X123160564Y-79740171D02*
X123261580Y-79706500D01*
X123261580Y-79706500D02*
X123328923Y-79706500D01*
X138838094Y-73360180D02*
X138838094Y-74360180D01*
X138838094Y-74360180D02*
X138599999Y-74360180D01*
X138599999Y-74360180D02*
X138457142Y-74312561D01*
X138457142Y-74312561D02*
X138361904Y-74217323D01*
X138361904Y-74217323D02*
X138314285Y-74122085D01*
X138314285Y-74122085D02*
X138266666Y-73931609D01*
X138266666Y-73931609D02*
X138266666Y-73788752D01*
X138266666Y-73788752D02*
X138314285Y-73598276D01*
X138314285Y-73598276D02*
X138361904Y-73503038D01*
X138361904Y-73503038D02*
X138457142Y-73407800D01*
X138457142Y-73407800D02*
X138599999Y-73360180D01*
X138599999Y-73360180D02*
X138838094Y-73360180D01*
X137409523Y-74026847D02*
X137409523Y-73360180D01*
X137647618Y-74407800D02*
X137885713Y-73693514D01*
X137885713Y-73693514D02*
X137266666Y-73693514D01*
X152949278Y-80009545D02*
X152242171Y-80716651D01*
X152242171Y-80716651D02*
X152073812Y-80548293D01*
X152073812Y-80548293D02*
X152006469Y-80413606D01*
X152006469Y-80413606D02*
X152006469Y-80278919D01*
X152006469Y-80278919D02*
X152040141Y-80177903D01*
X152040141Y-80177903D02*
X152141156Y-80009545D01*
X152141156Y-80009545D02*
X152242171Y-79908529D01*
X152242171Y-79908529D02*
X152410530Y-79807514D01*
X152410530Y-79807514D02*
X152511545Y-79773842D01*
X152511545Y-79773842D02*
X152646232Y-79773842D01*
X152646232Y-79773842D02*
X152780919Y-79841186D01*
X152780919Y-79841186D02*
X152949278Y-80009545D01*
X151602408Y-80076888D02*
X151164675Y-79639155D01*
X151164675Y-79639155D02*
X151669751Y-79605484D01*
X151669751Y-79605484D02*
X151568736Y-79504468D01*
X151568736Y-79504468D02*
X151535064Y-79403453D01*
X151535064Y-79403453D02*
X151535064Y-79336110D01*
X151535064Y-79336110D02*
X151568736Y-79235094D01*
X151568736Y-79235094D02*
X151737095Y-79066736D01*
X151737095Y-79066736D02*
X151838110Y-79033064D01*
X151838110Y-79033064D02*
X151905454Y-79033064D01*
X151905454Y-79033064D02*
X152006469Y-79066736D01*
X152006469Y-79066736D02*
X152208499Y-79268766D01*
X152208499Y-79268766D02*
X152242171Y-79369781D01*
X152242171Y-79369781D02*
X152242171Y-79437125D01*
X158189819Y-94478094D02*
X157189819Y-94478094D01*
X157189819Y-94478094D02*
X157189819Y-94239999D01*
X157189819Y-94239999D02*
X157237438Y-94097142D01*
X157237438Y-94097142D02*
X157332676Y-94001904D01*
X157332676Y-94001904D02*
X157427914Y-93954285D01*
X157427914Y-93954285D02*
X157618390Y-93906666D01*
X157618390Y-93906666D02*
X157761247Y-93906666D01*
X157761247Y-93906666D02*
X157951723Y-93954285D01*
X157951723Y-93954285D02*
X158046961Y-94001904D01*
X158046961Y-94001904D02*
X158142200Y-94097142D01*
X158142200Y-94097142D02*
X158189819Y-94239999D01*
X158189819Y-94239999D02*
X158189819Y-94478094D01*
X157285057Y-93525713D02*
X157237438Y-93478094D01*
X157237438Y-93478094D02*
X157189819Y-93382856D01*
X157189819Y-93382856D02*
X157189819Y-93144761D01*
X157189819Y-93144761D02*
X157237438Y-93049523D01*
X157237438Y-93049523D02*
X157285057Y-93001904D01*
X157285057Y-93001904D02*
X157380295Y-92954285D01*
X157380295Y-92954285D02*
X157475533Y-92954285D01*
X157475533Y-92954285D02*
X157618390Y-93001904D01*
X157618390Y-93001904D02*
X158189819Y-93573332D01*
X158189819Y-93573332D02*
X158189819Y-92954285D01*
X151405454Y-109314278D02*
X150698348Y-108607171D01*
X150698348Y-108607171D02*
X150866706Y-108438812D01*
X150866706Y-108438812D02*
X151001393Y-108371469D01*
X151001393Y-108371469D02*
X151136080Y-108371469D01*
X151136080Y-108371469D02*
X151237096Y-108405141D01*
X151237096Y-108405141D02*
X151405454Y-108506156D01*
X151405454Y-108506156D02*
X151506470Y-108607171D01*
X151506470Y-108607171D02*
X151607485Y-108775530D01*
X151607485Y-108775530D02*
X151641157Y-108876545D01*
X151641157Y-108876545D02*
X151641157Y-109011232D01*
X151641157Y-109011232D02*
X151573813Y-109145919D01*
X151573813Y-109145919D02*
X151405454Y-109314278D01*
X152482950Y-108236782D02*
X152078889Y-108640843D01*
X152280920Y-108438812D02*
X151573813Y-107731706D01*
X151573813Y-107731706D02*
X151607485Y-107900064D01*
X151607485Y-107900064D02*
X151607485Y-108034751D01*
X151607485Y-108034751D02*
X151573813Y-108135767D01*
X137086905Y-114544819D02*
X137086905Y-113544819D01*
X137086905Y-113544819D02*
X137325000Y-113544819D01*
X137325000Y-113544819D02*
X137467857Y-113592438D01*
X137467857Y-113592438D02*
X137563095Y-113687676D01*
X137563095Y-113687676D02*
X137610714Y-113782914D01*
X137610714Y-113782914D02*
X137658333Y-113973390D01*
X137658333Y-113973390D02*
X137658333Y-114116247D01*
X137658333Y-114116247D02*
X137610714Y-114306723D01*
X137610714Y-114306723D02*
X137563095Y-114401961D01*
X137563095Y-114401961D02*
X137467857Y-114497200D01*
X137467857Y-114497200D02*
X137325000Y-114544819D01*
X137325000Y-114544819D02*
X137086905Y-114544819D01*
X138229762Y-113973390D02*
X138134524Y-113925771D01*
X138134524Y-113925771D02*
X138086905Y-113878152D01*
X138086905Y-113878152D02*
X138039286Y-113782914D01*
X138039286Y-113782914D02*
X138039286Y-113735295D01*
X138039286Y-113735295D02*
X138086905Y-113640057D01*
X138086905Y-113640057D02*
X138134524Y-113592438D01*
X138134524Y-113592438D02*
X138229762Y-113544819D01*
X138229762Y-113544819D02*
X138420238Y-113544819D01*
X138420238Y-113544819D02*
X138515476Y-113592438D01*
X138515476Y-113592438D02*
X138563095Y-113640057D01*
X138563095Y-113640057D02*
X138610714Y-113735295D01*
X138610714Y-113735295D02*
X138610714Y-113782914D01*
X138610714Y-113782914D02*
X138563095Y-113878152D01*
X138563095Y-113878152D02*
X138515476Y-113925771D01*
X138515476Y-113925771D02*
X138420238Y-113973390D01*
X138420238Y-113973390D02*
X138229762Y-113973390D01*
X138229762Y-113973390D02*
X138134524Y-114021009D01*
X138134524Y-114021009D02*
X138086905Y-114068628D01*
X138086905Y-114068628D02*
X138039286Y-114163866D01*
X138039286Y-114163866D02*
X138039286Y-114354342D01*
X138039286Y-114354342D02*
X138086905Y-114449580D01*
X138086905Y-114449580D02*
X138134524Y-114497200D01*
X138134524Y-114497200D02*
X138229762Y-114544819D01*
X138229762Y-114544819D02*
X138420238Y-114544819D01*
X138420238Y-114544819D02*
X138515476Y-114497200D01*
X138515476Y-114497200D02*
X138563095Y-114449580D01*
X138563095Y-114449580D02*
X138610714Y-114354342D01*
X138610714Y-114354342D02*
X138610714Y-114163866D01*
X138610714Y-114163866D02*
X138563095Y-114068628D01*
X138563095Y-114068628D02*
X138515476Y-114021009D01*
X138515476Y-114021009D02*
X138420238Y-113973390D01*
X123204185Y-108032640D02*
X123911292Y-107325534D01*
X123911292Y-107325534D02*
X124079651Y-107493892D01*
X124079651Y-107493892D02*
X124146994Y-107628579D01*
X124146994Y-107628579D02*
X124146994Y-107763266D01*
X124146994Y-107763266D02*
X124113322Y-107864282D01*
X124113322Y-107864282D02*
X124012307Y-108032640D01*
X124012307Y-108032640D02*
X123911292Y-108133656D01*
X123911292Y-108133656D02*
X123742933Y-108234671D01*
X123742933Y-108234671D02*
X123641918Y-108268343D01*
X123641918Y-108268343D02*
X123507231Y-108268343D01*
X123507231Y-108268343D02*
X123372544Y-108200999D01*
X123372544Y-108200999D02*
X123204185Y-108032640D01*
X124551055Y-107965297D02*
X125022460Y-108436701D01*
X125022460Y-108436701D02*
X124012307Y-108840762D01*
X117870180Y-93151905D02*
X118870180Y-93151905D01*
X118870180Y-93151905D02*
X118870180Y-93390000D01*
X118870180Y-93390000D02*
X118822561Y-93532857D01*
X118822561Y-93532857D02*
X118727323Y-93628095D01*
X118727323Y-93628095D02*
X118632085Y-93675714D01*
X118632085Y-93675714D02*
X118441609Y-93723333D01*
X118441609Y-93723333D02*
X118298752Y-93723333D01*
X118298752Y-93723333D02*
X118108276Y-93675714D01*
X118108276Y-93675714D02*
X118013038Y-93628095D01*
X118013038Y-93628095D02*
X117917800Y-93532857D01*
X117917800Y-93532857D02*
X117870180Y-93390000D01*
X117870180Y-93390000D02*
X117870180Y-93151905D01*
X118870180Y-94580476D02*
X118870180Y-94390000D01*
X118870180Y-94390000D02*
X118822561Y-94294762D01*
X118822561Y-94294762D02*
X118774942Y-94247143D01*
X118774942Y-94247143D02*
X118632085Y-94151905D01*
X118632085Y-94151905D02*
X118441609Y-94104286D01*
X118441609Y-94104286D02*
X118060657Y-94104286D01*
X118060657Y-94104286D02*
X117965419Y-94151905D01*
X117965419Y-94151905D02*
X117917800Y-94199524D01*
X117917800Y-94199524D02*
X117870180Y-94294762D01*
X117870180Y-94294762D02*
X117870180Y-94485238D01*
X117870180Y-94485238D02*
X117917800Y-94580476D01*
X117917800Y-94580476D02*
X117965419Y-94628095D01*
X117965419Y-94628095D02*
X118060657Y-94675714D01*
X118060657Y-94675714D02*
X118298752Y-94675714D01*
X118298752Y-94675714D02*
X118393990Y-94628095D01*
X118393990Y-94628095D02*
X118441609Y-94580476D01*
X118441609Y-94580476D02*
X118489228Y-94485238D01*
X118489228Y-94485238D02*
X118489228Y-94294762D01*
X118489228Y-94294762D02*
X118441609Y-94199524D01*
X118441609Y-94199524D02*
X118393990Y-94151905D01*
X118393990Y-94151905D02*
X118298752Y-94104286D01*
X147157142Y-106359580D02*
X147109523Y-106407200D01*
X147109523Y-106407200D02*
X146966666Y-106454819D01*
X146966666Y-106454819D02*
X146871428Y-106454819D01*
X146871428Y-106454819D02*
X146728571Y-106407200D01*
X146728571Y-106407200D02*
X146633333Y-106311961D01*
X146633333Y-106311961D02*
X146585714Y-106216723D01*
X146585714Y-106216723D02*
X146538095Y-106026247D01*
X146538095Y-106026247D02*
X146538095Y-105883390D01*
X146538095Y-105883390D02*
X146585714Y-105692914D01*
X146585714Y-105692914D02*
X146633333Y-105597676D01*
X146633333Y-105597676D02*
X146728571Y-105502438D01*
X146728571Y-105502438D02*
X146871428Y-105454819D01*
X146871428Y-105454819D02*
X146966666Y-105454819D01*
X146966666Y-105454819D02*
X147109523Y-105502438D01*
X147109523Y-105502438D02*
X147157142Y-105550057D01*
X148109523Y-106454819D02*
X147538095Y-106454819D01*
X147823809Y-106454819D02*
X147823809Y-105454819D01*
X147823809Y-105454819D02*
X147728571Y-105597676D01*
X147728571Y-105597676D02*
X147633333Y-105692914D01*
X147633333Y-105692914D02*
X147538095Y-105740533D01*
X148442857Y-105454819D02*
X149061904Y-105454819D01*
X149061904Y-105454819D02*
X148728571Y-105835771D01*
X148728571Y-105835771D02*
X148871428Y-105835771D01*
X148871428Y-105835771D02*
X148966666Y-105883390D01*
X148966666Y-105883390D02*
X149014285Y-105931009D01*
X149014285Y-105931009D02*
X149061904Y-106026247D01*
X149061904Y-106026247D02*
X149061904Y-106264342D01*
X149061904Y-106264342D02*
X149014285Y-106359580D01*
X149014285Y-106359580D02*
X148966666Y-106407200D01*
X148966666Y-106407200D02*
X148871428Y-106454819D01*
X148871428Y-106454819D02*
X148585714Y-106454819D01*
X148585714Y-106454819D02*
X148490476Y-106407200D01*
X148490476Y-106407200D02*
X148442857Y-106359580D01*
X135057142Y-112859580D02*
X135009523Y-112907200D01*
X135009523Y-112907200D02*
X134866666Y-112954819D01*
X134866666Y-112954819D02*
X134771428Y-112954819D01*
X134771428Y-112954819D02*
X134628571Y-112907200D01*
X134628571Y-112907200D02*
X134533333Y-112811961D01*
X134533333Y-112811961D02*
X134485714Y-112716723D01*
X134485714Y-112716723D02*
X134438095Y-112526247D01*
X134438095Y-112526247D02*
X134438095Y-112383390D01*
X134438095Y-112383390D02*
X134485714Y-112192914D01*
X134485714Y-112192914D02*
X134533333Y-112097676D01*
X134533333Y-112097676D02*
X134628571Y-112002438D01*
X134628571Y-112002438D02*
X134771428Y-111954819D01*
X134771428Y-111954819D02*
X134866666Y-111954819D01*
X134866666Y-111954819D02*
X135009523Y-112002438D01*
X135009523Y-112002438D02*
X135057142Y-112050057D01*
X136009523Y-112954819D02*
X135438095Y-112954819D01*
X135723809Y-112954819D02*
X135723809Y-111954819D01*
X135723809Y-111954819D02*
X135628571Y-112097676D01*
X135628571Y-112097676D02*
X135533333Y-112192914D01*
X135533333Y-112192914D02*
X135438095Y-112240533D01*
X136390476Y-112050057D02*
X136438095Y-112002438D01*
X136438095Y-112002438D02*
X136533333Y-111954819D01*
X136533333Y-111954819D02*
X136771428Y-111954819D01*
X136771428Y-111954819D02*
X136866666Y-112002438D01*
X136866666Y-112002438D02*
X136914285Y-112050057D01*
X136914285Y-112050057D02*
X136961904Y-112145295D01*
X136961904Y-112145295D02*
X136961904Y-112240533D01*
X136961904Y-112240533D02*
X136914285Y-112383390D01*
X136914285Y-112383390D02*
X136342857Y-112954819D01*
X136342857Y-112954819D02*
X136961904Y-112954819D01*
X123407142Y-104179580D02*
X123359523Y-104227200D01*
X123359523Y-104227200D02*
X123216666Y-104274819D01*
X123216666Y-104274819D02*
X123121428Y-104274819D01*
X123121428Y-104274819D02*
X122978571Y-104227200D01*
X122978571Y-104227200D02*
X122883333Y-104131961D01*
X122883333Y-104131961D02*
X122835714Y-104036723D01*
X122835714Y-104036723D02*
X122788095Y-103846247D01*
X122788095Y-103846247D02*
X122788095Y-103703390D01*
X122788095Y-103703390D02*
X122835714Y-103512914D01*
X122835714Y-103512914D02*
X122883333Y-103417676D01*
X122883333Y-103417676D02*
X122978571Y-103322438D01*
X122978571Y-103322438D02*
X123121428Y-103274819D01*
X123121428Y-103274819D02*
X123216666Y-103274819D01*
X123216666Y-103274819D02*
X123359523Y-103322438D01*
X123359523Y-103322438D02*
X123407142Y-103370057D01*
X124359523Y-104274819D02*
X123788095Y-104274819D01*
X124073809Y-104274819D02*
X124073809Y-103274819D01*
X124073809Y-103274819D02*
X123978571Y-103417676D01*
X123978571Y-103417676D02*
X123883333Y-103512914D01*
X123883333Y-103512914D02*
X123788095Y-103560533D01*
X125311904Y-104274819D02*
X124740476Y-104274819D01*
X125026190Y-104274819D02*
X125026190Y-103274819D01*
X125026190Y-103274819D02*
X124930952Y-103417676D01*
X124930952Y-103417676D02*
X124835714Y-103512914D01*
X124835714Y-103512914D02*
X124740476Y-103560533D01*
X143407142Y-95679580D02*
X143359523Y-95727200D01*
X143359523Y-95727200D02*
X143216666Y-95774819D01*
X143216666Y-95774819D02*
X143121428Y-95774819D01*
X143121428Y-95774819D02*
X142978571Y-95727200D01*
X142978571Y-95727200D02*
X142883333Y-95631961D01*
X142883333Y-95631961D02*
X142835714Y-95536723D01*
X142835714Y-95536723D02*
X142788095Y-95346247D01*
X142788095Y-95346247D02*
X142788095Y-95203390D01*
X142788095Y-95203390D02*
X142835714Y-95012914D01*
X142835714Y-95012914D02*
X142883333Y-94917676D01*
X142883333Y-94917676D02*
X142978571Y-94822438D01*
X142978571Y-94822438D02*
X143121428Y-94774819D01*
X143121428Y-94774819D02*
X143216666Y-94774819D01*
X143216666Y-94774819D02*
X143359523Y-94822438D01*
X143359523Y-94822438D02*
X143407142Y-94870057D01*
X144359523Y-95774819D02*
X143788095Y-95774819D01*
X144073809Y-95774819D02*
X144073809Y-94774819D01*
X144073809Y-94774819D02*
X143978571Y-94917676D01*
X143978571Y-94917676D02*
X143883333Y-95012914D01*
X143883333Y-95012914D02*
X143788095Y-95060533D01*
X144978571Y-94774819D02*
X145073809Y-94774819D01*
X145073809Y-94774819D02*
X145169047Y-94822438D01*
X145169047Y-94822438D02*
X145216666Y-94870057D01*
X145216666Y-94870057D02*
X145264285Y-94965295D01*
X145264285Y-94965295D02*
X145311904Y-95155771D01*
X145311904Y-95155771D02*
X145311904Y-95393866D01*
X145311904Y-95393866D02*
X145264285Y-95584342D01*
X145264285Y-95584342D02*
X145216666Y-95679580D01*
X145216666Y-95679580D02*
X145169047Y-95727200D01*
X145169047Y-95727200D02*
X145073809Y-95774819D01*
X145073809Y-95774819D02*
X144978571Y-95774819D01*
X144978571Y-95774819D02*
X144883333Y-95727200D01*
X144883333Y-95727200D02*
X144835714Y-95679580D01*
X144835714Y-95679580D02*
X144788095Y-95584342D01*
X144788095Y-95584342D02*
X144740476Y-95393866D01*
X144740476Y-95393866D02*
X144740476Y-95155771D01*
X144740476Y-95155771D02*
X144788095Y-94965295D01*
X144788095Y-94965295D02*
X144835714Y-94870057D01*
X144835714Y-94870057D02*
X144883333Y-94822438D01*
X144883333Y-94822438D02*
X144978571Y-94774819D01*
X132383333Y-98039580D02*
X132335714Y-98087200D01*
X132335714Y-98087200D02*
X132192857Y-98134819D01*
X132192857Y-98134819D02*
X132097619Y-98134819D01*
X132097619Y-98134819D02*
X131954762Y-98087200D01*
X131954762Y-98087200D02*
X131859524Y-97991961D01*
X131859524Y-97991961D02*
X131811905Y-97896723D01*
X131811905Y-97896723D02*
X131764286Y-97706247D01*
X131764286Y-97706247D02*
X131764286Y-97563390D01*
X131764286Y-97563390D02*
X131811905Y-97372914D01*
X131811905Y-97372914D02*
X131859524Y-97277676D01*
X131859524Y-97277676D02*
X131954762Y-97182438D01*
X131954762Y-97182438D02*
X132097619Y-97134819D01*
X132097619Y-97134819D02*
X132192857Y-97134819D01*
X132192857Y-97134819D02*
X132335714Y-97182438D01*
X132335714Y-97182438D02*
X132383333Y-97230057D01*
X132859524Y-98134819D02*
X133050000Y-98134819D01*
X133050000Y-98134819D02*
X133145238Y-98087200D01*
X133145238Y-98087200D02*
X133192857Y-98039580D01*
X133192857Y-98039580D02*
X133288095Y-97896723D01*
X133288095Y-97896723D02*
X133335714Y-97706247D01*
X133335714Y-97706247D02*
X133335714Y-97325295D01*
X133335714Y-97325295D02*
X133288095Y-97230057D01*
X133288095Y-97230057D02*
X133240476Y-97182438D01*
X133240476Y-97182438D02*
X133145238Y-97134819D01*
X133145238Y-97134819D02*
X132954762Y-97134819D01*
X132954762Y-97134819D02*
X132859524Y-97182438D01*
X132859524Y-97182438D02*
X132811905Y-97230057D01*
X132811905Y-97230057D02*
X132764286Y-97325295D01*
X132764286Y-97325295D02*
X132764286Y-97563390D01*
X132764286Y-97563390D02*
X132811905Y-97658628D01*
X132811905Y-97658628D02*
X132859524Y-97706247D01*
X132859524Y-97706247D02*
X132954762Y-97753866D01*
X132954762Y-97753866D02*
X133145238Y-97753866D01*
X133145238Y-97753866D02*
X133240476Y-97706247D01*
X133240476Y-97706247D02*
X133288095Y-97658628D01*
X133288095Y-97658628D02*
X133335714Y-97563390D01*
X132383333Y-95039580D02*
X132335714Y-95087200D01*
X132335714Y-95087200D02*
X132192857Y-95134819D01*
X132192857Y-95134819D02*
X132097619Y-95134819D01*
X132097619Y-95134819D02*
X131954762Y-95087200D01*
X131954762Y-95087200D02*
X131859524Y-94991961D01*
X131859524Y-94991961D02*
X131811905Y-94896723D01*
X131811905Y-94896723D02*
X131764286Y-94706247D01*
X131764286Y-94706247D02*
X131764286Y-94563390D01*
X131764286Y-94563390D02*
X131811905Y-94372914D01*
X131811905Y-94372914D02*
X131859524Y-94277676D01*
X131859524Y-94277676D02*
X131954762Y-94182438D01*
X131954762Y-94182438D02*
X132097619Y-94134819D01*
X132097619Y-94134819D02*
X132192857Y-94134819D01*
X132192857Y-94134819D02*
X132335714Y-94182438D01*
X132335714Y-94182438D02*
X132383333Y-94230057D01*
X132954762Y-94563390D02*
X132859524Y-94515771D01*
X132859524Y-94515771D02*
X132811905Y-94468152D01*
X132811905Y-94468152D02*
X132764286Y-94372914D01*
X132764286Y-94372914D02*
X132764286Y-94325295D01*
X132764286Y-94325295D02*
X132811905Y-94230057D01*
X132811905Y-94230057D02*
X132859524Y-94182438D01*
X132859524Y-94182438D02*
X132954762Y-94134819D01*
X132954762Y-94134819D02*
X133145238Y-94134819D01*
X133145238Y-94134819D02*
X133240476Y-94182438D01*
X133240476Y-94182438D02*
X133288095Y-94230057D01*
X133288095Y-94230057D02*
X133335714Y-94325295D01*
X133335714Y-94325295D02*
X133335714Y-94372914D01*
X133335714Y-94372914D02*
X133288095Y-94468152D01*
X133288095Y-94468152D02*
X133240476Y-94515771D01*
X133240476Y-94515771D02*
X133145238Y-94563390D01*
X133145238Y-94563390D02*
X132954762Y-94563390D01*
X132954762Y-94563390D02*
X132859524Y-94611009D01*
X132859524Y-94611009D02*
X132811905Y-94658628D01*
X132811905Y-94658628D02*
X132764286Y-94753866D01*
X132764286Y-94753866D02*
X132764286Y-94944342D01*
X132764286Y-94944342D02*
X132811905Y-95039580D01*
X132811905Y-95039580D02*
X132859524Y-95087200D01*
X132859524Y-95087200D02*
X132954762Y-95134819D01*
X132954762Y-95134819D02*
X133145238Y-95134819D01*
X133145238Y-95134819D02*
X133240476Y-95087200D01*
X133240476Y-95087200D02*
X133288095Y-95039580D01*
X133288095Y-95039580D02*
X133335714Y-94944342D01*
X133335714Y-94944342D02*
X133335714Y-94753866D01*
X133335714Y-94753866D02*
X133288095Y-94658628D01*
X133288095Y-94658628D02*
X133240476Y-94611009D01*
X133240476Y-94611009D02*
X133145238Y-94563390D01*
X132383333Y-87659580D02*
X132335714Y-87707200D01*
X132335714Y-87707200D02*
X132192857Y-87754819D01*
X132192857Y-87754819D02*
X132097619Y-87754819D01*
X132097619Y-87754819D02*
X131954762Y-87707200D01*
X131954762Y-87707200D02*
X131859524Y-87611961D01*
X131859524Y-87611961D02*
X131811905Y-87516723D01*
X131811905Y-87516723D02*
X131764286Y-87326247D01*
X131764286Y-87326247D02*
X131764286Y-87183390D01*
X131764286Y-87183390D02*
X131811905Y-86992914D01*
X131811905Y-86992914D02*
X131859524Y-86897676D01*
X131859524Y-86897676D02*
X131954762Y-86802438D01*
X131954762Y-86802438D02*
X132097619Y-86754819D01*
X132097619Y-86754819D02*
X132192857Y-86754819D01*
X132192857Y-86754819D02*
X132335714Y-86802438D01*
X132335714Y-86802438D02*
X132383333Y-86850057D01*
X132716667Y-86754819D02*
X133383333Y-86754819D01*
X133383333Y-86754819D02*
X132954762Y-87754819D01*
X141833333Y-87679580D02*
X141785714Y-87727200D01*
X141785714Y-87727200D02*
X141642857Y-87774819D01*
X141642857Y-87774819D02*
X141547619Y-87774819D01*
X141547619Y-87774819D02*
X141404762Y-87727200D01*
X141404762Y-87727200D02*
X141309524Y-87631961D01*
X141309524Y-87631961D02*
X141261905Y-87536723D01*
X141261905Y-87536723D02*
X141214286Y-87346247D01*
X141214286Y-87346247D02*
X141214286Y-87203390D01*
X141214286Y-87203390D02*
X141261905Y-87012914D01*
X141261905Y-87012914D02*
X141309524Y-86917676D01*
X141309524Y-86917676D02*
X141404762Y-86822438D01*
X141404762Y-86822438D02*
X141547619Y-86774819D01*
X141547619Y-86774819D02*
X141642857Y-86774819D01*
X141642857Y-86774819D02*
X141785714Y-86822438D01*
X141785714Y-86822438D02*
X141833333Y-86870057D01*
X142690476Y-86774819D02*
X142500000Y-86774819D01*
X142500000Y-86774819D02*
X142404762Y-86822438D01*
X142404762Y-86822438D02*
X142357143Y-86870057D01*
X142357143Y-86870057D02*
X142261905Y-87012914D01*
X142261905Y-87012914D02*
X142214286Y-87203390D01*
X142214286Y-87203390D02*
X142214286Y-87584342D01*
X142214286Y-87584342D02*
X142261905Y-87679580D01*
X142261905Y-87679580D02*
X142309524Y-87727200D01*
X142309524Y-87727200D02*
X142404762Y-87774819D01*
X142404762Y-87774819D02*
X142595238Y-87774819D01*
X142595238Y-87774819D02*
X142690476Y-87727200D01*
X142690476Y-87727200D02*
X142738095Y-87679580D01*
X142738095Y-87679580D02*
X142785714Y-87584342D01*
X142785714Y-87584342D02*
X142785714Y-87346247D01*
X142785714Y-87346247D02*
X142738095Y-87251009D01*
X142738095Y-87251009D02*
X142690476Y-87203390D01*
X142690476Y-87203390D02*
X142595238Y-87155771D01*
X142595238Y-87155771D02*
X142404762Y-87155771D01*
X142404762Y-87155771D02*
X142309524Y-87203390D01*
X142309524Y-87203390D02*
X142261905Y-87251009D01*
X142261905Y-87251009D02*
X142214286Y-87346247D01*
X120833333Y-97039580D02*
X120785714Y-97087200D01*
X120785714Y-97087200D02*
X120642857Y-97134819D01*
X120642857Y-97134819D02*
X120547619Y-97134819D01*
X120547619Y-97134819D02*
X120404762Y-97087200D01*
X120404762Y-97087200D02*
X120309524Y-96991961D01*
X120309524Y-96991961D02*
X120261905Y-96896723D01*
X120261905Y-96896723D02*
X120214286Y-96706247D01*
X120214286Y-96706247D02*
X120214286Y-96563390D01*
X120214286Y-96563390D02*
X120261905Y-96372914D01*
X120261905Y-96372914D02*
X120309524Y-96277676D01*
X120309524Y-96277676D02*
X120404762Y-96182438D01*
X120404762Y-96182438D02*
X120547619Y-96134819D01*
X120547619Y-96134819D02*
X120642857Y-96134819D01*
X120642857Y-96134819D02*
X120785714Y-96182438D01*
X120785714Y-96182438D02*
X120833333Y-96230057D01*
X121738095Y-96134819D02*
X121261905Y-96134819D01*
X121261905Y-96134819D02*
X121214286Y-96611009D01*
X121214286Y-96611009D02*
X121261905Y-96563390D01*
X121261905Y-96563390D02*
X121357143Y-96515771D01*
X121357143Y-96515771D02*
X121595238Y-96515771D01*
X121595238Y-96515771D02*
X121690476Y-96563390D01*
X121690476Y-96563390D02*
X121738095Y-96611009D01*
X121738095Y-96611009D02*
X121785714Y-96706247D01*
X121785714Y-96706247D02*
X121785714Y-96944342D01*
X121785714Y-96944342D02*
X121738095Y-97039580D01*
X121738095Y-97039580D02*
X121690476Y-97087200D01*
X121690476Y-97087200D02*
X121595238Y-97134819D01*
X121595238Y-97134819D02*
X121357143Y-97134819D01*
X121357143Y-97134819D02*
X121261905Y-97087200D01*
X121261905Y-97087200D02*
X121214286Y-97039580D01*
X124383333Y-84539580D02*
X124335714Y-84587200D01*
X124335714Y-84587200D02*
X124192857Y-84634819D01*
X124192857Y-84634819D02*
X124097619Y-84634819D01*
X124097619Y-84634819D02*
X123954762Y-84587200D01*
X123954762Y-84587200D02*
X123859524Y-84491961D01*
X123859524Y-84491961D02*
X123811905Y-84396723D01*
X123811905Y-84396723D02*
X123764286Y-84206247D01*
X123764286Y-84206247D02*
X123764286Y-84063390D01*
X123764286Y-84063390D02*
X123811905Y-83872914D01*
X123811905Y-83872914D02*
X123859524Y-83777676D01*
X123859524Y-83777676D02*
X123954762Y-83682438D01*
X123954762Y-83682438D02*
X124097619Y-83634819D01*
X124097619Y-83634819D02*
X124192857Y-83634819D01*
X124192857Y-83634819D02*
X124335714Y-83682438D01*
X124335714Y-83682438D02*
X124383333Y-83730057D01*
X125240476Y-83968152D02*
X125240476Y-84634819D01*
X125002381Y-83587200D02*
X124764286Y-84301485D01*
X124764286Y-84301485D02*
X125383333Y-84301485D01*
X137333333Y-77859580D02*
X137285714Y-77907200D01*
X137285714Y-77907200D02*
X137142857Y-77954819D01*
X137142857Y-77954819D02*
X137047619Y-77954819D01*
X137047619Y-77954819D02*
X136904762Y-77907200D01*
X136904762Y-77907200D02*
X136809524Y-77811961D01*
X136809524Y-77811961D02*
X136761905Y-77716723D01*
X136761905Y-77716723D02*
X136714286Y-77526247D01*
X136714286Y-77526247D02*
X136714286Y-77383390D01*
X136714286Y-77383390D02*
X136761905Y-77192914D01*
X136761905Y-77192914D02*
X136809524Y-77097676D01*
X136809524Y-77097676D02*
X136904762Y-77002438D01*
X136904762Y-77002438D02*
X137047619Y-76954819D01*
X137047619Y-76954819D02*
X137142857Y-76954819D01*
X137142857Y-76954819D02*
X137285714Y-77002438D01*
X137285714Y-77002438D02*
X137333333Y-77050057D01*
X137666667Y-76954819D02*
X138285714Y-76954819D01*
X138285714Y-76954819D02*
X137952381Y-77335771D01*
X137952381Y-77335771D02*
X138095238Y-77335771D01*
X138095238Y-77335771D02*
X138190476Y-77383390D01*
X138190476Y-77383390D02*
X138238095Y-77431009D01*
X138238095Y-77431009D02*
X138285714Y-77526247D01*
X138285714Y-77526247D02*
X138285714Y-77764342D01*
X138285714Y-77764342D02*
X138238095Y-77859580D01*
X138238095Y-77859580D02*
X138190476Y-77907200D01*
X138190476Y-77907200D02*
X138095238Y-77954819D01*
X138095238Y-77954819D02*
X137809524Y-77954819D01*
X137809524Y-77954819D02*
X137714286Y-77907200D01*
X137714286Y-77907200D02*
X137666667Y-77859580D01*
X150333333Y-83559580D02*
X150285714Y-83607200D01*
X150285714Y-83607200D02*
X150142857Y-83654819D01*
X150142857Y-83654819D02*
X150047619Y-83654819D01*
X150047619Y-83654819D02*
X149904762Y-83607200D01*
X149904762Y-83607200D02*
X149809524Y-83511961D01*
X149809524Y-83511961D02*
X149761905Y-83416723D01*
X149761905Y-83416723D02*
X149714286Y-83226247D01*
X149714286Y-83226247D02*
X149714286Y-83083390D01*
X149714286Y-83083390D02*
X149761905Y-82892914D01*
X149761905Y-82892914D02*
X149809524Y-82797676D01*
X149809524Y-82797676D02*
X149904762Y-82702438D01*
X149904762Y-82702438D02*
X150047619Y-82654819D01*
X150047619Y-82654819D02*
X150142857Y-82654819D01*
X150142857Y-82654819D02*
X150285714Y-82702438D01*
X150285714Y-82702438D02*
X150333333Y-82750057D01*
X150714286Y-82750057D02*
X150761905Y-82702438D01*
X150761905Y-82702438D02*
X150857143Y-82654819D01*
X150857143Y-82654819D02*
X151095238Y-82654819D01*
X151095238Y-82654819D02*
X151190476Y-82702438D01*
X151190476Y-82702438D02*
X151238095Y-82750057D01*
X151238095Y-82750057D02*
X151285714Y-82845295D01*
X151285714Y-82845295D02*
X151285714Y-82940533D01*
X151285714Y-82940533D02*
X151238095Y-83083390D01*
X151238095Y-83083390D02*
X150666667Y-83654819D01*
X150666667Y-83654819D02*
X151285714Y-83654819D01*
X150383333Y-91679580D02*
X150335714Y-91727200D01*
X150335714Y-91727200D02*
X150192857Y-91774819D01*
X150192857Y-91774819D02*
X150097619Y-91774819D01*
X150097619Y-91774819D02*
X149954762Y-91727200D01*
X149954762Y-91727200D02*
X149859524Y-91631961D01*
X149859524Y-91631961D02*
X149811905Y-91536723D01*
X149811905Y-91536723D02*
X149764286Y-91346247D01*
X149764286Y-91346247D02*
X149764286Y-91203390D01*
X149764286Y-91203390D02*
X149811905Y-91012914D01*
X149811905Y-91012914D02*
X149859524Y-90917676D01*
X149859524Y-90917676D02*
X149954762Y-90822438D01*
X149954762Y-90822438D02*
X150097619Y-90774819D01*
X150097619Y-90774819D02*
X150192857Y-90774819D01*
X150192857Y-90774819D02*
X150335714Y-90822438D01*
X150335714Y-90822438D02*
X150383333Y-90870057D01*
X151335714Y-91774819D02*
X150764286Y-91774819D01*
X151050000Y-91774819D02*
X151050000Y-90774819D01*
X151050000Y-90774819D02*
X150954762Y-90917676D01*
X150954762Y-90917676D02*
X150859524Y-91012914D01*
X150859524Y-91012914D02*
X150764286Y-91060533D01*
D12*
%TO.C,J4*%
X130200000Y-80574999D02*
X133379959Y-80574999D01*
X130200000Y-85075001D02*
X130200000Y-80574999D01*
X130200000Y-85075001D02*
X133379959Y-85075001D01*
X134010000Y-79594999D02*
X132740000Y-78324999D01*
X134010000Y-79594999D02*
X135280000Y-78324999D01*
X135280000Y-78324999D02*
X132740000Y-78324999D01*
X142620040Y-80574999D02*
X145799968Y-80574999D01*
X142620040Y-85075001D02*
X145799968Y-85075001D01*
X145799968Y-80574999D02*
X145799968Y-85075001D01*
D13*
%TO.C,Y1*%
X136325000Y-88125000D02*
X137675000Y-88125000D01*
X136325000Y-89875000D02*
X137675000Y-89875000D01*
%TO.C,U2*%
X141197500Y-103187500D02*
X141197500Y-100987500D01*
X141197500Y-103187500D02*
X141197500Y-105387500D01*
X134427500Y-103187500D02*
X134427500Y-100987500D01*
X134427500Y-103187500D02*
X134427500Y-105387500D01*
X140737500Y-99327500D02*
X140497500Y-98997500D01*
X140977500Y-98997500D01*
X140737500Y-99327500D01*
G36*
X140737500Y-99327500D02*
G01*
X140497500Y-98997500D01*
X140977500Y-98997500D01*
X140737500Y-99327500D01*
G37*
%TO.C,U1*%
X135347500Y-96082500D02*
X135347500Y-95822500D01*
X135347500Y-96082500D02*
X135607500Y-96082500D01*
X140767500Y-92062500D02*
X140507500Y-92062500D01*
X140767500Y-92062500D02*
X140767500Y-92322500D01*
X140767500Y-96082500D02*
X140507500Y-96082500D01*
X140767500Y-96082500D02*
X140767500Y-95822500D01*
D14*
X135347500Y-92062500D02*
X134987500Y-92062500D01*
X135347500Y-91702500D01*
X135347500Y-92062500D01*
G36*
X135347500Y-92062500D02*
G01*
X134987500Y-92062500D01*
X135347500Y-91702500D01*
X135347500Y-92062500D01*
G37*
D13*
%TO.C,RN2*%
X127400000Y-104980000D02*
X128400000Y-104980000D01*
X127400000Y-101620000D02*
X128400000Y-101620000D01*
%TO.C,RN1*%
X146600000Y-90620000D02*
X145600000Y-90620000D01*
X146600000Y-93980000D02*
X145600000Y-93980000D01*
%TO.C,J2*%
X134395000Y-110830000D02*
X134395000Y-109500000D01*
X135725000Y-110830000D02*
X134395000Y-110830000D01*
X136995000Y-110830000D02*
X139595000Y-110830000D01*
X136995000Y-110830000D02*
X136995000Y-108170000D01*
X139595000Y-110830000D02*
X139595000Y-108170000D01*
X136995000Y-108170000D02*
X139595000Y-108170000D01*
%TO.C,J1*%
X125417971Y-112712142D02*
X125937645Y-111487872D01*
X126642245Y-113231814D02*
X125417971Y-112712142D01*
X127811284Y-113728043D02*
X132542680Y-115736401D01*
X127811284Y-113728043D02*
X128850629Y-111279500D01*
X132542680Y-115736401D02*
X133582025Y-113287859D01*
X128850629Y-111279500D02*
X133582025Y-113287859D01*
D11*
%TO.C,D5*%
X124936790Y-77758629D02*
X121542678Y-81152742D01*
X123593287Y-76415126D02*
X124936790Y-77758629D01*
X120694150Y-79314264D02*
X123593287Y-76415126D01*
X121542678Y-81152742D02*
X120694150Y-80304214D01*
X120694150Y-80304214D02*
X120694150Y-79314264D01*
%TO.C,D4*%
X140400000Y-73215000D02*
X135600000Y-73215000D01*
X140400000Y-71315000D02*
X140400000Y-73215000D01*
X136300000Y-71315000D02*
X140400000Y-71315000D01*
X135600000Y-73215000D02*
X135600000Y-72015000D01*
X135600000Y-72015000D02*
X136300000Y-71315000D01*
%TO.C,D3*%
X151610786Y-76768680D02*
X152600736Y-76768680D01*
X150762258Y-77617208D02*
X151610786Y-76768680D01*
X152600736Y-76768680D02*
X155499874Y-79667817D01*
X155499874Y-79667817D02*
X154156371Y-81011320D01*
X154156371Y-81011320D02*
X150762258Y-77617208D01*
%TO.C,D2*%
X158335000Y-96040000D02*
X158335000Y-91240000D01*
X160235000Y-96040000D02*
X158335000Y-96040000D01*
X160235000Y-91940000D02*
X160235000Y-96040000D01*
X158335000Y-91240000D02*
X159535000Y-91240000D01*
X159535000Y-91240000D02*
X160235000Y-91940000D01*
%TO.C,D1*%
X154646320Y-107975786D02*
X154646320Y-108965736D01*
X153797792Y-107127258D02*
X154646320Y-107975786D01*
X154646320Y-108965736D02*
X151747183Y-111864874D01*
X151747183Y-111864874D02*
X150403680Y-110521371D01*
X150403680Y-110521371D02*
X153797792Y-107127258D01*
%TO.C,D8*%
X135525000Y-114690000D02*
X140325000Y-114690000D01*
X135525000Y-116590000D02*
X135525000Y-114690000D01*
X139625000Y-116590000D02*
X135525000Y-116590000D01*
X140325000Y-114690000D02*
X140325000Y-115890000D01*
X140325000Y-115890000D02*
X139625000Y-116590000D01*
%TO.C,D7*%
X121997093Y-107030866D02*
X125391206Y-110424978D01*
X120653590Y-108374369D02*
X121997093Y-107030866D01*
X123552728Y-111273506D02*
X120653590Y-108374369D01*
X125391206Y-110424978D02*
X124542678Y-111273506D01*
X124542678Y-111273506D02*
X123552728Y-111273506D01*
%TO.C,D6*%
X117725000Y-91590000D02*
X117725000Y-96390000D01*
X115825000Y-91590000D02*
X117725000Y-91590000D01*
X115825000Y-95690000D02*
X115825000Y-91590000D01*
X117725000Y-96390000D02*
X116525000Y-96390000D01*
X116525000Y-96390000D02*
X115825000Y-95690000D01*
D13*
%TO.C,C13*%
X151261252Y-106735000D02*
X150738748Y-106735000D01*
X151261252Y-105265000D02*
X150738748Y-105265000D01*
%TO.C,C12*%
X139211252Y-113235000D02*
X138688748Y-113235000D01*
X139211252Y-111765000D02*
X138688748Y-111765000D01*
%TO.C,C11*%
X123788748Y-104765000D02*
X124311252Y-104765000D01*
X123788748Y-106235000D02*
X124311252Y-106235000D01*
%TO.C,C10*%
X143788748Y-96265000D02*
X144311252Y-96265000D01*
X143788748Y-97735000D02*
X144311252Y-97735000D01*
%TO.C,C9*%
X132811252Y-96735000D02*
X132288748Y-96735000D01*
X132811252Y-95265000D02*
X132288748Y-95265000D01*
%TO.C,C8*%
X132811252Y-93735000D02*
X132288748Y-93735000D01*
X132811252Y-92265000D02*
X132288748Y-92265000D01*
%TO.C,C7*%
X132811252Y-89735000D02*
X132288748Y-89735000D01*
X132811252Y-88265000D02*
X132288748Y-88265000D01*
%TO.C,C6*%
X141738748Y-88265000D02*
X142261252Y-88265000D01*
X141738748Y-89735000D02*
X142261252Y-89735000D01*
%TO.C,C5*%
X121261252Y-95735000D02*
X120738748Y-95735000D01*
X121261252Y-94265000D02*
X120738748Y-94265000D01*
%TO.C,C4*%
X124811252Y-83235000D02*
X124288748Y-83235000D01*
X124811252Y-81765000D02*
X124288748Y-81765000D01*
%TO.C,C3*%
X137288748Y-74765000D02*
X137811252Y-74765000D01*
X137288748Y-76235000D02*
X137811252Y-76235000D01*
%TO.C,C2*%
X150288748Y-80765000D02*
X150811252Y-80765000D01*
X150288748Y-82235000D02*
X150811252Y-82235000D01*
%TO.C,C1*%
X150288748Y-92265000D02*
X150811252Y-92265000D01*
X150288748Y-93735000D02*
X150811252Y-93735000D01*
%TD*%
M02*
