%TF.GenerationSoftware,KiCad,Pcbnew,8.0.0*%
%TF.CreationDate,2024-05-13T13:59:27-05:00*%
%TF.ProjectId,GaussMouse_Sensor,47617573-734d-46f7-9573-655f53656e73,rev?*%
%TF.SameCoordinates,Original*%
%TF.FileFunction,Copper,L1,Top*%
%TF.FilePolarity,Positive*%
%FSLAX46Y46*%
G04 Gerber Fmt 4.6, Leading zero omitted, Abs format (unit mm)*
G04 Created by KiCad (PCBNEW 8.0.0) date 2024-05-13 13:59:27*
%MOMM*%
%LPD*%
G01*
G04 APERTURE LIST*
G04 Aperture macros list*
%AMRoundRect*
0 Rectangle with rounded corners*
0 $1 Rounding radius*
0 $2 $3 $4 $5 $6 $7 $8 $9 X,Y pos of 4 corners*
0 Add a 4 corners polygon primitive as box body*
4,1,4,$2,$3,$4,$5,$6,$7,$8,$9,$2,$3,0*
0 Add four circle primitives for the rounded corners*
1,1,$1+$1,$2,$3*
1,1,$1+$1,$4,$5*
1,1,$1+$1,$6,$7*
1,1,$1+$1,$8,$9*
0 Add four rect primitives between the rounded corners*
20,1,$1+$1,$2,$3,$4,$5,0*
20,1,$1+$1,$4,$5,$6,$7,0*
20,1,$1+$1,$6,$7,$8,$9,0*
20,1,$1+$1,$8,$9,$2,$3,0*%
%AMHorizOval*
0 Thick line with rounded ends*
0 $1 width*
0 $2 $3 position (X,Y) of the first rounded end (center of the circle)*
0 $4 $5 position (X,Y) of the second rounded end (center of the circle)*
0 Add line between two ends*
20,1,$1,$2,$3,$4,$5,0*
0 Add two circle primitives to create the rounded ends*
1,1,$1,$2,$3*
1,1,$1,$4,$5*%
%AMRotRect*
0 Rectangle, with rotation*
0 The origin of the aperture is its center*
0 $1 length*
0 $2 width*
0 $3 Rotation angle, in degrees counterclockwise*
0 Add horizontal line*
21,1,$1,$2,0,0,$3*%
G04 Aperture macros list end*
%TA.AperFunction,SMDPad,CuDef*%
%ADD10R,0.600000X1.650000*%
%TD*%
%TA.AperFunction,SMDPad,CuDef*%
%ADD11R,0.600000X1.850000*%
%TD*%
%TA.AperFunction,SMDPad,CuDef*%
%ADD12R,1.000000X1.800000*%
%TD*%
%TA.AperFunction,SMDPad,CuDef*%
%ADD13RoundRect,0.100000X-0.100000X0.637500X-0.100000X-0.637500X0.100000X-0.637500X0.100000X0.637500X0*%
%TD*%
%TA.AperFunction,SMDPad,CuDef*%
%ADD14R,0.254000X0.675000*%
%TD*%
%TA.AperFunction,SMDPad,CuDef*%
%ADD15R,0.675000X0.254000*%
%TD*%
%TA.AperFunction,SMDPad,CuDef*%
%ADD16R,0.800000X0.500000*%
%TD*%
%TA.AperFunction,SMDPad,CuDef*%
%ADD17R,0.800000X0.400000*%
%TD*%
%TA.AperFunction,ComponentPad*%
%ADD18R,1.700000X1.700000*%
%TD*%
%TA.AperFunction,ComponentPad*%
%ADD19O,1.700000X1.700000*%
%TD*%
%TA.AperFunction,ComponentPad*%
%ADD20RotRect,1.700000X1.700000X67.000000*%
%TD*%
%TA.AperFunction,ComponentPad*%
%ADD21HorizOval,1.700000X0.000000X0.000000X0.000000X0.000000X0*%
%TD*%
%TA.AperFunction,SMDPad,CuDef*%
%ADD22RotRect,1.000000X0.550000X225.000000*%
%TD*%
%TA.AperFunction,SMDPad,CuDef*%
%ADD23RotRect,0.550000X1.200000X225.000000*%
%TD*%
%TA.AperFunction,SMDPad,CuDef*%
%ADD24RotRect,0.700000X1.200000X225.000000*%
%TD*%
%TA.AperFunction,SMDPad,CuDef*%
%ADD25RotRect,0.450000X1.200000X225.000000*%
%TD*%
%TA.AperFunction,SMDPad,CuDef*%
%ADD26R,1.000000X0.550000*%
%TD*%
%TA.AperFunction,SMDPad,CuDef*%
%ADD27R,0.550000X1.200000*%
%TD*%
%TA.AperFunction,SMDPad,CuDef*%
%ADD28R,0.700000X1.200000*%
%TD*%
%TA.AperFunction,SMDPad,CuDef*%
%ADD29R,0.450000X1.200000*%
%TD*%
%TA.AperFunction,SMDPad,CuDef*%
%ADD30RotRect,1.000000X0.550000X135.000000*%
%TD*%
%TA.AperFunction,SMDPad,CuDef*%
%ADD31RotRect,0.550000X1.200000X135.000000*%
%TD*%
%TA.AperFunction,SMDPad,CuDef*%
%ADD32RotRect,0.450000X1.200000X135.000000*%
%TD*%
%TA.AperFunction,SMDPad,CuDef*%
%ADD33RotRect,0.700000X1.200000X135.000000*%
%TD*%
%TA.AperFunction,SMDPad,CuDef*%
%ADD34R,0.550000X1.000000*%
%TD*%
%TA.AperFunction,SMDPad,CuDef*%
%ADD35R,1.200000X0.550000*%
%TD*%
%TA.AperFunction,SMDPad,CuDef*%
%ADD36R,1.200000X0.700000*%
%TD*%
%TA.AperFunction,SMDPad,CuDef*%
%ADD37R,1.200000X0.450000*%
%TD*%
%TA.AperFunction,SMDPad,CuDef*%
%ADD38RotRect,1.000000X0.550000X45.000000*%
%TD*%
%TA.AperFunction,SMDPad,CuDef*%
%ADD39RotRect,0.550000X1.200000X45.000000*%
%TD*%
%TA.AperFunction,SMDPad,CuDef*%
%ADD40RotRect,0.450000X1.200000X45.000000*%
%TD*%
%TA.AperFunction,SMDPad,CuDef*%
%ADD41RotRect,0.700000X1.200000X45.000000*%
%TD*%
%TA.AperFunction,SMDPad,CuDef*%
%ADD42RotRect,1.000000X0.550000X315.000000*%
%TD*%
%TA.AperFunction,SMDPad,CuDef*%
%ADD43RotRect,0.550000X1.200000X315.000000*%
%TD*%
%TA.AperFunction,SMDPad,CuDef*%
%ADD44RotRect,0.700000X1.200000X315.000000*%
%TD*%
%TA.AperFunction,SMDPad,CuDef*%
%ADD45RotRect,0.450000X1.200000X315.000000*%
%TD*%
%TA.AperFunction,SMDPad,CuDef*%
%ADD46RoundRect,0.250000X0.250000X0.475000X-0.250000X0.475000X-0.250000X-0.475000X0.250000X-0.475000X0*%
%TD*%
%TA.AperFunction,SMDPad,CuDef*%
%ADD47RoundRect,0.250000X-0.250000X-0.475000X0.250000X-0.475000X0.250000X0.475000X-0.250000X0.475000X0*%
%TD*%
%TA.AperFunction,ViaPad*%
%ADD48C,0.600000*%
%TD*%
%TA.AperFunction,Conductor*%
%ADD49C,0.200000*%
%TD*%
G04 APERTURE END LIST*
D10*
%TO.P,J4,1,Pin_1*%
%TO.N,VCC*%
X133999999Y-84750000D03*
D11*
%TO.P,J4,1A*%
%TO.N,N/C*%
X133999999Y-81000000D03*
D10*
%TO.P,J4,2,Pin_2*%
%TO.N,SWIO*%
X135000000Y-84750000D03*
D11*
%TO.P,J4,2A*%
%TO.N,N/C*%
X135000000Y-81000000D03*
D10*
%TO.P,J4,3,Pin_3*%
%TO.N,MISO*%
X136000000Y-84750000D03*
D11*
%TO.P,J4,3A*%
%TO.N,N/C*%
X136000000Y-81000000D03*
D10*
%TO.P,J4,4,Pin_4*%
%TO.N,CLK*%
X137000000Y-84750000D03*
D11*
%TO.P,J4,4A*%
%TO.N,N/C*%
X137000000Y-81000000D03*
D10*
%TO.P,J4,5,Pin_5*%
%TO.N,MOSI*%
X137999984Y-84750000D03*
D11*
%TO.P,J4,5A*%
%TO.N,N/C*%
X137999984Y-81000000D03*
D10*
%TO.P,J4,6,Pin_6*%
%TO.N,VSS*%
X139000000Y-84750000D03*
D11*
%TO.P,J4,6A*%
%TO.N,N/C*%
X139000000Y-81000000D03*
D10*
%TO.P,J4,7,Pin_7*%
%TO.N,SCL*%
X140000000Y-84750000D03*
D11*
%TO.P,J4,7A*%
%TO.N,N/C*%
X140000000Y-81000000D03*
D10*
%TO.P,J4,8,Pin_8*%
%TO.N,SDA*%
X141000000Y-84750000D03*
D11*
%TO.P,J4,8A*%
%TO.N,N/C*%
X141000000Y-81000000D03*
D10*
%TO.P,J4,9,Pin_9*%
%TO.N,VSS*%
X142000000Y-84750000D03*
D11*
%TO.P,J4,9A*%
%TO.N,N/C*%
X142000000Y-81000000D03*
%TD*%
D12*
%TO.P,Y1,1,1*%
%TO.N,Net-(U1-XOUT32{slash}CLKSEL1)*%
X138250000Y-89000000D03*
%TO.P,Y1,2,2*%
%TO.N,Net-(U1-XIN32)*%
X135750000Y-89000000D03*
%TD*%
D13*
%TO.P,U2,1,PD4*%
%TO.N,CS*%
X140737500Y-100325000D03*
%TO.P,U2,2,PD5*%
%TO.N,PD5*%
X140087500Y-100325000D03*
%TO.P,U2,3,PD6*%
%TO.N,PD6*%
X139437500Y-100325000D03*
%TO.P,U2,4,PD7*%
%TO.N,IntN*%
X138787500Y-100325000D03*
%TO.P,U2,5,PA1*%
%TO.N,NRST*%
X138137500Y-100325000D03*
%TO.P,U2,6,PA2*%
%TO.N,unconnected-(U2-PA2-Pad6)*%
X137487500Y-100325000D03*
%TO.P,U2,7,VSS*%
%TO.N,VSS*%
X136837500Y-100325000D03*
%TO.P,U2,8,PD0*%
%TO.N,PS1*%
X136187500Y-100325000D03*
%TO.P,U2,9,VCC*%
%TO.N,VCC*%
X135537500Y-100325000D03*
%TO.P,U2,10,PC0*%
%TO.N,PS0*%
X134887500Y-100325000D03*
%TO.P,U2,11,PC1*%
%TO.N,SDA*%
X134887500Y-106050000D03*
%TO.P,U2,12,PC2*%
%TO.N,SCL*%
X135537500Y-106050000D03*
%TO.P,U2,13,PC3*%
%TO.N,PC3*%
X136187500Y-106050000D03*
%TO.P,U2,14,PC4*%
%TO.N,PC4*%
X136837500Y-106050000D03*
%TO.P,U2,15,PC5*%
%TO.N,unconnected-(U2-PC5-Pad15)*%
X137487500Y-106050000D03*
%TO.P,U2,16,PC6*%
%TO.N,WS2812*%
X138137500Y-106050000D03*
%TO.P,U2,17,PC7*%
%TO.N,Right*%
X138787500Y-106050000D03*
%TO.P,U2,18,SWIO*%
%TO.N,SWIO*%
X139437500Y-106050000D03*
%TO.P,U2,19,PD2*%
%TO.N,Center*%
X140087500Y-106050000D03*
%TO.P,U2,20,PD3*%
%TO.N,Left*%
X140737500Y-106050000D03*
%TD*%
D14*
%TO.P,U1,1,RESV_NC*%
%TO.N,unconnected-(U1-RESV_NC-Pad1)*%
X135807500Y-92410000D03*
D15*
%TO.P,U1,2,GND*%
%TO.N,VSS*%
X135670000Y-93322500D03*
%TO.P,U1,3,VDD*%
%TO.N,VCC*%
X135670000Y-93822500D03*
%TO.P,U1,4,BOOTN*%
%TO.N,Boot85*%
X135670000Y-94322500D03*
%TO.P,U1,5,PS1*%
%TO.N,PS1*%
X135670000Y-94822500D03*
D14*
%TO.P,U1,6,PS0/WAKE*%
%TO.N,PS0*%
X135807500Y-95735000D03*
%TO.P,U1,7,RESV_NC*%
%TO.N,unconnected-(U1-RESV_NC-Pad7)*%
X136307500Y-95735000D03*
%TO.P,U1,8,RESV_NC*%
%TO.N,unconnected-(U1-RESV_NC-Pad8)*%
X136807500Y-95735000D03*
%TO.P,U1,9,CAP*%
%TO.N,Net-(U1-CAP)*%
X137307500Y-95735000D03*
%TO.P,U1,10,CLKSEL0*%
%TO.N,ClkSel*%
X137807500Y-95735000D03*
%TO.P,U1,11,NRST*%
%TO.N,NRST*%
X138307500Y-95735000D03*
%TO.P,U1,12,RESV_NC*%
%TO.N,unconnected-(U1-RESV_NC-Pad12)*%
X138807500Y-95735000D03*
%TO.P,U1,13,RESV_NC*%
%TO.N,unconnected-(U1-RESV_NC-Pad13)*%
X139307500Y-95735000D03*
%TO.P,U1,14,H_INTN*%
%TO.N,IntN*%
X139807500Y-95735000D03*
%TO.P,U1,15,ENV_SCL*%
%TO.N,Env_SCL*%
X140307500Y-95735000D03*
D15*
%TO.P,U1,16,ENV_SDA*%
%TO.N,Env_SDA*%
X140445000Y-94822500D03*
%TO.P,U1,17,SA0/H_MOSI*%
%TO.N,MOSI*%
X140445000Y-94322500D03*
%TO.P,U1,18,H_CSN*%
%TO.N,CS*%
X140445000Y-93822500D03*
%TO.P,U1,19,H_SCL/SCK/RX*%
%TO.N,CLK*%
X140445000Y-93322500D03*
D14*
%TO.P,U1,20,H_SDA/H_MISO/TX*%
%TO.N,MISO*%
X140307500Y-92410000D03*
%TO.P,U1,21,RESV_NC*%
%TO.N,unconnected-(U1-RESV_NC-Pad21)*%
X139807500Y-92410000D03*
%TO.P,U1,22,RESV_NC*%
%TO.N,unconnected-(U1-RESV_NC-Pad22)*%
X139307500Y-92410000D03*
%TO.P,U1,23,RESV_NC*%
%TO.N,unconnected-(U1-RESV_NC-Pad23)*%
X138807500Y-92410000D03*
%TO.P,U1,24,RESV_NC*%
%TO.N,unconnected-(U1-RESV_NC-Pad24)*%
X138307500Y-92410000D03*
%TO.P,U1,25,GND*%
%TO.N,VSS*%
X137807500Y-92410000D03*
%TO.P,U1,26,XOUT32/CLKSEL1*%
%TO.N,Net-(U1-XOUT32{slash}CLKSEL1)*%
X137307500Y-92410000D03*
%TO.P,U1,27,XIN32*%
%TO.N,Net-(U1-XIN32)*%
X136807500Y-92410000D03*
%TO.P,U1,28,VDDIO*%
%TO.N,VCC*%
X136307500Y-92410000D03*
%TD*%
D16*
%TO.P,RN2,1,R1.1*%
%TO.N,SDA*%
X128800000Y-104500000D03*
D17*
%TO.P,RN2,2,R2.1*%
%TO.N,SCL*%
X128800000Y-103700000D03*
%TO.P,RN2,3,R3.1*%
%TO.N,unconnected-(RN2-R3.1-Pad3)*%
X128800000Y-102900000D03*
D16*
%TO.P,RN2,4,R4.1*%
%TO.N,unconnected-(RN2-R4.1-Pad4)*%
X128800000Y-102100000D03*
%TO.P,RN2,5,R4.2*%
%TO.N,VCC*%
X127000000Y-102100000D03*
D17*
%TO.P,RN2,6,R3.2*%
X127000000Y-102900000D03*
%TO.P,RN2,7,R2.2*%
X127000000Y-103700000D03*
D16*
%TO.P,RN2,8,R1.2*%
X127000000Y-104500000D03*
%TD*%
%TO.P,RN1,1,R1.1*%
%TO.N,Boot85*%
X145200000Y-91100000D03*
D17*
%TO.P,RN1,2,R2.1*%
%TO.N,PS1*%
X145200000Y-91900000D03*
%TO.P,RN1,3,R3.1*%
%TO.N,Env_SDA*%
X145200000Y-92700000D03*
D16*
%TO.P,RN1,4,R4.1*%
%TO.N,Env_SCL*%
X145200000Y-93500000D03*
%TO.P,RN1,5,R4.2*%
%TO.N,VCC*%
X147000000Y-93500000D03*
D17*
%TO.P,RN1,6,R3.2*%
X147000000Y-92700000D03*
%TO.P,RN1,7,R2.2*%
X147000000Y-91900000D03*
D16*
%TO.P,RN1,8,R1.2*%
X147000000Y-91100000D03*
%TD*%
D18*
%TO.P,J2,1,Pin_1*%
%TO.N,PC3*%
X135725000Y-109500000D03*
D19*
%TO.P,J2,2,Pin_2*%
%TO.N,PC4*%
X138265000Y-109500000D03*
%TD*%
D20*
%TO.P,J1,1,Pin_1*%
%TO.N,VCC*%
X127161916Y-112007543D03*
D21*
%TO.P,J1,2,Pin_2*%
%TO.N,SWIO*%
X129500000Y-113000000D03*
%TO.P,J1,3,Pin_3*%
%TO.N,VSS*%
X131838080Y-113992457D03*
%TD*%
D22*
%TO.P,D5,1,DIN*%
%TO.N,Net-(D4-DOUT)*%
X124077656Y-77748023D03*
D23*
X123865524Y-77854089D03*
D24*
%TO.P,D5,2,VDD*%
%TO.N,VCC*%
X123070028Y-78649584D03*
D25*
%TO.P,D5,3,DOUT*%
%TO.N,Net-(D5-DOUT)*%
X122345244Y-79374368D03*
D23*
%TO.P,D5,4,VSS*%
%TO.N,VSS*%
X121638137Y-80081475D03*
D22*
X121525000Y-80286536D03*
%TD*%
D26*
%TO.P,D4,1,DIN*%
%TO.N,Net-(D3-DOUT)*%
X139800000Y-72600000D03*
D27*
X139575000Y-72525000D03*
D28*
%TO.P,D4,2,VDD*%
%TO.N,VCC*%
X138450000Y-72525000D03*
D29*
%TO.P,D4,3,DOUT*%
%TO.N,Net-(D4-DOUT)*%
X137425000Y-72525000D03*
D27*
%TO.P,D4,4,VSS*%
%TO.N,VSS*%
X136425000Y-72525000D03*
D26*
X136200000Y-72590000D03*
%TD*%
D30*
%TO.P,D3,4,VSS*%
%TO.N,VSS*%
X151628464Y-77599530D03*
D31*
X151833525Y-77712667D03*
D32*
%TO.P,D3,3,DOUT*%
%TO.N,Net-(D3-DOUT)*%
X152540632Y-78419774D03*
D33*
%TO.P,D3,2,VDD*%
%TO.N,VCC*%
X153265416Y-79144558D03*
D31*
%TO.P,D3,1,DIN*%
%TO.N,Net-(D2-DOUT)*%
X154060911Y-79940054D03*
D30*
X154166977Y-80152186D03*
%TD*%
D34*
%TO.P,D2,1,DIN*%
%TO.N,Net-(D1-DOUT)*%
X158950000Y-95440000D03*
D35*
X159025000Y-95215000D03*
D36*
%TO.P,D2,2,VDD*%
%TO.N,VCC*%
X159025000Y-94090000D03*
D37*
%TO.P,D2,3,DOUT*%
%TO.N,Net-(D2-DOUT)*%
X159025000Y-93065000D03*
D35*
%TO.P,D2,4,VSS*%
%TO.N,VSS*%
X159025000Y-92065000D03*
D34*
X158960000Y-91840000D03*
%TD*%
D38*
%TO.P,D1,4,VSS*%
%TO.N,VSS*%
X153815470Y-107993464D03*
D39*
X153702333Y-108198525D03*
D40*
%TO.P,D1,3,DOUT*%
%TO.N,Net-(D1-DOUT)*%
X152995226Y-108905632D03*
D41*
%TO.P,D1,2,VDD*%
%TO.N,VCC*%
X152270442Y-109630416D03*
D39*
%TO.P,D1,1,DIN*%
%TO.N,WS2812*%
X151474946Y-110425911D03*
D38*
X151262814Y-110531977D03*
%TD*%
D26*
%TO.P,D8,1,DIN*%
%TO.N,Net-(D7-DOUT)*%
X136125000Y-115305000D03*
D27*
X136350000Y-115380000D03*
D28*
%TO.P,D8,2,VDD*%
%TO.N,VCC*%
X137475000Y-115380000D03*
D29*
%TO.P,D8,3,DOUT*%
%TO.N,unconnected-(D8-DOUT-Pad3)*%
X138500000Y-115380000D03*
D27*
%TO.P,D8,4,VSS*%
%TO.N,VSS*%
X139500000Y-115380000D03*
D26*
X139725000Y-115315000D03*
%TD*%
D42*
%TO.P,D7,1,DIN*%
%TO.N,Net-(D6-DOUT)*%
X121986487Y-107890000D03*
D43*
X122092553Y-108102132D03*
D44*
%TO.P,D7,2,VDD*%
%TO.N,VCC*%
X122888048Y-108897628D03*
D45*
%TO.P,D7,3,DOUT*%
%TO.N,Net-(D7-DOUT)*%
X123612832Y-109622412D03*
D43*
%TO.P,D7,4,VSS*%
%TO.N,VSS*%
X124319939Y-110329519D03*
D42*
X124525000Y-110442656D03*
%TD*%
D34*
%TO.P,D6,1,DIN*%
%TO.N,Net-(D5-DOUT)*%
X117110000Y-92190000D03*
D35*
X117035000Y-92415000D03*
D36*
%TO.P,D6,2,VDD*%
%TO.N,VCC*%
X117035000Y-93540000D03*
D37*
%TO.P,D6,3,DOUT*%
%TO.N,Net-(D6-DOUT)*%
X117035000Y-94565000D03*
D35*
%TO.P,D6,4,VSS*%
%TO.N,VSS*%
X117035000Y-95565000D03*
D34*
X117100000Y-95790000D03*
%TD*%
D46*
%TO.P,C13,1*%
%TO.N,VSS*%
X151950000Y-106000000D03*
%TO.P,C13,2*%
%TO.N,VCC*%
X150050000Y-106000000D03*
%TD*%
%TO.P,C12,1*%
%TO.N,VSS*%
X139900000Y-112500000D03*
%TO.P,C12,2*%
%TO.N,VCC*%
X138000000Y-112500000D03*
%TD*%
D47*
%TO.P,C11,1*%
%TO.N,VSS*%
X123100000Y-105500000D03*
%TO.P,C11,2*%
%TO.N,VCC*%
X125000000Y-105500000D03*
%TD*%
%TO.P,C10,1*%
%TO.N,Net-(U1-CAP)*%
X143100000Y-97000000D03*
%TO.P,C10,2*%
%TO.N,VSS*%
X145000000Y-97000000D03*
%TD*%
D46*
%TO.P,C9,1*%
%TO.N,VCC*%
X133500000Y-96000000D03*
%TO.P,C9,2*%
%TO.N,VSS*%
X131600000Y-96000000D03*
%TD*%
%TO.P,C8,1*%
%TO.N,VCC*%
X133500000Y-93000000D03*
%TO.P,C8,2*%
%TO.N,VSS*%
X131600000Y-93000000D03*
%TD*%
%TO.P,C7,1*%
%TO.N,Net-(U1-XIN32)*%
X133500000Y-89000000D03*
%TO.P,C7,2*%
%TO.N,VSS*%
X131600000Y-89000000D03*
%TD*%
D47*
%TO.P,C6,1*%
%TO.N,Net-(U1-XOUT32{slash}CLKSEL1)*%
X141050000Y-89000000D03*
%TO.P,C6,2*%
%TO.N,VSS*%
X142950000Y-89000000D03*
%TD*%
D46*
%TO.P,C5,1*%
%TO.N,VSS*%
X121950000Y-95000000D03*
%TO.P,C5,2*%
%TO.N,VCC*%
X120050000Y-95000000D03*
%TD*%
%TO.P,C4,1*%
%TO.N,VSS*%
X125500000Y-82500000D03*
%TO.P,C4,2*%
%TO.N,VCC*%
X123600000Y-82500000D03*
%TD*%
D47*
%TO.P,C3,1*%
%TO.N,VSS*%
X136600000Y-75500000D03*
%TO.P,C3,2*%
%TO.N,VCC*%
X138500000Y-75500000D03*
%TD*%
%TO.P,C2,1*%
%TO.N,VSS*%
X149600000Y-81500000D03*
%TO.P,C2,2*%
%TO.N,VCC*%
X151500000Y-81500000D03*
%TD*%
%TO.P,C1,1*%
%TO.N,VSS*%
X149600000Y-93000000D03*
%TO.P,C1,2*%
%TO.N,VCC*%
X151500000Y-93000000D03*
%TD*%
D48*
%TO.N,VSS*%
X134900000Y-93000000D03*
X138400000Y-91300000D03*
X131700000Y-87600000D03*
X131400000Y-91400000D03*
X142900000Y-86500000D03*
X144900000Y-89000000D03*
%TO.N,Left*%
X142000000Y-106000000D03*
%TO.N,Center*%
X140100000Y-104800000D03*
%TO.N,Right*%
X138800000Y-104900000D03*
%TO.N,VSS*%
X118000000Y-99600000D03*
X119500000Y-89600000D03*
X120800000Y-81900000D03*
X127800000Y-81900000D03*
X128600000Y-76000000D03*
X127100000Y-78800000D03*
X135100000Y-77100000D03*
X139800000Y-74200000D03*
X141900000Y-72700000D03*
X145100000Y-79000000D03*
X143300000Y-74300000D03*
X147700000Y-76300000D03*
X149500000Y-75200000D03*
X130500000Y-111300000D03*
X131600000Y-108800000D03*
X135500000Y-113400000D03*
X147100000Y-110400000D03*
X141700000Y-110400000D03*
X124600000Y-100300000D03*
X125200000Y-99700000D03*
X126200000Y-99100000D03*
X127200000Y-98900000D03*
X144500000Y-102900000D03*
X143700000Y-101800000D03*
X142900000Y-100300000D03*
X132756301Y-98269071D03*
X141800000Y-98800000D03*
X139600000Y-98700000D03*
X137100000Y-98700000D03*
X127000000Y-88000000D03*
X126000000Y-91000000D03*
X125000000Y-96000000D03*
X124000000Y-101000000D03*
X132000000Y-106000000D03*
X137000000Y-104000000D03*
X139000000Y-102000000D03*
X145000000Y-104000000D03*
X151000000Y-90000000D03*
X157000000Y-96000000D03*
X152000000Y-95000000D03*
X159000000Y-88000000D03*
%TO.N,SCL*%
X139450000Y-83250000D03*
%TO.N,SDA*%
X141800000Y-78200000D03*
%TO.N,CLK*%
X137200000Y-83500000D03*
%TO.N,MISO*%
X136200000Y-83600000D03*
%TO.N,VCC*%
X125000000Y-106785676D03*
%TO.N,SWIO*%
X132500000Y-103000000D03*
%TO.N,VCC*%
X133500000Y-102000000D03*
X127300000Y-101000000D03*
X142000000Y-91900000D03*
X129700000Y-79775000D03*
X132540380Y-83990380D03*
%TO.N,CS*%
X140500000Y-98000000D03*
X138500000Y-93500000D03*
%TO.N,PS1*%
X136535355Y-96774264D03*
%TO.N,Boot85*%
X136504893Y-93500502D03*
X143000000Y-92000000D03*
%TO.N,PS1*%
X144000000Y-92000000D03*
X137142178Y-94150502D03*
%TO.N,Net-(U1-XOUT32{slash}CLKSEL1)*%
X141500000Y-88749998D03*
X137500000Y-89000000D03*
%TO.N,ClkSel*%
X139106043Y-94150000D03*
%TO.N,Net-(U1-CAP)*%
X142000000Y-95650000D03*
X137320142Y-94981666D03*
%TD*%
D49*
%TO.N,VSS*%
X135222500Y-93322500D02*
X134900000Y-93000000D01*
X135670000Y-93322500D02*
X135222500Y-93322500D01*
X137807500Y-91892500D02*
X138400000Y-91300000D01*
X137807500Y-92410000D02*
X137807500Y-91892500D01*
X131600000Y-87700000D02*
X131700000Y-87600000D01*
X131600000Y-89000000D02*
X131600000Y-87700000D01*
X131400000Y-89200000D02*
X131600000Y-89000000D01*
X131400000Y-91400000D02*
X131400000Y-89200000D01*
X131600000Y-91600000D02*
X131400000Y-91400000D01*
X131600000Y-93000000D02*
X131600000Y-91600000D01*
X131600000Y-96000000D02*
X131600000Y-93000000D01*
X140025000Y-86500000D02*
X142900000Y-86500000D01*
X139000000Y-84750000D02*
X139000000Y-85475000D01*
X139000000Y-85475000D02*
X140025000Y-86500000D01*
%TO.N,Left*%
X142000000Y-106000000D02*
X140787500Y-106000000D01*
X140787500Y-106000000D02*
X140737500Y-106050000D01*
%TO.N,SCL*%
X132145836Y-82900000D02*
X139100000Y-82900000D01*
X131200000Y-103700000D02*
X129500000Y-102000000D01*
%TO.N,VCC*%
X133999999Y-84750000D02*
X133300000Y-84750000D01*
%TO.N,SWIO*%
X135000000Y-84750000D02*
X135000000Y-84025001D01*
X130000000Y-100500000D02*
X132500000Y-103000000D01*
%TO.N,SCL*%
X139100000Y-82900000D02*
X139450000Y-83250000D01*
%TO.N,SWIO*%
X132271141Y-83340380D02*
X130000000Y-85611521D01*
%TO.N,SCL*%
X129500000Y-85545836D02*
X132145836Y-82900000D01*
%TO.N,SWIO*%
X135000000Y-84025001D02*
X134315379Y-83340380D01*
%TO.N,VCC*%
X133300000Y-84750000D02*
X132540380Y-83990380D01*
%TO.N,SWIO*%
X134315379Y-83340380D02*
X132271141Y-83340380D01*
%TO.N,VCC*%
X133500000Y-98732987D02*
X133500000Y-102000000D01*
X133386252Y-98080761D02*
X133386252Y-98619239D01*
%TO.N,SCL*%
X129500000Y-102000000D02*
X129500000Y-85545836D01*
%TO.N,VCC*%
X133500000Y-96000000D02*
X133500000Y-97967013D01*
%TO.N,SWIO*%
X130000000Y-85611521D02*
X130000000Y-100500000D01*
%TO.N,VCC*%
X133386252Y-98619239D02*
X133500000Y-98732987D01*
%TO.N,Center*%
X140087500Y-104812500D02*
X140100000Y-104800000D01*
X140087500Y-106050000D02*
X140087500Y-104812500D01*
%TO.N,VCC*%
X133500000Y-97967013D02*
X133386252Y-98080761D01*
%TO.N,Right*%
X138800000Y-106037500D02*
X138787500Y-106050000D01*
X138800000Y-104900000D02*
X138800000Y-106037500D01*
%TO.N,SWIO*%
X139437500Y-104618261D02*
X139437500Y-106050000D01*
X132500000Y-103000000D02*
X137819239Y-103000000D01*
X137819239Y-103000000D02*
X139437500Y-104618261D01*
%TO.N,VSS*%
X136600000Y-75500000D02*
X135100000Y-77000000D01*
X135100000Y-77000000D02*
X135100000Y-77100000D01*
%TO.N,VCC*%
X147480761Y-83258974D02*
X149741026Y-83258974D01*
X147000000Y-83739735D02*
X147480761Y-83258974D01*
X149741026Y-83258974D02*
X151500000Y-81500000D01*
X147000000Y-91100000D02*
X147000000Y-83739735D01*
%TO.N,SDA*%
X142600000Y-80100000D02*
X142600000Y-79000000D01*
X142600000Y-82225000D02*
X142600000Y-80100000D01*
%TO.N,VSS*%
X137856544Y-102000000D02*
X139000000Y-102000000D01*
X136837500Y-100980956D02*
X137856544Y-102000000D01*
X136837500Y-100325000D02*
X136837500Y-100980956D01*
X136837500Y-98962500D02*
X136837500Y-100325000D01*
X137100000Y-98700000D02*
X136837500Y-98962500D01*
%TO.N,SCL*%
X140000000Y-83800000D02*
X139450000Y-83250000D01*
X140000000Y-84750000D02*
X140000000Y-83800000D01*
%TO.N,SDA*%
X141000000Y-83880761D02*
X141000000Y-84750000D01*
X139619239Y-82500000D02*
X141000000Y-83880761D01*
X128100000Y-86200000D02*
X131800000Y-82500000D01*
X128400000Y-104500000D02*
X128100000Y-104200000D01*
X128100000Y-104200000D02*
X128100000Y-86200000D01*
X131800000Y-82500000D02*
X139619239Y-82500000D01*
X128800000Y-104500000D02*
X128400000Y-104500000D01*
X141000000Y-83825000D02*
X142600000Y-82225000D01*
X141000000Y-84750000D02*
X141000000Y-83825000D01*
X142600000Y-79000000D02*
X141800000Y-78200000D01*
%TO.N,CLK*%
X137000000Y-83700000D02*
X137200000Y-83500000D01*
X137000000Y-84750000D02*
X137000000Y-83700000D01*
%TO.N,MISO*%
X136000000Y-83800000D02*
X136200000Y-83600000D01*
X136000000Y-84750000D02*
X136000000Y-83800000D01*
%TO.N,VCC*%
X130710676Y-106785676D02*
X125000000Y-106785676D01*
X136425000Y-112500000D02*
X130710676Y-106785676D01*
X138000000Y-112500000D02*
X136425000Y-112500000D01*
X138000000Y-112500000D02*
X137475000Y-113025000D01*
X137475000Y-113025000D02*
X137475000Y-115380000D01*
X133500000Y-102000000D02*
X134518456Y-102000000D01*
X134518456Y-102000000D02*
X135537500Y-100980956D01*
X135537500Y-100980956D02*
X135537500Y-100325000D01*
X127300000Y-101800000D02*
X127000000Y-102100000D01*
X127300000Y-101000000D02*
X127300000Y-101800000D01*
X146450000Y-90550000D02*
X143350000Y-90550000D01*
X143350000Y-90550000D02*
X142000000Y-91900000D01*
X147000000Y-91100000D02*
X146450000Y-90550000D01*
X132400000Y-91400000D02*
X132400000Y-86349999D01*
X132400000Y-86349999D02*
X133999999Y-84750000D01*
X133550000Y-92950000D02*
X133550000Y-92550000D01*
X133500000Y-93000000D02*
X133550000Y-92950000D01*
X133550000Y-92550000D02*
X132400000Y-91400000D01*
X133500000Y-96000000D02*
X133500000Y-93000000D01*
X123600000Y-82500000D02*
X123600000Y-91450000D01*
X123600000Y-91450000D02*
X120050000Y-95000000D01*
X129700000Y-79775000D02*
X126325000Y-79775000D01*
X134225000Y-79775000D02*
X129700000Y-79775000D01*
X126325000Y-79775000D02*
X123600000Y-82500000D01*
X138500000Y-75500000D02*
X134225000Y-79775000D01*
X145500000Y-75500000D02*
X138500000Y-75500000D01*
X151500000Y-81500000D02*
X145500000Y-75500000D01*
X147950000Y-94450000D02*
X150050000Y-94450000D01*
X147000000Y-93500000D02*
X147950000Y-94450000D01*
X147000000Y-91100000D02*
X147000000Y-93500000D01*
X150050000Y-94450000D02*
X151500000Y-93000000D01*
X150050000Y-106000000D02*
X150050000Y-94450000D01*
%TO.N,SCL*%
X131200000Y-103700000D02*
X134400000Y-103700000D01*
X128800000Y-103700000D02*
X131200000Y-103700000D01*
%TO.N,SDA*%
X133337500Y-104500000D02*
X128800000Y-104500000D01*
X134887500Y-106050000D02*
X133337500Y-104500000D01*
%TO.N,SCL*%
X135537500Y-104837500D02*
X135537500Y-106050000D01*
X134400000Y-103700000D02*
X135537500Y-104837500D01*
%TO.N,VCC*%
X127000000Y-104500000D02*
X127000000Y-102100000D01*
X126000000Y-105500000D02*
X127000000Y-104500000D01*
X125000000Y-105500000D02*
X126000000Y-105500000D01*
X125000000Y-106785676D02*
X122888048Y-108897628D01*
X125000000Y-105500000D02*
X125000000Y-106785676D01*
X118590000Y-93540000D02*
X117035000Y-93540000D01*
X120050000Y-95000000D02*
X118590000Y-93540000D01*
X123600000Y-79179556D02*
X123070028Y-78649584D01*
X123600000Y-82500000D02*
X123600000Y-79179556D01*
X138450000Y-72525000D02*
X138450000Y-75450000D01*
X138450000Y-75450000D02*
X138500000Y-75500000D01*
X153265416Y-79734584D02*
X151500000Y-81500000D01*
X153265416Y-79144558D02*
X153265416Y-79734584D01*
X152590000Y-94090000D02*
X151500000Y-93000000D01*
X159025000Y-94090000D02*
X152590000Y-94090000D01*
X152270442Y-109630416D02*
X150050000Y-107409974D01*
X150050000Y-107409974D02*
X150050000Y-106000000D01*
%TO.N,Net-(D7-DOUT)*%
X123824443Y-109410801D02*
X130380801Y-109410801D01*
X130380801Y-109410801D02*
X136350000Y-115380000D01*
X123612832Y-109622412D02*
X123824443Y-109410801D01*
%TO.N,Net-(D6-DOUT)*%
X121986487Y-99041487D02*
X121986487Y-107890000D01*
X117035000Y-94565000D02*
X117510000Y-94565000D01*
X117510000Y-94565000D02*
X121986487Y-99041487D01*
%TO.N,Net-(D5-DOUT)*%
X119585000Y-92415000D02*
X117035000Y-92415000D01*
X122556855Y-89443145D02*
X119585000Y-92415000D01*
X122345244Y-79374368D02*
X122556855Y-79585979D01*
X122556855Y-79585979D02*
X122556855Y-89443145D01*
%TO.N,Net-(D4-DOUT)*%
X132570911Y-77854089D02*
X123865524Y-77854089D01*
X137425000Y-73000000D02*
X132570911Y-77854089D01*
X137425000Y-72525000D02*
X137425000Y-73000000D01*
%TO.N,Net-(D3-DOUT)*%
X140800000Y-73600000D02*
X139800000Y-72600000D01*
X146000000Y-73600000D02*
X140800000Y-73600000D01*
X149000000Y-76600000D02*
X146000000Y-73600000D01*
X149000000Y-77300000D02*
X149000000Y-76600000D01*
X152329021Y-78631385D02*
X150331385Y-78631385D01*
X150331385Y-78631385D02*
X149000000Y-77300000D01*
X152540632Y-78419774D02*
X152329021Y-78631385D01*
%TO.N,Net-(D2-DOUT)*%
X158125000Y-92640000D02*
X158125000Y-90225000D01*
X158125000Y-90225000D02*
X154166977Y-86266977D01*
X158550000Y-93065000D02*
X158125000Y-92640000D01*
X154166977Y-86266977D02*
X154166977Y-80152186D01*
X159025000Y-93065000D02*
X158550000Y-93065000D01*
%TO.N,Net-(D1-DOUT)*%
X158950000Y-97850000D02*
X158950000Y-95440000D01*
X152783615Y-104016385D02*
X158950000Y-97850000D01*
X152783615Y-108694021D02*
X152783615Y-104016385D01*
X152995226Y-108905632D02*
X152783615Y-108694021D01*
%TO.N,WS2812*%
X139931544Y-108500000D02*
X149549035Y-108500000D01*
X138137500Y-106705956D02*
X139931544Y-108500000D01*
X149549035Y-108500000D02*
X151474946Y-110425911D01*
X138137500Y-106050000D02*
X138137500Y-106705956D01*
%TO.N,CS*%
X140737500Y-99669044D02*
X140737500Y-100325000D01*
X140500000Y-99431544D02*
X140737500Y-99669044D01*
X140500000Y-98000000D02*
X140500000Y-99431544D01*
%TO.N,PS1*%
X136187500Y-97122119D02*
X136535355Y-96774264D01*
X136187500Y-100325000D02*
X136187500Y-97122119D01*
%TO.N,CS*%
X139429290Y-93500000D02*
X138500000Y-93500000D01*
X140445000Y-93822500D02*
X139751790Y-93822500D01*
X139751790Y-93822500D02*
X139429290Y-93500000D01*
%TO.N,ClkSel*%
X138967844Y-94150000D02*
X139106043Y-94150000D01*
X137807500Y-95426690D02*
X137880500Y-95353690D01*
X137880500Y-95353690D02*
X137880500Y-95237344D01*
X137807500Y-95735000D02*
X137807500Y-95426690D01*
X137880500Y-95237344D02*
X138967844Y-94150000D01*
%TO.N,PC4*%
X136687500Y-107922500D02*
X138265000Y-109500000D01*
X136687500Y-106200000D02*
X136687500Y-107922500D01*
X136837500Y-106050000D02*
X136687500Y-106200000D01*
%TO.N,PC3*%
X136187500Y-109037500D02*
X135725000Y-109500000D01*
X136187500Y-106050000D02*
X136187500Y-109037500D01*
%TO.N,Boot85*%
X136307500Y-94249500D02*
X136234500Y-94322500D01*
X136504893Y-93500502D02*
X136307500Y-93697895D01*
%TO.N,Net-(U1-CAP)*%
X137307500Y-95104815D02*
X137320142Y-95092173D01*
X137320142Y-95092173D02*
X137320142Y-94981666D01*
X137307500Y-95735000D02*
X137307500Y-95104815D01*
%TO.N,PS1*%
X135670000Y-94822500D02*
X136470180Y-94822500D01*
%TO.N,Boot85*%
X136307500Y-93697895D02*
X136307500Y-94249500D01*
X136234500Y-94322500D02*
X135670000Y-94322500D01*
X143900000Y-91100000D02*
X143000000Y-92000000D01*
%TO.N,PS1*%
X136470180Y-94822500D02*
X137142178Y-94150502D01*
%TO.N,Boot85*%
X145200000Y-91100000D02*
X143900000Y-91100000D01*
%TO.N,PS1*%
X144100000Y-91900000D02*
X144000000Y-92000000D01*
X145200000Y-91900000D02*
X144100000Y-91900000D01*
%TO.N,Env_SCL*%
X141066471Y-95735000D02*
X140307500Y-95735000D01*
X143301471Y-93500000D02*
X141066471Y-95735000D01*
X145200000Y-93500000D02*
X143301471Y-93500000D01*
%TO.N,Env_SDA*%
X141413285Y-94822500D02*
X140445000Y-94822500D01*
X143535785Y-92700000D02*
X141413285Y-94822500D01*
%TO.N,Net-(U1-CAP)*%
X143100000Y-97000000D02*
X143100000Y-96750000D01*
X143100000Y-96750000D02*
X142000000Y-95650000D01*
%TO.N,Env_SDA*%
X145200000Y-92700000D02*
X143535785Y-92700000D01*
%TO.N,MOSI*%
X137999984Y-85474984D02*
X137999984Y-84750000D01*
X140000000Y-90000000D02*
X140000000Y-87475000D01*
%TO.N,CLK*%
X137000000Y-85475016D02*
X137000000Y-84750000D01*
X137399984Y-85875000D02*
X137000000Y-85475016D01*
X139500000Y-90065686D02*
X139500000Y-87540686D01*
X139500000Y-87540686D02*
X137834314Y-85875000D01*
X137834314Y-85875000D02*
X137399984Y-85875000D01*
X140734500Y-91300186D02*
X139500000Y-90065686D01*
%TO.N,MOSI*%
X140000000Y-87475000D02*
X137999984Y-85474984D01*
%TO.N,CLK*%
X140445000Y-93322500D02*
X140734500Y-93033000D01*
X140734500Y-93033000D02*
X140734500Y-91300186D01*
%TO.N,Net-(U1-XOUT32{slash}CLKSEL1)*%
X141300002Y-88749998D02*
X141050000Y-89000000D01*
X141500000Y-88749998D02*
X141300002Y-88749998D01*
%TO.N,MOSI*%
X141134500Y-91134500D02*
X140000000Y-90000000D01*
X141134500Y-94197500D02*
X141134500Y-91134500D01*
X140445000Y-94322500D02*
X141009500Y-94322500D01*
X141009500Y-94322500D02*
X141134500Y-94197500D01*
%TO.N,MISO*%
X136000000Y-85475000D02*
X136000000Y-84750000D01*
X137525000Y-86275000D02*
X136800000Y-86275000D01*
X136800000Y-86275000D02*
X136000000Y-85475000D01*
X139050000Y-87800000D02*
X137525000Y-86275000D01*
X139050000Y-90181372D02*
X139050000Y-87800000D01*
X140307500Y-91438872D02*
X139050000Y-90181372D01*
X140307500Y-92410000D02*
X140307500Y-91438872D01*
%TO.N,Net-(U1-XOUT32{slash}CLKSEL1)*%
X138250000Y-89000000D02*
X137500000Y-89000000D01*
%TO.N,PS0*%
X135807500Y-96692500D02*
X135807500Y-95735000D01*
X134887500Y-100325000D02*
X134887500Y-97612500D01*
X134887500Y-97612500D02*
X135807500Y-96692500D01*
%TO.N,IntN*%
X139807500Y-96692500D02*
X139807500Y-95735000D01*
X138787500Y-97712500D02*
X139807500Y-96692500D01*
X138787500Y-100325000D02*
X138787500Y-97712500D01*
%TO.N,NRST*%
X138287500Y-95755000D02*
X138287500Y-100175000D01*
X138307500Y-95735000D02*
X138287500Y-95755000D01*
X138287500Y-100175000D02*
X138137500Y-100325000D01*
%TO.N,VCC*%
X133500000Y-95428000D02*
X133500000Y-96000000D01*
X135105500Y-93822500D02*
X133500000Y-95428000D01*
X135670000Y-93822500D02*
X135105500Y-93822500D01*
X135962000Y-91500000D02*
X135000000Y-91500000D01*
X136307500Y-91845500D02*
X135962000Y-91500000D01*
X136307500Y-92410000D02*
X136307500Y-91845500D01*
X135000000Y-91500000D02*
X133500000Y-93000000D01*
%TO.N,Net-(U1-XIN32)*%
X135750000Y-89000000D02*
X133500000Y-89000000D01*
%TO.N,Net-(U1-XOUT32{slash}CLKSEL1)*%
X138250000Y-89000000D02*
X137307500Y-89942500D01*
X137307500Y-89942500D02*
X137307500Y-92410000D01*
%TO.N,Net-(U1-XIN32)*%
X136807500Y-90057500D02*
X136807500Y-92410000D01*
X135750000Y-89000000D02*
X136807500Y-90057500D01*
%TD*%
%TA.AperFunction,Conductor*%
%TO.N,VSS*%
G36*
X139740621Y-109070525D02*
G01*
X139790438Y-109083874D01*
X139852486Y-109100500D01*
X139852487Y-109100500D01*
X149248938Y-109100500D01*
X149315977Y-109120185D01*
X149336619Y-109136819D01*
X150314262Y-110114462D01*
X150347747Y-110175785D01*
X150348992Y-110187370D01*
X150349319Y-110187324D01*
X150360777Y-110267021D01*
X150350833Y-110336179D01*
X150328708Y-110368060D01*
X150329056Y-110368372D01*
X150329133Y-110368434D01*
X150329129Y-110368438D01*
X150329262Y-110368557D01*
X150327047Y-110371022D01*
X150289427Y-110417704D01*
X150289426Y-110417706D01*
X150229641Y-110548616D01*
X150229640Y-110548620D01*
X150209160Y-110691076D01*
X150229640Y-110833531D01*
X150229641Y-110833535D01*
X150289427Y-110964446D01*
X150289428Y-110964447D01*
X150289429Y-110964449D01*
X150327048Y-111011132D01*
X150327051Y-111011135D01*
X150327056Y-111011141D01*
X150683733Y-111367816D01*
X150783659Y-111467742D01*
X150830342Y-111505362D01*
X150830343Y-111505362D01*
X150830345Y-111505364D01*
X150961255Y-111565149D01*
X150961256Y-111565149D01*
X150961258Y-111565150D01*
X151103715Y-111585631D01*
X151246172Y-111565150D01*
X151372247Y-111507573D01*
X151384144Y-111502140D01*
X151384722Y-111503407D01*
X151444057Y-111487126D01*
X151493362Y-111498311D01*
X151562298Y-111529794D01*
X151704756Y-111550276D01*
X151708946Y-111549673D01*
X151713138Y-111550276D01*
X151713625Y-111550276D01*
X151713625Y-111550346D01*
X151778101Y-111559612D01*
X151830908Y-111605363D01*
X151850597Y-111672401D01*
X151830917Y-111739442D01*
X151803619Y-111769588D01*
X151608496Y-111924241D01*
X151604359Y-111927381D01*
X150845979Y-112478377D01*
X150841715Y-112481341D01*
X150060903Y-113000111D01*
X150056517Y-113002894D01*
X149254690Y-113488498D01*
X149250192Y-113491095D01*
X148428725Y-113942700D01*
X148424123Y-113945106D01*
X147584468Y-114361914D01*
X147579768Y-114364126D01*
X146723371Y-114745418D01*
X146718583Y-114747430D01*
X145847018Y-115092507D01*
X145842151Y-115094318D01*
X144956865Y-115402608D01*
X144951925Y-115404213D01*
X144054496Y-115675163D01*
X144049493Y-115676559D01*
X143141533Y-115909683D01*
X143136477Y-115910869D01*
X142219561Y-116105766D01*
X142214459Y-116106740D01*
X141290133Y-116263078D01*
X141284995Y-116263836D01*
X140354986Y-116381324D01*
X140349807Y-116381868D01*
X140348829Y-116381950D01*
X140347473Y-116382064D01*
X140279024Y-116368046D01*
X140229019Y-116319248D01*
X140213335Y-116251161D01*
X140220936Y-116215165D01*
X140240816Y-116161862D01*
X140282686Y-116105928D01*
X140328492Y-116084515D01*
X140332380Y-116083596D01*
X140467086Y-116033354D01*
X140467093Y-116033350D01*
X140582187Y-115947190D01*
X140582190Y-115947187D01*
X140668350Y-115832093D01*
X140668354Y-115832086D01*
X140718596Y-115697379D01*
X140718598Y-115697372D01*
X140724999Y-115637844D01*
X140725000Y-115637824D01*
X140725000Y-115565000D01*
X139750000Y-115565000D01*
X139721319Y-115593681D01*
X139659996Y-115627166D01*
X139633638Y-115630000D01*
X139349500Y-115630000D01*
X139282461Y-115610315D01*
X139236706Y-115557511D01*
X139225500Y-115506000D01*
X139225499Y-115140862D01*
X139245183Y-115073823D01*
X139250000Y-115067845D01*
X139250000Y-114280000D01*
X139750000Y-114280000D01*
X139750000Y-115065000D01*
X140725000Y-115065000D01*
X140725000Y-114992172D01*
X140724999Y-114992155D01*
X140718598Y-114932627D01*
X140718596Y-114932620D01*
X140668354Y-114797913D01*
X140668350Y-114797906D01*
X140582190Y-114682812D01*
X140582187Y-114682809D01*
X140467093Y-114596649D01*
X140467086Y-114596645D01*
X140332379Y-114546403D01*
X140332372Y-114546401D01*
X140269525Y-114539644D01*
X140269691Y-114538091D01*
X140209618Y-114516842D01*
X140182964Y-114490637D01*
X140132187Y-114422809D01*
X140017093Y-114336649D01*
X140017086Y-114336645D01*
X139882379Y-114286403D01*
X139882372Y-114286401D01*
X139822844Y-114280000D01*
X139750000Y-114280000D01*
X139250000Y-114280000D01*
X139177155Y-114280000D01*
X139117627Y-114286401D01*
X139117617Y-114286403D01*
X139019046Y-114323168D01*
X138949355Y-114328152D01*
X138932381Y-114323168D01*
X138832486Y-114285910D01*
X138832485Y-114285909D01*
X138832483Y-114285909D01*
X138772873Y-114279500D01*
X138772863Y-114279500D01*
X138227129Y-114279500D01*
X138227120Y-114279501D01*
X138212752Y-114281046D01*
X138143993Y-114268639D01*
X138092857Y-114221027D01*
X138075500Y-114157756D01*
X138075500Y-113849499D01*
X138095185Y-113782460D01*
X138147989Y-113736705D01*
X138199500Y-113725499D01*
X138300002Y-113725499D01*
X138300008Y-113725499D01*
X138402797Y-113714999D01*
X138569334Y-113659814D01*
X138718656Y-113567712D01*
X138842712Y-113443656D01*
X138844752Y-113440347D01*
X138846745Y-113438555D01*
X138847193Y-113437989D01*
X138847289Y-113438065D01*
X138896694Y-113393623D01*
X138965656Y-113382395D01*
X139029740Y-113410234D01*
X139055829Y-113440339D01*
X139057681Y-113443341D01*
X139057683Y-113443344D01*
X139181654Y-113567315D01*
X139330875Y-113659356D01*
X139330880Y-113659358D01*
X139497302Y-113714505D01*
X139497309Y-113714506D01*
X139600019Y-113724999D01*
X139649999Y-113724998D01*
X139650000Y-113724998D01*
X139650000Y-112750000D01*
X140150000Y-112750000D01*
X140150000Y-113724999D01*
X140199972Y-113724999D01*
X140199986Y-113724998D01*
X140302697Y-113714505D01*
X140469119Y-113659358D01*
X140469124Y-113659356D01*
X140555162Y-113606287D01*
X142649500Y-113606287D01*
X142682754Y-113816243D01*
X142724624Y-113945106D01*
X142748444Y-114018414D01*
X142844951Y-114207820D01*
X142969890Y-114379786D01*
X143120213Y-114530109D01*
X143292179Y-114655048D01*
X143292181Y-114655049D01*
X143292184Y-114655051D01*
X143481588Y-114751557D01*
X143683757Y-114817246D01*
X143893713Y-114850500D01*
X143893714Y-114850500D01*
X144106286Y-114850500D01*
X144106287Y-114850500D01*
X144316243Y-114817246D01*
X144518412Y-114751557D01*
X144707816Y-114655051D01*
X144788206Y-114596645D01*
X144879786Y-114530109D01*
X144879788Y-114530106D01*
X144879792Y-114530104D01*
X145030104Y-114379792D01*
X145030106Y-114379788D01*
X145030109Y-114379786D01*
X145155048Y-114207820D01*
X145155047Y-114207820D01*
X145155051Y-114207816D01*
X145251557Y-114018412D01*
X145317246Y-113816243D01*
X145350500Y-113606287D01*
X145350500Y-113393713D01*
X145317246Y-113183757D01*
X145251557Y-112981588D01*
X145155051Y-112792184D01*
X145155049Y-112792181D01*
X145155048Y-112792179D01*
X145030109Y-112620213D01*
X144879786Y-112469890D01*
X144707820Y-112344951D01*
X144518414Y-112248444D01*
X144518413Y-112248443D01*
X144518412Y-112248443D01*
X144316243Y-112182754D01*
X144316241Y-112182753D01*
X144316240Y-112182753D01*
X144154957Y-112157208D01*
X144106287Y-112149500D01*
X143893713Y-112149500D01*
X143845042Y-112157208D01*
X143683760Y-112182753D01*
X143481585Y-112248444D01*
X143292179Y-112344951D01*
X143120213Y-112469890D01*
X142969890Y-112620213D01*
X142844951Y-112792179D01*
X142748444Y-112981585D01*
X142748443Y-112981587D01*
X142748443Y-112981588D01*
X142741959Y-113001544D01*
X142682753Y-113183760D01*
X142674573Y-113235408D01*
X142649500Y-113393713D01*
X142649500Y-113606287D01*
X140555162Y-113606287D01*
X140618345Y-113567315D01*
X140742315Y-113443345D01*
X140834356Y-113294124D01*
X140834358Y-113294119D01*
X140889505Y-113127697D01*
X140889506Y-113127690D01*
X140899999Y-113024986D01*
X140900000Y-113024973D01*
X140900000Y-112750000D01*
X140150000Y-112750000D01*
X139650000Y-112750000D01*
X139650000Y-111275000D01*
X140150000Y-111275000D01*
X140150000Y-112250000D01*
X140899999Y-112250000D01*
X140899999Y-111975028D01*
X140899998Y-111975013D01*
X140889505Y-111872302D01*
X140834358Y-111705880D01*
X140834356Y-111705875D01*
X140742315Y-111556654D01*
X140618345Y-111432684D01*
X140469124Y-111340643D01*
X140469119Y-111340641D01*
X140302697Y-111285494D01*
X140302690Y-111285493D01*
X140199986Y-111275000D01*
X140150000Y-111275000D01*
X139650000Y-111275000D01*
X139649999Y-111274999D01*
X139600029Y-111275000D01*
X139600011Y-111275001D01*
X139497302Y-111285494D01*
X139330880Y-111340641D01*
X139330875Y-111340643D01*
X139181654Y-111432684D01*
X139057683Y-111556655D01*
X139057679Y-111556660D01*
X139055826Y-111559665D01*
X139054018Y-111561290D01*
X139053202Y-111562323D01*
X139053025Y-111562183D01*
X139003874Y-111606385D01*
X138934911Y-111617601D01*
X138870831Y-111589752D01*
X138844753Y-111559653D01*
X138844728Y-111559612D01*
X138842712Y-111556344D01*
X138718656Y-111432288D01*
X138569334Y-111340186D01*
X138402797Y-111285001D01*
X138402795Y-111285000D01*
X138300010Y-111274500D01*
X137699998Y-111274500D01*
X137699980Y-111274501D01*
X137597203Y-111285000D01*
X137597200Y-111285001D01*
X137430668Y-111340185D01*
X137430663Y-111340187D01*
X137281342Y-111432289D01*
X137157289Y-111556342D01*
X137065187Y-111705663D01*
X137065185Y-111705668D01*
X137029121Y-111814504D01*
X136989348Y-111871949D01*
X136924833Y-111898772D01*
X136911415Y-111899500D01*
X136725098Y-111899500D01*
X136658059Y-111879815D01*
X136637417Y-111863181D01*
X135836416Y-111062180D01*
X135802931Y-111000857D01*
X135807915Y-110931165D01*
X135849787Y-110875232D01*
X135915251Y-110850815D01*
X135924097Y-110850499D01*
X136622871Y-110850499D01*
X136622872Y-110850499D01*
X136682483Y-110844091D01*
X136817331Y-110793796D01*
X136932546Y-110707546D01*
X137018796Y-110592331D01*
X137067810Y-110460916D01*
X137109681Y-110404984D01*
X137175145Y-110380566D01*
X137243418Y-110395417D01*
X137271673Y-110416569D01*
X137393599Y-110538495D01*
X137482860Y-110600996D01*
X137587165Y-110674032D01*
X137587167Y-110674033D01*
X137587170Y-110674035D01*
X137801337Y-110773903D01*
X138029592Y-110835063D01*
X138209634Y-110850815D01*
X138264999Y-110855659D01*
X138265000Y-110855659D01*
X138265001Y-110855659D01*
X138320366Y-110850815D01*
X138500408Y-110835063D01*
X138728663Y-110773903D01*
X138942830Y-110674035D01*
X139136401Y-110538495D01*
X139303495Y-110371401D01*
X139439035Y-110177830D01*
X139538903Y-109963663D01*
X139600063Y-109735408D01*
X139620659Y-109500000D01*
X139600063Y-109264592D01*
X139588756Y-109222393D01*
X139590419Y-109152545D01*
X139629581Y-109094682D01*
X139693810Y-109067178D01*
X139740621Y-109070525D01*
G37*
%TD.AperFunction*%
%TA.AperFunction,Conductor*%
G36*
X130147743Y-110030986D02*
G01*
X130168385Y-110047620D01*
X135088181Y-114967416D01*
X135121666Y-115028739D01*
X135124500Y-115055097D01*
X135124500Y-115627870D01*
X135124501Y-115627876D01*
X135130908Y-115687483D01*
X135181202Y-115822328D01*
X135181206Y-115822335D01*
X135267452Y-115937544D01*
X135267455Y-115937547D01*
X135382664Y-116023793D01*
X135382671Y-116023797D01*
X135524785Y-116076802D01*
X135524297Y-116078108D01*
X135577765Y-116108550D01*
X135604720Y-116151326D01*
X135621125Y-116195311D01*
X135626109Y-116265002D01*
X135592623Y-116326325D01*
X135531300Y-116359810D01*
X135489402Y-116361665D01*
X134715004Y-116263836D01*
X134709866Y-116263078D01*
X133785540Y-116106740D01*
X133780438Y-116105766D01*
X132863522Y-115910869D01*
X132858466Y-115909683D01*
X131950506Y-115676559D01*
X131945503Y-115675163D01*
X131610503Y-115574020D01*
X131552014Y-115535799D01*
X131530396Y-115487493D01*
X131490227Y-115514774D01*
X131420380Y-115516547D01*
X131416444Y-115515430D01*
X131048074Y-115404213D01*
X131043147Y-115402612D01*
X130623968Y-115256638D01*
X130157848Y-115094318D01*
X130152981Y-115092507D01*
X129281416Y-114747430D01*
X129276628Y-114745418D01*
X128420231Y-114364126D01*
X128415531Y-114361914D01*
X127575876Y-113945106D01*
X127571274Y-113942700D01*
X127363108Y-113828260D01*
X127313844Y-113778714D01*
X127299187Y-113710399D01*
X127323790Y-113645004D01*
X127379843Y-113603293D01*
X127449549Y-113598508D01*
X127458819Y-113600931D01*
X127466611Y-113603293D01*
X127518106Y-113618904D01*
X127661886Y-113625296D01*
X127801642Y-113590921D01*
X127926054Y-113518565D01*
X128019320Y-113420125D01*
X128079716Y-113385000D01*
X128149516Y-113388102D01*
X128206559Y-113428450D01*
X128223553Y-113458874D01*
X128223809Y-113458756D01*
X128225433Y-113462239D01*
X128225847Y-113462980D01*
X128226090Y-113463648D01*
X128325965Y-113677830D01*
X128325967Y-113677834D01*
X128381499Y-113757141D01*
X128461505Y-113871401D01*
X128628599Y-114038495D01*
X128688057Y-114080128D01*
X128822165Y-114174032D01*
X128822167Y-114174033D01*
X128822170Y-114174035D01*
X129036337Y-114273903D01*
X129036343Y-114273904D01*
X129036344Y-114273905D01*
X129081148Y-114285910D01*
X129264592Y-114335063D01*
X129452918Y-114351539D01*
X129499999Y-114355659D01*
X129500000Y-114355659D01*
X129500001Y-114355659D01*
X129539234Y-114352226D01*
X129735408Y-114335063D01*
X129963663Y-114273903D01*
X130177830Y-114174035D01*
X130304349Y-114085445D01*
X130370553Y-114063118D01*
X130438320Y-114080128D01*
X130486133Y-114131075D01*
X130498999Y-114176211D01*
X130503510Y-114227773D01*
X130503512Y-114227783D01*
X130564646Y-114455940D01*
X130564650Y-114455949D01*
X130664479Y-114670035D01*
X130799974Y-114863539D01*
X130967000Y-115030566D01*
X131089444Y-115116301D01*
X131436938Y-114297658D01*
X131437981Y-114299464D01*
X131531073Y-114392556D01*
X131645087Y-114458382D01*
X131772254Y-114492457D01*
X131897431Y-114492457D01*
X131549263Y-115312692D01*
X131563735Y-115342364D01*
X131567538Y-115364764D01*
X131580100Y-115350489D01*
X131647288Y-115331316D01*
X131657151Y-115331784D01*
X131838079Y-115347614D01*
X131838082Y-115347614D01*
X132073395Y-115327026D01*
X132073406Y-115327024D01*
X132301563Y-115265890D01*
X132301572Y-115265886D01*
X132515658Y-115166057D01*
X132709162Y-115030562D01*
X132876188Y-114863537D01*
X132961925Y-114741091D01*
X132143282Y-114393597D01*
X132145087Y-114392556D01*
X132238179Y-114299464D01*
X132304005Y-114185450D01*
X132338080Y-114058283D01*
X132338080Y-113933103D01*
X133158314Y-114281272D01*
X133172648Y-114227780D01*
X133172649Y-114227772D01*
X133193237Y-113992458D01*
X133193237Y-113992455D01*
X133172649Y-113757141D01*
X133172647Y-113757130D01*
X133111513Y-113528973D01*
X133111509Y-113528964D01*
X133011680Y-113314879D01*
X133011679Y-113314877D01*
X132876193Y-113121383D01*
X132876188Y-113121377D01*
X132709159Y-112954347D01*
X132586714Y-112868611D01*
X132239220Y-113687253D01*
X132238179Y-113685450D01*
X132145087Y-113592358D01*
X132031073Y-113526532D01*
X131903906Y-113492457D01*
X131778726Y-113492457D01*
X132126895Y-112672220D01*
X132073408Y-112657890D01*
X132073395Y-112657887D01*
X131838081Y-112637300D01*
X131838078Y-112637300D01*
X131602764Y-112657887D01*
X131602753Y-112657889D01*
X131374596Y-112719023D01*
X131374587Y-112719027D01*
X131160502Y-112818856D01*
X131160500Y-112818857D01*
X131034254Y-112907256D01*
X130968048Y-112929583D01*
X130900281Y-112912573D01*
X130852468Y-112861625D01*
X130839603Y-112816488D01*
X130837477Y-112792184D01*
X130835063Y-112764592D01*
X130773903Y-112536337D01*
X130674035Y-112322171D01*
X130622411Y-112248443D01*
X130538494Y-112128597D01*
X130371402Y-111961506D01*
X130371395Y-111961501D01*
X130177834Y-111825967D01*
X130177830Y-111825965D01*
X130056929Y-111769588D01*
X129963663Y-111726097D01*
X129963659Y-111726096D01*
X129963655Y-111726094D01*
X129735413Y-111664938D01*
X129735403Y-111664936D01*
X129500001Y-111644341D01*
X129499999Y-111644341D01*
X129264596Y-111664936D01*
X129264586Y-111664938D01*
X129036344Y-111726094D01*
X129036330Y-111726099D01*
X128949680Y-111766505D01*
X128880603Y-111776997D01*
X128816819Y-111748477D01*
X128778580Y-111690000D01*
X128773398Y-111648619D01*
X128779669Y-111507573D01*
X128752292Y-111396270D01*
X128745294Y-111367816D01*
X128672939Y-111243407D01*
X128672938Y-111243405D01*
X128672933Y-111243400D01*
X128568467Y-111144423D01*
X128568462Y-111144419D01*
X128516099Y-111115230D01*
X128516097Y-111115229D01*
X128516095Y-111115228D01*
X126863102Y-110413576D01*
X126863095Y-110413573D01*
X126863093Y-110413573D01*
X126805726Y-110396182D01*
X126805727Y-110396182D01*
X126661946Y-110389790D01*
X126661945Y-110389790D01*
X126522189Y-110424164D01*
X126397780Y-110496519D01*
X126397773Y-110496525D01*
X126298796Y-110600991D01*
X126298792Y-110600996D01*
X126269603Y-110653359D01*
X126269601Y-110653364D01*
X125620416Y-112182754D01*
X125567946Y-112306365D01*
X125550555Y-112363732D01*
X125543967Y-112511917D01*
X125521324Y-112578016D01*
X125466540Y-112621380D01*
X125397008Y-112628242D01*
X125351469Y-112609692D01*
X125255412Y-112545872D01*
X125158266Y-112481329D01*
X125154020Y-112478377D01*
X124996226Y-112363733D01*
X124395637Y-111927379D01*
X124391503Y-111924241D01*
X124068111Y-111667923D01*
X124027799Y-111610855D01*
X124024741Y-111541052D01*
X124059906Y-111480677D01*
X124122130Y-111448897D01*
X124127488Y-111448007D01*
X124232442Y-111432918D01*
X124290912Y-111406215D01*
X124360071Y-111396270D01*
X124407593Y-111413513D01*
X124411001Y-111415618D01*
X124541777Y-111475342D01*
X124541785Y-111475344D01*
X124684099Y-111495804D01*
X124826412Y-111475344D01*
X124826420Y-111475342D01*
X124957193Y-111415620D01*
X124957205Y-111415612D01*
X125003829Y-111378040D01*
X125003836Y-111378034D01*
X125009368Y-111372501D01*
X125009367Y-111372499D01*
X124054067Y-110417199D01*
X124020582Y-110355876D01*
X124025566Y-110286184D01*
X124054067Y-110241837D01*
X124232258Y-110063647D01*
X124293581Y-110030162D01*
X124363273Y-110035146D01*
X124407620Y-110063647D01*
X124479038Y-110135065D01*
X124519600Y-110135065D01*
X124586639Y-110154750D01*
X124607281Y-110171384D01*
X125408882Y-110972986D01*
X125408884Y-110972986D01*
X125460377Y-110921493D01*
X125497959Y-110874856D01*
X125497964Y-110874849D01*
X125557686Y-110744076D01*
X125557688Y-110744068D01*
X125578148Y-110601755D01*
X125557688Y-110459441D01*
X125557686Y-110459433D01*
X125497964Y-110328660D01*
X125497959Y-110328653D01*
X125458297Y-110279435D01*
X125459529Y-110278441D01*
X125432074Y-110221039D01*
X125431741Y-110183569D01*
X125441219Y-110117653D01*
X125470245Y-110054097D01*
X125529023Y-110016324D01*
X125563957Y-110011301D01*
X130080704Y-110011301D01*
X130147743Y-110030986D01*
G37*
%TD.AperFunction*%
%TA.AperFunction,Conductor*%
G36*
X130477618Y-107405861D02*
G01*
X130498259Y-107422494D01*
X136056284Y-112980520D01*
X136056286Y-112980521D01*
X136056290Y-112980524D01*
X136193209Y-113059573D01*
X136193216Y-113059577D01*
X136345943Y-113100501D01*
X136345945Y-113100501D01*
X136511654Y-113100501D01*
X136511670Y-113100500D01*
X136750500Y-113100500D01*
X136817539Y-113120185D01*
X136863294Y-113172989D01*
X136874500Y-113224500D01*
X136874500Y-114163131D01*
X136854815Y-114230170D01*
X136802011Y-114275925D01*
X136737246Y-114286421D01*
X136728875Y-114285521D01*
X136672873Y-114279500D01*
X136672867Y-114279500D01*
X136150097Y-114279500D01*
X136083058Y-114259815D01*
X136062416Y-114243181D01*
X130868391Y-109049156D01*
X130868389Y-109049153D01*
X130749518Y-108930282D01*
X130749517Y-108930281D01*
X130662705Y-108880161D01*
X130662705Y-108880160D01*
X130662701Y-108880159D01*
X130612586Y-108851224D01*
X130459858Y-108810300D01*
X130301744Y-108810300D01*
X130294148Y-108810300D01*
X130294132Y-108810301D01*
X124408424Y-108810301D01*
X124341385Y-108790616D01*
X124320743Y-108773982D01*
X124198060Y-108651299D01*
X124198053Y-108651292D01*
X124186793Y-108642218D01*
X124146947Y-108584825D01*
X124144455Y-108515000D01*
X124176919Y-108457990D01*
X125018535Y-107616374D01*
X125079856Y-107582891D01*
X125092311Y-107580839D01*
X125179255Y-107571044D01*
X125349522Y-107511465D01*
X125502262Y-107415492D01*
X125502267Y-107415486D01*
X125505097Y-107413231D01*
X125507275Y-107412341D01*
X125508158Y-107411787D01*
X125508255Y-107411941D01*
X125569783Y-107386821D01*
X125582412Y-107386176D01*
X130410579Y-107386176D01*
X130477618Y-107405861D01*
G37*
%TD.AperFunction*%
%TA.AperFunction,Conductor*%
G36*
X127987682Y-105036485D02*
G01*
X127999263Y-105049850D01*
X128042454Y-105107546D01*
X128055886Y-105117601D01*
X128157664Y-105193793D01*
X128157671Y-105193797D01*
X128292517Y-105244091D01*
X128292516Y-105244091D01*
X128299444Y-105244835D01*
X128352127Y-105250500D01*
X129247872Y-105250499D01*
X129307483Y-105244091D01*
X129442331Y-105193796D01*
X129500819Y-105150011D01*
X129533920Y-105125233D01*
X129599385Y-105100816D01*
X129608231Y-105100500D01*
X133037403Y-105100500D01*
X133104442Y-105120185D01*
X133125084Y-105136819D01*
X134150681Y-106162416D01*
X134184166Y-106223739D01*
X134187000Y-106250097D01*
X134187000Y-106726863D01*
X134202453Y-106844253D01*
X134202456Y-106844262D01*
X134262591Y-106989442D01*
X134262964Y-106990341D01*
X134359218Y-107115782D01*
X134484659Y-107212036D01*
X134630738Y-107272544D01*
X134748139Y-107288000D01*
X135026860Y-107287999D01*
X135026861Y-107287999D01*
X135039094Y-107286388D01*
X135144262Y-107272544D01*
X135165045Y-107263934D01*
X135234514Y-107256465D01*
X135259953Y-107263934D01*
X135280738Y-107272544D01*
X135398139Y-107288000D01*
X135463000Y-107287999D01*
X135530038Y-107307683D01*
X135575794Y-107360486D01*
X135587000Y-107411999D01*
X135587000Y-108025500D01*
X135567315Y-108092539D01*
X135514511Y-108138294D01*
X135463000Y-108149500D01*
X134827129Y-108149500D01*
X134827123Y-108149501D01*
X134767516Y-108155908D01*
X134632671Y-108206202D01*
X134632664Y-108206206D01*
X134517455Y-108292452D01*
X134517452Y-108292455D01*
X134431206Y-108407664D01*
X134431202Y-108407671D01*
X134380908Y-108542517D01*
X134374501Y-108602116D01*
X134374500Y-108602135D01*
X134374500Y-109300902D01*
X134354815Y-109367941D01*
X134302011Y-109413696D01*
X134232853Y-109423640D01*
X134169297Y-109394615D01*
X134162819Y-109388583D01*
X131198266Y-106424031D01*
X131198264Y-106424028D01*
X131079393Y-106305157D01*
X131079385Y-106305151D01*
X130977612Y-106246393D01*
X130977610Y-106246392D01*
X130942466Y-106226101D01*
X130942465Y-106226100D01*
X130929939Y-106222743D01*
X130789733Y-106185175D01*
X130631619Y-106185175D01*
X130624023Y-106185175D01*
X130624007Y-106185176D01*
X126463422Y-106185176D01*
X126396383Y-106165491D01*
X126350628Y-106112687D01*
X126340684Y-106043529D01*
X126369709Y-105979973D01*
X126375741Y-105973495D01*
X126480520Y-105868716D01*
X126480520Y-105868714D01*
X126490724Y-105858511D01*
X126490727Y-105858506D01*
X127062417Y-105286818D01*
X127123740Y-105253333D01*
X127150098Y-105250499D01*
X127447871Y-105250499D01*
X127447872Y-105250499D01*
X127507483Y-105244091D01*
X127642331Y-105193796D01*
X127757546Y-105107546D01*
X127800734Y-105049854D01*
X127856667Y-105007984D01*
X127926359Y-105003000D01*
X127987682Y-105036485D01*
G37*
%TD.AperFunction*%
%TA.AperFunction,Conductor*%
G36*
X155390688Y-79723458D02*
G01*
X155392520Y-79725621D01*
X155635321Y-80019118D01*
X155638547Y-80023188D01*
X155965355Y-80453742D01*
X156190911Y-80750902D01*
X156205306Y-80769866D01*
X156208348Y-80774054D01*
X156545743Y-81259500D01*
X156743354Y-81543825D01*
X156746223Y-81548143D01*
X157225939Y-82304055D01*
X157248526Y-82339645D01*
X157251216Y-82344088D01*
X157719924Y-83155914D01*
X157722426Y-83160465D01*
X158156723Y-83991199D01*
X158159033Y-83995851D01*
X158558179Y-84844080D01*
X158560291Y-84848825D01*
X158923550Y-85712985D01*
X158925462Y-85717814D01*
X159252223Y-86596445D01*
X159253931Y-86601350D01*
X159543610Y-87492890D01*
X159545111Y-87497862D01*
X159797198Y-88400737D01*
X159798490Y-88405768D01*
X160012553Y-89318432D01*
X160013633Y-89323512D01*
X160189289Y-90244332D01*
X160190155Y-90249453D01*
X160327096Y-91176811D01*
X160327747Y-91181963D01*
X160425736Y-92114267D01*
X160426170Y-92119443D01*
X160485029Y-93054986D01*
X160485247Y-93060175D01*
X160504879Y-93997403D01*
X160504879Y-94002597D01*
X160485247Y-94939824D01*
X160485029Y-94945013D01*
X160426170Y-95880556D01*
X160425736Y-95885732D01*
X160327747Y-96818036D01*
X160327096Y-96823188D01*
X160190155Y-97750546D01*
X160189289Y-97755667D01*
X160013633Y-98676487D01*
X160012553Y-98681567D01*
X159798490Y-99594231D01*
X159797198Y-99599262D01*
X159545111Y-100502137D01*
X159543610Y-100507109D01*
X159253931Y-101398649D01*
X159252223Y-101403554D01*
X158925462Y-102282185D01*
X158923550Y-102287014D01*
X158560291Y-103151174D01*
X158558179Y-103155919D01*
X158159033Y-104004148D01*
X158156723Y-104008800D01*
X157722426Y-104839534D01*
X157719924Y-104844085D01*
X157251216Y-105655911D01*
X157248526Y-105660354D01*
X156746228Y-106451849D01*
X156743354Y-106456174D01*
X156208359Y-107225931D01*
X156205306Y-107230133D01*
X155638547Y-107976811D01*
X155635321Y-107980882D01*
X155037769Y-108703198D01*
X155034375Y-108707129D01*
X154984434Y-108762594D01*
X154924947Y-108799243D01*
X154855090Y-108797912D01*
X154797042Y-108759026D01*
X154769232Y-108694929D01*
X154779491Y-108628109D01*
X154805730Y-108570655D01*
X154805732Y-108570648D01*
X154826192Y-108428335D01*
X154805732Y-108286025D01*
X154805731Y-108286019D01*
X154779028Y-108227549D01*
X154769084Y-108158391D01*
X154786330Y-108110865D01*
X154788433Y-108107459D01*
X154848156Y-107976686D01*
X154848158Y-107976678D01*
X154868618Y-107834365D01*
X154848158Y-107692051D01*
X154848156Y-107692043D01*
X154788434Y-107561270D01*
X154788429Y-107561263D01*
X154750852Y-107514632D01*
X154745315Y-107509095D01*
X154745314Y-107509095D01*
X153790013Y-108464396D01*
X153728690Y-108497881D01*
X153658998Y-108492897D01*
X153614651Y-108464396D01*
X153436461Y-108286206D01*
X153402976Y-108224883D01*
X153407960Y-108155191D01*
X153436461Y-108110844D01*
X153507879Y-108039426D01*
X153507879Y-107998863D01*
X153527564Y-107931824D01*
X153544198Y-107911182D01*
X154345800Y-107109580D01*
X154294301Y-107058081D01*
X154247670Y-107020504D01*
X154247663Y-107020499D01*
X154116890Y-106960777D01*
X154116882Y-106960775D01*
X153974569Y-106940315D01*
X153832255Y-106960775D01*
X153832247Y-106960777D01*
X153701474Y-107020499D01*
X153701467Y-107020504D01*
X153652249Y-107060167D01*
X153651280Y-107058964D01*
X153593688Y-107086416D01*
X153556384Y-107086722D01*
X153490468Y-107077245D01*
X153426913Y-107048220D01*
X153389138Y-106989442D01*
X153384115Y-106954507D01*
X153384115Y-104316481D01*
X153403800Y-104249442D01*
X153420429Y-104228805D01*
X154453790Y-103195443D01*
X154515111Y-103161960D01*
X154584803Y-103166944D01*
X154640736Y-103208816D01*
X154665153Y-103274280D01*
X154663943Y-103302523D01*
X154649500Y-103393713D01*
X154649500Y-103393718D01*
X154649500Y-103606286D01*
X154682110Y-103812181D01*
X154682754Y-103816243D01*
X154747214Y-104014631D01*
X154748444Y-104018414D01*
X154844951Y-104207820D01*
X154969890Y-104379786D01*
X155120213Y-104530109D01*
X155292179Y-104655048D01*
X155292181Y-104655049D01*
X155292184Y-104655051D01*
X155481588Y-104751557D01*
X155683757Y-104817246D01*
X155893713Y-104850500D01*
X155893714Y-104850500D01*
X156106286Y-104850500D01*
X156106287Y-104850500D01*
X156316243Y-104817246D01*
X156518412Y-104751557D01*
X156707816Y-104655051D01*
X156755029Y-104620749D01*
X156879786Y-104530109D01*
X156879788Y-104530106D01*
X156879792Y-104530104D01*
X157030104Y-104379792D01*
X157030106Y-104379788D01*
X157030109Y-104379786D01*
X157155048Y-104207820D01*
X157155047Y-104207820D01*
X157155051Y-104207816D01*
X157251557Y-104018412D01*
X157317246Y-103816243D01*
X157350500Y-103606287D01*
X157350500Y-103393713D01*
X157317246Y-103183757D01*
X157251557Y-102981588D01*
X157155051Y-102792184D01*
X157155049Y-102792181D01*
X157155048Y-102792179D01*
X157030109Y-102620213D01*
X156879786Y-102469890D01*
X156707820Y-102344951D01*
X156518414Y-102248444D01*
X156518413Y-102248443D01*
X156518412Y-102248443D01*
X156316243Y-102182754D01*
X156316241Y-102182753D01*
X156316240Y-102182753D01*
X156154221Y-102157092D01*
X156106287Y-102149500D01*
X155893713Y-102149500D01*
X155851006Y-102156264D01*
X155802523Y-102163943D01*
X155733229Y-102154988D01*
X155679777Y-102109992D01*
X155659138Y-102043240D01*
X155677863Y-101975927D01*
X155695440Y-101953793D01*
X159308506Y-98340728D01*
X159308511Y-98340724D01*
X159318714Y-98330520D01*
X159318716Y-98330520D01*
X159430520Y-98218716D01*
X159503091Y-98093019D01*
X159509577Y-98081785D01*
X159550500Y-97929058D01*
X159550500Y-97770943D01*
X159550500Y-96380955D01*
X159570185Y-96313916D01*
X159577495Y-96304844D01*
X159577231Y-96304646D01*
X159593173Y-96283350D01*
X159668796Y-96182331D01*
X159713941Y-96061290D01*
X159721802Y-96040215D01*
X159723108Y-96040702D01*
X159753547Y-95987237D01*
X159796326Y-95960279D01*
X159867326Y-95933798D01*
X159867326Y-95933797D01*
X159867331Y-95933796D01*
X159982546Y-95847546D01*
X160068796Y-95732331D01*
X160119091Y-95597483D01*
X160125500Y-95537873D01*
X160125499Y-94892128D01*
X160119091Y-94832517D01*
X160082096Y-94733330D01*
X160077113Y-94663642D01*
X160082092Y-94646680D01*
X160119091Y-94547483D01*
X160125500Y-94487873D01*
X160125499Y-93692128D01*
X160119091Y-93632517D01*
X160091421Y-93558332D01*
X160086438Y-93488642D01*
X160091420Y-93471672D01*
X160119091Y-93397483D01*
X160125500Y-93337873D01*
X160125499Y-92792128D01*
X160119091Y-92732517D01*
X160107585Y-92701669D01*
X160081831Y-92632618D01*
X160076847Y-92562927D01*
X160081831Y-92545951D01*
X160118597Y-92447376D01*
X160118598Y-92447372D01*
X160124999Y-92387844D01*
X160125000Y-92387827D01*
X160125000Y-92315000D01*
X158899000Y-92315000D01*
X158831961Y-92295315D01*
X158786206Y-92242511D01*
X158775000Y-92191000D01*
X158775000Y-92090000D01*
X158761819Y-92076819D01*
X158728334Y-92015496D01*
X158725500Y-91989138D01*
X158725500Y-90840000D01*
X159210000Y-90840000D01*
X159210000Y-91815000D01*
X160125000Y-91815000D01*
X160125000Y-91742172D01*
X160124999Y-91742155D01*
X160118598Y-91682627D01*
X160118596Y-91682620D01*
X160068354Y-91547913D01*
X160068350Y-91547906D01*
X159982190Y-91432812D01*
X159982187Y-91432809D01*
X159867091Y-91346648D01*
X159806859Y-91324182D01*
X159750926Y-91282311D01*
X159729516Y-91236509D01*
X159728598Y-91232624D01*
X159678354Y-91097913D01*
X159678350Y-91097906D01*
X159592190Y-90982812D01*
X159592187Y-90982809D01*
X159477093Y-90896649D01*
X159477086Y-90896645D01*
X159342379Y-90846403D01*
X159342372Y-90846401D01*
X159282844Y-90840000D01*
X159210000Y-90840000D01*
X158725500Y-90840000D01*
X158725500Y-90314060D01*
X158725501Y-90314047D01*
X158725501Y-90145945D01*
X158725501Y-90145943D01*
X158684577Y-89993215D01*
X158644422Y-89923665D01*
X158605520Y-89856284D01*
X158493716Y-89744480D01*
X158493715Y-89744479D01*
X158489385Y-89740149D01*
X158489374Y-89740139D01*
X154803796Y-86054561D01*
X154770311Y-85993238D01*
X154767477Y-85966880D01*
X154767477Y-85476735D01*
X154787162Y-85409696D01*
X154839966Y-85363941D01*
X154909124Y-85353997D01*
X154972680Y-85383022D01*
X154979158Y-85389054D01*
X155120213Y-85530109D01*
X155292179Y-85655048D01*
X155292181Y-85655049D01*
X155292184Y-85655051D01*
X155481588Y-85751557D01*
X155683757Y-85817246D01*
X155893713Y-85850500D01*
X155893714Y-85850500D01*
X156106286Y-85850500D01*
X156106287Y-85850500D01*
X156316243Y-85817246D01*
X156518412Y-85751557D01*
X156707816Y-85655051D01*
X156752118Y-85622864D01*
X156879786Y-85530109D01*
X156879788Y-85530106D01*
X156879792Y-85530104D01*
X157030104Y-85379792D01*
X157030106Y-85379788D01*
X157030109Y-85379786D01*
X157155048Y-85207820D01*
X157155047Y-85207820D01*
X157155051Y-85207816D01*
X157251557Y-85018412D01*
X157317246Y-84816243D01*
X157350500Y-84606287D01*
X157350500Y-84393713D01*
X157317246Y-84183757D01*
X157251557Y-83981588D01*
X157155051Y-83792184D01*
X157155049Y-83792181D01*
X157155048Y-83792179D01*
X157030109Y-83620213D01*
X156879786Y-83469890D01*
X156707820Y-83344951D01*
X156518414Y-83248444D01*
X156518413Y-83248443D01*
X156518412Y-83248443D01*
X156316243Y-83182754D01*
X156316241Y-83182753D01*
X156316240Y-83182753D01*
X156146783Y-83155914D01*
X156106287Y-83149500D01*
X155893713Y-83149500D01*
X155853217Y-83155914D01*
X155683760Y-83182753D01*
X155481585Y-83248444D01*
X155292179Y-83344951D01*
X155120213Y-83469890D01*
X155120209Y-83469894D01*
X154979158Y-83610946D01*
X154917835Y-83644431D01*
X154848143Y-83639447D01*
X154792210Y-83597575D01*
X154767793Y-83532111D01*
X154767477Y-83523265D01*
X154767477Y-81017968D01*
X154787162Y-80950929D01*
X154803796Y-80930287D01*
X154908871Y-80825212D01*
X155102742Y-80631341D01*
X155140362Y-80584658D01*
X155200150Y-80453742D01*
X155220631Y-80311285D01*
X155200150Y-80168828D01*
X155180047Y-80124809D01*
X155137140Y-80030856D01*
X155138405Y-80030278D01*
X155122126Y-79970933D01*
X155133310Y-79921639D01*
X155164794Y-79852702D01*
X155174238Y-79787014D01*
X155203262Y-79723459D01*
X155262040Y-79685684D01*
X155331910Y-79685684D01*
X155390688Y-79723458D01*
G37*
%TD.AperFunction*%
%TA.AperFunction,Conductor*%
G36*
X121681469Y-79787101D02*
G01*
X121725817Y-79815602D01*
X121904009Y-79993794D01*
X121937494Y-80055117D01*
X121932510Y-80124809D01*
X121904009Y-80169156D01*
X121832591Y-80240574D01*
X121832591Y-80281135D01*
X121812906Y-80348174D01*
X121796272Y-80368816D01*
X120994669Y-81170419D01*
X121046168Y-81221918D01*
X121092799Y-81259495D01*
X121092806Y-81259500D01*
X121223579Y-81319222D01*
X121223587Y-81319224D01*
X121365901Y-81339684D01*
X121508214Y-81319224D01*
X121508222Y-81319222D01*
X121638995Y-81259500D01*
X121639002Y-81259495D01*
X121688221Y-81219833D01*
X121689236Y-81221093D01*
X121746468Y-81193634D01*
X121784084Y-81193277D01*
X121850001Y-81202754D01*
X121913557Y-81231779D01*
X121951332Y-81290556D01*
X121956355Y-81325492D01*
X121956355Y-89143047D01*
X121936670Y-89210086D01*
X121920036Y-89230728D01*
X119372584Y-91778181D01*
X119311261Y-91811666D01*
X119284903Y-91814500D01*
X118075954Y-91814500D01*
X118008915Y-91794815D01*
X117999841Y-91787503D01*
X117999644Y-91787768D01*
X117992546Y-91782454D01*
X117935186Y-91739514D01*
X117893317Y-91683581D01*
X117886427Y-91645395D01*
X117885900Y-91645423D01*
X117885854Y-91645429D01*
X117885853Y-91645426D01*
X117885676Y-91645436D01*
X117885499Y-91642141D01*
X117885499Y-91642128D01*
X117879820Y-91589298D01*
X117879091Y-91582516D01*
X117828797Y-91447671D01*
X117828793Y-91447664D01*
X117742547Y-91332455D01*
X117742544Y-91332452D01*
X117627335Y-91246206D01*
X117627328Y-91246202D01*
X117492486Y-91195910D01*
X117492485Y-91195909D01*
X117492483Y-91195909D01*
X117432873Y-91189500D01*
X117432863Y-91189500D01*
X116787129Y-91189500D01*
X116787123Y-91189501D01*
X116727516Y-91195908D01*
X116592671Y-91246202D01*
X116592664Y-91246206D01*
X116477455Y-91332452D01*
X116477452Y-91332455D01*
X116391206Y-91447664D01*
X116391202Y-91447671D01*
X116338198Y-91589785D01*
X116336894Y-91589298D01*
X116306437Y-91642776D01*
X116263675Y-91669720D01*
X116192669Y-91696203D01*
X116192664Y-91696206D01*
X116077455Y-91782452D01*
X116077452Y-91782455D01*
X115991206Y-91897664D01*
X115991202Y-91897671D01*
X115940910Y-92032513D01*
X115940909Y-92032517D01*
X115934500Y-92092127D01*
X115934500Y-92092134D01*
X115934500Y-92092135D01*
X115934500Y-92737870D01*
X115934501Y-92737876D01*
X115940909Y-92797484D01*
X115977901Y-92896668D01*
X115982885Y-92966360D01*
X115977901Y-92983332D01*
X115940909Y-93082514D01*
X115940908Y-93082516D01*
X115934501Y-93142116D01*
X115934500Y-93142135D01*
X115934500Y-93937870D01*
X115934501Y-93937876D01*
X115940908Y-93997483D01*
X115968577Y-94071667D01*
X115973561Y-94141358D01*
X115968577Y-94158331D01*
X115940910Y-94232511D01*
X115940909Y-94232515D01*
X115940909Y-94232517D01*
X115934500Y-94292127D01*
X115934500Y-94292134D01*
X115934500Y-94292135D01*
X115934500Y-94837870D01*
X115934501Y-94837876D01*
X115940908Y-94897483D01*
X115978168Y-94997381D01*
X115983152Y-95067073D01*
X115978168Y-95084046D01*
X115941403Y-95182617D01*
X115941401Y-95182627D01*
X115935000Y-95242155D01*
X115935000Y-95315000D01*
X116794825Y-95315000D01*
X116834505Y-95293333D01*
X116860858Y-95290499D01*
X117226000Y-95290499D01*
X117293039Y-95310184D01*
X117338794Y-95362988D01*
X117350000Y-95414499D01*
X117350000Y-96790000D01*
X117422828Y-96790000D01*
X117422844Y-96789999D01*
X117482372Y-96783598D01*
X117482379Y-96783596D01*
X117617086Y-96733354D01*
X117617093Y-96733350D01*
X117732187Y-96647190D01*
X117732190Y-96647187D01*
X117818350Y-96532093D01*
X117818354Y-96532086D01*
X117868596Y-96397379D01*
X117868598Y-96397372D01*
X117875356Y-96334525D01*
X117876960Y-96334697D01*
X117898026Y-96274801D01*
X117924363Y-96247963D01*
X117992190Y-96197187D01*
X118035191Y-96139745D01*
X118091124Y-96097873D01*
X118160816Y-96092889D01*
X118222139Y-96126374D01*
X121349668Y-99253903D01*
X121383153Y-99315226D01*
X121385987Y-99341584D01*
X121385987Y-102729366D01*
X121366302Y-102796405D01*
X121313498Y-102842160D01*
X121244340Y-102852104D01*
X121180784Y-102823079D01*
X121157923Y-102796118D01*
X121157915Y-102796125D01*
X121157833Y-102796013D01*
X121156259Y-102794156D01*
X121155044Y-102792173D01*
X121030109Y-102620213D01*
X120879786Y-102469890D01*
X120707820Y-102344951D01*
X120518414Y-102248444D01*
X120518413Y-102248443D01*
X120518412Y-102248443D01*
X120316243Y-102182754D01*
X120316241Y-102182753D01*
X120316240Y-102182753D01*
X120154221Y-102157092D01*
X120106287Y-102149500D01*
X119893713Y-102149500D01*
X119845779Y-102157092D01*
X119683760Y-102182753D01*
X119481585Y-102248444D01*
X119292179Y-102344951D01*
X119120213Y-102469890D01*
X118969890Y-102620213D01*
X118844951Y-102792179D01*
X118748444Y-102981585D01*
X118682753Y-103183760D01*
X118649500Y-103393713D01*
X118649500Y-103606286D01*
X118682110Y-103812181D01*
X118682754Y-103816243D01*
X118747214Y-104014631D01*
X118748444Y-104018414D01*
X118844951Y-104207820D01*
X118969890Y-104379786D01*
X119120213Y-104530109D01*
X119292179Y-104655048D01*
X119292181Y-104655049D01*
X119292184Y-104655051D01*
X119481588Y-104751557D01*
X119683757Y-104817246D01*
X119893713Y-104850500D01*
X119893714Y-104850500D01*
X120106286Y-104850500D01*
X120106287Y-104850500D01*
X120316243Y-104817246D01*
X120518412Y-104751557D01*
X120707816Y-104655051D01*
X120755029Y-104620749D01*
X120879786Y-104530109D01*
X120879788Y-104530106D01*
X120879792Y-104530104D01*
X121030104Y-104379792D01*
X121030106Y-104379788D01*
X121030109Y-104379786D01*
X121124808Y-104249442D01*
X121155051Y-104207816D01*
X121155055Y-104207806D01*
X121156255Y-104205851D01*
X121156909Y-104205258D01*
X121157915Y-104203875D01*
X121158205Y-104204086D01*
X121208063Y-104158972D01*
X121276992Y-104147544D01*
X121341157Y-104175196D01*
X121380186Y-104233149D01*
X121385987Y-104270633D01*
X121385987Y-107024217D01*
X121366302Y-107091256D01*
X121349668Y-107111898D01*
X121050729Y-107410837D01*
X121050723Y-107410843D01*
X121050722Y-107410845D01*
X121048799Y-107413231D01*
X121013101Y-107457529D01*
X121013099Y-107457531D01*
X120953314Y-107588441D01*
X120953313Y-107588445D01*
X120932833Y-107730901D01*
X120953313Y-107873356D01*
X120953314Y-107873360D01*
X121016324Y-108011330D01*
X121015058Y-108011907D01*
X121031337Y-108071257D01*
X121020151Y-108120549D01*
X120988670Y-108189482D01*
X120988670Y-108189483D01*
X120988670Y-108189484D01*
X120969847Y-108320407D01*
X120968188Y-108331943D01*
X120971305Y-108353623D01*
X120961361Y-108422781D01*
X120915606Y-108475585D01*
X120848566Y-108495269D01*
X120781527Y-108475584D01*
X120753023Y-108450310D01*
X120364678Y-107980882D01*
X120361452Y-107976811D01*
X120145308Y-107692051D01*
X119794683Y-107230120D01*
X119791657Y-107225954D01*
X119256641Y-106456168D01*
X119253783Y-106451867D01*
X118751456Y-105660326D01*
X118748783Y-105655911D01*
X118644329Y-105474992D01*
X118280074Y-104844083D01*
X118277573Y-104839534D01*
X118271257Y-104827453D01*
X117843271Y-104008790D01*
X117840966Y-104004148D01*
X117836395Y-103994435D01*
X117441816Y-103155911D01*
X117439708Y-103151174D01*
X117396848Y-103049215D01*
X117174169Y-102519481D01*
X117076449Y-102287014D01*
X117074537Y-102282185D01*
X116902930Y-101820750D01*
X116747769Y-101403534D01*
X116746068Y-101398649D01*
X116456381Y-100507083D01*
X116454895Y-100502163D01*
X116202793Y-99599233D01*
X116201509Y-99594231D01*
X116166773Y-99446134D01*
X115987446Y-98681567D01*
X115986366Y-98676487D01*
X115960364Y-98540182D01*
X115859722Y-98012596D01*
X115810710Y-97755667D01*
X115809844Y-97750546D01*
X115776541Y-97525019D01*
X115672898Y-96823150D01*
X115672256Y-96818075D01*
X115574259Y-95885689D01*
X115573832Y-95880599D01*
X115569705Y-95815000D01*
X115935000Y-95815000D01*
X115935000Y-95887844D01*
X115941401Y-95947372D01*
X115941403Y-95947379D01*
X115991645Y-96082086D01*
X115991649Y-96082093D01*
X116077809Y-96197187D01*
X116077812Y-96197190D01*
X116192906Y-96283350D01*
X116192915Y-96283355D01*
X116253137Y-96305816D01*
X116309071Y-96347686D01*
X116330482Y-96393482D01*
X116331402Y-96397378D01*
X116381645Y-96532086D01*
X116381649Y-96532093D01*
X116467809Y-96647187D01*
X116467812Y-96647190D01*
X116582906Y-96733350D01*
X116582913Y-96733354D01*
X116717620Y-96783596D01*
X116717627Y-96783598D01*
X116777155Y-96789999D01*
X116777172Y-96790000D01*
X116850000Y-96790000D01*
X116850000Y-95815000D01*
X115935000Y-95815000D01*
X115569705Y-95815000D01*
X115514968Y-94944973D01*
X115514753Y-94939864D01*
X115495120Y-94002577D01*
X115495120Y-93997403D01*
X115514753Y-93060133D01*
X115514968Y-93055028D01*
X115573832Y-92119396D01*
X115574259Y-92114314D01*
X115672257Y-91181918D01*
X115672897Y-91176855D01*
X115809844Y-90249450D01*
X115810710Y-90244332D01*
X115816400Y-90214505D01*
X115986369Y-89323495D01*
X115987446Y-89318432D01*
X116201516Y-88405739D01*
X116202790Y-88400778D01*
X116454899Y-87497823D01*
X116456377Y-87492929D01*
X116746079Y-86601315D01*
X116747763Y-86596479D01*
X117074539Y-85717806D01*
X117076449Y-85712985D01*
X117100802Y-85655051D01*
X117439718Y-84848800D01*
X117441808Y-84844105D01*
X117553717Y-84606287D01*
X118649500Y-84606287D01*
X118659534Y-84669644D01*
X118682753Y-84816239D01*
X118748444Y-85018414D01*
X118844951Y-85207820D01*
X118969890Y-85379786D01*
X119120213Y-85530109D01*
X119292179Y-85655048D01*
X119292181Y-85655049D01*
X119292184Y-85655051D01*
X119481588Y-85751557D01*
X119683757Y-85817246D01*
X119893713Y-85850500D01*
X119893714Y-85850500D01*
X120106286Y-85850500D01*
X120106287Y-85850500D01*
X120316243Y-85817246D01*
X120518412Y-85751557D01*
X120707816Y-85655051D01*
X120752118Y-85622864D01*
X120879786Y-85530109D01*
X120879788Y-85530106D01*
X120879792Y-85530104D01*
X121030104Y-85379792D01*
X121030106Y-85379788D01*
X121030109Y-85379786D01*
X121155048Y-85207820D01*
X121155047Y-85207820D01*
X121155051Y-85207816D01*
X121251557Y-85018412D01*
X121317246Y-84816243D01*
X121350500Y-84606287D01*
X121350500Y-84393713D01*
X121317246Y-84183757D01*
X121251557Y-83981588D01*
X121155051Y-83792184D01*
X121155049Y-83792181D01*
X121155048Y-83792179D01*
X121030109Y-83620213D01*
X120879786Y-83469890D01*
X120707820Y-83344951D01*
X120518414Y-83248444D01*
X120518413Y-83248443D01*
X120518412Y-83248443D01*
X120316243Y-83182754D01*
X120316241Y-83182753D01*
X120316240Y-83182753D01*
X120146783Y-83155914D01*
X120106287Y-83149500D01*
X119893713Y-83149500D01*
X119853217Y-83155914D01*
X119683760Y-83182753D01*
X119481585Y-83248444D01*
X119292179Y-83344951D01*
X119120213Y-83469890D01*
X118969890Y-83620213D01*
X118844951Y-83792179D01*
X118748444Y-83981585D01*
X118682753Y-84183760D01*
X118649500Y-84393713D01*
X118649500Y-84606287D01*
X117553717Y-84606287D01*
X117840980Y-83995821D01*
X117843261Y-83991228D01*
X118277585Y-83160443D01*
X118280062Y-83155936D01*
X118748800Y-82344059D01*
X118751442Y-82339694D01*
X119253797Y-81548110D01*
X119256626Y-81543853D01*
X119791673Y-80774022D01*
X119794666Y-80769902D01*
X120335005Y-80058030D01*
X120391216Y-80016534D01*
X120460939Y-80012014D01*
X120522038Y-80045907D01*
X120555113Y-80107452D01*
X120549664Y-80177109D01*
X120546569Y-80184513D01*
X120492312Y-80303319D01*
X120492311Y-80303321D01*
X120471851Y-80445635D01*
X120492311Y-80587948D01*
X120492313Y-80587956D01*
X120552035Y-80718729D01*
X120552040Y-80718736D01*
X120589617Y-80765367D01*
X120595153Y-80770903D01*
X121550455Y-79815602D01*
X121611778Y-79782117D01*
X121681469Y-79787101D01*
G37*
%TD.AperFunction*%
%TA.AperFunction,Conductor*%
G36*
X151879266Y-94237186D02*
G01*
X151910860Y-94260096D01*
X152221284Y-94570520D01*
X152221286Y-94570521D01*
X152221290Y-94570524D01*
X152353174Y-94646666D01*
X152358216Y-94649577D01*
X152510943Y-94690501D01*
X152510945Y-94690501D01*
X152676654Y-94690501D01*
X152676670Y-94690500D01*
X157808132Y-94690500D01*
X157875171Y-94710185D01*
X157920926Y-94762989D01*
X157931421Y-94827756D01*
X157924500Y-94892119D01*
X157924500Y-95537870D01*
X157924501Y-95537876D01*
X157930908Y-95597483D01*
X157981202Y-95732328D01*
X157981206Y-95732335D01*
X158061944Y-95840186D01*
X158067454Y-95847546D01*
X158067457Y-95847548D01*
X158124812Y-95890485D01*
X158166682Y-95946419D01*
X158173584Y-95984603D01*
X158174099Y-95984576D01*
X158174146Y-95984571D01*
X158174146Y-95984573D01*
X158174324Y-95984564D01*
X158174501Y-95987877D01*
X158180908Y-96047483D01*
X158231202Y-96182328D01*
X158231203Y-96182329D01*
X158231204Y-96182331D01*
X158304181Y-96279815D01*
X158322769Y-96304646D01*
X158320370Y-96306441D01*
X158346666Y-96354597D01*
X158349500Y-96380955D01*
X158349500Y-97549902D01*
X158329815Y-97616941D01*
X158313181Y-97637583D01*
X152303096Y-103647667D01*
X152303090Y-103647675D01*
X152261635Y-103719479D01*
X152261635Y-103719481D01*
X152224038Y-103784599D01*
X152215560Y-103816239D01*
X152183114Y-103937328D01*
X152183114Y-103937330D01*
X152183114Y-104105431D01*
X152183115Y-104105444D01*
X152183115Y-108110038D01*
X152163430Y-108177077D01*
X152146797Y-108197719D01*
X152024109Y-108320407D01*
X152015034Y-108331669D01*
X151957641Y-108371516D01*
X151887816Y-108374009D01*
X151830803Y-108341542D01*
X150748620Y-107259359D01*
X150715135Y-107198036D01*
X150720119Y-107128344D01*
X150761991Y-107072411D01*
X150767176Y-107068882D01*
X150768654Y-107067713D01*
X150768653Y-107067713D01*
X150768656Y-107067712D01*
X150892712Y-106943656D01*
X150894752Y-106940347D01*
X150896745Y-106938555D01*
X150897193Y-106937989D01*
X150897289Y-106938065D01*
X150946694Y-106893623D01*
X151015656Y-106882395D01*
X151079740Y-106910234D01*
X151105829Y-106940339D01*
X151107681Y-106943341D01*
X151107683Y-106943344D01*
X151231654Y-107067315D01*
X151380875Y-107159356D01*
X151380880Y-107159358D01*
X151547302Y-107214505D01*
X151547309Y-107214506D01*
X151650019Y-107224999D01*
X151699999Y-107224998D01*
X151700000Y-107224998D01*
X151700000Y-104775000D01*
X151699999Y-104774999D01*
X151650029Y-104775000D01*
X151650011Y-104775001D01*
X151547302Y-104785494D01*
X151380880Y-104840641D01*
X151380875Y-104840643D01*
X151231654Y-104932684D01*
X151107683Y-105056655D01*
X151107679Y-105056660D01*
X151105826Y-105059665D01*
X151104018Y-105061290D01*
X151103202Y-105062323D01*
X151103025Y-105062183D01*
X151053874Y-105106385D01*
X150984911Y-105117601D01*
X150920831Y-105089752D01*
X150894753Y-105059653D01*
X150894737Y-105059628D01*
X150892712Y-105056344D01*
X150768656Y-104932288D01*
X150768655Y-104932287D01*
X150709402Y-104895739D01*
X150662678Y-104843791D01*
X150650500Y-104790201D01*
X150650500Y-94750096D01*
X150670185Y-94683057D01*
X150686815Y-94662419D01*
X151089138Y-94260095D01*
X151150459Y-94226612D01*
X151189421Y-94224420D01*
X151199991Y-94225500D01*
X151800008Y-94225499D01*
X151810574Y-94224419D01*
X151879266Y-94237186D01*
G37*
%TD.AperFunction*%
%TA.AperFunction,Conductor*%
G36*
X146187682Y-94036485D02*
G01*
X146199263Y-94049850D01*
X146242454Y-94107546D01*
X146259338Y-94120185D01*
X146357664Y-94193793D01*
X146357671Y-94193797D01*
X146390068Y-94205880D01*
X146492517Y-94244091D01*
X146552127Y-94250500D01*
X146849902Y-94250499D01*
X146916941Y-94270183D01*
X146937583Y-94286818D01*
X147465139Y-94814374D01*
X147465149Y-94814385D01*
X147469479Y-94818715D01*
X147469480Y-94818716D01*
X147581284Y-94930520D01*
X147585032Y-94932684D01*
X147631445Y-94959480D01*
X147631444Y-94959480D01*
X147631447Y-94959481D01*
X147718209Y-95009574D01*
X147718210Y-95009575D01*
X147718212Y-95009575D01*
X147718215Y-95009577D01*
X147870943Y-95050501D01*
X147870946Y-95050501D01*
X148036653Y-95050501D01*
X148036669Y-95050500D01*
X149325500Y-95050500D01*
X149392539Y-95070185D01*
X149438294Y-95122989D01*
X149449500Y-95174500D01*
X149449500Y-104790201D01*
X149429815Y-104857240D01*
X149390598Y-104895739D01*
X149331344Y-104932287D01*
X149207289Y-105056342D01*
X149115187Y-105205663D01*
X149115185Y-105205668D01*
X149112215Y-105214631D01*
X149060001Y-105372203D01*
X149060001Y-105372204D01*
X149060000Y-105372204D01*
X149049500Y-105474983D01*
X149049500Y-106525001D01*
X149049501Y-106525019D01*
X149060000Y-106627796D01*
X149060001Y-106627799D01*
X149092828Y-106726863D01*
X149115186Y-106794334D01*
X149207288Y-106943656D01*
X149331344Y-107067712D01*
X149390596Y-107104258D01*
X149437321Y-107156204D01*
X149449500Y-107209797D01*
X149449500Y-107323304D01*
X149449499Y-107323322D01*
X149449499Y-107489028D01*
X149449498Y-107489028D01*
X149490424Y-107641763D01*
X149490425Y-107641764D01*
X149518687Y-107690714D01*
X149518688Y-107690715D01*
X149531843Y-107713500D01*
X149548316Y-107781400D01*
X149525464Y-107847427D01*
X149470542Y-107890618D01*
X149424456Y-107899500D01*
X140231641Y-107899500D01*
X140164602Y-107879815D01*
X140143960Y-107863181D01*
X139769563Y-107488784D01*
X139736078Y-107427461D01*
X139741062Y-107357769D01*
X139782934Y-107301836D01*
X139848398Y-107277419D01*
X139873425Y-107278163D01*
X139948139Y-107288000D01*
X140226860Y-107287999D01*
X140226861Y-107287999D01*
X140239094Y-107286388D01*
X140344262Y-107272544D01*
X140365045Y-107263934D01*
X140434514Y-107256465D01*
X140459953Y-107263934D01*
X140480738Y-107272544D01*
X140598139Y-107288000D01*
X140876860Y-107287999D01*
X140876863Y-107287999D01*
X140994253Y-107272546D01*
X140994257Y-107272544D01*
X140994262Y-107272544D01*
X141140341Y-107212036D01*
X141265782Y-107115782D01*
X141362036Y-106990341D01*
X141422544Y-106844262D01*
X141429132Y-106794216D01*
X141457398Y-106730322D01*
X141515722Y-106691850D01*
X141585587Y-106691018D01*
X141618043Y-106705409D01*
X141650476Y-106725788D01*
X141650478Y-106725789D01*
X141768655Y-106767141D01*
X141820745Y-106785368D01*
X141820750Y-106785369D01*
X141999996Y-106805565D01*
X142000000Y-106805565D01*
X142000004Y-106805565D01*
X142179249Y-106785369D01*
X142179252Y-106785368D01*
X142179255Y-106785368D01*
X142349522Y-106725789D01*
X142502262Y-106629816D01*
X142629816Y-106502262D01*
X142725789Y-106349522D01*
X142785368Y-106179255D01*
X142786919Y-106165491D01*
X142805565Y-106000003D01*
X142805565Y-105999996D01*
X142785369Y-105820750D01*
X142785368Y-105820745D01*
X142725789Y-105650478D01*
X142629816Y-105497738D01*
X142502262Y-105370184D01*
X142349523Y-105274211D01*
X142179254Y-105214631D01*
X142179249Y-105214630D01*
X142000004Y-105194435D01*
X141999996Y-105194435D01*
X141820750Y-105214630D01*
X141820745Y-105214631D01*
X141650474Y-105274212D01*
X141600024Y-105305912D01*
X141532788Y-105324912D01*
X141465952Y-105304544D01*
X141420739Y-105251276D01*
X141419492Y-105248371D01*
X141417719Y-105244091D01*
X141362036Y-105109659D01*
X141265782Y-104984218D01*
X141140341Y-104887964D01*
X141066753Y-104857483D01*
X140994262Y-104827456D01*
X140987655Y-104825686D01*
X140927994Y-104789321D01*
X140897465Y-104726474D01*
X140896528Y-104719794D01*
X140885369Y-104620749D01*
X140885368Y-104620745D01*
X140884268Y-104617602D01*
X140825789Y-104450478D01*
X140814359Y-104432288D01*
X140764319Y-104352649D01*
X140729816Y-104297738D01*
X140602262Y-104170184D01*
X140566231Y-104147544D01*
X140449523Y-104074211D01*
X140279254Y-104014631D01*
X140279249Y-104014630D01*
X140100004Y-103994435D01*
X140099996Y-103994435D01*
X139920750Y-104014630D01*
X139920742Y-104014632D01*
X139818246Y-104050497D01*
X139748467Y-104054058D01*
X139689611Y-104021136D01*
X138306829Y-102638355D01*
X138306827Y-102638352D01*
X138187956Y-102519481D01*
X138187948Y-102519475D01*
X138086175Y-102460717D01*
X138086173Y-102460716D01*
X138051029Y-102440425D01*
X138051028Y-102440424D01*
X138038502Y-102437067D01*
X137898296Y-102399499D01*
X137740182Y-102399499D01*
X137732586Y-102399499D01*
X137732570Y-102399500D01*
X135267552Y-102399500D01*
X135200513Y-102379815D01*
X135154758Y-102327011D01*
X135144814Y-102257853D01*
X135173839Y-102194297D01*
X135179871Y-102187819D01*
X135413901Y-101953789D01*
X135793952Y-101573737D01*
X135855273Y-101540254D01*
X135924964Y-101545238D01*
X135929083Y-101546859D01*
X135930736Y-101547543D01*
X135930738Y-101547544D01*
X136048139Y-101563000D01*
X136326860Y-101562999D01*
X136326861Y-101562999D01*
X136340518Y-101561201D01*
X136444262Y-101547544D01*
X136465700Y-101538663D01*
X136535168Y-101531194D01*
X136560606Y-101538663D01*
X136580865Y-101547054D01*
X136580877Y-101547058D01*
X136637498Y-101554511D01*
X136637500Y-101554510D01*
X136637500Y-101511999D01*
X136657185Y-101444960D01*
X136686012Y-101413625D01*
X136715782Y-101390782D01*
X136739125Y-101360360D01*
X136795551Y-101319158D01*
X136865297Y-101315003D01*
X136926218Y-101349214D01*
X136935868Y-101360351D01*
X136959218Y-101390782D01*
X136988985Y-101413623D01*
X137030188Y-101470048D01*
X137037500Y-101511999D01*
X137037500Y-101554510D01*
X137094131Y-101547055D01*
X137114387Y-101538665D01*
X137183856Y-101531193D01*
X137209297Y-101538663D01*
X137209302Y-101538665D01*
X137230738Y-101547544D01*
X137348139Y-101563000D01*
X137626860Y-101562999D01*
X137626861Y-101562999D01*
X137639094Y-101561388D01*
X137744262Y-101547544D01*
X137765045Y-101538934D01*
X137834514Y-101531465D01*
X137859953Y-101538934D01*
X137880738Y-101547544D01*
X137998139Y-101563000D01*
X138276860Y-101562999D01*
X138276861Y-101562999D01*
X138289094Y-101561388D01*
X138394262Y-101547544D01*
X138415045Y-101538934D01*
X138484514Y-101531465D01*
X138509953Y-101538934D01*
X138530738Y-101547544D01*
X138648139Y-101563000D01*
X138926860Y-101562999D01*
X138926861Y-101562999D01*
X138939094Y-101561388D01*
X139044262Y-101547544D01*
X139065045Y-101538934D01*
X139134514Y-101531465D01*
X139159953Y-101538934D01*
X139180738Y-101547544D01*
X139298139Y-101563000D01*
X139576860Y-101562999D01*
X139576861Y-101562999D01*
X139589094Y-101561388D01*
X139694262Y-101547544D01*
X139715045Y-101538934D01*
X139784514Y-101531465D01*
X139809953Y-101538934D01*
X139830738Y-101547544D01*
X139948139Y-101563000D01*
X140226860Y-101562999D01*
X140226861Y-101562999D01*
X140239094Y-101561388D01*
X140344262Y-101547544D01*
X140365045Y-101538934D01*
X140434514Y-101531465D01*
X140459953Y-101538934D01*
X140480738Y-101547544D01*
X140598139Y-101563000D01*
X140876860Y-101562999D01*
X140876863Y-101562999D01*
X140994253Y-101547546D01*
X140994257Y-101547544D01*
X140994262Y-101547544D01*
X141140341Y-101487036D01*
X141265782Y-101390782D01*
X141362036Y-101265341D01*
X141422544Y-101119262D01*
X141438000Y-101001861D01*
X141437999Y-99648140D01*
X141437999Y-99648139D01*
X141437999Y-99648136D01*
X141422546Y-99530746D01*
X141422544Y-99530741D01*
X141422544Y-99530738D01*
X141362036Y-99384659D01*
X141265782Y-99259218D01*
X141235971Y-99236343D01*
X141149013Y-99169617D01*
X141107811Y-99113189D01*
X141100500Y-99071242D01*
X141100500Y-98582412D01*
X141120185Y-98515373D01*
X141127555Y-98505097D01*
X141129810Y-98502267D01*
X141129816Y-98502262D01*
X141225789Y-98349522D01*
X141285368Y-98179255D01*
X141287558Y-98159818D01*
X141305565Y-98000003D01*
X141305565Y-97999996D01*
X141285369Y-97820750D01*
X141285368Y-97820745D01*
X141276051Y-97794119D01*
X141225789Y-97650478D01*
X141129816Y-97497738D01*
X141002262Y-97370184D01*
X140849523Y-97274211D01*
X140679254Y-97214631D01*
X140679249Y-97214630D01*
X140500004Y-97194435D01*
X140499996Y-97194435D01*
X140435089Y-97201748D01*
X140366267Y-97189693D01*
X140314888Y-97142344D01*
X140297264Y-97074734D01*
X140313816Y-97016532D01*
X140338139Y-96974404D01*
X140367077Y-96924285D01*
X140408001Y-96771557D01*
X140408001Y-96692378D01*
X140427686Y-96625339D01*
X140480490Y-96579584D01*
X140518748Y-96569088D01*
X140541983Y-96566591D01*
X140676831Y-96516296D01*
X140792046Y-96430046D01*
X140825627Y-96385188D01*
X140881561Y-96343318D01*
X140924893Y-96335500D01*
X140979802Y-96335500D01*
X140979818Y-96335501D01*
X140987414Y-96335501D01*
X141145525Y-96335501D01*
X141145528Y-96335501D01*
X141298256Y-96294577D01*
X141351680Y-96263732D01*
X141419576Y-96247259D01*
X141485604Y-96270110D01*
X141492154Y-96275651D01*
X141492295Y-96275475D01*
X141497737Y-96279815D01*
X141497738Y-96279816D01*
X141650478Y-96375789D01*
X141820745Y-96435368D01*
X141907669Y-96445161D01*
X141972080Y-96472226D01*
X141981465Y-96480700D01*
X142063181Y-96562416D01*
X142096666Y-96623739D01*
X142099500Y-96650097D01*
X142099500Y-97525001D01*
X142099501Y-97525019D01*
X142110000Y-97627796D01*
X142110001Y-97627799D01*
X142130485Y-97689615D01*
X142165186Y-97794334D01*
X142257288Y-97943656D01*
X142381344Y-98067712D01*
X142530666Y-98159814D01*
X142697203Y-98214999D01*
X142799991Y-98225500D01*
X143400008Y-98225499D01*
X143400016Y-98225498D01*
X143400019Y-98225498D01*
X143466400Y-98218717D01*
X143502797Y-98214999D01*
X143669334Y-98159814D01*
X143818656Y-98067712D01*
X143942712Y-97943656D01*
X143944752Y-97940347D01*
X143946745Y-97938555D01*
X143947193Y-97937989D01*
X143947289Y-97938065D01*
X143996694Y-97893623D01*
X144065656Y-97882395D01*
X144129740Y-97910234D01*
X144155829Y-97940339D01*
X144157681Y-97943341D01*
X144157683Y-97943344D01*
X144281654Y-98067315D01*
X144430875Y-98159356D01*
X144430880Y-98159358D01*
X144597302Y-98214505D01*
X144597309Y-98214506D01*
X144700019Y-98224999D01*
X144749999Y-98224998D01*
X144750000Y-98224998D01*
X144750000Y-97250000D01*
X145250000Y-97250000D01*
X145250000Y-98224999D01*
X145299972Y-98224999D01*
X145299986Y-98224998D01*
X145402697Y-98214505D01*
X145569119Y-98159358D01*
X145569124Y-98159356D01*
X145718345Y-98067315D01*
X145842315Y-97943345D01*
X145934356Y-97794124D01*
X145934358Y-97794119D01*
X145989505Y-97627697D01*
X145989506Y-97627690D01*
X145999999Y-97524986D01*
X146000000Y-97524973D01*
X146000000Y-97250000D01*
X145250000Y-97250000D01*
X144750000Y-97250000D01*
X144750000Y-95775000D01*
X145250000Y-95775000D01*
X145250000Y-96750000D01*
X145999999Y-96750000D01*
X145999999Y-96475028D01*
X145999998Y-96475013D01*
X145989505Y-96372302D01*
X145934358Y-96205880D01*
X145934356Y-96205875D01*
X145842315Y-96056654D01*
X145718345Y-95932684D01*
X145569124Y-95840643D01*
X145569119Y-95840641D01*
X145402697Y-95785494D01*
X145402690Y-95785493D01*
X145299986Y-95775000D01*
X145250000Y-95775000D01*
X144750000Y-95775000D01*
X144749999Y-95774999D01*
X144700029Y-95775000D01*
X144700011Y-95775001D01*
X144597302Y-95785494D01*
X144430880Y-95840641D01*
X144430875Y-95840643D01*
X144281654Y-95932684D01*
X144157683Y-96056655D01*
X144157679Y-96056660D01*
X144155826Y-96059665D01*
X144154018Y-96061290D01*
X144153202Y-96062323D01*
X144153025Y-96062183D01*
X144103874Y-96106385D01*
X144034911Y-96117601D01*
X143970831Y-96089752D01*
X143944753Y-96059653D01*
X143944737Y-96059628D01*
X143942712Y-96056344D01*
X143818656Y-95932288D01*
X143681267Y-95847546D01*
X143669336Y-95840187D01*
X143669331Y-95840185D01*
X143667862Y-95839698D01*
X143502797Y-95785001D01*
X143502795Y-95785000D01*
X143400016Y-95774500D01*
X143400009Y-95774500D01*
X143025097Y-95774500D01*
X142958058Y-95754815D01*
X142937416Y-95738181D01*
X142830700Y-95631465D01*
X142797215Y-95570142D01*
X142795163Y-95557686D01*
X142785368Y-95470745D01*
X142747662Y-95362988D01*
X142725788Y-95300474D01*
X142633479Y-95153567D01*
X142614478Y-95086331D01*
X142634845Y-95019496D01*
X142650786Y-94999919D01*
X143513887Y-94136819D01*
X143575210Y-94103334D01*
X143601568Y-94100500D01*
X144391769Y-94100500D01*
X144458808Y-94120185D01*
X144466080Y-94125233D01*
X144557668Y-94193795D01*
X144557671Y-94193797D01*
X144692517Y-94244091D01*
X144692516Y-94244091D01*
X144699444Y-94244835D01*
X144752127Y-94250500D01*
X145647872Y-94250499D01*
X145707483Y-94244091D01*
X145842331Y-94193796D01*
X145957546Y-94107546D01*
X146000734Y-94049854D01*
X146056667Y-94007984D01*
X146126359Y-94003000D01*
X146187682Y-94036485D01*
G37*
%TD.AperFunction*%
%TA.AperFunction,Conductor*%
G36*
X129184627Y-80395185D02*
G01*
X129194903Y-80402555D01*
X129197736Y-80404814D01*
X129197738Y-80404816D01*
X129311270Y-80476152D01*
X129348426Y-80499500D01*
X129350478Y-80500789D01*
X129510131Y-80556654D01*
X129520745Y-80560368D01*
X129520750Y-80560369D01*
X129699996Y-80580565D01*
X129700000Y-80580565D01*
X129700004Y-80580565D01*
X129879249Y-80560369D01*
X129879252Y-80560368D01*
X129879255Y-80560368D01*
X130049522Y-80500789D01*
X130202262Y-80404816D01*
X130202267Y-80404810D01*
X130205097Y-80402555D01*
X130207275Y-80401665D01*
X130208158Y-80401111D01*
X130208255Y-80401265D01*
X130269783Y-80376145D01*
X130282412Y-80375500D01*
X133075499Y-80375500D01*
X133142538Y-80395185D01*
X133188293Y-80447989D01*
X133199499Y-80499500D01*
X133199500Y-81775500D01*
X133179815Y-81842539D01*
X133127012Y-81888294D01*
X133075500Y-81899500D01*
X131720943Y-81899500D01*
X131568213Y-81940423D01*
X131525486Y-81965093D01*
X131525485Y-81965093D01*
X131431287Y-82019477D01*
X131431282Y-82019481D01*
X127619481Y-85831282D01*
X127619480Y-85831284D01*
X127580811Y-85898261D01*
X127540423Y-85968215D01*
X127499499Y-86120943D01*
X127499499Y-86120945D01*
X127499499Y-86289046D01*
X127499500Y-86289059D01*
X127499500Y-100078156D01*
X127479815Y-100145195D01*
X127427011Y-100190950D01*
X127361618Y-100201377D01*
X127321815Y-100196892D01*
X127300000Y-100194435D01*
X127299998Y-100194435D01*
X127299997Y-100194435D01*
X127299996Y-100194435D01*
X127120750Y-100214630D01*
X127120745Y-100214631D01*
X126950476Y-100274211D01*
X126797737Y-100370184D01*
X126670184Y-100497737D01*
X126574211Y-100650476D01*
X126514631Y-100820745D01*
X126514630Y-100820750D01*
X126494435Y-100999996D01*
X126494435Y-101000003D01*
X126514630Y-101179249D01*
X126514634Y-101179264D01*
X126526628Y-101213543D01*
X126530189Y-101283321D01*
X126495459Y-101343948D01*
X126452920Y-101370677D01*
X126357669Y-101406203D01*
X126357664Y-101406206D01*
X126242455Y-101492452D01*
X126242452Y-101492455D01*
X126156206Y-101607664D01*
X126156202Y-101607671D01*
X126105910Y-101742513D01*
X126105909Y-101742517D01*
X126099500Y-101802127D01*
X126099500Y-101802134D01*
X126099500Y-101802135D01*
X126099500Y-102397870D01*
X126099501Y-102397876D01*
X126105909Y-102457484D01*
X126114929Y-102481670D01*
X126119911Y-102551361D01*
X126114929Y-102568330D01*
X126105910Y-102592512D01*
X126105909Y-102592515D01*
X126105909Y-102592517D01*
X126099500Y-102652127D01*
X126099500Y-102652134D01*
X126099500Y-102652135D01*
X126099500Y-103147870D01*
X126099501Y-103147876D01*
X126105908Y-103207482D01*
X126124253Y-103256666D01*
X126129237Y-103326358D01*
X126124253Y-103343331D01*
X126105910Y-103392511D01*
X126105909Y-103392515D01*
X126105909Y-103392517D01*
X126099500Y-103452127D01*
X126099500Y-103452134D01*
X126099500Y-103452135D01*
X126099500Y-103947870D01*
X126099501Y-103947876D01*
X126105909Y-104007484D01*
X126114929Y-104031670D01*
X126119911Y-104101361D01*
X126114929Y-104118330D01*
X126105909Y-104142515D01*
X126105908Y-104142516D01*
X126099501Y-104202116D01*
X126099500Y-104202135D01*
X126099500Y-104499901D01*
X126079815Y-104566940D01*
X126063178Y-104587585D01*
X126049625Y-104601137D01*
X125988301Y-104634620D01*
X125918609Y-104629633D01*
X125862677Y-104587760D01*
X125856408Y-104578549D01*
X125842712Y-104556344D01*
X125718657Y-104432289D01*
X125718656Y-104432288D01*
X125596562Y-104356980D01*
X125569336Y-104340187D01*
X125569331Y-104340185D01*
X125526318Y-104325932D01*
X125402797Y-104285001D01*
X125402795Y-104285000D01*
X125300010Y-104274500D01*
X124699998Y-104274500D01*
X124699980Y-104274501D01*
X124597203Y-104285000D01*
X124597200Y-104285001D01*
X124430668Y-104340185D01*
X124430663Y-104340187D01*
X124281342Y-104432289D01*
X124157288Y-104556343D01*
X124157283Y-104556349D01*
X124155241Y-104559661D01*
X124153247Y-104561453D01*
X124152807Y-104562011D01*
X124152711Y-104561935D01*
X124103291Y-104606383D01*
X124034328Y-104617602D01*
X123970247Y-104589755D01*
X123944168Y-104559656D01*
X123942319Y-104556659D01*
X123942316Y-104556655D01*
X123818345Y-104432684D01*
X123669124Y-104340643D01*
X123669119Y-104340641D01*
X123502697Y-104285494D01*
X123502690Y-104285493D01*
X123399986Y-104275000D01*
X123350000Y-104275000D01*
X123350000Y-106724999D01*
X123399972Y-106724999D01*
X123399986Y-106724998D01*
X123502697Y-106714505D01*
X123669119Y-106659358D01*
X123669124Y-106659356D01*
X123818345Y-106567315D01*
X123942318Y-106443342D01*
X123944165Y-106440348D01*
X123945969Y-106438724D01*
X123946798Y-106437677D01*
X123946976Y-106437818D01*
X123996110Y-106393621D01*
X124065073Y-106382396D01*
X124129156Y-106410236D01*
X124155243Y-106440341D01*
X124157288Y-106443656D01*
X124157289Y-106443657D01*
X124186864Y-106473232D01*
X124220349Y-106534555D01*
X124216226Y-106601863D01*
X124214631Y-106606419D01*
X124214631Y-106606422D01*
X124204837Y-106693344D01*
X124177770Y-106757758D01*
X124169298Y-106767141D01*
X123323886Y-107612553D01*
X123262563Y-107646038D01*
X123192871Y-107641054D01*
X123139654Y-107602678D01*
X123099030Y-107552267D01*
X123035547Y-107488784D01*
X122642418Y-107095657D01*
X122636957Y-107091256D01*
X122633178Y-107088210D01*
X122593331Y-107030816D01*
X122586987Y-106991661D01*
X122586987Y-106840549D01*
X122606672Y-106773510D01*
X122659476Y-106727755D01*
X122723591Y-106717191D01*
X122800020Y-106724999D01*
X122849999Y-106724998D01*
X122850000Y-106724998D01*
X122850000Y-104275000D01*
X122849999Y-104274999D01*
X122800029Y-104275000D01*
X122800007Y-104275002D01*
X122723587Y-104282808D01*
X122654895Y-104270038D01*
X122604011Y-104222157D01*
X122586987Y-104159450D01*
X122586987Y-99130547D01*
X122586988Y-99130534D01*
X122586988Y-98962431D01*
X122586988Y-98962430D01*
X122546064Y-98809703D01*
X122481742Y-98698293D01*
X122467011Y-98672777D01*
X122467005Y-98672769D01*
X120231416Y-96437180D01*
X120197931Y-96375857D01*
X120202915Y-96306165D01*
X120244787Y-96250232D01*
X120310251Y-96225815D01*
X120319097Y-96225499D01*
X120350002Y-96225499D01*
X120350008Y-96225499D01*
X120452797Y-96214999D01*
X120619334Y-96159814D01*
X120768656Y-96067712D01*
X120892712Y-95943656D01*
X120894752Y-95940347D01*
X120896745Y-95938555D01*
X120897193Y-95937989D01*
X120897289Y-95938065D01*
X120946694Y-95893623D01*
X121015656Y-95882395D01*
X121079740Y-95910234D01*
X121105829Y-95940339D01*
X121107681Y-95943341D01*
X121107683Y-95943344D01*
X121231654Y-96067315D01*
X121380875Y-96159356D01*
X121380880Y-96159358D01*
X121547302Y-96214505D01*
X121547309Y-96214506D01*
X121650019Y-96224999D01*
X121699999Y-96224998D01*
X121700000Y-96224998D01*
X121700000Y-95250000D01*
X122200000Y-95250000D01*
X122200000Y-96224999D01*
X122249972Y-96224999D01*
X122249986Y-96224998D01*
X122352697Y-96214505D01*
X122519119Y-96159358D01*
X122519124Y-96159356D01*
X122668345Y-96067315D01*
X122792315Y-95943345D01*
X122884356Y-95794124D01*
X122884358Y-95794119D01*
X122939505Y-95627697D01*
X122939506Y-95627690D01*
X122949999Y-95524986D01*
X122950000Y-95524973D01*
X122950000Y-95250000D01*
X122200000Y-95250000D01*
X121700000Y-95250000D01*
X121700000Y-94874000D01*
X121719685Y-94806961D01*
X121772489Y-94761206D01*
X121824000Y-94750000D01*
X122949999Y-94750000D01*
X122949999Y-94475028D01*
X122949998Y-94475013D01*
X122939505Y-94372302D01*
X122884358Y-94205880D01*
X122884356Y-94205875D01*
X122792315Y-94056654D01*
X122668345Y-93932684D01*
X122519124Y-93840643D01*
X122519119Y-93840641D01*
X122364042Y-93789254D01*
X122306597Y-93749481D01*
X122279774Y-93684966D01*
X122292089Y-93616190D01*
X122315359Y-93583874D01*
X123958506Y-91940728D01*
X123958511Y-91940724D01*
X123968714Y-91930520D01*
X123968716Y-91930520D01*
X124080520Y-91818716D01*
X124137083Y-91720745D01*
X124159577Y-91681785D01*
X124200500Y-91529057D01*
X124200500Y-91370943D01*
X124200500Y-83709797D01*
X124220185Y-83642758D01*
X124259403Y-83604258D01*
X124318656Y-83567712D01*
X124442712Y-83443656D01*
X124444752Y-83440347D01*
X124446745Y-83438555D01*
X124447193Y-83437989D01*
X124447289Y-83438065D01*
X124496694Y-83393623D01*
X124565656Y-83382395D01*
X124629740Y-83410234D01*
X124655829Y-83440339D01*
X124657681Y-83443341D01*
X124657683Y-83443344D01*
X124781654Y-83567315D01*
X124930875Y-83659356D01*
X124930880Y-83659358D01*
X125097302Y-83714505D01*
X125097309Y-83714506D01*
X125200019Y-83724999D01*
X125249999Y-83724998D01*
X125250000Y-83724998D01*
X125250000Y-82750000D01*
X125750000Y-82750000D01*
X125750000Y-83724999D01*
X125799972Y-83724999D01*
X125799986Y-83724998D01*
X125902697Y-83714505D01*
X126069119Y-83659358D01*
X126069124Y-83659356D01*
X126218345Y-83567315D01*
X126342315Y-83443345D01*
X126434356Y-83294124D01*
X126434358Y-83294119D01*
X126489505Y-83127697D01*
X126489506Y-83127690D01*
X126499999Y-83024986D01*
X126500000Y-83024973D01*
X126500000Y-82750000D01*
X125750000Y-82750000D01*
X125250000Y-82750000D01*
X125250000Y-82374000D01*
X125269685Y-82306961D01*
X125322489Y-82261206D01*
X125374000Y-82250000D01*
X126499999Y-82250000D01*
X126499999Y-81975028D01*
X126499998Y-81975013D01*
X126489505Y-81872302D01*
X126434358Y-81705880D01*
X126434356Y-81705875D01*
X126342315Y-81556654D01*
X126218345Y-81432684D01*
X126069124Y-81340643D01*
X126069119Y-81340641D01*
X125914043Y-81289254D01*
X125856598Y-81249481D01*
X125829775Y-81184965D01*
X125842090Y-81116190D01*
X125865361Y-81083872D01*
X126537416Y-80411819D01*
X126598739Y-80378334D01*
X126625097Y-80375500D01*
X129117588Y-80375500D01*
X129184627Y-80395185D01*
G37*
%TD.AperFunction*%
%TA.AperFunction,Conductor*%
G36*
X137586181Y-103620185D02*
G01*
X137606823Y-103636819D01*
X138181280Y-104211277D01*
X138214765Y-104272600D01*
X138209781Y-104342292D01*
X138181286Y-104386634D01*
X138170185Y-104397735D01*
X138074210Y-104550478D01*
X138014629Y-104720753D01*
X138013080Y-104727541D01*
X138010233Y-104726891D01*
X137988168Y-104779274D01*
X137930538Y-104818778D01*
X137908268Y-104823831D01*
X137880745Y-104827454D01*
X137880734Y-104827457D01*
X137859950Y-104836066D01*
X137790481Y-104843533D01*
X137765050Y-104836066D01*
X137744265Y-104827457D01*
X137744260Y-104827455D01*
X137626861Y-104812000D01*
X137348136Y-104812000D01*
X137230746Y-104827453D01*
X137230734Y-104827457D01*
X137209950Y-104836066D01*
X137140481Y-104843533D01*
X137115050Y-104836066D01*
X137094265Y-104827457D01*
X137094260Y-104827455D01*
X136976861Y-104812000D01*
X136698136Y-104812000D01*
X136580746Y-104827453D01*
X136580734Y-104827457D01*
X136559950Y-104836066D01*
X136490481Y-104843533D01*
X136465050Y-104836066D01*
X136444265Y-104827457D01*
X136444260Y-104827455D01*
X136326870Y-104812001D01*
X136326867Y-104812000D01*
X136326861Y-104812000D01*
X136326854Y-104812000D01*
X136247500Y-104812000D01*
X136180461Y-104792315D01*
X136134706Y-104739511D01*
X136127725Y-104720094D01*
X136123859Y-104705666D01*
X136097077Y-104605715D01*
X136065186Y-104550478D01*
X136018020Y-104468784D01*
X135906216Y-104356980D01*
X135906215Y-104356979D01*
X135901885Y-104352649D01*
X135901874Y-104352639D01*
X135361416Y-103812181D01*
X135327931Y-103750858D01*
X135332915Y-103681166D01*
X135374787Y-103625233D01*
X135440251Y-103600816D01*
X135449097Y-103600500D01*
X137519142Y-103600500D01*
X137586181Y-103620185D01*
G37*
%TD.AperFunction*%
%TA.AperFunction,Conductor*%
G36*
X131982673Y-84580597D02*
G01*
X132027020Y-84609098D01*
X132038118Y-84620196D01*
X132190858Y-84716169D01*
X132361125Y-84775748D01*
X132448049Y-84785541D01*
X132512460Y-84812606D01*
X132521845Y-84821080D01*
X132713083Y-85012318D01*
X132746568Y-85073641D01*
X132741584Y-85143333D01*
X132713083Y-85187680D01*
X131919481Y-85981281D01*
X131919479Y-85981284D01*
X131898077Y-86018354D01*
X131877174Y-86054561D01*
X131869361Y-86068093D01*
X131869359Y-86068095D01*
X131840425Y-86118208D01*
X131840424Y-86118209D01*
X131839691Y-86120945D01*
X131799499Y-86270942D01*
X131799499Y-86270944D01*
X131799499Y-86439045D01*
X131799500Y-86439058D01*
X131799500Y-91313330D01*
X131799499Y-91313348D01*
X131799499Y-91479054D01*
X131799498Y-91479054D01*
X131799499Y-91479057D01*
X131840423Y-91631785D01*
X131846250Y-91641879D01*
X131848776Y-91646253D01*
X131865246Y-91714153D01*
X131850000Y-91758201D01*
X131850000Y-94224999D01*
X131899972Y-94224999D01*
X131899986Y-94224998D01*
X132002697Y-94214505D01*
X132169119Y-94159358D01*
X132169124Y-94159356D01*
X132318345Y-94067315D01*
X132442318Y-93943342D01*
X132444165Y-93940348D01*
X132445969Y-93938724D01*
X132446798Y-93937677D01*
X132446976Y-93937818D01*
X132496110Y-93893621D01*
X132565073Y-93882396D01*
X132629156Y-93910236D01*
X132655243Y-93940341D01*
X132657288Y-93943656D01*
X132781344Y-94067712D01*
X132840596Y-94104258D01*
X132887321Y-94156204D01*
X132899500Y-94209797D01*
X132899500Y-94790201D01*
X132879815Y-94857240D01*
X132840598Y-94895739D01*
X132781344Y-94932287D01*
X132657288Y-95056343D01*
X132657283Y-95056349D01*
X132655241Y-95059661D01*
X132653247Y-95061453D01*
X132652807Y-95062011D01*
X132652711Y-95061935D01*
X132603291Y-95106383D01*
X132534328Y-95117602D01*
X132470247Y-95089755D01*
X132444168Y-95059656D01*
X132442319Y-95056659D01*
X132442316Y-95056655D01*
X132318345Y-94932684D01*
X132169124Y-94840643D01*
X132169119Y-94840641D01*
X132002697Y-94785494D01*
X132002690Y-94785493D01*
X131899986Y-94775000D01*
X131850000Y-94775000D01*
X131850000Y-97224999D01*
X131899972Y-97224999D01*
X131899986Y-97224998D01*
X132002697Y-97214505D01*
X132169119Y-97159358D01*
X132169124Y-97159356D01*
X132318345Y-97067315D01*
X132442318Y-96943342D01*
X132444165Y-96940348D01*
X132445969Y-96938724D01*
X132446798Y-96937677D01*
X132446976Y-96937818D01*
X132496110Y-96893621D01*
X132565073Y-96882396D01*
X132629156Y-96910236D01*
X132655243Y-96940341D01*
X132657288Y-96943656D01*
X132781344Y-97067712D01*
X132840596Y-97104258D01*
X132887321Y-97156204D01*
X132899500Y-97209797D01*
X132899500Y-97689615D01*
X132882884Y-97751620D01*
X132882017Y-97753120D01*
X132826675Y-97848976D01*
X132785751Y-98001704D01*
X132785751Y-98001706D01*
X132785751Y-98169807D01*
X132785752Y-98169820D01*
X132785752Y-98532569D01*
X132785751Y-98532587D01*
X132785751Y-98698293D01*
X132785750Y-98698293D01*
X132826675Y-98851024D01*
X132838767Y-98871967D01*
X132838768Y-98871969D01*
X132882887Y-98948385D01*
X132899500Y-99010385D01*
X132899500Y-101417587D01*
X132879815Y-101484626D01*
X132872450Y-101494896D01*
X132870186Y-101497734D01*
X132774211Y-101650476D01*
X132714631Y-101820745D01*
X132714630Y-101820750D01*
X132694435Y-101999996D01*
X132694435Y-102000003D01*
X132698591Y-102036891D01*
X132686536Y-102105713D01*
X132639187Y-102157092D01*
X132571577Y-102174716D01*
X132505171Y-102152989D01*
X132487690Y-102138455D01*
X130636819Y-100287584D01*
X130603334Y-100226261D01*
X130600500Y-100199903D01*
X130600500Y-97085523D01*
X130620185Y-97018484D01*
X130672989Y-96972729D01*
X130742147Y-96962785D01*
X130805703Y-96991810D01*
X130812181Y-96997842D01*
X130881654Y-97067315D01*
X131030875Y-97159356D01*
X131030880Y-97159358D01*
X131197302Y-97214505D01*
X131197309Y-97214506D01*
X131300019Y-97224999D01*
X131349999Y-97224998D01*
X131350000Y-97224998D01*
X131350000Y-94775000D01*
X131349999Y-94774999D01*
X131300029Y-94775000D01*
X131300011Y-94775001D01*
X131197302Y-94785494D01*
X131030880Y-94840641D01*
X131030875Y-94840643D01*
X130881654Y-94932684D01*
X130812181Y-95002158D01*
X130750858Y-95035643D01*
X130681166Y-95030659D01*
X130625233Y-94988787D01*
X130600816Y-94923323D01*
X130600500Y-94914477D01*
X130600500Y-94085523D01*
X130620185Y-94018484D01*
X130672989Y-93972729D01*
X130742147Y-93962785D01*
X130805703Y-93991810D01*
X130812181Y-93997842D01*
X130881654Y-94067315D01*
X131030875Y-94159356D01*
X131030880Y-94159358D01*
X131197302Y-94214505D01*
X131197309Y-94214506D01*
X131300019Y-94224999D01*
X131349999Y-94224998D01*
X131350000Y-94224998D01*
X131350000Y-91775000D01*
X131349999Y-91774999D01*
X131300029Y-91775000D01*
X131300011Y-91775001D01*
X131197302Y-91785494D01*
X131030880Y-91840641D01*
X131030875Y-91840643D01*
X130881654Y-91932684D01*
X130812181Y-92002158D01*
X130750858Y-92035643D01*
X130681166Y-92030659D01*
X130625233Y-91988787D01*
X130600816Y-91923323D01*
X130600500Y-91914477D01*
X130600500Y-90085523D01*
X130620185Y-90018484D01*
X130672989Y-89972729D01*
X130742147Y-89962785D01*
X130805703Y-89991810D01*
X130812181Y-89997842D01*
X130881654Y-90067315D01*
X131030875Y-90159356D01*
X131030880Y-90159358D01*
X131197302Y-90214505D01*
X131197309Y-90214506D01*
X131300019Y-90224999D01*
X131349999Y-90224998D01*
X131350000Y-90224998D01*
X131350000Y-87775000D01*
X131349999Y-87774999D01*
X131300029Y-87775000D01*
X131300011Y-87775001D01*
X131197302Y-87785494D01*
X131030880Y-87840641D01*
X131030875Y-87840643D01*
X130881654Y-87932684D01*
X130812181Y-88002158D01*
X130750858Y-88035643D01*
X130681166Y-88030659D01*
X130625233Y-87988787D01*
X130600816Y-87923323D01*
X130600500Y-87914477D01*
X130600500Y-85911618D01*
X130620185Y-85844579D01*
X130636819Y-85823937D01*
X131851658Y-84609098D01*
X131912981Y-84575613D01*
X131982673Y-84580597D01*
G37*
%TD.AperFunction*%
%TA.AperFunction,Conductor*%
G36*
X137573015Y-96566590D02*
G01*
X137573017Y-96566591D01*
X137576245Y-96566938D01*
X137640797Y-96593669D01*
X137680651Y-96651058D01*
X137687000Y-96690228D01*
X137687000Y-98963000D01*
X137667315Y-99030039D01*
X137614511Y-99075794D01*
X137563001Y-99087000D01*
X137348136Y-99087000D01*
X137230741Y-99102454D01*
X137230739Y-99102455D01*
X137209296Y-99111337D01*
X137139827Y-99118804D01*
X137114395Y-99111337D01*
X137094131Y-99102944D01*
X137037500Y-99095487D01*
X137037500Y-99137999D01*
X137017815Y-99205038D01*
X136989028Y-99236343D01*
X136987528Y-99237495D01*
X136922370Y-99262717D01*
X136853919Y-99248707D01*
X136803908Y-99199915D01*
X136788000Y-99139151D01*
X136788000Y-97621934D01*
X136807685Y-97554895D01*
X136860489Y-97509140D01*
X136871039Y-97504895D01*
X136884877Y-97500053D01*
X137037617Y-97404080D01*
X137165171Y-97276526D01*
X137261144Y-97123786D01*
X137320723Y-96953519D01*
X137321834Y-96943657D01*
X137340920Y-96774267D01*
X137340920Y-96774261D01*
X137333779Y-96710883D01*
X137345833Y-96642061D01*
X137393182Y-96590681D01*
X137456999Y-96572999D01*
X137482371Y-96572999D01*
X137482372Y-96572999D01*
X137541983Y-96566591D01*
X137541986Y-96566589D01*
X137544243Y-96566347D01*
X137570741Y-96566346D01*
X137573015Y-96566590D01*
G37*
%TD.AperFunction*%
%TA.AperFunction,Conductor*%
G36*
X139618705Y-97833043D02*
G01*
X139674638Y-97874915D01*
X139699055Y-97940379D01*
X139698591Y-97963108D01*
X139694435Y-97999995D01*
X139694435Y-98000003D01*
X139714630Y-98179249D01*
X139714631Y-98179254D01*
X139774211Y-98349523D01*
X139870185Y-98502263D01*
X139872445Y-98505097D01*
X139873334Y-98507275D01*
X139873889Y-98508158D01*
X139873734Y-98508255D01*
X139898855Y-98569783D01*
X139899500Y-98582412D01*
X139899500Y-98991119D01*
X139879815Y-99058158D01*
X139827011Y-99103913D01*
X139822954Y-99105679D01*
X139809954Y-99111064D01*
X139740485Y-99118534D01*
X139715050Y-99111066D01*
X139694265Y-99102457D01*
X139694260Y-99102455D01*
X139576870Y-99087001D01*
X139576867Y-99087000D01*
X139576861Y-99087000D01*
X139576854Y-99087000D01*
X139512000Y-99087000D01*
X139444961Y-99067315D01*
X139399206Y-99014511D01*
X139388000Y-98963000D01*
X139388000Y-98012596D01*
X139407685Y-97945557D01*
X139424315Y-97924919D01*
X139487691Y-97861542D01*
X139549013Y-97828059D01*
X139618705Y-97833043D01*
G37*
%TD.AperFunction*%
%TA.AperFunction,Conductor*%
G36*
X153250209Y-80701538D02*
G01*
X153294554Y-80730037D01*
X153511046Y-80946529D01*
X153516506Y-80950929D01*
X153520281Y-80953971D01*
X153560131Y-81011363D01*
X153566477Y-81050524D01*
X153566477Y-86180307D01*
X153566476Y-86180325D01*
X153566476Y-86346031D01*
X153566475Y-86346031D01*
X153607400Y-86498762D01*
X153636335Y-86548877D01*
X153636336Y-86548881D01*
X153636337Y-86548881D01*
X153666629Y-86601350D01*
X153686456Y-86635691D01*
X153686458Y-86635694D01*
X153805326Y-86754562D01*
X153805332Y-86754567D01*
X157488181Y-90437416D01*
X157521666Y-90498739D01*
X157524500Y-90525097D01*
X157524500Y-92553330D01*
X157524499Y-92553348D01*
X157524499Y-92719054D01*
X157524498Y-92719054D01*
X157560920Y-92854983D01*
X157565423Y-92871785D01*
X157581713Y-92900000D01*
X157581714Y-92900002D01*
X157581715Y-92900002D01*
X157624770Y-92974577D01*
X157644479Y-93008714D01*
X157644481Y-93008717D01*
X157888181Y-93252417D01*
X157921666Y-93313740D01*
X157923916Y-93334585D01*
X157924117Y-93334575D01*
X157924146Y-93334572D01*
X157924146Y-93334573D01*
X157924324Y-93334564D01*
X157924501Y-93337879D01*
X157926046Y-93352248D01*
X157913639Y-93421007D01*
X157866027Y-93472143D01*
X157802756Y-93489500D01*
X152890098Y-93489500D01*
X152823059Y-93469815D01*
X152802417Y-93453181D01*
X152536818Y-93187582D01*
X152503333Y-93126259D01*
X152500499Y-93099901D01*
X152500499Y-92474998D01*
X152500498Y-92474981D01*
X152489999Y-92372203D01*
X152489998Y-92372200D01*
X152486771Y-92362463D01*
X152434814Y-92205666D01*
X152342712Y-92056344D01*
X152218656Y-91932288D01*
X152069334Y-91840186D01*
X151902797Y-91785001D01*
X151902795Y-91785000D01*
X151800010Y-91774500D01*
X151199998Y-91774500D01*
X151199980Y-91774501D01*
X151097203Y-91785000D01*
X151097200Y-91785001D01*
X150930668Y-91840185D01*
X150930663Y-91840187D01*
X150781342Y-91932289D01*
X150657288Y-92056343D01*
X150657283Y-92056349D01*
X150655241Y-92059661D01*
X150653247Y-92061453D01*
X150652807Y-92062011D01*
X150652711Y-92061935D01*
X150603291Y-92106383D01*
X150534328Y-92117602D01*
X150470247Y-92089755D01*
X150444168Y-92059656D01*
X150442319Y-92056659D01*
X150442316Y-92056655D01*
X150318345Y-91932684D01*
X150169124Y-91840643D01*
X150169119Y-91840641D01*
X150002697Y-91785494D01*
X150002690Y-91785493D01*
X149899986Y-91775000D01*
X149850000Y-91775000D01*
X149850000Y-93126000D01*
X149830315Y-93193039D01*
X149777511Y-93238794D01*
X149726000Y-93250000D01*
X148600001Y-93250000D01*
X148600001Y-93524986D01*
X148610494Y-93627697D01*
X148629978Y-93686496D01*
X148632380Y-93756325D01*
X148596648Y-93816366D01*
X148534127Y-93847559D01*
X148512272Y-93849500D01*
X148250097Y-93849500D01*
X148183058Y-93829815D01*
X148162416Y-93813181D01*
X147936818Y-93587583D01*
X147903333Y-93526260D01*
X147900499Y-93499902D01*
X147900499Y-93202129D01*
X147900498Y-93202123D01*
X147900421Y-93201409D01*
X147894091Y-93142517D01*
X147885070Y-93118333D01*
X147880085Y-93048644D01*
X147885066Y-93031677D01*
X147894091Y-93007483D01*
X147900500Y-92947873D01*
X147900500Y-92750000D01*
X148600000Y-92750000D01*
X149350000Y-92750000D01*
X149350000Y-91775000D01*
X149349999Y-91774999D01*
X149300029Y-91775000D01*
X149300011Y-91775001D01*
X149197302Y-91785494D01*
X149030880Y-91840641D01*
X149030875Y-91840643D01*
X148881654Y-91932684D01*
X148757684Y-92056654D01*
X148665643Y-92205875D01*
X148665641Y-92205880D01*
X148610494Y-92372302D01*
X148610493Y-92372309D01*
X148600000Y-92475013D01*
X148600000Y-92750000D01*
X147900500Y-92750000D01*
X147900499Y-92452128D01*
X147894091Y-92392517D01*
X147886513Y-92372200D01*
X147875747Y-92343334D01*
X147870762Y-92273643D01*
X147875747Y-92256665D01*
X147894089Y-92207488D01*
X147894088Y-92207488D01*
X147894091Y-92207483D01*
X147900500Y-92147873D01*
X147900499Y-91652128D01*
X147894091Y-91592517D01*
X147885070Y-91568333D01*
X147880085Y-91498644D01*
X147885066Y-91481677D01*
X147894091Y-91457483D01*
X147900500Y-91397873D01*
X147900499Y-90802128D01*
X147894091Y-90742517D01*
X147864020Y-90661893D01*
X147843797Y-90607671D01*
X147843793Y-90607664D01*
X147757547Y-90492455D01*
X147650188Y-90412085D01*
X147608318Y-90356151D01*
X147600500Y-90312819D01*
X147600500Y-84039833D01*
X147620185Y-83972794D01*
X147636820Y-83952151D01*
X147693180Y-83895792D01*
X147754503Y-83862308D01*
X147780860Y-83859474D01*
X149654357Y-83859474D01*
X149654373Y-83859475D01*
X149661969Y-83859475D01*
X149820080Y-83859475D01*
X149820083Y-83859475D01*
X149972811Y-83818551D01*
X150041216Y-83779057D01*
X150109742Y-83739494D01*
X150221546Y-83627690D01*
X150221546Y-83627688D01*
X150231750Y-83617485D01*
X150231754Y-83617480D01*
X151089138Y-82760095D01*
X151150459Y-82726612D01*
X151189421Y-82724420D01*
X151199991Y-82725500D01*
X151800008Y-82725499D01*
X151800016Y-82725498D01*
X151800019Y-82725498D01*
X151856302Y-82719748D01*
X151902797Y-82714999D01*
X152069334Y-82659814D01*
X152218656Y-82567712D01*
X152342712Y-82443656D01*
X152434814Y-82294334D01*
X152489999Y-82127797D01*
X152500500Y-82025009D01*
X152500499Y-81400095D01*
X152520183Y-81333057D01*
X152536813Y-81312420D01*
X153119196Y-80730037D01*
X153180517Y-80696554D01*
X153250209Y-80701538D01*
G37*
%TD.AperFunction*%
%TA.AperFunction,Conductor*%
G36*
X135099334Y-92352414D02*
G01*
X135155267Y-92394286D01*
X135179684Y-92459750D01*
X135180000Y-92468596D01*
X135180000Y-92632637D01*
X135160315Y-92699676D01*
X135107511Y-92745431D01*
X135099336Y-92748818D01*
X135090413Y-92752146D01*
X134975309Y-92838313D01*
X134889149Y-92953406D01*
X134889145Y-92953413D01*
X134838903Y-93088120D01*
X134838901Y-93088127D01*
X134832500Y-93147655D01*
X134832500Y-93215126D01*
X134812815Y-93282165D01*
X134770502Y-93322512D01*
X134736787Y-93341978D01*
X134736784Y-93341980D01*
X134712179Y-93366585D01*
X134650855Y-93400069D01*
X134581164Y-93395083D01*
X134525231Y-93353211D01*
X134500815Y-93287746D01*
X134500499Y-93278919D01*
X134500499Y-92900095D01*
X134520184Y-92833057D01*
X134536813Y-92812420D01*
X134968319Y-92380915D01*
X135029642Y-92347430D01*
X135099334Y-92352414D01*
G37*
%TD.AperFunction*%
%TA.AperFunction,Conductor*%
G36*
X138478563Y-90420184D02*
G01*
X138518910Y-90462498D01*
X138555052Y-90525097D01*
X138569479Y-90550086D01*
X138569481Y-90550089D01*
X138688349Y-90668957D01*
X138688355Y-90668962D01*
X139379711Y-91360319D01*
X139413196Y-91421642D01*
X139408212Y-91491334D01*
X139366340Y-91547267D01*
X139300876Y-91571684D01*
X139292031Y-91572000D01*
X139132630Y-91572000D01*
X139132620Y-91572001D01*
X139070748Y-91578652D01*
X139044242Y-91578652D01*
X139041983Y-91578409D01*
X138982373Y-91572000D01*
X138982365Y-91572000D01*
X138632630Y-91572000D01*
X138632620Y-91572001D01*
X138570748Y-91578652D01*
X138544242Y-91578652D01*
X138541983Y-91578409D01*
X138482373Y-91572000D01*
X138482365Y-91572000D01*
X138132630Y-91572000D01*
X138132622Y-91572001D01*
X138068407Y-91578904D01*
X138041901Y-91578904D01*
X138018747Y-91576415D01*
X137954195Y-91549678D01*
X137914346Y-91492286D01*
X137908000Y-91453125D01*
X137908000Y-90524499D01*
X137927685Y-90457460D01*
X137980489Y-90411705D01*
X138032000Y-90400499D01*
X138411524Y-90400499D01*
X138478563Y-90420184D01*
G37*
%TD.AperFunction*%
%TA.AperFunction,Conductor*%
G36*
X145266942Y-76120185D02*
G01*
X145287584Y-76136819D01*
X149234632Y-80083867D01*
X149268117Y-80145190D01*
X149263133Y-80214882D01*
X149221261Y-80270815D01*
X149185956Y-80289254D01*
X149030878Y-80340642D01*
X149030875Y-80340643D01*
X148881654Y-80432684D01*
X148757684Y-80556654D01*
X148665643Y-80705875D01*
X148665641Y-80705880D01*
X148610494Y-80872302D01*
X148610493Y-80872309D01*
X148600000Y-80975013D01*
X148600000Y-81250000D01*
X149726000Y-81250000D01*
X149793039Y-81269685D01*
X149838794Y-81322489D01*
X149850000Y-81374000D01*
X149850000Y-81626000D01*
X149830315Y-81693039D01*
X149777511Y-81738794D01*
X149726000Y-81750000D01*
X148600001Y-81750000D01*
X148600001Y-82024986D01*
X148610494Y-82127697D01*
X148665641Y-82294119D01*
X148665643Y-82294124D01*
X148757684Y-82443345D01*
X148761132Y-82446793D01*
X148794617Y-82508116D01*
X148789633Y-82577808D01*
X148747761Y-82633741D01*
X148682297Y-82658158D01*
X148673451Y-82658474D01*
X147567431Y-82658474D01*
X147567415Y-82658473D01*
X147559819Y-82658473D01*
X147401704Y-82658473D01*
X147325340Y-82678935D01*
X147248975Y-82699397D01*
X147248970Y-82699400D01*
X147112051Y-82778449D01*
X147112043Y-82778455D01*
X146624217Y-83266281D01*
X146624214Y-83266283D01*
X146624215Y-83266284D01*
X146519480Y-83371019D01*
X146473247Y-83451097D01*
X146473246Y-83451097D01*
X146440424Y-83507947D01*
X146440423Y-83507948D01*
X146424383Y-83567812D01*
X146399499Y-83660678D01*
X146399499Y-83660680D01*
X146399499Y-83828781D01*
X146399500Y-83828794D01*
X146399500Y-89825500D01*
X146379815Y-89892539D01*
X146327011Y-89938294D01*
X146275500Y-89949500D01*
X144004591Y-89949500D01*
X143937552Y-89929815D01*
X143891797Y-89877011D01*
X143881853Y-89807853D01*
X143886885Y-89786496D01*
X143939505Y-89627697D01*
X143939506Y-89627690D01*
X143949999Y-89524986D01*
X143950000Y-89524973D01*
X143950000Y-89250000D01*
X142824000Y-89250000D01*
X142756961Y-89230315D01*
X142711206Y-89177511D01*
X142700000Y-89126000D01*
X142700000Y-87775000D01*
X143200000Y-87775000D01*
X143200000Y-88750000D01*
X143949999Y-88750000D01*
X143949999Y-88475028D01*
X143949998Y-88475013D01*
X143939505Y-88372302D01*
X143884358Y-88205880D01*
X143884356Y-88205875D01*
X143792315Y-88056654D01*
X143668345Y-87932684D01*
X143519124Y-87840643D01*
X143519119Y-87840641D01*
X143352697Y-87785494D01*
X143352690Y-87785493D01*
X143249986Y-87775000D01*
X143200000Y-87775000D01*
X142700000Y-87775000D01*
X142699999Y-87774999D01*
X142650029Y-87775000D01*
X142650011Y-87775001D01*
X142547302Y-87785494D01*
X142380880Y-87840641D01*
X142380875Y-87840643D01*
X142231654Y-87932684D01*
X142102576Y-88061763D01*
X142101553Y-88060740D01*
X142051111Y-88096447D01*
X141981311Y-88099575D01*
X141944911Y-88084146D01*
X141891094Y-88050330D01*
X141869386Y-88033018D01*
X141768657Y-87932289D01*
X141768656Y-87932288D01*
X141619334Y-87840186D01*
X141452797Y-87785001D01*
X141452795Y-87785000D01*
X141350010Y-87774500D01*
X140749998Y-87774500D01*
X140749989Y-87774501D01*
X140737097Y-87775818D01*
X140668404Y-87763045D01*
X140617522Y-87715162D01*
X140600500Y-87652459D01*
X140600500Y-87564060D01*
X140600501Y-87564047D01*
X140600501Y-87395944D01*
X140598324Y-87387819D01*
X140559577Y-87243216D01*
X140559573Y-87243209D01*
X140480524Y-87106290D01*
X140480518Y-87106282D01*
X139661416Y-86287180D01*
X139627931Y-86225857D01*
X139632915Y-86156165D01*
X139674787Y-86100232D01*
X139740251Y-86075815D01*
X139749072Y-86075499D01*
X140347872Y-86075499D01*
X140407483Y-86069091D01*
X140456665Y-86050746D01*
X140526355Y-86045761D01*
X140543333Y-86050747D01*
X140592508Y-86069088D01*
X140592511Y-86069089D01*
X140592517Y-86069091D01*
X140652127Y-86075500D01*
X141347872Y-86075499D01*
X141407483Y-86069091D01*
X141457382Y-86050479D01*
X141527069Y-86045494D01*
X141544048Y-86050479D01*
X141592628Y-86068598D01*
X141592627Y-86068598D01*
X141652155Y-86074999D01*
X141652172Y-86075000D01*
X141750000Y-86075000D01*
X141750000Y-85823068D01*
X141757817Y-85779737D01*
X141794091Y-85682483D01*
X141800500Y-85622873D01*
X141800499Y-85000000D01*
X142250000Y-85000000D01*
X142250000Y-86075000D01*
X142347828Y-86075000D01*
X142347844Y-86074999D01*
X142407372Y-86068598D01*
X142407379Y-86068596D01*
X142542086Y-86018354D01*
X142542093Y-86018350D01*
X142657187Y-85932190D01*
X142657190Y-85932187D01*
X142743350Y-85817093D01*
X142743354Y-85817086D01*
X142793596Y-85682379D01*
X142793598Y-85682372D01*
X142799999Y-85622844D01*
X142800000Y-85622827D01*
X142800000Y-85000000D01*
X142250000Y-85000000D01*
X141800499Y-85000000D01*
X141800499Y-84623998D01*
X141820183Y-84556961D01*
X141872987Y-84511206D01*
X141924499Y-84500000D01*
X142800000Y-84500000D01*
X142800000Y-83877172D01*
X142799999Y-83877155D01*
X142793598Y-83817627D01*
X142793596Y-83817620D01*
X142743354Y-83682913D01*
X142743350Y-83682906D01*
X142657190Y-83567812D01*
X142657187Y-83567809D01*
X142542093Y-83481649D01*
X142542088Y-83481646D01*
X142468314Y-83454130D01*
X142412381Y-83412258D01*
X142387964Y-83346794D01*
X142402816Y-83278521D01*
X142423964Y-83250270D01*
X143080520Y-82593716D01*
X143159577Y-82456784D01*
X143200501Y-82304057D01*
X143200501Y-82145942D01*
X143200501Y-82138347D01*
X143200500Y-82138329D01*
X143200500Y-79089059D01*
X143200501Y-79089046D01*
X143200501Y-78920945D01*
X143200501Y-78920943D01*
X143159577Y-78768215D01*
X143099430Y-78664038D01*
X143080520Y-78631284D01*
X142968716Y-78519480D01*
X142968715Y-78519479D01*
X142964385Y-78515149D01*
X142964374Y-78515139D01*
X142630700Y-78181465D01*
X142597215Y-78120142D01*
X142595163Y-78107686D01*
X142585368Y-78020745D01*
X142525789Y-77850478D01*
X142429816Y-77697738D01*
X142302262Y-77570184D01*
X142269344Y-77549500D01*
X142149523Y-77474211D01*
X141979254Y-77414631D01*
X141979249Y-77414630D01*
X141800004Y-77394435D01*
X141799996Y-77394435D01*
X141620750Y-77414630D01*
X141620745Y-77414631D01*
X141450476Y-77474211D01*
X141297737Y-77570184D01*
X141170184Y-77697737D01*
X141074211Y-77850476D01*
X141014631Y-78020745D01*
X141014630Y-78020750D01*
X140994435Y-78199996D01*
X140994435Y-78200003D01*
X141014630Y-78379249D01*
X141014631Y-78379252D01*
X141074211Y-78549523D01*
X141125587Y-78631287D01*
X141170184Y-78702262D01*
X141297738Y-78829816D01*
X141450478Y-78925789D01*
X141620745Y-78985368D01*
X141707669Y-78995161D01*
X141772080Y-79022226D01*
X141781465Y-79030700D01*
X141963181Y-79212416D01*
X141996666Y-79273739D01*
X141999500Y-79300097D01*
X141999500Y-79450500D01*
X141979815Y-79517539D01*
X141927011Y-79563294D01*
X141875501Y-79574500D01*
X141652130Y-79574500D01*
X141652123Y-79574501D01*
X141592516Y-79580908D01*
X141543332Y-79599253D01*
X141473640Y-79604237D01*
X141456667Y-79599253D01*
X141407486Y-79580910D01*
X141407485Y-79580909D01*
X141407483Y-79580909D01*
X141347873Y-79574500D01*
X141347863Y-79574500D01*
X140652129Y-79574500D01*
X140652123Y-79574501D01*
X140592516Y-79580908D01*
X140543332Y-79599253D01*
X140473640Y-79604237D01*
X140456667Y-79599253D01*
X140407486Y-79580910D01*
X140407485Y-79580909D01*
X140407483Y-79580909D01*
X140347873Y-79574500D01*
X140347863Y-79574500D01*
X139652129Y-79574500D01*
X139652123Y-79574501D01*
X139592516Y-79580908D01*
X139543332Y-79599253D01*
X139473640Y-79604237D01*
X139456667Y-79599253D01*
X139407486Y-79580910D01*
X139407485Y-79580909D01*
X139407483Y-79580909D01*
X139347873Y-79574500D01*
X139347863Y-79574500D01*
X138652129Y-79574500D01*
X138652123Y-79574501D01*
X138592516Y-79580908D01*
X138543324Y-79599256D01*
X138473632Y-79604240D01*
X138456659Y-79599256D01*
X138407470Y-79580910D01*
X138407469Y-79580909D01*
X138407467Y-79580909D01*
X138347857Y-79574500D01*
X138347847Y-79574500D01*
X137652113Y-79574500D01*
X137652107Y-79574501D01*
X137592500Y-79580908D01*
X137543324Y-79599250D01*
X137473632Y-79604234D01*
X137456659Y-79599250D01*
X137407486Y-79580910D01*
X137407485Y-79580909D01*
X137407483Y-79580909D01*
X137347873Y-79574500D01*
X137347863Y-79574500D01*
X136652129Y-79574500D01*
X136652123Y-79574501D01*
X136592516Y-79580908D01*
X136543332Y-79599253D01*
X136473640Y-79604237D01*
X136456667Y-79599253D01*
X136407486Y-79580910D01*
X136407485Y-79580909D01*
X136407483Y-79580909D01*
X136347873Y-79574500D01*
X136347863Y-79574500D01*
X135652129Y-79574500D01*
X135652123Y-79574501D01*
X135584804Y-79581738D01*
X135584654Y-79580351D01*
X135523210Y-79577051D01*
X135466542Y-79536178D01*
X135440968Y-79471157D01*
X135454607Y-79402631D01*
X135476792Y-79372441D01*
X138089138Y-76760095D01*
X138150459Y-76726612D01*
X138189421Y-76724420D01*
X138199991Y-76725500D01*
X138800008Y-76725499D01*
X138800016Y-76725498D01*
X138800019Y-76725498D01*
X138856302Y-76719748D01*
X138902797Y-76714999D01*
X139069334Y-76659814D01*
X139218656Y-76567712D01*
X139342712Y-76443656D01*
X139434814Y-76294334D01*
X139470879Y-76185494D01*
X139510652Y-76128051D01*
X139575167Y-76101228D01*
X139588585Y-76100500D01*
X145199903Y-76100500D01*
X145266942Y-76120185D01*
G37*
%TD.AperFunction*%
%TA.AperFunction,Conductor*%
G36*
X135519334Y-75857412D02*
G01*
X135575267Y-75899284D01*
X135599684Y-75964748D01*
X135600000Y-75973592D01*
X135600000Y-76024970D01*
X135600001Y-76024987D01*
X135610494Y-76127697D01*
X135665641Y-76294119D01*
X135665643Y-76294124D01*
X135757684Y-76443345D01*
X135881654Y-76567315D01*
X136030875Y-76659356D01*
X136030882Y-76659359D01*
X136185953Y-76710744D01*
X136243399Y-76750516D01*
X136270222Y-76815032D01*
X136257907Y-76883808D01*
X136234631Y-76916131D01*
X134012584Y-79138181D01*
X133951261Y-79171666D01*
X133924903Y-79174500D01*
X130282412Y-79174500D01*
X130215373Y-79154815D01*
X130205097Y-79147445D01*
X130202263Y-79145185D01*
X130202262Y-79145184D01*
X130120878Y-79094047D01*
X130049523Y-79049211D01*
X129879254Y-78989631D01*
X129879249Y-78989630D01*
X129700004Y-78969435D01*
X129699996Y-78969435D01*
X129520750Y-78989630D01*
X129520745Y-78989631D01*
X129350476Y-79049211D01*
X129197736Y-79145185D01*
X129194903Y-79147445D01*
X129192724Y-79148334D01*
X129191842Y-79148889D01*
X129191744Y-79148734D01*
X129130217Y-79173855D01*
X129117588Y-79174500D01*
X126411669Y-79174500D01*
X126411653Y-79174499D01*
X126404057Y-79174499D01*
X126245943Y-79174499D01*
X126093215Y-79215423D01*
X126093214Y-79215423D01*
X126093212Y-79215424D01*
X126064702Y-79231885D01*
X126064701Y-79231886D01*
X126030607Y-79251570D01*
X125956285Y-79294479D01*
X125956282Y-79294481D01*
X124412181Y-80838583D01*
X124350858Y-80872068D01*
X124281166Y-80867084D01*
X124225233Y-80825212D01*
X124200816Y-80759748D01*
X124200500Y-80750902D01*
X124200500Y-79268616D01*
X124200501Y-79268603D01*
X124200501Y-79100502D01*
X124200501Y-79100499D01*
X124199580Y-79097062D01*
X124199651Y-79094047D01*
X124199440Y-79092440D01*
X124199690Y-79092407D01*
X124201238Y-79027216D01*
X124206555Y-79013460D01*
X124211134Y-79003435D01*
X124256891Y-78950635D01*
X124272402Y-78942165D01*
X124368707Y-78898184D01*
X124415389Y-78860566D01*
X124785046Y-78490906D01*
X124846367Y-78457423D01*
X124872726Y-78454589D01*
X132484242Y-78454589D01*
X132484258Y-78454590D01*
X132491854Y-78454590D01*
X132649965Y-78454590D01*
X132649968Y-78454590D01*
X132802696Y-78413666D01*
X132802698Y-78413664D01*
X132802700Y-78413664D01*
X132802701Y-78413663D01*
X132862297Y-78379255D01*
X132939627Y-78334609D01*
X133051431Y-78222805D01*
X133051431Y-78222803D01*
X133061635Y-78212600D01*
X133061639Y-78212595D01*
X135388323Y-75885910D01*
X135449642Y-75852428D01*
X135519334Y-75857412D01*
G37*
%TD.AperFunction*%
%TA.AperFunction,Conductor*%
G36*
X146938813Y-73350501D02*
G01*
X147556470Y-73625500D01*
X147579768Y-73635873D01*
X147584463Y-73638082D01*
X148424136Y-74054900D01*
X148428712Y-74057292D01*
X149250203Y-74508910D01*
X149254679Y-74511494D01*
X150056533Y-74997115D01*
X150060888Y-74999878D01*
X150841733Y-75518670D01*
X150845961Y-75521609D01*
X151585841Y-76059164D01*
X151604359Y-76072618D01*
X151608486Y-76075750D01*
X151977486Y-76368216D01*
X152000505Y-76386460D01*
X152040817Y-76443528D01*
X152043875Y-76513331D01*
X152008711Y-76573706D01*
X151946486Y-76605486D01*
X151941132Y-76606376D01*
X151921020Y-76609268D01*
X151921016Y-76609269D01*
X151862546Y-76635971D01*
X151793388Y-76645914D01*
X151745874Y-76628675D01*
X151742460Y-76626566D01*
X151611686Y-76566843D01*
X151611678Y-76566841D01*
X151469365Y-76546381D01*
X151327051Y-76566841D01*
X151327043Y-76566843D01*
X151196270Y-76626565D01*
X151196259Y-76626573D01*
X151149645Y-76664136D01*
X151149624Y-76664155D01*
X151144094Y-76669683D01*
X152099397Y-77624986D01*
X152132882Y-77686309D01*
X152127898Y-77756001D01*
X152099397Y-77800348D01*
X151921206Y-77978539D01*
X151859883Y-78012024D01*
X151790191Y-78007040D01*
X151745844Y-77978539D01*
X151674426Y-77907121D01*
X151633864Y-77907121D01*
X151566825Y-77887436D01*
X151546183Y-77870802D01*
X150744580Y-77069199D01*
X150693086Y-77120693D01*
X150693081Y-77120699D01*
X150655504Y-77167329D01*
X150655499Y-77167336D01*
X150595777Y-77298109D01*
X150595775Y-77298117D01*
X150575315Y-77440431D01*
X150595775Y-77582744D01*
X150595777Y-77582752D01*
X150655499Y-77713525D01*
X150655504Y-77713532D01*
X150695167Y-77762751D01*
X150693937Y-77763742D01*
X150721392Y-77821163D01*
X150721722Y-77858616D01*
X150717521Y-77887833D01*
X150688495Y-77951388D01*
X150629717Y-77989162D01*
X150559847Y-77989162D01*
X150507102Y-77957866D01*
X149636819Y-77087583D01*
X149603334Y-77026260D01*
X149600500Y-76999902D01*
X149600500Y-76689060D01*
X149600501Y-76689047D01*
X149600501Y-76520944D01*
X149598461Y-76513331D01*
X149559577Y-76368216D01*
X149516920Y-76294331D01*
X149480524Y-76231290D01*
X149480518Y-76231282D01*
X148148735Y-74899499D01*
X146800697Y-73551462D01*
X146767213Y-73490140D01*
X146772197Y-73420448D01*
X146814069Y-73364515D01*
X146879533Y-73340098D01*
X146938813Y-73350501D01*
G37*
%TD.AperFunction*%
%TA.AperFunction,Conductor*%
G36*
X139192516Y-73619090D02*
G01*
X139192517Y-73619091D01*
X139252127Y-73625500D01*
X139897872Y-73625499D01*
X139909664Y-73624231D01*
X139978423Y-73636634D01*
X140010603Y-73659838D01*
X140431284Y-74080520D01*
X140431286Y-74080521D01*
X140431290Y-74080524D01*
X140568209Y-74159573D01*
X140568216Y-74159577D01*
X140720943Y-74200501D01*
X140720945Y-74200501D01*
X140886654Y-74200501D01*
X140886670Y-74200500D01*
X145699903Y-74200500D01*
X145766942Y-74220185D01*
X145787584Y-74236819D01*
X148363181Y-76812416D01*
X148396666Y-76873739D01*
X148399500Y-76900097D01*
X148399500Y-77213330D01*
X148399499Y-77213348D01*
X148399499Y-77250902D01*
X148379814Y-77317941D01*
X148327010Y-77363696D01*
X148257852Y-77373640D01*
X148194296Y-77344615D01*
X148187818Y-77338583D01*
X145987590Y-75138355D01*
X145987588Y-75138352D01*
X145868717Y-75019481D01*
X145868716Y-75019480D01*
X145781904Y-74969360D01*
X145781904Y-74969359D01*
X145781900Y-74969358D01*
X145731785Y-74940423D01*
X145579057Y-74899499D01*
X145420943Y-74899499D01*
X145413347Y-74899499D01*
X145413331Y-74899500D01*
X139588585Y-74899500D01*
X139521546Y-74879815D01*
X139475791Y-74827011D01*
X139470879Y-74814504D01*
X139434814Y-74705666D01*
X139342712Y-74556344D01*
X139218656Y-74432288D01*
X139109402Y-74364900D01*
X139062679Y-74312953D01*
X139050500Y-74259362D01*
X139050500Y-73741868D01*
X139070185Y-73674829D01*
X139122989Y-73629074D01*
X139187756Y-73618579D01*
X139192516Y-73619090D01*
G37*
%TD.AperFunction*%
%TA.AperFunction,Conductor*%
G36*
X135430118Y-71665664D02*
G01*
X135482130Y-71712317D01*
X135500663Y-71779684D01*
X135479832Y-71846376D01*
X135450993Y-71876825D01*
X135342809Y-71957812D01*
X135256649Y-72072906D01*
X135256645Y-72072913D01*
X135206403Y-72207620D01*
X135206401Y-72207627D01*
X135200000Y-72267155D01*
X135200000Y-72340000D01*
X136326000Y-72340000D01*
X136393039Y-72359685D01*
X136438794Y-72412489D01*
X136450000Y-72464000D01*
X136450000Y-72716000D01*
X136430315Y-72783039D01*
X136377511Y-72828794D01*
X136326000Y-72840000D01*
X135200000Y-72840000D01*
X135200000Y-72912844D01*
X135206401Y-72972372D01*
X135206403Y-72972379D01*
X135256645Y-73107086D01*
X135256649Y-73107093D01*
X135342809Y-73222187D01*
X135342812Y-73222190D01*
X135457906Y-73308350D01*
X135457913Y-73308354D01*
X135592620Y-73358596D01*
X135592627Y-73358598D01*
X135655475Y-73365356D01*
X135655302Y-73366958D01*
X135715208Y-73388033D01*
X135742035Y-73414362D01*
X135792810Y-73482187D01*
X135850254Y-73525190D01*
X135892125Y-73581124D01*
X135897109Y-73650816D01*
X135863624Y-73712138D01*
X132358495Y-77217270D01*
X132297172Y-77250755D01*
X132270814Y-77253589D01*
X125049505Y-77253589D01*
X124982466Y-77233904D01*
X124961824Y-77217270D01*
X124556818Y-76812265D01*
X124556811Y-76812258D01*
X124510128Y-76774638D01*
X124510126Y-76774637D01*
X124510124Y-76774635D01*
X124379214Y-76714850D01*
X124379210Y-76714849D01*
X124236755Y-76694369D01*
X124094299Y-76714849D01*
X124094295Y-76714850D01*
X123956326Y-76777860D01*
X123955748Y-76776595D01*
X123896389Y-76792873D01*
X123847104Y-76781687D01*
X123838724Y-76777860D01*
X123811679Y-76765508D01*
X123758877Y-76719753D01*
X123739193Y-76652714D01*
X123758878Y-76585675D01*
X123786165Y-76555542D01*
X124391536Y-76075732D01*
X124395606Y-76072643D01*
X125154060Y-75521593D01*
X125158244Y-75518685D01*
X125939133Y-74999864D01*
X125943445Y-74997128D01*
X126745340Y-74511482D01*
X126749775Y-74508921D01*
X127482165Y-74106287D01*
X131649500Y-74106287D01*
X131682754Y-74316243D01*
X131746197Y-74511501D01*
X131748444Y-74518414D01*
X131844951Y-74707820D01*
X131969890Y-74879786D01*
X132120213Y-75030109D01*
X132292179Y-75155048D01*
X132292181Y-75155049D01*
X132292184Y-75155051D01*
X132481588Y-75251557D01*
X132683757Y-75317246D01*
X132893713Y-75350500D01*
X132893714Y-75350500D01*
X133106286Y-75350500D01*
X133106287Y-75350500D01*
X133316243Y-75317246D01*
X133518412Y-75251557D01*
X133707816Y-75155051D01*
X133740529Y-75131284D01*
X133879786Y-75030109D01*
X133879788Y-75030106D01*
X133879792Y-75030104D01*
X134030104Y-74879792D01*
X134030106Y-74879788D01*
X134030109Y-74879786D01*
X134155048Y-74707820D01*
X134155047Y-74707820D01*
X134155051Y-74707816D01*
X134251557Y-74518412D01*
X134317246Y-74316243D01*
X134350500Y-74106287D01*
X134350500Y-73893713D01*
X134317246Y-73683757D01*
X134251557Y-73481588D01*
X134155051Y-73292184D01*
X134155049Y-73292181D01*
X134155048Y-73292179D01*
X134030109Y-73120213D01*
X133879786Y-72969890D01*
X133707820Y-72844951D01*
X133518414Y-72748444D01*
X133518413Y-72748443D01*
X133518412Y-72748443D01*
X133316243Y-72682754D01*
X133316241Y-72682753D01*
X133316240Y-72682753D01*
X133154957Y-72657208D01*
X133106287Y-72649500D01*
X132893713Y-72649500D01*
X132845042Y-72657208D01*
X132683760Y-72682753D01*
X132481585Y-72748444D01*
X132292179Y-72844951D01*
X132120213Y-72969890D01*
X131969890Y-73120213D01*
X131844951Y-73292179D01*
X131748444Y-73481585D01*
X131682753Y-73683760D01*
X131663896Y-73802820D01*
X131649500Y-73893713D01*
X131649500Y-74106287D01*
X127482165Y-74106287D01*
X127571307Y-74057281D01*
X127575843Y-74054909D01*
X128415554Y-73638073D01*
X128420207Y-73635883D01*
X129276639Y-73254576D01*
X129281404Y-73252574D01*
X130152994Y-72907487D01*
X130157820Y-72905691D01*
X131043190Y-72597372D01*
X131048033Y-72595799D01*
X131945544Y-72324824D01*
X131950476Y-72323448D01*
X132858476Y-72090313D01*
X132863500Y-72089134D01*
X133780471Y-71894226D01*
X133785507Y-71893265D01*
X134709887Y-71736917D01*
X134714983Y-71736165D01*
X135361141Y-71654537D01*
X135430118Y-71665664D01*
G37*
%TD.AperFunction*%
%TA.AperFunction,Conductor*%
G36*
X141285009Y-71736165D02*
G01*
X141290119Y-71736919D01*
X142214484Y-71893263D01*
X142219537Y-71894228D01*
X143136488Y-72089132D01*
X143141534Y-72090316D01*
X144049511Y-72323445D01*
X144054467Y-72324828D01*
X144951952Y-72595795D01*
X144956823Y-72597377D01*
X145419209Y-72758397D01*
X145476045Y-72799034D01*
X145501890Y-72863948D01*
X145488536Y-72932530D01*
X145440224Y-72983005D01*
X145378429Y-72999500D01*
X141100098Y-72999500D01*
X141033059Y-72979815D01*
X141012417Y-72963181D01*
X140836818Y-72787582D01*
X140803333Y-72726259D01*
X140800499Y-72699901D01*
X140800499Y-72277129D01*
X140800498Y-72277123D01*
X140794091Y-72217516D01*
X140743797Y-72082671D01*
X140743793Y-72082664D01*
X140657547Y-71967455D01*
X140657544Y-71967452D01*
X140535231Y-71875888D01*
X140537134Y-71873345D01*
X140498787Y-71834985D01*
X140483946Y-71766710D01*
X140508375Y-71701250D01*
X140564315Y-71659388D01*
X140623168Y-71652555D01*
X141285009Y-71736165D01*
G37*
%TD.AperFunction*%
%TD*%
M02*
